<?xml version="1.0" encoding="utf-8"?>
<!-- Generator: Adobe Illustrator 16.0.0, SVG Export Plug-In . SVG Version: 6.00 Build 0)  -->
<!DOCTYPE svg PUBLIC "-//W3C//DTD SVG 1.1//EN" "http://www.w3.org/Graphics/SVG/1.1/DTD/svg11.dtd">
<svg version="1.1" xmlns="http://www.w3.org/2000/svg" xmlns:xlink="http://www.w3.org/1999/xlink" x="0px" y="0px" width="310px"
	 height="64px" viewBox="0 0 310 64" enable-background="new 0 0 310 64" xml:space="preserve">
<g id="Layer_2">
	<g>
		<path fill-rule="evenodd" clip-rule="evenodd" fill="#3785D0" d="M309,19l-3.1,1.9h-4.7l-10.3,11.8l-2.1,8.3h0.2l-3.2,12.8
			c-0.8,4.9-3.8,7.7-9.1,8.4h-26.4l0.3,0.2l-3.8-1.8H63.9c-0.1-0.1-0.2-0.2-0.3-0.3l-0.1,0.3h-0.1v-0.1l-3,1.8H37.3
			c-6.6,0.4-10.6-2.2-12-7.8l-5.9-21.7c-0.1,0-0.1,0-0.1,0h-0.1v-0.1L8.9,20.9H4.1L1,19L0.9,17L5,7.9h9.4l-1.6,5.6h25.8l0.2,0.1
			h232.8v-0.1H296l-2.5-5.6h9.7l6,9.2l0-0.1L309,19z M104.9,40.7v-0.1h0L104.9,40.7z"/>
	</g>
</g>
<g id="Layer_1">
	<g>
		<g>
			<path fill-rule="evenodd" clip-rule="evenodd" fill="#9CDAF1" d="M217.3,14.5h-0.5c-0.1-0.3-0.2-0.5-0.3-0.6
				c-0.2-0.3-0.5-0.6-0.9-0.9c-0.4-0.2-0.8-0.5-1.3-1c-1.4-1.2-2.5-2-3.1-2.5c-0.8-0.6-1.5-0.9-2-1c-0.3-0.1-0.5,0-0.8,0.2
				c-1,1.1-2.1,2.3-3.3,3.5l0,0l-2.8,2.3h-0.5l3-2.5h0c1.3-1.2,2.4-2.4,3.5-3.6c0.2-0.2,0.5-0.3,0.9-0.3c0.5,0.1,1.2,0.5,2.1,1.1
				c0.7,0.4,1.8,1.3,3.3,2.6c0.4,0.3,0.7,0.6,1,0.8c0.1,0.1,0.3,0.2,0.4,0.3c0.3,0.3,0.6,0.6,0.8,0.9c0-0.1,0-0.2,0-0.3
				c0-0.2,0.1-0.3,0.2-0.4c0.1-0.1,0.3-0.2,0.5-0.4c0.3-0.2,0.6-0.4,1-0.6c0.7-0.4,1.2-0.7,1.4-0.9c1.2-0.8,2.2-1.3,3-1.7
				c0.4-0.2,0.7-0.3,1-0.4c0.3-0.1,0.5-0.2,0.8-0.2c0.4,0,0.8,0,1.3,0.1c0.1,0,0.3,0.1,0.5,0.1c0.4,0.1,0.8,0.1,1.3,0.2
				c2,0.2,3.3,0.4,4.1,0.6c1,0.2,1.8,0.5,2.2,0.8c0.1,0,0.1,0.1,0.2,0.1c0-1.6-0.1-3.1-0.3-4.5c0-0.3,0.2-0.6,0.5-0.8
				c0.4-0.3,1.2-0.6,2.2-0.8c0.8-0.2,2.2-0.4,4.2-0.6c0.5-0.1,0.9-0.1,1.3-0.2c0.2,0,0.3-0.1,0.4-0.1c0.4-0.1,0.8-0.1,1.3,0
				c0.2,0,0.5,0,0.8,0.1c0.3,0.1,0.6,0.2,1,0.4c0.8,0.4,1.8,0.9,3,1.7c0.2,0.2,0.7,0.4,1.4,0.9c0.4,0.2,0.7,0.4,0.9,0.5
				c0.2,0.2,0.4,0.3,0.5,0.4c0,0,0,0,0.1,0.1l0.3-0.2h0c1.3-1.2,2.4-2.4,3.5-3.6c0.2-0.2,0.5-0.3,0.9-0.3c0.5,0.1,1.2,0.5,2.1,1.1
				c0.7,0.4,1.8,1.3,3.3,2.6c0.4,0.3,0.7,0.6,1,0.8c0.1,0.1,0.3,0.2,0.4,0.3c0.1,0.1,0.3,0.2,0.4,0.4c0.3-0.2,0.6-0.3,0.9-0.5
				c0.7-0.4,1.2-0.7,1.4-0.9c1.2-0.8,2.2-1.3,3-1.7c0.4-0.2,0.7-0.3,1-0.4c0.3-0.1,0.5-0.1,0.8-0.1c0.4,0,0.8,0,1.3,0
				c0.1,0,0.3,0.1,0.4,0.1c0.4,0.1,0.8,0.1,1.3,0.2c2,0.2,3.4,0.4,4.2,0.6c1,0.2,1.8,0.5,2.2,0.8c0.3,0.2,0.4,0.5,0.5,0.8
				c-0.2,1.6-0.3,3.3-0.3,5V13l0.1,1.5h-0.3l-0.1-1.6v0c0-1.6,0.1-3.2,0.3-4.8c0-0.3-0.1-0.6-0.4-0.8c-0.4-0.3-1.2-0.6-2.2-0.8
				c-0.7-0.2-2-0.3-3.9-0.5c-0.6-0.1-1.2-0.2-1.6-0.3c-0.4-0.1-0.8-0.1-1.2-0.1c-0.4,0-0.9,0.2-1.6,0.6c-0.8,0.3-1.7,0.9-2.8,1.6
				c-0.2,0.2-0.7,0.4-1.4,0.8c-0.4,0.2-0.7,0.4-0.9,0.5c-0.1,0-0.1,0.1-0.2,0.1c0.1,0.1,0.1,0.1,0.2,0.2c0.1,0.1,0.2,0.2,0.3,0.4
				c0,0.1,0.1,0.2,0.1,0.3c0.1,0.3,0.3,0.6,0.4,1c0.1,0.2,0.1,0.4,0.2,0.6c0.2,0.8,0.4,1.7,0.6,2.7c0,0,0,0.1,0,0.1h-0.4
				c0-0.1,0-0.2,0-0.3c-0.1-0.7-0.3-1.4-0.4-2c-0.1-0.4-0.2-0.8-0.4-1.2c-0.1-0.2-0.1-0.4-0.2-0.6c-0.2-0.4-0.4-0.8-0.5-0.9
				c0-0.1-0.1-0.1-0.1-0.2c-0.1-0.1-0.2-0.2-0.3-0.3c-0.2-0.1-0.3-0.3-0.5-0.4c-0.4-0.2-0.8-0.5-1.3-1c-1.4-1.2-2.5-2-3.1-2.5
				c-0.8-0.6-1.5-0.9-2-1c-0.3-0.1-0.5,0-0.8,0.2c-1,1.1-2.1,2.3-3.3,3.5l0,0l-3.4,2.7c-0.1,0.1-0.2,0.2-0.3,0.3c0,0.1,0,0.2,0,0.3
				c0,0.2,0,0.4,0,0.8c0,0.3,0.1,0.7,0.2,1.1c0.1,0.5,0.2,1,0.3,1.4h-0.5c-0.1-0.3-0.2-0.7-0.3-1.2c-0.1-0.7-0.2-1.3-0.2-1.6
				c0-0.1,0-0.3,0-0.4c0-0.1,0-0.2,0-0.3c0.1-0.1,0.2-0.2,0.3-0.3l0.5-0.4l0.6-0.5l1-0.8l0.8-0.7c0-0.1-0.1-0.2-0.2-0.3
				c-0.1-0.1-0.3-0.2-0.5-0.4c-0.2-0.2-0.5-0.4-0.9-0.5c-0.7-0.4-1.1-0.6-1.4-0.8c-1.1-0.7-2-1.3-2.8-1.6c-0.7-0.3-1.2-0.5-1.6-0.6
				c-0.4,0-0.8,0-1.2,0.1c-0.4,0.1-1,0.2-1.6,0.3c-1.9,0.2-3.2,0.4-3.9,0.5c-1,0.2-1.7,0.5-2.2,0.8C234.1,6,234,6.3,234,6.6
				c0.2,1.5,0.3,3.1,0.3,4.8v0l-0.2,3.1h-0.4c0.1-0.9,0.1-1.8,0.2-2.7c0-0.3-0.1-0.6-0.4-0.8c-0.4-0.3-1.2-0.6-2.2-0.8
				c-0.7-0.2-2-0.4-3.9-0.5c-0.6-0.1-1.2-0.2-1.6-0.3c-0.4-0.1-0.8-0.1-1.2,0c-0.4,0-0.9,0.2-1.6,0.5c-0.8,0.3-1.7,0.9-2.8,1.6
				c-0.2,0.2-0.7,0.4-1.4,0.8c-0.4,0.2-0.7,0.4-0.9,0.6c-0.2,0.1-0.4,0.3-0.5,0.4c-0.1,0.1-0.2,0.2-0.2,0.4c0,0.2,0,0.4,0,0.7
				C217.3,14.4,217.3,14.4,217.3,14.5z M185,14.5h-0.5c0.1-0.7,0.2-1.3,0.2-2c0-0.3,0-0.6,0-0.9c0-0.6,0-1.2,0-1.7
				c0-0.8,0.2-1.3,0.7-1.4c1.5-0.4,3.1-0.7,4.7-1c0.5-0.1,1.1-0.3,2-0.5c0.9-0.2,1.7-0.4,2.2-0.6c0.3-0.1,0.5-0.1,0.7-0.1
				c0.2,0,0.3,0,0.5,0.1c0.1,0,0.3,0.2,0.5,0.5c0.2,0.2,0.4,0.5,0.7,0.8c0.5,0.7,0.8,1.1,1,1.3c0.9,1.1,1.6,2,2.1,2.8
				c0.2,0.3,0.4,0.6,0.5,0.9c0.1,0.3,0.2,0.5,0.3,0.6c0.1,0.5,0.1,0.9,0.1,1.3h-0.3c0-0.3-0.1-0.7-0.2-1c-0.1-0.4-0.3-0.9-0.8-1.5
				c-0.4-0.7-1-1.6-1.9-2.6c-0.2-0.2-0.5-0.6-0.9-1.2c-0.3-0.3-0.5-0.6-0.7-0.9c-0.2-0.2-0.3-0.3-0.4-0.4c-0.1-0.1-0.2-0.1-0.4-0.1
				c-0.2,0-0.4,0.1-0.7,0.1c-0.5,0.2-1.2,0.4-2,0.6c-0.8,0.2-1.4,0.3-1.8,0.5c-1.5,0.2-3,0.5-4.5,0.8c-0.4,0.2-0.7,0.7-0.7,1.5
				c0,0.5,0,1,0,1.6l0,0c0,0.3,0,0.6,0,0.9C185.2,13.3,185.1,13.9,185,14.5z M181.4,14.5c-0.1-0.5-0.2-0.8-0.2-1
				c-0.2-1.3-0.5-2.4-0.8-3.2c-0.3-0.7-0.5-1.2-0.7-1.5c-0.2-0.3-0.5-0.6-0.9-0.9c-0.4-0.2-0.8-0.5-1.3-0.9c-1.4-1.2-2.5-2-3.1-2.5
				c-0.8-0.6-1.5-0.9-2-1c-0.3-0.1-0.5,0-0.8,0.2c-1,1.1-2.1,2.3-3.3,3.4l-0.1,0.1l-2.7,2.2c0,0.1,0,0.2,0,0.4
				c0.1,0.7,0.1,1.4,0.2,2c0.1,0.8,0.2,1.7,0.3,2.5c0,0.1,0,0.2,0,0.3h-0.6c0-0.1,0-0.2,0-0.3c0-0.7-0.1-1.4-0.1-2.1
				c-0.1-0.6-0.1-1.1-0.2-1.7c0-0.2-0.1-0.5-0.1-0.7c0-0.1,0-0.1,0-0.2c0-0.1,0-0.1,0-0.2c0-0.2,0-0.5,0-0.7l-0.1-0.1
				c0-0.6,0.1-1.1,0.1-1.6c0-0.8-0.3-1.3-0.7-1.4C163,5.2,161.5,5,160,4.8c-0.5-0.1-1.1-0.3-1.8-0.5c-0.8-0.2-1.5-0.4-2.1-0.6
				c-0.3,0-0.5-0.1-0.7-0.1c-0.2,0-0.3,0.1-0.4,0.2c-0.1,0.1-0.2,0.2-0.4,0.4c-0.2,0.3-0.4,0.5-0.7,0.9c-0.4,0.6-0.7,1-0.9,1.2
				c-0.4,0.5-0.8,1-1.1,1.4c-0.1,0.1-0.1,0.2-0.2,0.3c-0.1,0.2-0.2,0.4-0.3,0.5c-0.1,0.1-0.2,0.3-0.2,0.4c-0.2,0.2-0.3,0.4-0.5,0.6
				c-0.2,0.3-0.3,0.6-0.4,0.8c-0.1,0.4-0.1,0.8-0.1,1.2c0.1,0.5,0.1,1,0.1,1.6c0,0.4,0,0.8,0,1.1c0,0.1,0,0.2,0,0.3H150
				c0-0.4,0-0.9,0-1.4c0-0.5,0-0.9-0.1-1.3c0-0.2,0-0.3,0-0.5c0-0.4,0-0.8,0.1-1.3c0-0.2,0.1-0.4,0.3-0.6c0.1-0.2,0.2-0.4,0.3-0.6
				c0.1-0.1,0.1-0.2,0.2-0.3c0.1-0.2,0.2-0.4,0.4-0.6l0,0c0.1-0.1,0.1-0.2,0.2-0.3l-3.1-2.5l0-0.1C147,3.9,146,2.7,145,1.6
				c-0.3-0.2-0.5-0.3-0.8-0.2c-0.5,0.1-1.2,0.4-2,1c-0.6,0.4-1.7,1.3-3.1,2.5c-0.5,0.4-0.9,0.8-1.3,0.9c-0.4,0.3-0.7,0.6-0.9,0.9
				c-0.2,0.3-0.4,0.8-0.7,1.5c-0.3,0.8-0.5,1.8-0.8,3.1c0,0.3-0.1,0.8-0.3,1.5c-0.1,0.4-0.2,0.7-0.3,1s-0.1,0.5-0.1,0.6h-0.4
				c0-0.1,0-0.2,0-0.4c0-0.3,0.1-0.6,0.3-1c0.2-0.8,0.3-1.4,0.3-1.6c0.3-1.3,0.5-2.4,0.8-3.3c0.1-0.4,0.2-0.7,0.4-1s0.3-0.5,0.4-0.6
				c0.3-0.3,0.6-0.6,0.9-0.9c0.1-0.1,0.3-0.2,0.4-0.3c0.3-0.2,0.6-0.5,1-0.8c1.5-1.3,2.6-2.2,3.3-2.6c0.9-0.6,1.6-1,2.1-1.1
				c0.4,0,0.7,0,0.9,0.3c1,1.2,2.2,2.4,3.5,3.6h0l3,2.5c0.4-0.5,0.8-1,1.3-1.6c0.2-0.2,0.5-0.6,1-1.3c0.3-0.3,0.5-0.6,0.7-0.8
				c0.2-0.3,0.4-0.4,0.5-0.4c0.1-0.1,0.3-0.2,0.5-0.2c0.2,0,0.4,0.1,0.6,0.2c0.5,0.1,1.3,0.3,2.2,0.5c0.8,0.3,1.5,0.5,2,0.5
				c1.6,0.2,3.2,0.6,4.7,1c0.5,0.1,0.7,0.6,0.7,1.5c0,0.5,0.1,1.1,0.1,1.7c0,0.2,0,0.4,0,0.6l2.4-2h0c1.3-1.2,2.4-2.4,3.5-3.7
				c0.2-0.2,0.5-0.3,0.9-0.3c0.5,0.1,1.2,0.5,2.1,1.1c0.7,0.4,1.8,1.3,3.3,2.6c0.4,0.3,0.7,0.6,1,0.8c0.1,0.1,0.3,0.2,0.4,0.3
				c0.3,0.3,0.6,0.6,0.8,0.9c0.1,0.2,0.3,0.4,0.4,0.6c0.1,0.3,0.3,0.6,0.3,0.9c0.3,0.9,0.5,2,0.8,3.3c0,0.2,0,0.5,0.1,0.9H181.4z
				 M128.1,14.5c-0.1-0.3-0.3-0.5-0.4-0.6c-0.2-0.3-0.5-0.6-0.9-0.9c-0.4-0.2-0.8-0.5-1.3-1c-1.4-1.2-2.5-2-3.1-2.5
				c-0.8-0.6-1.5-0.9-2-1c-0.3-0.1-0.5,0-0.8,0.2c-1,1.1-2.1,2.3-3.3,3.5l0,0l-2.8,2.3H113l3-2.5h0.1c1.3-1.2,2.4-2.4,3.4-3.6
				c0.2-0.2,0.5-0.3,0.9-0.3c0.5,0.1,1.2,0.5,2.1,1.1c0.7,0.4,1.8,1.3,3.3,2.6c0.4,0.3,0.7,0.6,1,0.8c0.1,0.1,0.3,0.2,0.4,0.3
				c0.3,0.3,0.6,0.6,0.8,0.9c0.1,0.2,0.3,0.4,0.4,0.6c0,0,0,0.1,0,0.1H128.1z M95.6,14.5h-0.5c0-0.3,0.1-0.6,0.1-0.9
				c0-0.3,0-0.6,0-0.9c0-0.6,0-1.2,0-1.7c0-0.8,0.2-1.3,0.7-1.4c1.5-0.4,3.1-0.7,4.7-1c0.5-0.1,1.1-0.3,2-0.5
				c0.9-0.2,1.7-0.4,2.2-0.6c0.3-0.1,0.5-0.1,0.7-0.1c0.2,0,0.3,0.1,0.4,0.1c0.1,0,0.3,0.2,0.5,0.5c0.2,0.2,0.4,0.5,0.7,0.8
				c0.5,0.7,0.8,1.1,1,1.3c0.9,1.1,1.6,2,2.1,2.8c0.2,0.3,0.4,0.6,0.5,0.9s0.2,0.5,0.3,0.6c0,0,0,0.1,0,0.1h-0.4
				c-0.1-0.4-0.3-0.8-0.8-1.4c-0.4-0.7-1-1.6-1.9-2.6c-0.2-0.2-0.5-0.6-0.9-1.2c-0.3-0.3-0.5-0.6-0.7-0.8c-0.2-0.2-0.3-0.3-0.4-0.4
				c-0.1-0.1-0.2-0.1-0.4-0.1c-0.2,0-0.4,0.1-0.7,0.1c-0.5,0.2-1.2,0.4-2,0.6c-0.8,0.2-1.4,0.3-1.9,0.5c-1.5,0.2-3,0.5-4.5,0.9
				c-0.4,0.2-0.7,0.7-0.7,1.4c0,0.5,0,1,0,1.6l0,0c0,0.3,0,0.6,0,0.9C95.7,14.1,95.6,14.3,95.6,14.5z M47.8,14.5h-0.3
				c0-0.1,0.1-0.3,0.1-0.4c0-0.2,0-0.4,0-0.5c0.3-1.3,0.5-2.4,0.8-3.3c0-0.1,0-0.1,0-0.2c0.1-0.2,0.1-0.4,0.2-0.6
				c-0.1-0.1-0.1-0.2-0.1-0.3c-0.2-0.3-0.5-0.7-0.8-1C47.4,8,47,7.7,46.3,7.4c-0.7-0.4-1.7-0.8-3-1.2C43,6.1,42.5,6,41.8,5.6
				c-0.4-0.1-0.8-0.3-1-0.4c-0.2-0.1-0.4-0.1-0.5-0.1c-0.1,0-0.3,0-0.4,0.1c-0.2,0.1-0.3,0.3-0.5,0.5c-0.3,0.4-0.8,1-1.4,1.6
				c-0.5,0.5-1,1-1.4,1.4c-1.2,1-2.3,2-3.3,3.1c-0.3,0.4-0.2,0.9,0.2,1.6c0.2,0.3,0.4,0.7,0.7,1.1h-0.6c-0.3-0.4-0.5-0.8-0.7-1.2
				c-0.4-0.7-0.5-1.2-0.2-1.6c1.1-1.1,2.2-2.2,3.5-3.3C36.5,8.1,37,7.6,37.5,7c0.7-0.7,1.2-1.3,1.5-1.7c0.2-0.2,0.4-0.4,0.5-0.5
				c0.2-0.1,0.4-0.1,0.5-0.1c0.1,0,0.3,0,0.6,0.1c0.3,0.1,0.6,0.2,1,0.4c0.8,0.3,1.3,0.5,1.5,0.5c1.3,0.4,2.4,0.9,3.2,1.3
				c0.4,0.2,0.7,0.3,0.9,0.5c0.3,0.2,0.5,0.3,0.5,0.5c0.3,0.3,0.6,0.6,0.8,0.9c0.1,0.1,0.1,0.2,0.1,0.4C48.9,9,49,8.8,49.1,8.7
				c0.3-0.3,0.5-0.6,0.9-0.9c0.1-0.1,0.3-0.1,0.4-0.3c0.3-0.2,0.6-0.5,1-0.8c1.5-1.3,2.6-2.2,3.3-2.6c0.9-0.6,1.6-1,2.1-1.1
				c0.4,0,0.7,0.1,0.9,0.3c1,1.2,2.2,2.5,3.4,3.7h0.1l2.3,1.9c0-0.6,0-1.1,0.1-1.5c0-0.8,0.2-1.3,0.7-1.5c1.5-0.4,3.1-0.7,4.7-0.9
				c0.5-0.1,1.1-0.3,1.9-0.6C71.7,4.2,72.5,4,73,3.9c0.3-0.1,0.5-0.1,0.6-0.1c0.2,0,0.4,0,0.5,0.1c0.1,0,0.3,0.2,0.4,0.4
				c0.2,0.2,0.4,0.5,0.7,0.8c0.5,0.7,0.8,1.1,1,1.3c0.9,1.1,1.6,2,2,2.8c0.2,0.3,0.4,0.6,0.5,0.9c0.1,0.3,0.2,0.5,0.3,0.7
				c0,0.1,0,0.2,0.1,0.2c0.1-0.1,0.2-0.1,0.3-0.2c0.3-0.2,0.6-0.5,1-0.8c1.5-1.3,2.6-2.2,3.3-2.6c0.9-0.6,1.6-1,2.1-1.1
				c0.4,0,0.7,0,0.9,0.3c1,1.2,2.2,2.5,3.4,3.6h0.1l3.5,2.9c0.1,0.1,0.2,0.2,0.3,0.3c0.1,0.1,0.1,0.3,0.1,0.4c0,0.2,0,0.5-0.1,0.8
				h-0.5c0.1-0.3,0.1-0.6,0.1-0.8c0-0.1,0-0.2,0-0.3c-0.1-0.2-0.2-0.3-0.3-0.4l-3.4-2.7l0,0c-1.2-1.2-2.3-2.3-3.3-3.5
				c-0.3-0.2-0.5-0.3-0.8-0.2c-0.5,0.1-1.2,0.4-2.1,1C83,8.1,82,9,80.5,10.1c-0.5,0.4-0.9,0.8-1.3,1c-0.1,0-0.1,0.1-0.2,0.1
				c-0.1,0.1-0.2,0.2-0.3,0.3c-0.1,0.1-0.3,0.3-0.4,0.5c0,0,0,0-0.1,0c0,0.1-0.1,0.1-0.1,0.2c0,0.1-0.1,0.2-0.1,0.3
				c-0.1,0.3-0.3,0.6-0.4,1c-0.1,0.3-0.2,0.6-0.3,1h-0.3c0.1-0.4,0.2-0.7,0.3-1c0.1-0.4,0.2-0.7,0.4-1c0.1-0.2,0.2-0.4,0.3-0.6
				c0,0,0,0,0.1-0.1c0.1-0.1,0.2-0.2,0.3-0.3c0,0,0,0,0-0.1c0.1-0.1,0.3-0.3,0.4-0.4c0-0.1,0-0.1,0-0.2c-0.1-0.4-0.3-0.9-0.8-1.4
				c-0.4-0.7-1-1.6-1.9-2.7c-0.2-0.2-0.5-0.6-0.9-1.2c-0.3-0.3-0.5-0.6-0.7-0.9c-0.2-0.2-0.3-0.3-0.4-0.4c-0.1-0.1-0.2-0.1-0.4-0.1
				c-0.2,0-0.4,0.1-0.7,0.1c-0.5,0.2-1.2,0.4-2.1,0.7c-0.8,0.2-1.4,0.3-1.9,0.4c-1.5,0.2-3,0.5-4.4,0.9c-0.4,0.2-0.7,0.7-0.7,1.5
				c0,0.5,0,1,0.1,1.6l-0.1,0.1c0,0.1,0,0.2,0,0.4c0,0.2,0,0.3,0,0.5c0,0.1,0,0.2,0,0.2c-0.1,0.7-0.2,1.3-0.2,2
				c-0.1,0.7-0.1,1.4-0.2,2h-0.6c0.1-0.9,0.2-1.9,0.3-2.9c0.1-0.6,0.1-1.1,0.2-1.7c0-0.1,0-0.2,0-0.3c0-0.1,0-0.2,0-0.4l-2.6-2.1
				l0-0.1c-1.2-1.2-2.3-2.3-3.3-3.4c-0.3-0.2-0.5-0.3-0.8-0.2c-0.5,0.1-1.2,0.4-2.1,1C54,4.9,53,5.8,51.5,7
				c-0.5,0.4-0.9,0.8-1.3,0.9c-0.4,0.3-0.7,0.6-0.9,0.9C49.3,9,49.1,9.3,49,9.6c0,0.1-0.1,0.2-0.1,0.4c0,0.1-0.1,0.2-0.1,0.3
				c0,0.1-0.1,0.2-0.1,0.3c-0.2,0.8-0.5,1.7-0.7,2.9c0,0.2-0.1,0.5-0.2,0.9C47.8,14.4,47.8,14.4,47.8,14.5z"/>
			<path fill-rule="evenodd" clip-rule="evenodd" fill="#95C8E2" d="M278.5,14.5l-0.1-1c0-0.1-0.1-0.3-0.1-0.4
				c-0.1-0.5-0.1-1.1,0-1.8v0c0.1-0.9,0.1-1.9,0.2-2.9c0-0.6-0.4-1-1.1-1.1c-1.2-0.3-2.5-0.5-4-0.6L271,6.1c-0.5-0.1-0.9-0.1-1.3,0
				c-0.1,0-0.2,0.1-0.3,0.1c-2.3,1.1-4,2.1-5.3,2.9c-0.3,0.2-0.6,0.5-0.7,0.8c-0.1-0.2-0.2-0.3-0.3-0.4c-0.1-0.1-0.1-0.2-0.2-0.2
				c0.1,0,0.1-0.1,0.2-0.1c0.2-0.2,0.5-0.4,0.9-0.5c0.7-0.4,1.1-0.6,1.4-0.8c1.1-0.7,2-1.3,2.8-1.6c0.7-0.3,1.2-0.5,1.6-0.6
				c0.4,0,0.8,0,1.2,0.1c0.4,0.1,1,0.2,1.6,0.3c1.9,0.2,3.2,0.4,3.9,0.5c1,0.2,1.7,0.5,2.2,0.8c0.3,0.2,0.4,0.4,0.4,0.8
				c-0.2,1.5-0.3,3.1-0.3,4.8v0l0.1,1.6H278.5z M264.3,14.5h-0.5c0-0.2-0.1-0.4-0.1-0.6c0,0,0-0.1,0-0.1c-0.3-1-0.6-2.2-1-3.5
				c0-0.1-0.1-0.3-0.1-0.4c0-0.1-0.1-0.1-0.1-0.1c-0.1-0.1-0.2-0.3-0.4-0.4c-0.1-0.1-0.3-0.3-0.4-0.4l-2-1.4c-1.1-1-2.2-1.8-3.2-2.5
				c-0.6-0.4-1.1-0.4-1.5,0c-0.7,0.7-1.4,1.3-2,2l0,0c-0.4,0.5-0.9,0.9-1.3,1.3c-0.1,0.1-0.2,0.1-0.3,0.2l-2.1,1.6
				c-0.1,0-0.1,0.1-0.2,0.1c-0.2,0.2-0.4,0.4-0.5,0.6v0c0,0,0,0-0.1,0.1c0,0,0,0,0,0c-0.1,0.2-0.1,0.4-0.2,0.6c0,0.3,0,0.5,0.1,0.8
				c0,0,0,0,0,0l0.4,2v0h-0.6c-0.1-0.4-0.2-0.8-0.3-1.4c-0.1-0.4-0.2-0.8-0.2-1.1c0-0.3,0-0.6,0-0.8c0-0.1,0-0.2,0-0.3
				c0.1-0.2,0.2-0.3,0.3-0.3l3.4-2.7l0,0c1.2-1.2,2.3-2.3,3.3-3.5c0.3-0.2,0.5-0.3,0.8-0.2c0.5,0.1,1.2,0.4,2,1
				c0.6,0.4,1.7,1.3,3.1,2.5c0.5,0.4,0.9,0.8,1.3,1c0.2,0.1,0.4,0.3,0.5,0.4c0.1,0.1,0.2,0.2,0.3,0.3c0,0.1,0.1,0.1,0.1,0.2
				c0.1,0.2,0.3,0.5,0.5,0.9c0.1,0.2,0.1,0.4,0.2,0.6c0.1,0.4,0.2,0.8,0.4,1.2c0.1,0.6,0.3,1.2,0.4,2
				C264.3,14.3,264.3,14.4,264.3,14.5z M243.3,4.6c-0.4-0.1-0.8-0.1-1.3,0l-2.5,0.5c-1.5,0.1-2.8,0.3-4,0.6
				c-0.7,0.1-1.1,0.5-1.1,1.1c0,1,0.1,1.9,0.2,2.9v0c0.1,0.7,0.1,1.3,0,1.8c0,0.1,0,0.3-0.1,0.4l-0.3,2.5H234l0.2-3.1v0
				c0-1.6-0.1-3.2-0.3-4.8c0-0.3,0.1-0.6,0.4-0.8c0.4-0.3,1.2-0.6,2.2-0.8c0.7-0.2,2-0.3,3.9-0.5c0.6-0.1,1.2-0.2,1.6-0.3
				c0.4-0.1,0.8-0.1,1.2-0.1c0.4,0,0.9,0.2,1.6,0.6c0.8,0.3,1.7,0.9,2.8,1.6c0.2,0.2,0.7,0.4,1.4,0.8c0.4,0.2,0.7,0.4,0.9,0.5
				c0.2,0.1,0.4,0.3,0.5,0.4c0.1,0.1,0.1,0.2,0.2,0.3L249.7,9c0-0.6-0.2-1-0.8-1.4c-1.2-0.8-3-1.8-5.3-2.9
				C243.5,4.7,243.5,4.7,243.3,4.6z M218.2,14.5h-0.8c0-0.1,0-0.1,0-0.2c0-0.3,0-0.5,0-0.7c0-0.2,0-0.3,0.2-0.4
				c0.1-0.1,0.3-0.2,0.5-0.4c0.2-0.2,0.5-0.4,0.9-0.6c0.7-0.4,1.1-0.6,1.4-0.8c1.1-0.7,2-1.3,2.8-1.6c0.7-0.3,1.2-0.5,1.6-0.5
				c0.4,0,0.8,0,1.2,0c0.4,0.1,1,0.2,1.6,0.3c1.9,0.2,3.2,0.4,3.9,0.5c1,0.2,1.7,0.5,2.2,0.8c0.3,0.2,0.4,0.4,0.4,0.8
				c-0.1,0.9-0.2,1.8-0.2,2.7h-0.5c0.1-0.8,0.1-1.6,0.1-2.5c0-0.6-0.4-1-1.1-1.1c-1.2-0.3-2.5-0.5-4-0.6l-2.5-0.5
				c-0.5-0.1-0.9-0.1-1.3,0c-0.1,0-0.2,0.1-0.3,0.1c-2.3,1.1-4.1,2.1-5.3,2.9C218.2,13.2,218,13.8,218.2,14.5z M205.2,12.6
				c-0.1,0.1-0.2,0.1-0.4,0.2l-2.1,1.6l0,0h-0.5l2.8-2.3l0,0c1.2-1.2,2.3-2.3,3.3-3.5c0.3-0.2,0.5-0.3,0.8-0.2c0.5,0.1,1.2,0.4,2,1
				c0.6,0.4,1.7,1.3,3.1,2.5c0.5,0.4,0.9,0.8,1.3,1c0.4,0.3,0.7,0.6,0.9,0.9c0.1,0.1,0.2,0.4,0.3,0.6h-0.5c0-0.1-0.1-0.2-0.1-0.3
				l0,0c-0.2-0.3-0.5-0.6-0.9-0.9l-2-1.4c-1.1-1-2.2-1.8-3.2-2.5c-0.6-0.4-1.1-0.4-1.5,0c-0.7,0.7-1.4,1.3-2,2l0,0
				C206.1,11.9,205.6,12.3,205.2,12.6z M199.6,13.5C199.6,13.4,199.6,13.4,199.6,13.5c-0.1-0.1-0.1-0.2-0.2-0.4
				c-1.4-2.1-2.6-3.7-3.5-4.8c-0.5-0.6-1.1-0.8-1.8-0.5c-1,0.3-2.1,0.5-3.3,0.8c-0.7,0.2-1.4,0.3-2.1,0.4L188.3,9c0,0,0,0,0.1-0.1
				l-2.2,0.5c0,0-0.1,0.1-0.2,0.1c-0.3,0.2-0.4,0.5-0.4,0.9c0,0.8-0.1,1.8-0.1,3c0,0.4,0,0.7,0,1.1H185c0.1-0.6,0.1-1.2,0.2-1.8
				c0-0.3,0-0.6,0-0.9l0,0c0-0.6,0-1.1,0-1.6c0-0.8,0.3-1.3,0.7-1.5c1.4-0.4,2.9-0.6,4.5-0.8c0.5-0.1,1.1-0.3,1.8-0.5
				c0.8-0.2,1.5-0.5,2-0.6c0.3,0,0.5-0.1,0.7-0.1c0.2,0,0.3,0,0.4,0.1c0.1,0.1,0.2,0.2,0.4,0.4c0.2,0.3,0.4,0.6,0.7,0.9
				c0.4,0.6,0.7,1,0.9,1.2c0.9,1,1.5,1.9,1.9,2.6c0.5,0.6,0.7,1.1,0.8,1.5c0.1,0.4,0.1,0.7,0.2,1h-0.5c0-0.2,0-0.5-0.1-0.6l0,0
				C199.7,13.8,199.7,13.6,199.6,13.5L199.6,13.5L199.6,13.5z M135.8,14.5h-1c0-0.1,0-0.3,0.1-0.6s0.1-0.6,0.3-1
				c0.2-0.8,0.3-1.3,0.3-1.5c0.2-1.3,0.5-2.4,0.8-3.1c0.3-0.7,0.5-1.2,0.7-1.5c0.2-0.3,0.5-0.6,0.9-0.9c0.4-0.2,0.8-0.5,1.3-0.9
				c1.4-1.2,2.5-2,3.1-2.5c0.8-0.6,1.5-0.9,2-1c0.3-0.1,0.5,0,0.8,0.2c1,1.1,2.1,2.3,3.3,3.4l0,0.1l3.1,2.5
				c-0.1,0.1-0.1,0.2-0.2,0.3c-0.1-0.1-0.2-0.3-0.4-0.4l-2.3-1.8c-0.1-0.1-0.3-0.1-0.4-0.2c-0.4-0.3-0.9-0.8-1.3-1.3l0,0
				c-0.6-0.7-1.3-1.3-2-2c-0.5-0.4-1-0.4-1.5,0c-1,0.6-2,1.5-3.2,2.5l-2,1.4c-0.4,0.3-0.7,0.6-0.9,0.9l0,0c0,0.1-0.1,0.2-0.1,0.4
				c-0.7,2.4-1.2,4.3-1.5,5.8C135.4,13.7,135.5,14.2,135.8,14.5z M150.8,14.5h-0.6c0-0.1,0-0.2,0-0.3c0-0.3,0-0.7,0-1.1
				c0-0.6,0-1.2-0.1-1.6c0-0.4,0.1-0.8,0.1-1.2c0-0.2,0.2-0.5,0.4-0.8c0.1-0.2,0.3-0.4,0.5-0.6c0.1-0.1,0.1-0.3,0.2-0.4
				c0.1-0.2,0.2-0.3,0.3-0.5c0.1-0.1,0.1-0.2,0.2-0.3c0.3-0.4,0.7-0.9,1.1-1.4c0.2-0.2,0.5-0.6,0.9-1.2c0.3-0.3,0.5-0.6,0.7-0.9
				c0.2-0.2,0.3-0.3,0.4-0.4c0.1-0.1,0.2-0.2,0.4-0.2c0.2,0,0.4,0.1,0.7,0.1c0.5,0.2,1.2,0.4,2.1,0.6c0.8,0.2,1.4,0.3,1.8,0.5
				c1.5,0.2,3,0.5,4.5,0.9c0.4,0.2,0.7,0.7,0.7,1.4c0,0.5,0,1-0.1,1.6l0.1,0.1c0,0.2,0,0.4,0,0.7c0,0.1,0,0.1,0,0.2
				c0,0.1,0,0.1,0,0.2c0,0.2,0.1,0.5,0.1,0.7c0.1,0.6,0.1,1.1,0.2,1.7c0.1,0.7,0.1,1.4,0.1,2.1c0,0.1,0,0.2,0,0.3h-0.8v0
				c0-0.1,0-0.3,0-0.4c-0.1-0.8-0.1-1.6-0.1-2.3c0-0.6,0-1.1,0-1.6c0,0,0-0.1,0-0.1c0-0.1,0-0.3,0-0.4c0-1,0-1.8,0-2.5
				c0-0.4-0.1-0.7-0.4-0.9c-0.1,0-0.2-0.1-0.2-0.1L162,5.7c0,0,0,0,0,0l-0.4-0.1c-0.7-0.1-1.4-0.2-2.1-0.4c-1.2-0.2-2.3-0.4-3.3-0.8
				c-0.7-0.3-1.3-0.1-1.8,0.5c-0.6,0.7-1.4,1.7-2.2,2.9c-0.1,0.1-0.2,0.3-0.3,0.5c-0.2,0.3-0.4,0.6-0.6,0.9
				c-0.1,0.2-0.3,0.4-0.4,0.6c-0.1,0.2-0.1,0.3-0.2,0.4c0,0,0,0,0,0h0v0.1c0,0.1-0.1,0.2-0.1,0.4l0.1-0.1c-0.1,0.2-0.1,0.5-0.1,0.9
				l0.1,0.9l0.1,1.6C150.8,14.1,150.8,14.3,150.8,14.5z M181.4,14.5H181c-0.3-1.3-0.7-3-1.4-5c0-0.1-0.1-0.3-0.1-0.3l0,0
				c-0.2-0.3-0.5-0.6-0.9-0.9l-2-1.5c-1.1-1-2.2-1.8-3.1-2.4c-0.6-0.4-1.1-0.5-1.6-0.1c-0.7,0.7-1.4,1.3-2,2l0,0.1
				c-0.4,0.5-0.9,0.9-1.3,1.3c-0.1,0.1-0.2,0.1-0.3,0.2l-2.3,1.8c-0.1,0.1-0.1,0.1-0.1,0.1c0-0.1,0-0.2,0-0.4l2.7-2.2l0.1-0.1
				c1.2-1.2,2.3-2.3,3.3-3.4c0.3-0.2,0.5-0.3,0.8-0.2c0.5,0.1,1.2,0.4,2,1c0.6,0.4,1.7,1.3,3.1,2.5c0.5,0.4,0.9,0.8,1.3,0.9
				c0.4,0.3,0.7,0.6,0.9,0.9c0.2,0.3,0.4,0.8,0.7,1.5c0.3,0.8,0.5,1.9,0.8,3.2C181.2,13.7,181.3,14,181.4,14.5z M114,14.5h-0.5
				l2.8-2.3l0,0c1.2-1.2,2.3-2.3,3.3-3.5c0.3-0.2,0.5-0.3,0.8-0.2c0.5,0.1,1.2,0.4,2,1c0.6,0.4,1.7,1.3,3.1,2.5
				c0.5,0.4,0.9,0.8,1.3,1c0.4,0.3,0.7,0.6,0.9,0.9c0.1,0.1,0.2,0.4,0.4,0.6h-0.5c0-0.1-0.1-0.2-0.1-0.3l0,0
				c-0.2-0.3-0.5-0.6-0.9-0.9l-2.1-1.4c-1.1-1-2.2-1.8-3.1-2.5c-0.6-0.4-1.1-0.4-1.5,0c-0.7,0.7-1.4,1.3-2,2l-0.1,0
				c-0.4,0.5-0.9,0.9-1.3,1.3c-0.1,0.1-0.2,0.1-0.4,0.2L114,14.5z M96,14.5h-0.4c0-0.2,0-0.4,0.1-0.6c0-0.3,0-0.6,0-0.9l0,0
				c0-0.6,0-1.1,0-1.6c0-0.8,0.3-1.3,0.7-1.4c1.4-0.4,2.9-0.7,4.5-0.9c0.5-0.1,1.1-0.3,1.9-0.5c0.8-0.2,1.5-0.4,2-0.6
				c0.3,0,0.5-0.1,0.7-0.1c0.2,0,0.3,0.1,0.4,0.1c0.1,0.1,0.2,0.2,0.4,0.4c0.2,0.3,0.4,0.5,0.7,0.8c0.4,0.6,0.7,1,0.9,1.2
				c0.9,1,1.5,1.9,1.9,2.6c0.4,0.5,0.7,1,0.8,1.4H110c0-0.1-0.1-0.2-0.1-0.3c-1.4-2.1-2.6-3.7-3.5-4.8c-0.5-0.6-1.1-0.8-1.8-0.5
				c-1,0.3-2.1,0.6-3.3,0.8c-0.7,0.2-1.4,0.3-2.1,0.4l-0.4,0.1c0,0,0,0,0.1-0.1l-2.1,0.5c0,0-0.1,0.1-0.2,0.1
				c-0.3,0.2-0.4,0.5-0.4,0.9C96.1,12.3,96,13.3,96,14.5z M78,14.5h-0.6c0.1-0.4,0.2-0.7,0.3-1c0.2-0.4,0.3-0.8,0.4-1
				c0.1-0.1,0.1-0.2,0.1-0.3c0-0.1,0.1-0.1,0.1-0.2c0,0,0,0,0.1,0c0.1-0.2,0.3-0.3,0.4-0.5c0.1-0.1,0.2-0.2,0.3-0.3
				c0.1,0,0.1-0.1,0.2-0.1c0.4-0.2,0.8-0.5,1.3-1C82,9,83,8.1,83.6,7.7c0.8-0.6,1.5-0.9,2.1-1c0.3-0.1,0.5,0,0.8,0.2
				c1,1.1,2.1,2.3,3.3,3.5l0,0l3.4,2.7c0.1,0.1,0.2,0.2,0.3,0.4c0,0.1,0,0.1,0,0.3c0,0.2,0,0.5-0.1,0.8h-0.5c0.1-0.4,0-0.7-0.1-1
				c0,0,0-0.1,0.1-0.1c-0.1,0-0.1-0.1-0.1-0.1c-0.1-0.2-0.3-0.3-0.5-0.5L90,11c-0.1-0.1-0.3-0.1-0.4-0.2c-0.4-0.3-0.9-0.8-1.3-1.3
				l-0.1,0c-0.6-0.7-1.3-1.3-2-2c-0.5-0.4-1-0.4-1.5,0c-1,0.6-2,1.5-3.1,2.5l-2.1,1.5c-0.1,0.1-0.3,0.2-0.4,0.3
				C79.1,11.9,79,12,78.9,12c-0.1,0.1-0.1,0.1-0.1,0.2c0,0,0,0,0,0l-0.1,0.1c0,0.1-0.1,0.2-0.1,0.4c-0.1,0.3-0.2,0.6-0.3,0.8
				C78.2,13.9,78.1,14.2,78,14.5z M64.2,14.5h-0.7c0-0.7,0.1-1.4,0.2-2c0.1-0.7,0.1-1.4,0.2-2c0-0.1,0-0.1,0-0.2c0-0.2,0-0.3,0-0.5
				c0-0.1,0-0.3,0-0.4L64,9.3c0-0.6-0.1-1.1-0.1-1.6c0-0.8,0.3-1.3,0.7-1.5C66,5.9,67.5,5.6,69,5.4c0.5-0.1,1.1-0.3,1.9-0.4
				c0.8-0.2,1.5-0.5,2.1-0.7c0.3,0,0.5-0.1,0.7-0.1c0.2,0,0.3,0,0.4,0.1c0.1,0.1,0.2,0.2,0.4,0.4c0.2,0.3,0.4,0.5,0.7,0.9
				c0.4,0.6,0.7,1,0.9,1.2c0.9,1,1.5,1.9,1.9,2.7c0.5,0.6,0.7,1.1,0.8,1.4c0,0.1,0,0.2,0,0.2c-0.1,0.1-0.3,0.3-0.4,0.4
				c0-0.1,0-0.2,0-0.3l0,0.1c0-0.1-0.1-0.3-0.1-0.4v-0.1h0c0,0,0,0,0,0c0-0.1-0.1-0.2-0.1-0.4c-1.4-2.1-2.6-3.7-3.6-4.8
				c-0.5-0.6-1-0.8-1.8-0.5c-1,0.3-2.1,0.5-3.3,0.8c-0.7,0.2-1.4,0.3-2.1,0.3L67,6.4c0,0,0,0,0,0l-2.1,0.5c0,0-0.1,0.1-0.2,0.1
				c-0.3,0.2-0.4,0.4-0.4,0.8c0,0.5,0,1.1,0,1.8c0,0.1,0,0.3,0,0.4c0,0.3,0,0.5,0,0.8v1.6C64.2,13,64.2,13.7,64.2,14.5z M48.2,14.5
				h-0.5c0-0.1,0-0.1,0-0.2c0.1-0.4,0.1-0.7,0.2-0.9c0.2-1.2,0.4-2.1,0.7-2.9c0-0.1,0-0.2,0.1-0.3c0-0.1,0.1-0.2,0.1-0.3
				c0-0.1,0.1-0.2,0.1-0.4c0.2-0.4,0.3-0.7,0.4-0.9c0.2-0.3,0.5-0.6,0.9-0.9c0.4-0.2,0.8-0.5,1.3-0.9c1.4-1.2,2.5-2,3.1-2.5
				c0.8-0.6,1.5-0.9,2.1-1c0.3-0.1,0.5,0,0.8,0.2c1,1.1,2.1,2.3,3.3,3.4l0,0.1l2.6,2.1c0,0.1,0,0.3,0,0.4c0,0-0.1-0.1-0.1-0.1
				L61,7.8c-0.1-0.1-0.3-0.1-0.4-0.2c-0.4-0.3-0.9-0.8-1.3-1.3l-0.1-0.1c-0.6-0.7-1.3-1.3-2-2c-0.5-0.4-1-0.4-1.5,0.1
				c-1,0.6-2,1.4-3.1,2.4l-2.1,1.5c-0.4,0.3-0.7,0.6-0.9,0.9l0,0c0,0.1-0.1,0.2-0.1,0.3l-0.1,0.3c-0.1,0.2-0.1,0.3-0.1,0.4
				c0,0.1-0.1,0.2-0.1,0.3c0,0.2-0.1,0.3-0.1,0.5l0,0.1c0,0.1-0.1,0.2-0.1,0.2c0,0.2-0.1,0.3-0.1,0.4l-0.5,2.1
				C48.3,14.1,48.2,14.3,48.2,14.5z M33.6,12.3c-0.2,0.3-0.1,0.6,0.1,1c0.2,0.4,0.4,0.8,0.7,1.3h-0.4c-0.3-0.4-0.5-0.8-0.7-1.1
				c-0.4-0.7-0.5-1.2-0.2-1.6c1-1.1,2.1-2.1,3.3-3.1c0.4-0.4,0.8-0.8,1.4-1.4c0.6-0.7,1.1-1.2,1.4-1.6c0.2-0.2,0.4-0.3,0.5-0.5
				c0.1-0.1,0.3-0.1,0.4-0.1c0.1,0,0.3,0.1,0.5,0.1c0.3,0.1,0.6,0.2,1,0.4C42.5,6,43,6.1,43.3,6.2c1.3,0.4,2.3,0.8,3,1.2
				C47,7.7,47.4,8,47.7,8.3c0.3,0.3,0.5,0.6,0.8,1c0,0.1,0.1,0.2,0.1,0.3c-0.1,0.2-0.1,0.4-0.2,0.6L48,9.5c-0.2-0.3-0.3-0.5-0.5-0.7
				c-0.1-0.1-0.1-0.1-0.2-0.2l-0.1,0c0,0,0,0-0.1,0l0,0c-0.1,0-0.2-0.1-0.3-0.2c-2.3-1-4.2-1.8-5.6-2.2c-0.7-0.3-1.3-0.1-1.8,0.5
				c-0.7,0.8-1.5,1.6-2.4,2.4c-0.5,0.5-1.1,1-1.6,1.4l-0.3,0.3c0,0,0,0,0-0.1l-0.8,0.8L34,12l-0.2,0.2
				C33.8,12.2,33.7,12.2,33.6,12.3z"/>
			<path fill-rule="evenodd" clip-rule="evenodd" fill="#9FD2E4" d="M270,6.6c0.1,0.4,0.2,1.1,0.2,1.9c0,0.6,0,1,0,1.4l-3.5-0.3
				c-1.1-0.2-1.1-0.7,0-1.4C267.9,7.4,269,6.9,270,6.6z M269.9,6.1c0.1,0,0.2,0,0.3,0c0,0-0.1,0-0.1,0C270,6.1,269.9,6.1,269.9,6.1z
				 M270.4,13.3c0,0.2,0,0.5-0.1,0.8c0,0.2,0,0.4,0,0.5h-5.6c0,0,0-0.1,0-0.1c-0.2-1.1-0.4-2-0.6-2.7c0-0.1,0.1-0.2,0.1-0.3
				c0.3-0.6,0.8-0.9,1.6-0.9h0.1c1.4,0,2.9,0.2,4.5,0.5l0,1c-1.4-0.5-2.7-0.8-3.8-0.8c-1,0-1.7,0.3-2.1,0.8c0,0.1,0,0.1,0,0.2
				c-0.1,0.2-0.1,0.4-0.1,0.5c0,0.2,0,0.4,0.1,0.7c0.1,0.2,0.2,0.4,0.3,0.5c0.3-0.4,0.7-0.8,1.2-1c0.6-0.3,1.3-0.4,2.1-0.4
				c0.9,0,1.6,0.1,2.2,0.3h0.1c0,0.1,0,0.2,0,0.3h0l0,0C270.4,13.2,270.4,13.2,270.4,13.3z M262,10.1c0.5,0.9,0.9,2,1,3.4
				c0.1,0.4,0.1,0.7,0,1h-1l-2.7-2.4l0,0l0,0v0.1l0.1,0c0.3-0.2,0.6-0.5,1-0.9C261.1,10.7,261.6,10.3,262,10.1z M243,4.6
				C243,4.6,242.9,4.6,243,4.6c0,0,0.1,0,0.2,0C243.1,4.6,243,4.6,243,4.6z M242.8,8.4c0.1-0.3,0.1-0.8,0-1.4c0-0.8,0.1-1.5,0.2-1.9
				c1,0.2,2.1,0.8,3.2,1.6c1.1,0.7,1.1,1.2,0,1.4L242.8,8.4z M242.5,10.5l0-1c1.6-0.3,3.1-0.5,4.5-0.5h0.1c0.7,0,1.3,0.3,1.6,0.8
				l-0.6,0.5c-0.4-0.4-1-0.6-1.8-0.5C245.3,9.7,244,10,242.5,10.5z M247.8,14.5h-4.3c-0.2-0.1-0.4-0.3-0.5-0.4
				c-0.1-0.2-0.2-0.4-0.3-0.7c0-0.2-0.1-0.5-0.1-0.9c0-0.3-0.1-0.5-0.1-0.8c0,0,0-0.1,0-0.1l0,0h0c0-0.1,0-0.2,0-0.3h0.1
				c0.6-0.2,1.3-0.3,2.2-0.3c0.8,0,1.5,0.1,2.1,0.4c0.1,0.1,0.3,0.1,0.4,0.2c0,0.4,0.1,0.9,0.2,1.6
				C247.6,13.8,247.7,14.2,247.8,14.5z M259.6,14.5c-0.5-0.4-1.1-0.7-1.8-1.1l0.8-0.6c0.8,0.6,1.5,1.1,2.2,1.7H259.6z M257.8,14.5
				h-1.1c0.1-0.1,0.1-0.1,0.2-0.2c0,0,0,0,0,0v-0.1l0,0.1c0.1-0.1,0.1-0.1,0.2-0.2h0v0.1C257.4,14.2,257.6,14.3,257.8,14.5z
				 M224.7,9.8c0.1,0,0.2,0,0.4,0c0,0-0.1,0-0.1,0C224.8,9.8,224.7,9.8,224.7,9.8z M224.2,14.5h-4.7c0.3-0.2,0.7-0.4,1.2-0.4h0
				C221.8,14.2,223,14.3,224.2,14.5z M224.8,10.4c0.1,0.4,0.2,1.1,0.2,1.9c0,0.6,0,1,0,1.4h0.1h0v0l-3.6-0.3c-1.1-0.2-1.1-0.7,0-1.4
				C222.7,11.1,223.8,10.6,224.8,10.4z M215.6,14.5h-0.3c0.1-0.1,0.2-0.1,0.2-0.1C215.6,14.4,215.6,14.4,215.6,14.5z M193.1,14.5
				h-3.3c-0.1-0.1-0.2-0.2-0.3-0.4c-0.6-0.8-1.1-1.5-1.5-2.1c0,0-0.1-0.1-0.1-0.1l0,0c0,0,0-0.1,0-0.1c-0.7-1.1-1.1-1.8-1.1-2v0
				c0.2,0,0.3,0.1,0.5,0.1c0.2,0,0.3-0.1,0.3-0.2c0,0,0.1-0.1,0.2-0.3c0.2-0.2,0.4-0.4,0.7-0.6l0.4-0.1c0.7-0.1,1.4-0.2,2.1-0.4
				c1.3-0.1,2.3-0.1,2.9,0.1c0.6,0.2,1,0.7,1.1,1.5v0.1c0.2,1.3,0.2,2.8,0.1,4.3H194c0.2-1.3,0.3-2.4,0.2-3.4c-0.1-1-0.4-1.7-1-1.9
				c-0.1,0-0.2,0-0.3-0.1c-0.2,0-0.4,0-0.6,0c-0.2,0-0.4,0.1-0.7,0.2c-0.2,0.1-0.3,0.2-0.4,0.4c0.5,0.2,0.8,0.6,1.2,1.1
				c0.4,0.5,0.6,1.2,0.6,2C193.2,13.4,193.2,14,193.1,14.5z M196,14.5L196,14.5l-0.3-3.5c0.1-1.1,0.6-1.2,1.4-0.2c1,1.1,1.7,2.1,2,3
				c-0.4,0.1-1,0.3-1.9,0.5C196.7,14.3,196.3,14.4,196,14.5L196,14.5z M199.7,13.9c0-0.1,0-0.2,0-0.3c0,0,0-0.1,0-0.1h0v0.1
				C199.7,13.6,199.7,13.8,199.7,13.9L199.7,13.9z M177.5,14.5c-0.7-0.7-1.7-1.3-2.8-1.9l0.8-0.6c1.1,0.8,2.1,1.6,3,2.5H177.5z
				 M175.6,14.5h-2.7c0.1-0.1,0.2-0.2,0.3-0.4c0.2-0.3,0.4-0.5,0.5-0.6c0,0,0,0,0,0v-0.1l0.1,0c0.1,0,0.1-0.1,0.2-0.1h0v0
				C174.6,13.6,175.1,14,175.6,14.5z M178.8,9.3c0.5,0.9,0.9,2.1,1.1,3.5c0.2,1.3-0.1,1.6-1,1l-2.7-2.4l0,0l0,0v0l0.1,0.1
				c0.3-0.2,0.6-0.5,1-0.9C178,9.9,178.5,9.5,178.8,9.3z M156.5,11.7l-1-0.1c-0.1-1.6-0.1-3.2,0-4.6V6.9c0.1-0.8,0.5-1.3,1.2-1.4
				c0.6-0.2,1.5-0.3,2.8-0.2c0.7,0.2,1.4,0.3,2.1,0.4l0.4,0.1c0.3,0.2,0.5,0.4,0.7,0.6c0.1,0.1,0.2,0.2,0.2,0.3
				c0,0.1,0.1,0.1,0.3,0.1c0.1,0,0.3-0.1,0.5-0.1v0.1c-0.1,0.2-0.5,0.8-1.2,1.9c0,0,0,0.1,0,0.1h0c0,0-0.1,0.1-0.1,0.1
				c-0.4,0.6-1,1.3-1.6,2.1c-0.3,0.4-0.5,0.6-0.7,0.8c-0.2,0.1-0.5,0.1-0.8,0.1c-0.2,0-0.5,0-0.9,0c-0.2,0-0.3,0-0.5,0l-0.3,0h-0.2
				l0.1-0.1c-0.1,0-0.2,0-0.3,0l0,0c-0.2-0.6-0.2-1.3-0.1-2.2c0.1-0.8,0.3-1.5,0.7-2c0.3-0.5,0.7-0.9,1.2-1
				c-0.1-0.1-0.2-0.3-0.4-0.4c-0.3-0.1-0.5-0.2-0.7-0.2c-0.2,0-0.3,0-0.5,0C157.4,6,157.3,6,157.3,6c-0.6,0.2-1,0.9-1,1.9
				C156.1,9,156.2,10.2,156.5,11.7z M151.3,10.6c0.3-0.9,1-1.9,2-3c0.8-1,1.3-0.9,1.4,0.2l-0.2,3.7h0v-0.1v-0.1
				c-0.3-0.1-0.7-0.2-1.3-0.2c-0.4-0.1-0.7-0.2-1.1-0.2c-0.2,0-0.3-0.1-0.4-0.1C151.5,10.7,151.4,10.6,151.3,10.6z M137.8,7.2
				c0.4,0.2,0.9,0.6,1.5,1.1c0.4,0.4,0.7,0.7,1,0.9l0.1,0V9.1l0,0l0,0l-2.6,2.4c-0.9,0.6-1.2,0.3-1-1C136.9,9.3,137.2,8.1,137.8,7.2
				z M141.1,9.9l0.8,0.6c-1.3,0.7-2.4,1.4-3.1,2.2c-0.6,0.6-0.9,1.2-0.8,1.8h-0.8c-0.2-0.6,0-1.1,0.5-1.6l0.1-0.1
				C138.7,11.8,139.9,10.8,141.1,9.9z M144.1,14.5h-4.5c0,0,0-0.1,0-0.1c0.2-0.6,0.6-1.2,1.1-1.8c0.6-0.6,1.1-1.1,1.7-1.4v-0.1h0
				c0.1,0.1,0.1,0.1,0.2,0.1l0,0v0.1c0,0,0,0,0,0c0.1,0.1,0.3,0.3,0.6,0.6c0.3,0.3,0.5,0.5,0.5,0.6c0.2,0.2,0.3,0.5,0.3,0.7
				c0.1,0.3,0,0.6-0.1,1C144.1,14.4,144.1,14.5,144.1,14.5z M150.8,10.4c0,0.1,0,0.2,0,0.3l-0.1,0.1
				C150.7,10.6,150.7,10.5,150.8,10.4v-0.1h0C150.8,10.3,150.8,10.3,150.8,10.4z M126.9,14.5h-0.3c0.1-0.1,0.2-0.1,0.2-0.1
				C126.9,14.4,126.9,14.4,126.9,14.5z M104.6,14.5c0.1-0.8,0.1-1.6,0-2.3c-0.1-1-0.4-1.7-1-1.9c-0.1,0-0.2,0-0.3-0.1
				c-0.2,0-0.4,0-0.6,0c-0.2,0-0.4,0.1-0.7,0.2c-0.2,0.1-0.3,0.2-0.4,0.3c0.5,0.2,0.8,0.6,1.1,1.1c0.4,0.5,0.6,1.2,0.6,2
				c0,0.2,0.1,0.4,0.1,0.6h-4.2c-0.4-0.5-0.7-0.9-1-1.3c0,0-0.1-0.1-0.1-0.1l0,0c0,0,0-0.1,0-0.1c-0.7-1.1-1.1-1.8-1.1-2v0
				c0.2,0,0.4,0.1,0.5,0.1c0.2,0,0.3-0.1,0.3-0.1c0,0,0.1-0.1,0.2-0.3c0.2-0.2,0.4-0.4,0.7-0.6l0.4-0.1c0.7-0.1,1.4-0.2,2.1-0.4
				c1.3-0.1,2.3-0.1,2.9,0.1c0.6,0.2,1,0.7,1.1,1.5v0.1c0.1,1,0.2,2.1,0.1,3.1H104.6z M109.4,14.5h-3.1l-0.1-2.4
				c0.1-1.1,0.6-1.2,1.4-0.2C108.4,12.8,109,13.7,109.4,14.5z M73.5,12.3l-0.9,0.1c0.3-1.5,0.4-2.8,0.3-3.8c-0.1-1-0.4-1.7-1.1-1.9
				c-0.1,0-0.2,0-0.3-0.1c-0.2,0-0.4,0-0.5,0c-0.2,0-0.4,0.1-0.7,0.2C70.1,6.9,70,7,69.9,7.1c0.5,0.2,0.9,0.5,1.1,1
				c0.4,0.5,0.6,1.2,0.7,2.1c0.1,0.9,0.1,1.6-0.1,2.2l0,0c-0.1,0-0.2,0-0.3,0l0.1,0h-0.2l-0.3,0c-0.2,0-0.3,0-0.5,0
				c-0.4,0-0.7,0-0.9,0c-0.3,0-0.5,0-0.8-0.1c-0.2-0.2-0.4-0.4-0.7-0.8c-0.6-0.8-1.1-1.5-1.6-2.1c0,0-0.1-0.1-0.1-0.1l0,0
				c0,0,0-0.1,0-0.1c-0.7-1.1-1.1-1.8-1.1-1.9V7.3c0.2,0,0.4,0.1,0.4,0.1c0.2,0,0.3-0.1,0.3-0.1c0,0,0.1-0.1,0.2-0.3
				c0.2-0.2,0.4-0.4,0.7-0.6l0.4-0.1c0.7-0.1,1.4-0.2,2.1-0.3c1.3-0.1,2.3-0.1,2.9,0.1c0.6,0.2,1,0.7,1.1,1.4v0.1
				C73.7,9.1,73.7,10.6,73.5,12.3z M74.6,12v0.1h0l-0.2-3.6c0.1-1.1,0.6-1.2,1.4-0.2c1,1.1,1.7,2.1,2,3c-0.4,0.1-1,0.3-1.8,0.5
				c-0.6,0-1,0.1-1.3,0.2V12z M78.4,11.3c0-0.1,0-0.2-0.1-0.3c0,0,0-0.1,0-0.1h0V11C78.3,11.1,78.4,11.2,78.4,11.3L78.4,11.3z
				 M81.7,14.5h-3.2c0.2-0.8,0.5-1.4,0.8-2c0.4,0.2,0.9,0.6,1.5,1.1C81.2,14,81.5,14.3,81.7,14.5z M52.9,11.3L52.9,11.3l-2.7,2.4
				c-0.9,0.6-1.2,0.3-1-1c0.2-1.4,0.5-2.5,1-3.5c0.4,0.2,0.9,0.6,1.5,1.2c0.4,0.4,0.7,0.7,1,0.9L52.9,11.3L52.9,11.3L52.9,11.3z
				 M53.5,14.5c0.5-0.5,1-0.9,1.5-1.2v0h0c0.1,0,0.1,0.1,0.2,0.1l0,0v0.1c0,0,0,0,0.1,0c0.1,0.1,0.3,0.3,0.5,0.6
				c0.1,0.2,0.3,0.3,0.4,0.4H53.5z M51.6,14.5h-1c0.9-0.9,1.9-1.7,3.1-2.5l0.8,0.6C53.3,13.2,52.4,13.8,51.6,14.5z M40.7,14.5h-1.4
				c-0.1,0-0.2-0.1-0.3-0.1c-1.1-0.4-2-0.8-2.6-1c-1.2-0.5-1.9-0.9-2-1.1l-0.1,0c0.2-0.1,0.3-0.1,0.4-0.1c0.1-0.1,0.2-0.2,0.2-0.3
				c0-0.1,0-0.2,0-0.4c0-0.2,0.1-0.5,0.3-0.9l0.3-0.3c0.5-0.4,1.1-0.9,1.6-1.4c1.1-0.8,1.9-1.3,2.5-1.4c0.7-0.2,1.3,0.1,1.8,0.7l0,0
				c0.9,1.1,1.7,2.4,2.5,3.9l-0.8,0.6c-0.5-1.4-1.1-2.5-1.8-3.4c-0.6-0.8-1.2-1.2-1.9-1.1c-0.1,0-0.1,0.1-0.3,0.1
				c-0.2,0.1-0.3,0.2-0.5,0.3c-0.2,0.1-0.3,0.3-0.4,0.6c-0.1,0.2-0.2,0.4-0.2,0.5c0.5-0.1,1,0,1.6,0.3c0.6,0.3,1.1,0.7,1.6,1.4
				c0.6,0.7,1,1.3,1.2,1.9l0,0c-0.1,0-0.1,0.1-0.2,0.2h0.1l-0.1,0c0,0-0.1,0-0.1,0c-0.2,0.1-0.4,0.3-0.7,0.4
				C41.2,14.2,41,14.4,40.7,14.5C40.8,14.5,40.7,14.5,40.7,14.5z M44.8,11.4L44.8,11.4L44.8,11.4l-2-2.9c-0.5-1-0.2-1.3,1-0.9
				C45.1,7.9,46.3,8.4,47,9c-0.3,0.4-0.7,0.8-1.3,1.4c-0.4,0.3-0.8,0.6-1,0.9L44.8,11.4z M47.5,8.8C47.5,8.7,47.5,8.7,47.5,8.8
				c-0.2-0.1-0.2-0.2-0.3-0.3c0,0,0.1,0,0.1,0l0.1,0C47.4,8.6,47.5,8.7,47.5,8.8z M49.5,9.8c-0.1,0.2-0.2,0.5-0.2,0.7
				c0-0.1,0-0.2,0.1-0.3C49.4,10.1,49.4,10,49.5,9.8z M48.9,11.8c0-0.1,0.1-0.3,0.1-0.4c0-0.1,0-0.1,0.1-0.2
				C49,11.3,49,11.6,48.9,11.8z M34,12l0.6-0.6L34,12L34,12z"/>
			<path fill-rule="evenodd" clip-rule="evenodd" fill="#D2EAF2" fill-opacity="0.8471" d="M278.3,13c-0.2,0.3-0.2,0.8-0.3,1.5h-4.6
				c0.2-1.3,0.4-2.4,0.7-3.4l0,0c0.1-0.5,0.4-0.9,1-1.3c1-0.6,1.8-1.2,2.4-1.6c-2.3,1.2-4.5,1.8-6.8,1.8l-0.4-0.1h-0.1
				c-0.1-0.5-0.1-1,0-1.5c0-0.8-0.1-1.4-0.2-1.8c0.5-0.1,0.9-0.1,1.4-0.1c-0.5-0.2-0.9-0.3-1.4-0.3c0,0,0.1,0,0.1,0
				c-0.1,0-0.2,0-0.3,0c-0.1,0-0.1,0-0.2,0c0.4-0.1,0.8-0.1,1.3,0l2.5,0.5c1.5,0.1,2.8,0.3,4,0.6c0.7,0.1,1.1,0.5,1.1,1.1
				c0,1-0.1,1.9-0.2,2.9v0C278.3,11.9,278.3,12.5,278.3,13z M270.4,11c0.4,0.1,0.8,0.1,1.2,0.3c0.5,0.1,0.8,0.6,0.9,1.5l0.2,1.8
				h-2.2l-0.1-1.3c0,0,0-0.1,0-0.1l0,0h0c0-0.1,0-0.2,0-0.3l0,0c0.2,0,0.3,0.1,0.5,0.1c0.2,0.1,0.4,0.1,0.6,0.1c0.1,0,0.2,0,0.2,0
				s0-0.1,0-0.1c0-0.2-0.1-0.3-0.5-0.5c-0.4-0.2-0.6-0.4-0.8-0.4l-0.1-0.1L270.4,11z M249.2,10.2c-0.3,0.3-0.6,0.5-0.7,0.8
				c0,0,0,0,0,0c0.1,0,0.1-0.1,0.1-0.1v0c0.1-0.2,0.3-0.4,0.5-0.6C249,10.3,249.1,10.2,249.2,10.2z M252.8,14.2l-0.3-0.3l-1-0.8
				c-0.2-0.1-0.4-0.3-0.6-0.4l0,0c-0.1-0.1-0.2-0.1-0.3-0.2c-0.1-0.1-0.3-0.2-0.5-0.3c-0.2-0.2-0.4-0.3-0.7-0.5c0,0-0.1-0.1-0.2-0.1
				c0,0,0,0-0.1,0c0,0,0-0.1,0-0.1c0.1-0.5,0.3-0.9,0.7-1.1c1-0.8,1.6-1.4,1.7-1.9c0.4-0.3,0.9-0.8,1.3-1.3l0,0c0.6-0.7,1.3-1.3,2-2
				c0.5-0.4,1-0.4,1.5,0c1,0.6,2,1.5,3.2,2.5l2,1.4c0.2,0.1,0.3,0.2,0.4,0.4c0.1,0.1,0.3,0.3,0.4,0.4c-0.3-0.4-0.8-0.7-1.4-0.9
				c0.3,0.3,0.6,0.7,0.9,1.1c-0.4,0.2-0.8,0.5-1.4,1.1c-0.4,0.4-0.8,0.7-1.2,1V12l0,0l-0.4-0.3c-1.5-1.6-2.6-3.7-3.3-6.1
				c0.1,0.8,0.3,1.8,0.5,2.9c0.1,0.6,0,1.1-0.3,1.6v0c-0.5,0.9-1.3,2-2.3,3.1C253.4,13.5,253.2,13.8,252.8,14.2L252.8,14.2z
				 M229.1,14.5c0.2-0.3,0.4-0.7,0.9-1c1-0.6,1.8-1.2,2.5-1.6c-2.3,1.2-4.6,1.8-6.8,1.8l-0.5,0v0h0c-0.1-0.5-0.1-1-0.1-1.6
				c0-0.8-0.1-1.3-0.2-1.8c0.5-0.1,0.9-0.1,1.3-0.1c-0.5-0.2-0.9-0.3-1.3-0.3c0,0,0.1,0,0.1,0c-0.1,0-0.2,0-0.4,0
				c-0.1,0-0.1,0-0.2,0c0.4-0.1,0.8-0.1,1.3,0l2.5,0.5c1.5,0.1,2.8,0.3,4,0.6c0.7,0.1,1.1,0.5,1.1,1.1c0,0.8-0.1,1.6-0.1,2.5H229.1z
				 M239.7,14.5h-4.9c0-0.1,0-0.3,0-0.4c0.1-1.3,0-2.1-0.2-2.6c0.1-0.5,0.1-1.1,0-1.8v0c-0.1-0.9-0.1-1.9-0.2-2.9
				c0-0.6,0.4-1,1.1-1.1c1.2-0.3,2.5-0.5,4-0.6l2.5-0.5c0.5-0.1,0.9-0.1,1.3,0c-0.1,0-0.1,0-0.2,0c-0.1,0-0.2,0-0.3,0
				c0,0,0.1,0,0.1,0c-0.4,0-0.9,0.1-1.4,0.3c0.4,0,0.9,0,1.4,0.1c-0.1,0.4-0.2,1-0.2,1.8c0.1,0.6,0,1.1,0,1.5h-0.1l-0.4,0.1
				c-2.2,0-4.5-0.6-6.8-1.8c0.6,0.5,1.4,1,2.4,1.6c0.5,0.4,0.9,0.8,1,1.3l0,0c0.3,1,0.5,2.3,0.7,3.8
				C239.6,13.7,239.7,14.1,239.7,14.5z M241.8,14.5h-1.6l0.3-3.3c0.1-0.9,0.4-1.4,0.9-1.5c0.4-0.1,0.8-0.2,1.2-0.3l0,1l-0.1,0.1
				c-0.1,0-0.4,0.2-0.8,0.4c-0.3,0.2-0.5,0.3-0.5,0.5c0,0,0,0.1,0,0.1s0.1,0,0.2,0c0.2,0,0.4,0,0.6-0.1c0.2-0.1,0.3-0.1,0.5-0.1l0,0
				c0,0.1,0,0.2,0,0.3h0l0,0c0,0,0,0.1,0,0.1l-0.1,1.5C242.5,13.9,242.3,14.3,241.8,14.5C241.9,14.5,241.8,14.5,241.8,14.5
				C241.8,14.5,241.8,14.5,241.8,14.5z M253.2,14.5l2.7-2c0.7-0.5,1.2-0.7,1.6-0.4c0.3,0.2,0.7,0.4,1,0.7l-0.8,0.6c0,0,0,0,0,0h-0.2
				c-0.1-0.1-0.4-0.2-0.8-0.3c-0.3-0.1-0.5-0.1-0.6,0c0,0-0.1,0.1-0.1,0.1c0,0.1,0,0.1,0.1,0.2c0.1,0.2,0.3,0.3,0.5,0.4
				c0.2,0.1,0.3,0.2,0.4,0.3h0.1c-0.1,0.1-0.1,0.1-0.2,0.2l0-0.1v0.1c0,0,0,0,0,0l-0.2,0.2H253.2z M209.4,14.5h-5.9
				c1-0.8,1.6-1.4,1.7-1.9c0.4-0.3,0.9-0.8,1.3-1.3l0,0c0.6-0.7,1.3-1.3,2-2c0.5-0.4,1-0.4,1.5,0c1,0.6,2,1.5,3.2,2.5l2,1.4
				c0.4,0.3,0.7,0.6,0.9,0.9c-0.3-0.4-0.8-0.8-1.5-1c0.3,0.3,0.6,0.7,0.8,1.1c-0.1,0.1-0.2,0.1-0.3,0.2h-3.8
				c-0.9-1.3-1.6-2.9-2.1-4.6c0.1,0.8,0.3,1.8,0.5,2.9c0.1,0.6,0,1.1-0.3,1.6v0C209.4,14.4,209.4,14.5,209.4,14.5z M199.4,14.5h-3.2
				c0.4-0.1,0.8-0.1,1.3-0.1c0.8-0.2,1.4-0.3,1.7-0.4C199.3,14.1,199.3,14.3,199.4,14.5z M199.7,13.9c0.1,0.2,0.1,0.4,0.1,0.6h-0.1
				C199.7,14.3,199.7,14,199.7,13.9z M151.1,7.9c-0.1-0.2-0.2-0.3-0.4-0.4C150.9,7.6,151,7.8,151.1,7.9L151.1,7.9z M174.1,13.3
				c-0.1,0-0.1,0.1-0.2,0.1l-0.1,0v0.1c0,0,0,0,0,0l-1.2,1h-1.8c-0.1-0.1-0.1-0.1-0.2-0.2l-0.5-0.6l2.7-2.1c0.7-0.5,1.2-0.6,1.6-0.4
				c0.3,0.2,0.7,0.4,1,0.7l-0.8,0.6c0,0,0,0,0,0h-0.2c-0.1-0.1-0.4-0.2-0.8-0.3c-0.3-0.1-0.5,0-0.7,0.1c0,0-0.1,0-0.1,0
				c0,0.1,0,0.1,0.1,0.2c0.1,0.2,0.3,0.3,0.5,0.4C173.7,13.1,173.9,13.1,174.1,13.3L174.1,13.3z M169.7,13.4l-0.3-0.3l-1.1-0.8
				c-0.2-0.1-0.4-0.3-0.6-0.4l0-0.1c-0.2-0.2-0.5-0.3-0.8-0.5c-0.3-0.2-0.6-0.4-0.9-0.6c0,0,0-0.1,0-0.1c0.1-0.5,0.3-0.9,0.7-1.1
				c1-0.8,1.6-1.4,1.7-1.9c0.4-0.3,0.9-0.8,1.3-1.3l0-0.1c0.6-0.7,1.3-1.3,2-2c0.5-0.4,1-0.4,1.6,0.1c1,0.6,2,1.4,3.1,2.4l2,1.5
				c0.4,0.3,0.7,0.6,0.9,0.9c-0.3-0.4-0.8-0.8-1.5-1c0.3,0.3,0.6,0.7,0.8,1.1c-0.4,0.2-0.8,0.5-1.4,1c-0.4,0.4-0.8,0.7-1.2,1v0l0,0
				l-0.4-0.3c-1.5-1.6-2.6-3.7-3.3-6.2c0.1,0.8,0.3,1.8,0.5,3c0.1,0.6,0,1.1-0.3,1.5v0.1c-0.5,0.9-1.3,2-2.3,3.1
				C170.3,12.7,170,13,169.7,13.4L169.7,13.4z M160,14.5l-3.1-0.7c-0.8-0.2-1.3-0.5-1.3-1c0-0.4-0.1-0.8-0.1-1.1l1,0.1v0l0.1,0.1
				c0.1,0.1,0.2,0.3,0.3,0.8c0.1,0.3,0.3,0.5,0.5,0.5c0,0,0.1-0.1,0.2-0.1c0,0,0,0,0-0.1c0-0.2,0-0.4,0-0.7c0-0.1-0.1-0.3-0.1-0.5
				l0,0c0.1,0,0.2,0,0.3,0l-0.1,0.1h0.2l0.3,0l1.3,0.2c0.6,0.1,1,0.3,1,0.8c0,0,0,0.1,0,0.1c0,0,0.1-0.1,0.1-0.1
				c0,0.3,0,0.6-0.1,0.9l-0.1,0.8H160z M153.8,14.5h-3c0-0.2,0-0.4,0-0.5l-0.1-1.6l-0.1-0.9c0-0.3,0-0.6,0.1-0.9
				c0,0.4,0,0.9,0.2,1.4c0-0.5,0.1-0.9,0.3-1.3c0.1,0,0.2,0.1,0.4,0.1c0.1,0,0.3,0.1,0.4,0.1c0.3,0.1,0.5,0.1,0.9,0.2
				c0.6,0,1.1,0.1,1.5,0.2v0.1h0l0,0.4C154.3,12.7,154.1,13.6,153.8,14.5z M140.4,9.2c-0.4-0.3-0.8-0.6-1.2-1
				c-0.6-0.5-1-0.9-1.4-1.1c0.3-0.4,0.5-0.8,0.9-1.1c-0.7,0.3-1.2,0.6-1.5,1c0.2-0.3,0.5-0.6,0.9-0.9l2-1.4c1.1-1,2.2-1.8,3.2-2.5
				c0.6-0.4,1.1-0.5,1.5,0c0.7,0.7,1.4,1.3,2,2l0,0c0.4,0.5,0.9,0.9,1.3,1.3c0.1,0.4,0.7,1,1.7,1.9c0.4,0.2,0.6,0.6,0.7,1.1
				c0,0,0,0.1,0,0.1c-0.3,0.2-0.6,0.4-0.9,0.6c-0.3,0.2-0.5,0.3-0.8,0.5l0,0c-0.2,0.1-0.4,0.3-0.6,0.4l-1,0.8l-0.3,0.3l0,0
				c-0.3-0.3-0.6-0.6-0.8-0.9c-1-1.1-1.7-2.2-2.3-3.1v0c-0.3-0.4-0.4-1-0.3-1.6c0.2-1.2,0.4-2.1,0.5-2.9c-0.7,2.5-1.8,4.5-3.3,6.1
				L140.4,9.2L140.4,9.2L140.4,9.2z M141.9,10.5l-0.8-0.6c0.4-0.3,0.7-0.5,1.1-0.7c0.4-0.3,0.9-0.2,1.6,0.3l2.7,2.1l-0.5,0.6
				c-0.2,0.2-0.5,0.4-0.6,0.5v0l-0.1,0c-0.4,0.2-0.8,0.1-1.3-0.3l-1.3-1.1c0,0,0,0,0,0v-0.1l0,0c-0.1,0-0.1-0.1-0.2-0.1h0.1
				c0.1-0.1,0.3-0.2,0.4-0.3c0.2-0.1,0.4-0.2,0.5-0.4c0.1-0.1,0.1-0.1,0.1-0.2c0,0-0.1,0-0.1,0c-0.1-0.1-0.3-0.1-0.6,0
				c-0.4,0.1-0.7,0.2-0.8,0.3L141.9,10.5C141.9,10.5,141.9,10.5,141.9,10.5z M120.7,14.5h-5.9c1-0.8,1.6-1.4,1.7-1.9
				c0.4-0.3,0.9-0.8,1.3-1.3l0.1,0c0.6-0.7,1.3-1.3,2-2c0.5-0.4,1-0.4,1.5,0c1,0.6,2,1.5,3.1,2.5l2.1,1.4c0.4,0.3,0.7,0.6,0.9,0.9
				c-0.3-0.4-0.8-0.8-1.5-1c0.3,0.3,0.6,0.7,0.9,1.1c-0.1,0.1-0.2,0.1-0.4,0.2h-3.8c-0.9-1.3-1.6-2.9-2.1-4.6
				c0.1,0.8,0.3,1.8,0.5,2.9c0.1,0.6,0,1.1-0.3,1.6v0C120.7,14.4,120.7,14.5,120.7,14.5z M92.1,13.9c-0.3,0.2-0.6,0.4-0.9,0.6h-4.5
				c-0.5-0.7-1-1.3-1.3-2v0c-0.3-0.4-0.4-1-0.3-1.5c0.2-1.2,0.4-2.2,0.5-3c-0.7,2.5-1.8,4.5-3.3,6.1l-0.4,0.3l0,0v0
				c-0.4-0.3-0.8-0.6-1.2-1c-0.6-0.5-1-0.9-1.4-1c0.3-0.4,0.6-0.8,0.9-1.1c-0.6,0.2-1.1,0.5-1.4,0.9c0-0.1,0.1-0.1,0.1-0.2
				c0.1-0.1,0.2-0.2,0.3-0.3c0.1-0.1,0.3-0.2,0.4-0.3l2.1-1.5c1.1-1,2.2-1.8,3.1-2.5c0.6-0.4,1.1-0.4,1.5,0c0.7,0.7,1.4,1.3,2,2
				l0.1,0c0.4,0.5,0.9,0.9,1.3,1.3c0.1,0.4,0.7,1.1,1.7,1.9c0.4,0.2,0.6,0.6,0.7,1.1C92,13.8,92.1,13.9,92.1,13.9z M92.8,13.5
				c-0.1-0.2-0.3-0.5-0.5-0.7c0.2,0.2,0.4,0.4,0.5,0.5C92.8,13.3,92.8,13.4,92.8,13.5C92.8,13.4,92.8,13.4,92.8,13.5z M78.4,11.6
				c0-0.1,0-0.2,0-0.3C78.4,11.4,78.4,11.5,78.4,11.6C78.4,11.6,78.4,11.6,78.4,11.6z M68.7,14.5v-0.1c-0.1-0.3-0.1-0.6-0.1-0.9
				c0,0,0.1,0,0.1,0.1c0,0,0-0.1,0-0.1c0.1-0.4,0.5-0.7,1-0.8l1.3-0.2l0.3,0h0.2l-0.1,0c0.1,0,0.2,0,0.3,0l0,0
				c0,0.2-0.1,0.4-0.1,0.5c0,0.3,0,0.5,0,0.7c0,0.1,0,0.1,0,0.1c0.1,0,0.1,0,0.1,0.1c0.2,0,0.4-0.2,0.5-0.5c0.1-0.5,0.2-0.7,0.3-0.8
				l0.1-0.1v0l0.9-0.1c0,0.4-0.1,0.8-0.1,1.1c0,0.5-0.5,0.9-1.3,1.1l-0.2,0H68.7z M77.1,14.5h-2c-0.2-0.7-0.3-1.3-0.4-2l0-0.4h0V12
				c0.4-0.1,0.9-0.2,1.5-0.2c0.8-0.2,1.4-0.3,1.7-0.4c0.1,0.2,0.1,0.4,0.2,0.6c-0.1,0.2-0.2,0.3-0.3,0.6c-0.1,0.3-0.3,0.6-0.4,1
				C77.3,13.8,77.2,14.1,77.1,14.5z M62.2,11.3c-0.3,0.2-0.5,0.3-0.8,0.5l-0.1,0.1c-0.2,0.1-0.4,0.3-0.6,0.4l-1,0.8l-0.3,0.3l0,0
				c-0.3-0.3-0.5-0.6-0.8-0.9c-1-1.1-1.7-2.2-2.3-3.1V9.3c-0.3-0.4-0.4-0.9-0.3-1.5c0.2-1.2,0.4-2.1,0.5-3c-0.7,2.5-1.8,4.5-3.3,6.2
				l-0.4,0.3l0,0v0c-0.4-0.3-0.8-0.6-1.2-1c-0.6-0.5-1-0.9-1.4-1c0.3-0.4,0.6-0.8,0.9-1.1c-0.7,0.3-1.2,0.6-1.5,1
				c0.2-0.3,0.5-0.6,0.9-0.9l2.1-1.5c1.1-1,2.2-1.8,3.1-2.4c0.6-0.4,1.1-0.5,1.5-0.1c0.7,0.7,1.4,1.3,2,2l0.1,0.1
				c0.4,0.5,0.9,0.9,1.3,1.3c0.1,0.4,0.7,1,1.7,1.9c0.4,0.2,0.6,0.6,0.7,1.1c0,0,0,0.1,0.1,0.1C62.8,10.9,62.5,11.1,62.2,11.3z
				 M54.5,12.6L53.7,12c0.4-0.3,0.7-0.5,1-0.7c0.4-0.3,0.9-0.2,1.6,0.4l2.7,2.1l-0.5,0.6c-0.1,0.1-0.1,0.1-0.2,0.2h-1.8l-1.2-1
				c0,0-0.1,0-0.1,0v-0.1l0,0c-0.1,0-0.1-0.1-0.2-0.1h0.1c0.1-0.1,0.3-0.2,0.5-0.3c0.2-0.1,0.4-0.2,0.5-0.4c0.1-0.1,0.1-0.1,0.1-0.2
				c0,0-0.1,0-0.1,0c-0.1-0.1-0.3-0.1-0.6-0.1c-0.4,0.1-0.7,0.2-0.8,0.3L54.5,12.6C54.5,12.6,54.5,12.6,54.5,12.6z M44.8,11.4
				c0.3-0.3,0.7-0.7,1.2-1c0.6-0.5,1-1,1.2-1.3c0.4,0.3,0.7,0.6,1,0.9c-0.2-0.6-0.4-1-0.6-1.3c0,0,0,0,0.1,0C47.7,9,47.9,9.2,48,9.5
				l0.4,0.7c0,0.1,0,0.1,0,0.2c-0.3,0.9-0.5,2-0.8,3.3c0,0.1,0,0.3,0,0.5c-0.9-0.7-1.8-1.4-2.5-2.3L44.8,11.4L44.8,11.4L44.8,11.4z
				 M43.2,12.7l0.8-0.6c0.2,0.4,0.4,0.7,0.5,1c0.2,0.4,0.1,0.9-0.3,1.4h-1.1h-2l1.1-1c0,0,0.1,0,0.1,0l0.1,0h-0.1
				c0.1-0.1,0.1-0.1,0.2-0.2c0.1,0.2,0.2,0.3,0.2,0.5c0.1,0.2,0.2,0.4,0.3,0.6c0,0.1,0.1,0.1,0.1,0.1c0.1,0,0.1,0,0.1,0
				c0.1-0.1,0.2-0.4,0.1-0.7c-0.1-0.4-0.2-0.7-0.2-0.8V12.7z"/>
			<path fill-rule="evenodd" clip-rule="evenodd" fill="#91C8DE" d="M270.1,6.6c0.1,0.4,0.2,1,0.2,1.8c-0.1,0.6,0,1.1,0,1.5h-0.1
				c-0.1-0.3-0.1-0.8,0-1.4C270.2,7.7,270.1,7.1,270.1,6.6C270,6.6,270.1,6.6,270.1,6.6z M262,10L262,10c-0.4,0.3-0.9,0.7-1.5,1.2
				c-0.4,0.4-0.7,0.7-1,0.9l-0.1,0c0.4-0.3,0.8-0.6,1.2-1C261.1,10.6,261.6,10.2,262,10z M242.7,8.4c0.1-0.5,0.1-1,0-1.5
				c0-0.8,0.1-1.4,0.2-1.8c0,0,0.1,0,0.1,0c-0.1,0.4-0.2,1.1-0.2,1.9C242.8,7.6,242.8,8.1,242.7,8.4L242.7,8.4z M225.2,13.6H225
				c-0.1-0.3-0.1-0.8,0-1.4c0-0.8-0.1-1.5-0.2-1.9c0,0,0.1-0.1,0.1-0.1c0.1,0.4,0.2,1,0.2,1.8C225,12.6,225,13.1,225.2,13.6z
				 M215.3,14.5h-0.1c0.1-0.1,0.2-0.1,0.3-0.2v0.1C215.5,14.4,215.4,14.4,215.3,14.5z M196.2,14.5H196v0c0.3-0.1,0.7-0.2,1.3-0.2
				c0.8-0.2,1.5-0.3,1.9-0.5c0.1,0.1,0.1,0.1,0,0.2c-0.3,0.1-0.9,0.2-1.7,0.4C197,14.4,196.6,14.4,196.2,14.5z M178.8,9.3L178.8,9.3
				c-0.4,0.3-0.9,0.7-1.5,1.2c-0.4,0.4-0.7,0.7-1,0.9l-0.1-0.1c0.4-0.3,0.8-0.6,1.2-1C178,9.8,178.5,9.4,178.8,9.3z M154.4,11.4
				c-0.4-0.1-0.9-0.2-1.5-0.2c-0.3-0.1-0.6-0.1-0.9-0.2c-0.2,0-0.3-0.1-0.4-0.1c-0.1,0-0.3-0.1-0.4-0.1c0,0,0-0.1,0-0.1
				c0.1,0,0.2,0.1,0.4,0.1c0.1,0,0.3,0.1,0.4,0.1c0.3,0.1,0.7,0.1,1.1,0.2c0.6,0,1,0.1,1.3,0.2V11.4z M137.8,7.1
				c0.4,0.2,0.8,0.5,1.4,1.1c0.4,0.4,0.8,0.7,1.2,1l-0.1,0c-0.3-0.2-0.6-0.5-1-0.9C138.6,7.8,138.1,7.4,137.8,7.1L137.8,7.1z
				 M126.6,14.5h-0.1c0.1-0.1,0.2-0.1,0.4-0.2v0.1C126.8,14.4,126.7,14.4,126.6,14.5z M81.7,14.5c-0.3-0.2-0.6-0.5-0.9-0.9
				c-0.6-0.5-1.1-0.9-1.5-1.1v0c0.4,0.2,0.8,0.5,1.4,1c0.4,0.4,0.8,0.7,1.2,1H81.7z M77.9,11.4c-0.3,0.1-0.9,0.2-1.7,0.4
				c-0.6,0-1.1,0.1-1.5,0.2v-0.1c0.3-0.1,0.7-0.2,1.3-0.2c0.8-0.2,1.4-0.3,1.8-0.5C77.9,11.3,77.9,11.4,77.9,11.4z M50.3,9.3
				L50.3,9.3c0.4,0.1,0.8,0.5,1.4,1c0.4,0.4,0.8,0.7,1.2,1l-0.1,0.1c-0.3-0.2-0.6-0.5-1-0.9C51.2,9.9,50.7,9.5,50.3,9.3z M47.1,9.1
				c-0.2,0.3-0.6,0.7-1.2,1.3c-0.5,0.3-0.9,0.7-1.2,1l0-0.1c0.2-0.2,0.6-0.5,1-0.9c0.6-0.6,1.1-1,1.3-1.4C47.1,9,47.1,9.1,47.1,9.1z
				"/>
			<path fill-rule="evenodd" clip-rule="evenodd" fill="#8EC8DD" d="M270.3,14.5c0-0.1,0-0.3,0-0.5c0-0.3,0.1-0.5,0.1-0.8l0.1,1.3
				H270.3z M243.5,14.5h-0.8c-0.2,0-0.4,0-0.7,0c-0.1,0-0.1,0-0.1,0c0.4-0.2,0.6-0.6,0.6-1.2l0.1-1.5c0,0.2,0,0.5,0.1,0.8
				c0,0.4,0.1,0.7,0.1,0.9c0.1,0.3,0.2,0.5,0.3,0.7C243.2,14.2,243.3,14.4,243.5,14.5z M252.5,13.9l0.2,0.4
				c-0.6-0.6-1.3-1.2-2.2-1.8c-0.1-0.1-0.3-0.2-0.5-0.4c0.2,0.1,0.3,0.2,0.5,0.3c0.1,0.1,0.2,0.1,0.3,0.2l0,0
				c0.2,0.1,0.4,0.3,0.6,0.4L252.5,13.9z M256.7,14.5l0.2-0.2C256.8,14.4,256.8,14.4,256.7,14.5L256.7,14.5z M186.7,9.9L186.7,9.9
				c0.1,0.3,0.5,0.9,1.1,2c0,0,0,0,0,0.1c-0.2-0.2-0.4-0.4-0.5-0.6c0-0.1-0.3-0.5-0.8-1.1c-0.1-0.3-0.3-0.5-0.5-0.6
				c0.2,0.1,0.3,0.2,0.5,0.3C186.6,9.8,186.6,9.9,186.7,9.9z M188,12c0.4,0.6,1,1.3,1.5,2.1c0.1,0.1,0.2,0.2,0.3,0.4h-0.3
				c0-0.1-0.1-0.2-0.3-0.5c-0.2-0.3-0.4-0.6-0.6-0.8C188.5,12.9,188.2,12.5,188,12z M173.8,13.5c-0.1,0.1-0.3,0.3-0.5,0.6
				c-0.1,0.2-0.3,0.3-0.3,0.4h-0.3L173.8,13.5z M169.4,13l0.1,0.5c-0.7-0.7-1.5-1.4-2.6-2.2c0.3,0.2,0.5,0.3,0.8,0.5l0,0.1
				c0.2,0.1,0.4,0.3,0.6,0.4L169.4,13z M164.3,6.3c-0.2,0.2-0.3,0.4-0.4,0.7c-0.5,0.6-0.8,1-0.9,1.1c-0.2,0.2-0.3,0.4-0.5,0.6
				c0,0,0-0.1,0-0.1c0.7-1.1,1.1-1.8,1.2-1.9V6.6c0.1,0,0.1,0,0.2,0C164,6.5,164.2,6.4,164.3,6.3z M160.3,12.9
				c-0.1-0.4-0.5-0.7-1-0.8l-1.3-0.2c0.2,0,0.3,0,0.5,0c0.4,0,0.7,0,0.9,0c0.3,0,0.5,0,0.8-0.1c0.2-0.2,0.4-0.4,0.7-0.8
				c0.6-0.8,1.1-1.5,1.6-2.1c-0.2,0.4-0.5,0.8-0.7,1.1c-0.2,0.3-0.4,0.5-0.6,0.9c-0.2,0.3-0.4,0.4-0.4,0.5c-0.1,0.1-0.2,0.3-0.3,0.6
				c0,0.2-0.1,0.5-0.2,0.8C160.3,12.8,160.3,12.8,160.3,12.9z M144.3,14.5h-0.2c0,0,0-0.1,0-0.1c0.1-0.4,0.2-0.7,0.1-1
				c0-0.2-0.1-0.5-0.3-0.7c-0.1-0.1-0.3-0.3-0.5-0.6c-0.2-0.3-0.4-0.5-0.6-0.6l1.3,1.1c0.4,0.4,0.8,0.5,1.3,0.3c0,0-0.1,0.1-0.1,0.1
				c-0.2,0.3-0.4,0.5-0.6,0.6c-0.1,0.2-0.2,0.4-0.3,0.6C144.4,14.2,144.3,14.3,144.3,14.5z M149.6,9.2c-1.1,0.8-1.9,1.5-2.6,2.2
				l0.2-0.4l1-0.8c0.2-0.1,0.4-0.3,0.6-0.4l0,0C149.1,9.5,149.4,9.4,149.6,9.2z M98.3,13.1c-0.2-0.2-0.4-0.4-0.5-0.6
				c0-0.1-0.3-0.5-0.8-1.2c-0.1-0.3-0.3-0.5-0.5-0.6c0.2,0.1,0.3,0.2,0.5,0.3c0.1,0,0.1,0,0.2,0v0C97.2,11.3,97.6,11.9,98.3,13.1
				C98.3,13,98.3,13,98.3,13.1z M99.4,14.5h-0.2c0-0.1-0.1-0.1-0.1-0.1c-0.2-0.3-0.4-0.7-0.6-1.1C98.7,13.6,99.1,14,99.4,14.5z
				 M66.5,9.4c-0.2-0.2-0.4-0.4-0.5-0.6c0-0.1-0.3-0.5-0.9-1.1C65,7.3,64.9,7.1,64.7,7C64.9,7,65,7.1,65.1,7.3c0.1,0,0.1,0,0.2,0
				v0.1C65.4,7.5,65.8,8.2,66.5,9.4C66.5,9.3,66.5,9.3,66.5,9.4z M71,12.5l-1.3,0.2c-0.6,0.1-0.9,0.3-1,0.8c0,0,0-0.1,0-0.1
				c-0.1-0.3-0.1-0.6-0.2-0.8c-0.1-0.3-0.2-0.5-0.3-0.6c0-0.1-0.1-0.2-0.4-0.5c-0.2-0.3-0.4-0.6-0.6-0.9c-0.2-0.3-0.4-0.7-0.6-1.1
				c0.4,0.6,1,1.3,1.6,2.1c0.3,0.4,0.5,0.6,0.7,0.8c0.2,0.1,0.5,0.1,0.8,0.1c0.2,0,0.5,0,0.9,0C70.7,12.5,70.9,12.5,71,12.5z
				 M59.6,13.5l0.1-0.5l1-0.8c0.2-0.1,0.4-0.3,0.6-0.4l0.1-0.1c0.2-0.2,0.5-0.3,0.8-0.5C61.1,12.1,60.3,12.8,59.6,13.5z M40.7,14.5
				C40.7,14.5,40.8,14.5,40.7,14.5c0.3-0.1,0.5-0.3,0.8-0.5c0.3-0.1,0.5-0.3,0.7-0.4l-1.1,1H40.7z M56.3,14.5
				c-0.1-0.1-0.2-0.2-0.4-0.4c-0.2-0.3-0.4-0.5-0.5-0.6l1.2,1H56.3z M33.8,12.1L34,12l0,0L33.8,12.1z M38.8,14.5
				c-0.3-0.2-0.7-0.3-1-0.5c-0.3-0.1-0.7-0.3-1.1-0.5c-0.3-0.1-0.6-0.3-0.9-0.4c-0.1-0.1-0.6-0.3-1.4-0.5c-0.3-0.1-0.5-0.2-0.7-0.3
				c0.2,0,0.3,0,0.5,0c0.1,0,0.2,0,0.2,0l0.1,0c0.1,0.2,0.8,0.5,2,1.1c0.7,0.3,1.6,0.6,2.6,1c0.1,0,0.2,0.1,0.3,0.1H38.8z"/>
			<path fill-rule="evenodd" clip-rule="evenodd" fill="#8FC2D4" d="M252.5,14.5h-3.6v0c0.1-1.1,0.2-2.1,0.3-2.8c0,0,0-0.1,0-0.1
				c0,0,0.1,0,0.1,0c0.1,0,0.1,0.1,0.2,0.1c0.2,0.1,0.5,0.3,0.7,0.5c0.2,0.1,0.3,0.2,0.5,0.4c0.9,0.7,1.6,1.3,2.2,1.8l-0.2-0.4
				l0.3,0.3c-0.1,0.1-0.1,0.1-0.2,0.1C252.6,14.4,252.5,14.4,252.5,14.5z M241.9,14.5c0,0,0.1,0,0.1,0c0.3,0,0.5,0,0.7,0L241.9,14.5
				c-0.1,0-0.1,0-0.1,0C241.8,14.5,241.9,14.5,241.9,14.5z M187.9,11.9L187.9,11.9C187.9,12,188,12,188,12c0.2,0.4,0.5,0.8,0.7,1.2
				c0.2,0.3,0.4,0.5,0.6,0.8c0.2,0.2,0.3,0.4,0.3,0.5h-3.3c0-0.6-0.1-0.9-0.1-1c0-0.3-0.1-0.5-0.2-0.7c0-0.2,0-0.3-0.1-0.3
				c0,0-0.1,0.3-0.3,0.9c0-1.2,0-2.2,0.1-3c0-0.4,0.1-0.7,0.4-0.9c0.2,0.2,0.3,0.4,0.5,0.6c0.5,0.6,0.8,1,0.8,1.1
				C187.5,11.5,187.7,11.7,187.9,11.9z M147.6,14.5h-3.3c0-0.2,0.1-0.3,0.1-0.4c0-0.2,0.1-0.4,0.3-0.6c0.1-0.2,0.3-0.4,0.6-0.6
				c0,0,0.1-0.1,0.1-0.1l0.1,0v0c0.2-0.1,0.4-0.3,0.6-0.5l0.5-0.6l2.5,1.9c-0.8-0.8-1.4-1.5-2-2.1c-0.1,0-0.1-0.1-0.2-0.1l0.3-0.3
				l-0.2,0.4c0.7-0.7,1.5-1.4,2.6-2.2c0.3-0.2,0.6-0.4,0.9-0.6c0,0.1,0,0.1,0,0.1c0,0,0,0,0,0.1c-0.1,0.2-0.2,0.4-0.3,0.6
				c-0.1,0.3-0.2,0.5-0.3,0.6c-0.1,0.5-0.1,0.9-0.1,1.3c0,0.2,0,0.3,0,0.5c0.1,0.4,0.1,0.8,0.1,1.3c0,0.5,0,1,0,1.4h-1
				c-0.3-0.2-0.5-0.5-0.8-0.6c-0.6-0.4-0.9-0.5-1.1-0.4c-0.1,0.1,0,0.2,0.1,0.4c0.2,0.2,0.3,0.4,0.3,0.5
				C147.6,14.4,147.6,14.4,147.6,14.5z M168.6,14.5h-2.4c0-0.1,0-0.2,0-0.3c-0.1-0.8-0.2-1.6-0.3-2.5c0-0.3,0.1-0.6,0.1-0.9
				c0,0,0-0.1,0-0.1c0.3,0.2,0.6,0.4,0.9,0.6c1.1,0.8,1.9,1.5,2.6,2.2C169.3,13.8,169,14.1,168.6,14.5z M170.8,14.5H169l1-0.8
				l0.5,0.6C170.7,14.4,170.7,14.4,170.8,14.5z M169.7,13.4c-0.1,0.1-0.1,0.1-0.2,0.1l-0.1-0.5L169.7,13.4z M164.3,6.3
				c0.3,0.2,0.4,0.5,0.4,0.9c0,0.7,0,1.5,0,2.5c0,0.1,0,0.3,0,0.4c0,0,0,0,0,0.1c-0.1-0.6-0.2-0.9-0.3-0.9c-0.1,0-0.1,0.1-0.1,0.3
				c-0.1,0.2-0.2,0.4-0.2,0.7c0,0.1-0.1,0.4-0.1,1.1c-0.1,1.3-0.5,2-1.2,2.3c-0.1,0-0.3,0-0.7,0.1c-0.1,0-0.2,0-0.3,0.1
				c0,0.2,0.3,0.4,1,0.6c0.1,0,0.1,0,0.2,0h-3l0.1-0.8c0.1-0.3,0.1-0.6,0.1-0.9c0,0-0.1,0-0.1,0.1c0,0,0-0.1,0-0.1c0,0,0-0.1,0-0.1
				c0.1-0.3,0.1-0.6,0.2-0.8c0.1-0.3,0.2-0.5,0.3-0.6c0-0.1,0.1-0.2,0.4-0.5c0.2-0.3,0.4-0.6,0.6-0.9c0.2-0.3,0.4-0.7,0.7-1.1
				c0,0,0.1-0.1,0.1-0.1h0c0.2-0.2,0.3-0.5,0.5-0.6c0-0.1,0.3-0.5,0.9-1.1C164,6.7,164.2,6.5,164.3,6.3z M164.9,14.5h-0.2
				c0.1-0.1,0.1-0.2,0.2-0.4C164.9,14.2,164.9,14.3,164.9,14.5L164.9,14.5z M98.5,13.2c0.2,0.4,0.4,0.8,0.6,1.1c0,0,0.1,0.1,0.1,0.1
				h-2.6c0-0.2-0.1-0.4-0.2-0.5c0-0.2,0-0.3-0.1-0.3c0,0-0.1,0.3-0.3,0.9c0-1.2,0-2.2,0.1-3c0-0.4,0.1-0.7,0.4-0.9
				c0.2,0.2,0.3,0.4,0.5,0.6c0.5,0.6,0.8,1,0.8,1.2c0.2,0.2,0.3,0.4,0.5,0.6l0,0C98.4,13.1,98.4,13.2,98.5,13.2z M91.2,14.5
				c0.3-0.2,0.6-0.4,0.9-0.6c0,0.1,0,0.1,0,0.1c0,0.1,0.1,0.3,0.1,0.5H91.2z M66.6,9.5c0.2,0.4,0.5,0.8,0.6,1.1
				c0.2,0.3,0.4,0.6,0.6,0.9c0.2,0.3,0.4,0.4,0.4,0.5c0.1,0.1,0.2,0.3,0.3,0.6c0,0.2,0.1,0.5,0.2,0.8c0,0,0,0.1,0,0.1
				c0,0,0,0.1,0,0.1c0,0-0.1-0.1-0.1-0.1c0,0.3,0,0.6,0.1,0.9v0.1H67c0-0.1-0.1-0.1-0.3-0.1c-0.3,0-0.5-0.1-0.7-0.1
				c-0.6-0.2-1-1-1.1-2.3c0-0.7-0.1-1-0.1-1.1c0-0.3-0.1-0.5-0.2-0.7c0-0.2,0-0.3-0.1-0.3c0,0-0.1,0.3-0.3,0.8c0-0.3,0-0.6,0-0.8
				c0-0.1,0-0.3,0-0.4c0-0.7,0-1.3,0-1.8c0-0.4,0.1-0.7,0.4-0.8c0.2,0.2,0.3,0.4,0.4,0.6c0.5,0.6,0.8,1,0.9,1.1
				c0.2,0.2,0.3,0.4,0.5,0.6l0,0C66.6,9.4,66.6,9.5,66.6,9.5z M62.9,14.5h-2.4c-0.3-0.4-0.6-0.7-0.9-1c0.7-0.7,1.5-1.4,2.6-2.2
				c0.3-0.2,0.6-0.4,0.9-0.6c0,0.1,0,0.1,0,0.1c0,0.2,0.1,0.5,0.1,0.8C63.1,12.6,63,13.6,62.9,14.5z M59.6,13.5
				c-0.1,0-0.1-0.1-0.2-0.1l0.3-0.3L59.6,13.5z M60.1,14.5h-1.8c0.1-0.1,0.1-0.1,0.2-0.2l0.5-0.6L60.1,14.5z M38.8,14.5h-4.3
				c-0.3-0.5-0.5-0.9-0.7-1.3c-0.3-0.3-0.3-0.6-0.1-1c0,0,0.1,0,0.1,0c0.2,0.1,0.4,0.2,0.7,0.3c0.8,0.3,1.2,0.4,1.4,0.5
				c0.3,0.1,0.6,0.2,0.9,0.4c0.4,0.2,0.8,0.4,1.1,0.5C38.1,14.2,38.5,14.3,38.8,14.5z"/>
			<path fill-rule="evenodd" clip-rule="evenodd" fill="#FCF1F5" d="M273.5,14.5h-0.9l-0.2-1.8c-0.1-0.9-0.4-1.4-0.9-1.5
				c-0.4-0.1-0.8-0.2-1.2-0.3c-1.6-0.3-3.1-0.5-4.5-0.5h-0.1c-0.8,0-1.3,0.3-1.6,0.9c0,0.1-0.1,0.2-0.1,0.3
				c-0.1-0.2-0.1-0.4-0.2-0.6c-0.1-0.4-0.2-0.7-0.4-1c0-0.1-0.1-0.2-0.1-0.3c0.1-0.3,0.3-0.5,0.7-0.8c1.2-0.8,3-1.8,5.3-2.9
				c0.1,0,0.2-0.1,0.3-0.1c0.1,0,0.2,0,0.2,0c0.1,0,0.1,0,0.2,0c0.4,0,0.9,0.1,1.4,0.3c-0.4,0-0.9,0-1.4,0.1c0,0-0.1,0-0.1,0
				c-1,0.2-2.1,0.8-3.2,1.6c-1.1,0.7-1.1,1.2,0,1.4l3.5,0.3h0.1h0.1l0.4,0.1c2.2,0,4.5-0.6,6.8-1.8c-0.6,0.5-1.4,1-2.4,1.6
				c-0.5,0.4-0.9,0.8-1,1.3l0,0C273.9,12.1,273.7,13.2,273.5,14.5z M263,14.5c0-0.2,0-0.5,0-1c-0.2-1.4-0.5-2.5-1-3.4V10
				c-0.3-0.4-0.5-0.8-0.9-1.1c0.6,0.2,1.1,0.5,1.4,0.9c0,0,0.1,0.1,0.1,0.1c0,0.1,0.1,0.2,0.1,0.4c0.4,1.3,0.7,2.5,1,3.5
				c0,0,0,0.1,0,0.1c0.1,0.2,0.1,0.4,0.1,0.6H263z M253.2,14.5h-0.8c0.1-0.1,0.1-0.1,0.2-0.2c0.1,0,0.1-0.1,0.2-0.1l0,0
				c0.3-0.3,0.6-0.6,0.8-0.9c1-1.1,1.7-2.2,2.3-3.1v0c0.3-0.4,0.4-1,0.3-1.6c-0.2-1.2-0.4-2.1-0.5-2.9c0.7,2.5,1.8,4.5,3.3,6.1
				l0.4,0.3l0,0l2.7,2.4h-1.3c-0.7-0.6-1.4-1.1-2.2-1.7c-0.4-0.3-0.7-0.5-1-0.7c-0.4-0.3-0.9-0.2-1.6,0.4L253.2,14.5z M243.3,4.6
				c0.1,0,0.2,0.1,0.3,0.1c2.3,1.1,4,2.1,5.3,2.9c0.6,0.3,0.8,0.8,0.8,1.4l-1,0.8c-0.3-0.5-0.8-0.8-1.6-0.8h-0.1
				c-1.4,0-2.9,0.2-4.5,0.5c-0.4,0.1-0.8,0.1-1.2,0.3c-0.5,0.1-0.8,0.6-0.9,1.5l-0.3,3.3h-0.5c0-0.4-0.1-0.8-0.2-1.1
				c-0.2-1.5-0.4-2.7-0.7-3.8l0,0c-0.1-0.5-0.4-0.9-1-1.3c-1-0.6-1.8-1.2-2.4-1.6c2.3,1.2,4.5,1.8,6.8,1.8l0.4-0.1h0.1h0.1l3.5-0.3
				c1.1-0.2,1.1-0.7,0-1.4c-1.1-0.8-2.2-1.4-3.2-1.6c0,0-0.1,0-0.1,0C242.4,5,242,5,241.5,5c0.5-0.2,1-0.3,1.4-0.3
				c0.1,0,0.1,0,0.2,0C243.2,4.6,243.3,4.6,243.3,4.6z M224.9,9.8c0.4,0,0.9,0.1,1.3,0.3c-0.4,0-0.9,0.1-1.3,0.1c0,0-0.1,0-0.1,0.1
				c-1,0.2-2.1,0.8-3.2,1.6c-1.1,0.7-1.1,1.2,0,1.4l3.6,0.3l0.5,0c2.2,0,4.4-0.6,6.8-1.8c-0.6,0.5-1.5,1-2.5,1.6
				c-0.4,0.3-0.7,0.6-0.9,1h-4.9c-1.2-0.2-2.4-0.3-3.5-0.4h0c-0.5,0-0.9,0.1-1.2,0.4h-1.3c-0.2-0.7,0.1-1.3,0.7-1.6
				c1.2-0.8,2.9-1.8,5.3-2.9c0.1,0,0.2-0.1,0.3-0.1c0.1,0,0.2,0,0.2,0C224.7,9.8,224.8,9.8,224.9,9.8z M216.3,14.5h-0.7
				c0-0.1,0-0.1-0.1-0.1v-0.1c-0.3-0.4-0.5-0.8-0.8-1.1c0.7,0.3,1.2,0.6,1.5,1l0,0C216.2,14.3,216.3,14.4,216.3,14.5z M211.4,14.5
				h-2c0,0,0-0.1,0-0.1v0c0.3-0.4,0.4-1,0.3-1.6c-0.2-1.2-0.4-2.1-0.5-2.9C209.8,11.6,210.5,13.2,211.4,14.5z M190.8,8.5
				c1.2-0.2,2.3-0.5,3.3-0.8c0.7-0.3,1.3-0.1,1.8,0.5c1,1.1,2.1,2.7,3.5,4.8c0.1,0.2,0.1,0.3,0.1,0.4c0,0,0,0,0,0.1c0,0,0,0.1,0,0.1
				c0,0.1,0,0.2,0,0.3c0,0.2,0,0.4,0,0.6h-0.3c0-0.2-0.1-0.4-0.2-0.5c0,0,0-0.1,0-0.2c-0.3-0.9-1-1.9-2-3c-0.8-1-1.3-0.9-1.4,0.2
				l0.2,3.5h-1c0.1-1.5,0.1-3-0.1-4.3v-0.1c-0.1-0.8-0.5-1.3-1.1-1.5C193.1,8.4,192.2,8.4,190.8,8.5z M176.3,11.3l2.7,2.4
				c0.9,0.6,1.2,0.3,1-1c-0.2-1.4-0.5-2.5-1.1-3.5v0c-0.3-0.4-0.5-0.8-0.8-1.1c0.7,0.3,1.2,0.6,1.5,1l0,0c0,0.1,0.1,0.2,0.1,0.3
				c0.6,2,1.1,3.6,1.4,5h-2.5c-0.9-0.9-1.9-1.7-3-2.5c-0.4-0.3-0.7-0.5-1-0.7c-0.4-0.3-0.9-0.2-1.6,0.4l-2.7,2.1l-1,0.8h-0.4
				c0.3-0.4,0.6-0.7,0.9-1c0.1,0,0.1-0.1,0.2-0.1l0,0c0.3-0.3,0.5-0.6,0.8-0.9c1-1.1,1.7-2.2,2.3-3.1V9.3c0.3-0.4,0.4-0.9,0.3-1.5
				c-0.2-1.2-0.4-2.1-0.5-3c0.7,2.5,1.8,4.5,3.3,6.2L176.3,11.3L176.3,11.3z M160,14.5h-6.3c0.3-0.9,0.5-1.8,0.6-2.6l0-0.4l0.2-3.7
				c-0.1-1.1-0.6-1.2-1.4-0.2c-1,1.1-1.7,2.1-2,3c-0.1,0.1-0.1,0.1,0,0.1c-0.2,0.4-0.3,0.8-0.3,1.3c-0.2-0.5-0.2-1-0.2-1.4
				c0-0.1,0-0.2,0-0.3c0,0,0-0.1,0-0.1c0,0,0,0,0,0c0-0.1,0.1-0.2,0.2-0.4c0.1-0.2,0.3-0.4,0.4-0.6c0.2-0.3,0.4-0.6,0.6-0.9
				c0.1-0.2,0.2-0.3,0.3-0.5c0.8-1.2,1.6-2.1,2.2-2.9c0.5-0.6,1-0.8,1.8-0.5c1,0.3,2.1,0.6,3.3,0.8c-1.3-0.1-2.3-0.1-2.8,0.2
				c-0.6,0.2-1,0.7-1.2,1.4V7c-0.2,1.4-0.2,3,0,4.6c0,0.4,0.1,0.8,0.1,1.1c0,0.5,0.5,0.9,1.3,1L160,14.5z M146.9,11.3
				c0.1,0.1,0.1,0.1,0.2,0.1c0.6,0.6,1.2,1.3,2,2.1l-2.5-1.9l-2.7-2.1c-0.7-0.5-1.2-0.6-1.6-0.3c-0.3,0.2-0.7,0.4-1.1,0.7
				c-1.3,0.9-2.4,1.9-3.4,2.9l-0.1,0.1c-0.5,0.5-0.6,1.1-0.5,1.6h-1.4c-0.3-0.3-0.3-0.8-0.3-1.3c0.3-1.4,0.8-3.3,1.5-5.8
				c0-0.1,0.1-0.3,0.1-0.4l0,0c0.3-0.4,0.8-0.8,1.5-1c-0.3,0.3-0.6,0.7-0.9,1.1v0.1c-0.5,0.9-0.9,2-1,3.4c-0.2,1.3,0.1,1.6,1,1
				l2.6-2.4l0,0l0.4-0.3c1.5-1.6,2.6-3.7,3.3-6.1c-0.1,0.8-0.3,1.8-0.5,2.9c-0.1,0.6,0,1.1,0.3,1.6v0c0.5,0.9,1.3,2,2.3,3.1
				C146.3,10.6,146.5,10.9,146.9,11.3L146.9,11.3z M126.9,14.3c-0.3-0.4-0.6-0.8-0.9-1.1c0.7,0.3,1.2,0.6,1.5,1l0,0
				c0,0.1,0,0.2,0.1,0.3h-0.7C126.9,14.4,126.9,14.4,126.9,14.3L126.9,14.3z M101.3,9.6c1.2-0.2,2.3-0.4,3.3-0.8
				c0.7-0.3,1.3-0.1,1.8,0.5c1,1.1,2.1,2.7,3.5,4.8c0.1,0.1,0.1,0.2,0.1,0.3h-0.6c-0.4-0.8-1-1.7-1.8-2.5c-0.8-1-1.3-0.9-1.4,0.2
				l0.1,2.4h-0.9c0-1.1,0-2.1-0.1-3.1v-0.1c-0.1-0.8-0.5-1.3-1.1-1.5C103.6,9.6,102.6,9.5,101.3,9.6z M122.7,14.5h-2
				c0,0,0-0.1,0-0.1v0c0.3-0.4,0.4-1,0.3-1.6c-0.2-1.2-0.4-2.1-0.5-2.9C121.1,11.6,121.8,13.2,122.7,14.5z M86.7,14.5h-1.9
				c-0.4-0.2-0.8-0.2-1.1,0h-1.9l0,0l0.4-0.3c1.5-1.6,2.6-3.7,3.3-6.1c-0.1,0.8-0.3,1.8-0.5,3c-0.1,0.6,0,1.1,0.3,1.5v0
				C85.7,13.2,86.2,13.8,86.7,14.5z M79.3,12.5L79.3,12.5c-0.3,0.6-0.6,1.3-0.8,2H78c0.1-0.3,0.2-0.6,0.3-0.9
				c0.1-0.3,0.2-0.5,0.3-0.8c0-0.1,0.1-0.3,0.1-0.4l0.1-0.1c0,0,0,0,0,0c0.3-0.4,0.8-0.7,1.4-0.9C79.9,11.6,79.6,12,79.3,12.5z
				 M78.4,11.3c0,0.1,0,0.2,0,0.3c-0.1,0.1-0.2,0.2-0.3,0.3c0,0,0,0.1-0.1,0.1c-0.1-0.2-0.1-0.4-0.2-0.6c0,0,0-0.1-0.1-0.1
				c-0.3-0.9-1-1.9-2-3c-0.8-1-1.3-0.9-1.4,0.2l0.2,3.6l0,0.4c0.1,0.7,0.2,1.3,0.4,2h-3.1l0.2,0c0.8-0.2,1.3-0.5,1.3-1.1
				c0-0.4,0.1-0.8,0.1-1.1c0.1-1.6,0.1-3.2,0-4.6V7.5c-0.1-0.8-0.5-1.3-1.1-1.4c-0.6-0.2-1.5-0.3-2.9-0.1c1.2-0.2,2.3-0.5,3.3-0.8
				c0.7-0.3,1.3-0.1,1.8,0.5c1,1.1,2.2,2.7,3.6,4.8c0.1,0.2,0.1,0.3,0.1,0.4c0,0,0,0,0,0c0,0,0,0.1,0,0.1
				C78.3,11.1,78.3,11.2,78.4,11.3z M59.4,13.4c0.1,0.1,0.1,0.1,0.2,0.1c0.3,0.3,0.6,0.6,0.9,1h-0.4l-1-0.8l-2.7-2.1
				c-0.7-0.5-1.2-0.6-1.6-0.4c-0.3,0.2-0.7,0.4-1,0.7c-1.1,0.8-2.1,1.6-3.1,2.5h-2.4c0-0.2,0.1-0.4,0.1-0.6l0.5-2.1
				c0.1-0.2,0.1-0.4,0.2-0.7l0-0.1c0-0.1,0.1-0.3,0.1-0.5c0.1-0.2,0.1-0.5,0.2-0.7l0.1-0.3c0-0.1,0.1-0.3,0.1-0.3l0,0
				c0.3-0.4,0.8-0.8,1.5-1c-0.3,0.3-0.6,0.7-0.9,1.1v0c-0.5,0.9-0.9,2.1-1,3.5c-0.2,1.3,0.1,1.6,1,1l2.6-2.4l0,0l0.4-0.3
				c1.5-1.6,2.6-3.7,3.3-6.2c-0.1,0.8-0.3,1.8-0.5,3c-0.1,0.6,0,1.1,0.3,1.5v0.1c0.5,0.9,1.3,2,2.3,3.1C58.9,12.7,59.1,13,59.4,13.4
				L59.4,13.4z M47.5,8.7c0.3,0.3,0.5,0.8,0.6,1.3c-0.3-0.3-0.6-0.6-1-0.9c0,0,0-0.1-0.1-0.1c-0.8-0.6-1.9-1.1-3.3-1.5
				c-1.2-0.4-1.6-0.1-1,0.9l2.1,3l0.3,0.4c0.7,0.9,1.5,1.6,2.5,2.3c0,0.1,0,0.3-0.1,0.4h-3.2c0.4-0.5,0.5-0.9,0.3-1.4
				c-0.2-0.3-0.4-0.7-0.5-1c-0.7-1.4-1.6-2.7-2.5-3.9l0,0c-0.5-0.6-1.1-0.8-1.8-0.7c-0.6,0.1-1.4,0.6-2.5,1.4
				c0.9-0.8,1.7-1.6,2.4-2.4c0.5-0.6,1-0.8,1.8-0.5c1.4,0.4,3.3,1.2,5.6,2.2c0.1,0.1,0.2,0.2,0.3,0.2l0,0
				C47.3,8.6,47.4,8.6,47.5,8.7z"/>
			<path fill-rule="evenodd" clip-rule="evenodd" fill="#FBF2F5" d="M278.3,13c0,0.1,0,0.3,0.1,0.4l0.1,1h-0.4
				C278.1,13.8,278.2,13.3,278.3,13z M248.5,11c0.1-0.3,0.4-0.6,0.7-0.8l2.1-1.6c0.1-0.1,0.3-0.1,0.3-0.2c-0.1,0.4-0.7,1.1-1.7,1.9
				c-0.4,0.2-0.6,0.6-0.7,1.1c0,0,0,0.1,0,0.1c0,0.1,0,0.1,0,0.1c-0.1,0.7-0.2,1.7-0.3,2.8l-0.4-2c0,0,0,0,0,0
				c-0.1-0.3-0.1-0.6-0.1-0.8C248.3,11.4,248.4,11.2,248.5,11z M234.7,11.5c0.2,0.4,0.3,1.3,0.2,2.6c0,0.1,0,0.3,0,0.4h-0.5l0.3-2.5
				C234.6,11.8,234.7,11.7,234.7,11.5z M205.2,12.6c-0.1,0.4-0.7,1.1-1.7,1.9h-0.8l0,0l2.1-1.6C205,12.8,205.1,12.7,205.2,12.6z
				 M150.8,7.5c0.2,0.1,0.3,0.3,0.4,0.4c-0.1,0.2-0.3,0.4-0.4,0.6c-0.1,0.1-0.1,0.2-0.2,0.3c0,0,0-0.1,0-0.1c0,0,0-0.1,0-0.1
				c0,0,0-0.1,0-0.1c-0.1-0.5-0.3-0.9-0.7-1.1c-1-0.8-1.6-1.4-1.7-1.9c0.1,0.1,0.2,0.1,0.4,0.2L150.8,7.5z M165.7,9.7
				c0,0,0.1-0.1,0.1-0.1l2.3-1.8c0.1-0.1,0.3-0.1,0.3-0.2c-0.1,0.4-0.7,1-1.7,1.9c-0.4,0.2-0.6,0.6-0.7,1.1c0,0,0,0.1,0,0.1
				c0,0.1,0,0.1,0,0.1c-0.1,0.3-0.1,0.6-0.1,0.9C165.8,11.1,165.8,10.4,165.7,9.7z M114,14.5l2.1-1.6c0.1-0.1,0.3-0.1,0.4-0.2
				c-0.1,0.4-0.7,1.1-1.7,1.9H114z M92.8,13.5c0.1,0.3,0.2,0.7,0.1,1h-0.8c0-0.2,0-0.3-0.1-0.5c0,0,0-0.1,0-0.1c0,0-0.1-0.1-0.1-0.1
				c-0.1-0.5-0.3-0.9-0.7-1.1c-1-0.8-1.6-1.4-1.7-1.9c0.1,0.1,0.2,0.1,0.4,0.2l2.3,1.8C92.5,13,92.7,13.2,92.8,13.5z M60.6,7.6
				c0.1,0.1,0.2,0.1,0.4,0.2l2.3,1.8c0,0,0.1,0.1,0.1,0.1c0,0.1,0,0.2,0,0.3c-0.1,0.6-0.1,1.1-0.2,1.7c0-0.3-0.1-0.6-0.1-0.8
				c0,0,0-0.1,0-0.1c0,0-0.1-0.1-0.1-0.1c-0.1-0.5-0.3-0.9-0.7-1.1C61.4,8.6,60.8,8,60.6,7.6z"/>
			<path fill-rule="evenodd" clip-rule="evenodd" fill="#FCF2F1" d="M186,9.5c0.1,0,0.2-0.1,0.2-0.1l2.2-0.5c0,0,0,0-0.1,0.1
				c-0.3,0.2-0.5,0.4-0.7,0.6c-0.1,0.1-0.2,0.2-0.2,0.3c0,0.1-0.1,0.1-0.3,0.2c-0.1,0-0.3-0.1-0.5-0.1c-0.1,0-0.1,0-0.2-0.1
				C186.4,9.7,186.2,9.6,186,9.5z M164.3,6.3c-0.2,0.1-0.3,0.2-0.4,0.3c-0.1,0-0.1,0-0.2,0c-0.2,0-0.4,0.1-0.5,0.1
				c-0.2,0-0.3-0.1-0.3-0.1c0,0-0.1-0.1-0.2-0.3c-0.2-0.2-0.4-0.4-0.7-0.6c0,0,0,0,0,0l2.2,0.5C164.2,6.2,164.3,6.3,164.3,6.3z
				 M98.8,10.1c-0.3,0.2-0.5,0.4-0.7,0.6c-0.1,0.1-0.2,0.2-0.2,0.3c0,0.1-0.1,0.1-0.3,0.1c-0.1,0-0.3-0.1-0.5-0.1
				c-0.1,0-0.1,0-0.2,0c-0.1-0.1-0.3-0.2-0.5-0.3c0.1,0,0.2-0.1,0.2-0.1L98.8,10.1C98.8,10.1,98.8,10.1,98.8,10.1z M64.7,7
				c0.1,0,0.2-0.1,0.2-0.1L67,6.4c0,0,0,0,0,0c-0.3,0.2-0.5,0.4-0.7,0.6c-0.1,0.1-0.2,0.2-0.2,0.3c0,0.1-0.1,0.1-0.3,0.1
				c-0.1,0-0.3-0.1-0.4-0.1c-0.1,0-0.1,0-0.2,0C65,7.1,64.9,7,64.7,7z M34,12l0.6-0.6l0.8-0.8c0,0,0,0.1,0,0.1
				c-0.2,0.3-0.2,0.6-0.3,0.9c0,0.2,0,0.3,0,0.4c0,0.1-0.1,0.1-0.2,0.3c-0.1,0-0.2,0.1-0.4,0.1c0,0-0.1,0-0.2,0c-0.2,0-0.3,0-0.5,0
				c0,0,0,0-0.1,0c0.1-0.1,0.1-0.1,0.1-0.1L34,12z"/>
			<path fill-rule="evenodd" clip-rule="evenodd" fill="#D6E7EC" d="M186.3,14.5h-0.7c0-0.4,0-0.8,0-1.1c0.1-0.6,0.2-0.9,0.3-0.9
				c0.1,0,0.1,0.1,0.1,0.3c0.1,0.2,0.2,0.4,0.2,0.7C186.2,13.6,186.2,13.9,186.3,14.5z M164.7,14.5h-1.4c-0.1,0-0.1,0-0.2,0
				c-0.7-0.2-1-0.4-1-0.6c0-0.1,0.1-0.1,0.3-0.1c0.3,0,0.5-0.1,0.7-0.1c0.6-0.2,1-1,1.2-2.3c0-0.7,0.1-1,0.1-1.1
				c0-0.3,0.1-0.5,0.2-0.7c0-0.2,0-0.3,0.1-0.3c0,0,0.1,0.3,0.3,0.9c0,0.5,0,1.1,0,1.6c0,0.7,0,1.5,0.1,2.3
				C164.8,14.3,164.8,14.4,164.7,14.5z M149,14.5h-1.4c0-0.1,0-0.1-0.1-0.1c0-0.1-0.1-0.3-0.3-0.5c-0.1-0.2-0.1-0.3-0.1-0.4
				c0.1-0.1,0.5,0,1.1,0.4C148.4,14,148.7,14.3,149,14.5z M96.6,14.5H96c0.1-0.6,0.2-0.9,0.3-0.9c0.1,0,0.1,0.1,0.1,0.3
				C96.5,14.1,96.5,14.3,96.6,14.5z M67,14.5h-2.8c0-0.8,0.1-1.5,0.1-2.1v-1.6c0.1-0.6,0.2-0.8,0.3-0.8c0.1,0,0.1,0.1,0.1,0.3
				c0.1,0.2,0.2,0.4,0.2,0.7c0,0.1,0.1,0.4,0.1,1.1c0.1,1.3,0.5,2,1.1,2.3c0.1,0,0.4,0,0.7,0.1C66.8,14.4,66.9,14.4,67,14.5z"/>
			<path fill-rule="evenodd" clip-rule="evenodd" fill="#95C8D8" d="M270.5,12l0.1,0.1c0.1,0,0.4,0.2,0.8,0.4
				c0.3,0.2,0.5,0.3,0.5,0.5c0,0,0,0.1,0,0.1s-0.1,0-0.2,0c-0.2,0-0.4,0-0.6-0.1c-0.2-0.1-0.3-0.1-0.5-0.1l0,0h-0.1
				c-0.6-0.2-1.3-0.3-2.2-0.3c-0.8,0-1.5,0.1-2.1,0.4c-0.5,0.2-0.9,0.6-1.2,1c-0.1-0.1-0.1-0.2-0.3-0.5c-0.1-0.3-0.1-0.5-0.1-0.7
				c0-0.2,0-0.3,0.1-0.5c0-0.1,0-0.1,0-0.2c0.4-0.6,1.1-0.9,2.1-0.8C267.8,11.2,269,11.5,270.5,12z M242.6,11.4L242.6,11.4
				c-0.2,0.1-0.4,0.1-0.5,0.2c-0.2,0.1-0.4,0.1-0.6,0.1c-0.1,0-0.2,0-0.2,0s0-0.1,0-0.1c0-0.2,0.1-0.3,0.5-0.5
				c0.4-0.2,0.6-0.4,0.8-0.4l0.1-0.1c1.4-0.5,2.7-0.8,3.8-0.8c0.8,0,1.4,0.2,1.8,0.5l-0.5,0.4c-0.1,0.1-0.2,0.2-0.3,0.3
				c-0.1,0.1-0.1,0.3,0,0.3c0,0.1,0,0.2,0,0.4c-0.1-0.1-0.2-0.1-0.4-0.2c-0.6-0.3-1.3-0.4-2.1-0.4C244,11,243.3,11.1,242.6,11.4
				L242.6,11.4z M259.6,14.5h-1.8c-0.2-0.2-0.4-0.3-0.6-0.4V14h0h-0.1c-0.1-0.1-0.3-0.2-0.4-0.3c-0.2-0.1-0.4-0.2-0.5-0.4
				c-0.1-0.1-0.1-0.1-0.1-0.2c0,0,0.1,0,0.1-0.1c0.1-0.1,0.3-0.1,0.6,0c0.4,0.1,0.7,0.2,0.8,0.3h0.2c0,0,0,0,0,0
				C258.5,13.8,259.1,14.1,259.6,14.5z M194,14.5h-0.9c0.1-0.5,0.1-1.1,0-1.8c-0.1-0.8-0.3-1.5-0.6-2c-0.3-0.5-0.7-0.9-1.2-1.1
				c0.1-0.1,0.2-0.3,0.4-0.4c0.3-0.1,0.5-0.2,0.7-0.2c0.2,0,0.4,0,0.6,0c0.1,0.1,0.1,0.1,0.3,0.1c0.6,0.2,1,0.9,1,1.9
				C194.3,12.1,194.3,13.2,194,14.5z M174.7,12.6c1.1,0.6,2.1,1.2,2.8,1.9h-1.9c-0.5-0.5-1-0.9-1.5-1.2v0h0H174
				c-0.1-0.1-0.3-0.2-0.5-0.3c-0.2-0.1-0.4-0.2-0.5-0.4c-0.1-0.1-0.1-0.1-0.1-0.2c0,0,0.1,0,0.1,0c0.1-0.1,0.3-0.1,0.7-0.1
				c0.4,0.1,0.7,0.2,0.8,0.3L174.7,12.6C174.7,12.6,174.7,12.6,174.7,12.6z M157.4,11.8L157.4,11.8c0,0.2,0,0.4,0.1,0.5
				c0,0.3,0,0.5,0,0.7c0,0.1,0,0.1,0,0.1c-0.1,0-0.1,0-0.2,0.1c-0.2,0-0.3-0.2-0.5-0.5c-0.1-0.5-0.2-0.7-0.3-0.8l-0.1-0.1v0
				c-0.3-1.5-0.4-2.8-0.3-3.8c0.1-1,0.4-1.7,1-1.9c0.1,0,0.2,0,0.3-0.1c0.2,0,0.4,0,0.5,0c0.2,0,0.4,0.1,0.7,0.2
				c0.2,0.1,0.3,0.2,0.4,0.4c-0.5,0.2-0.9,0.5-1.2,1c-0.4,0.5-0.6,1.2-0.7,2C157.2,10.4,157.2,11.1,157.4,11.8L157.4,11.8z
				 M142.5,11.1L142.5,11.1L142.5,11.1c-0.6,0.4-1.2,0.8-1.7,1.5c-0.6,0.6-0.9,1.2-1.1,1.8c0,0,0,0.1,0,0.1h-1.7
				c0-0.6,0.2-1.1,0.8-1.8c0.8-0.8,1.8-1.5,3.1-2.2c0,0,0,0,0.1,0h0.1c0.1-0.1,0.4-0.2,0.8-0.3c0.3-0.1,0.6-0.1,0.6,0
				c0,0,0.1,0,0.1,0c0,0.1,0,0.1-0.1,0.2c-0.1,0.2-0.3,0.3-0.5,0.4C142.9,11,142.7,11,142.5,11.1L142.5,11.1z M104.6,14.5h-1.1
				c0-0.2,0-0.4-0.1-0.6c-0.1-0.8-0.3-1.5-0.6-2c-0.3-0.5-0.7-0.9-1.1-1.1c0.1-0.1,0.2-0.3,0.4-0.3c0.3-0.1,0.5-0.2,0.7-0.2
				c0.2,0,0.4,0,0.6,0c0.1,0.1,0.1,0.1,0.3,0.1c0.6,0.2,1,0.9,1,1.9C104.7,12.9,104.7,13.7,104.6,14.5z M72.6,12.4L72.6,12.4
				l-0.1,0.2c-0.1,0.1-0.2,0.3-0.3,0.8c-0.1,0.3-0.3,0.5-0.5,0.5c0,0-0.1-0.1-0.1-0.1c0,0,0,0,0-0.1c0-0.2,0-0.4,0-0.7
				c0-0.1,0.1-0.3,0.1-0.5l0,0l0,0c0.2-0.6,0.2-1.3,0.1-2.2c-0.1-0.8-0.3-1.5-0.7-2.1c-0.3-0.5-0.7-0.9-1.1-1
				C70,7,70.1,6.9,70.3,6.8c0.3-0.1,0.5-0.2,0.7-0.2c0.2,0,0.4,0,0.5,0c0.1,0.1,0.2,0.1,0.3,0.1c0.6,0.2,1,0.9,1.1,1.9
				C73,9.6,72.9,10.9,72.6,12.4z M55.1,13.3L55.1,13.3L55.1,13.3c-0.5,0.3-1,0.7-1.6,1.3h-1.9c0.7-0.7,1.7-1.3,2.8-1.9c0,0,0,0,0,0
				h0.1c0.1-0.1,0.4-0.2,0.8-0.3c0.3-0.1,0.5,0,0.6,0.1c0,0,0.1,0,0.1,0c0,0.1,0,0.1-0.1,0.2c-0.1,0.2-0.3,0.3-0.5,0.4
				C55.4,13.1,55.3,13.1,55.1,13.3L55.1,13.3z M42.5,13.3L42.5,13.3c-0.3-0.6-0.6-1.3-1.2-1.9c-0.5-0.7-1-1.1-1.6-1.4
				c-0.5-0.2-1.1-0.3-1.6-0.3c0-0.1,0.1-0.3,0.2-0.5c0.1-0.2,0.3-0.4,0.4-0.6c0.1-0.1,0.3-0.2,0.5-0.3c0.1,0,0.2,0,0.3-0.1
				c0.7-0.1,1.3,0.2,1.9,1.1c0.7,0.8,1.3,2,1.8,3.4V13c0,0.1,0.1,0.4,0.2,0.8c0.1,0.3,0,0.6-0.1,0.7c0,0-0.1,0-0.1,0
				c0,0-0.1-0.1-0.1-0.1c-0.1-0.1-0.3-0.3-0.3-0.6C42.7,13.6,42.6,13.5,42.5,13.3z"/>
		</g>
		<g>
			<polygon fill-rule="evenodd" clip-rule="evenodd" fill="#619EDA" points="305.9,18.5 4.1,18.5 0.9,17 5,7.9 14.4,7.9 12.8,13.5 
				38.5,13.5 38.7,13.6 271.5,13.6 271.5,13.5 296,13.5 293.4,7.9 303.1,7.9 309,17.1 			"/>
			<path fill-rule="evenodd" clip-rule="evenodd" fill="#7CAEE0" d="M309,17.1L309,17.1V19l-3.1,1.9v-2.4L309,17.1z M4.1,18.5v2.4
				L1,19L0.9,17L4.1,18.5z"/>
			<polygon fill-rule="evenodd" clip-rule="evenodd" fill="#215689" points="301.2,20.9 8.9,20.9 4.1,20.9 4.1,18.5 305.9,18.5 
				305.9,20.9 			"/>
			<polygon fill-rule="evenodd" clip-rule="evenodd" fill="#2E77C0" points="8.9,20.9 301.2,20.9 290.9,32.7 254.5,32.6 257,27.5 
				252.8,27.5 57.3,27.5 53.1,27.5 55.6,32.6 19.3,32.7 19.1,32.7 19.1,32.6 			"/>
			<path fill-rule="evenodd" clip-rule="evenodd" fill="#1F5283" d="M59,31l-1.7-3.5h195.6l-1.5,3.3l-0.1,0
				c-16.6,0.2-31.9,0.3-46,0.3c-0.8,0-1.7,0-2.6,0h-91.8c-2,0-4,0-5.9,0c-14.1-0.1-29.4-0.2-45.9-0.3V31z"/>
			<path fill-rule="evenodd" clip-rule="evenodd" fill="#2766A5" d="M63.4,60.4L59,31v-0.3c16.5,0.1,31.8,0.2,45.9,0.3
				c1.9,0,3.9,0,5.9,0h91.8c0.9,0,1.7,0,2.6,0c14.1,0,29.4-0.1,46-0.3l0.1,0l-1.1,7.7l0.5-2.7l-4,24.8H63.9
				c-0.1-0.1-0.2-0.2-0.3-0.3l-0.1,0.3h-0.1V60.4z M104.9,40.7v-0.1h0L104.9,40.7z"/>
			<path fill-rule="evenodd" clip-rule="evenodd" fill="#3785D0" d="M254.5,32.6l36.5,0.1l-2.1,8.3h0.2l-3.2,12.8
				c-0.8,4.9-3.8,7.7-9.1,8.4h-26.4L254.5,32.6L254.5,32.6z M19.3,32.7l36.4-0.1l0.1,0.1l4.4,29.5H37.3c-6.6,0.4-10.6-2.2-12-7.8
				l-5.9-21.7C19.3,32.8,19.3,32.7,19.3,32.7z"/>
			<path fill-rule="evenodd" clip-rule="evenodd" fill="#163858" d="M254.5,32.6v-0.4V32.6l-3.2-1.9l1.5-3.3h4.1L254.5,32.6z
				 M55.7,32.7L55.7,32.7l-2.6-5.3h4.1L59,31L55.7,32.7z"/>
			<path fill-rule="evenodd" clip-rule="evenodd" fill="#1B446D" d="M254.5,32.6L254.5,32.6l-4.2,29.5l0.3,0.2l-3.8-1.8l4-24.8
				l-0.5,2.7l1.1-7.7L254.5,32.6v-0.4V32.6z M59,31l4.4,29.4l-3,1.8h-0.3l-4.4-29.5L59,31z"/>
		</g>
		<g>
			<rect x="212.4" y="37.7" fill-rule="evenodd" clip-rule="evenodd" fill="#FFFFFF" width="83.8" height="25.3"/>
		</g>
		<g>
			<rect x="122.5" y="37.2" fill-rule="evenodd" clip-rule="evenodd" fill="#FFFFFF" width="74.5" height="25.3"/>
		</g>
		<g>
			<rect x="14.8" y="37.2" fill-rule="evenodd" clip-rule="evenodd" fill="#FFFFFF" width="94.8" height="25.3"/>
		</g>
	</g>
</g>
</svg>
