<?xml version="1.0" encoding="utf-8"?>
<!-- Generator: Adobe Illustrator 16.0.0, SVG Export Plug-In . SVG Version: 6.00 Build 0)  -->
<!DOCTYPE svg PUBLIC "-//W3C//DTD SVG 1.1//EN" "http://www.w3.org/Graphics/SVG/1.1/DTD/svg11.dtd">
<svg version="1.1" id="Layer_1" xmlns="http://www.w3.org/2000/svg" xmlns:xlink="http://www.w3.org/1999/xlink" x="0px" y="0px"
	 width="700px" height="700px" viewBox="0 0 700 700" enable-background="new 0 0 700 700" xml:space="preserve">
<path fill="none" stroke="#FFFFFF" stroke-width="0.1" stroke-linecap="round" stroke-linejoin="round" stroke-miterlimit="3" d="
	M600.3,261.5v2.1 M598.7,256.6v1.1 M634.1,256.6v3.6"/>
<g>
	
		<linearGradient id="SVGID_1_" gradientUnits="userSpaceOnUse" x1="576.6523" y1="354.6084" x2="585.0823" y2="-293.6636" gradientTransform="matrix(1 0 0 -1 -251.0098 418.0547)">
		<stop  offset="0" style="stop-color:#9E6749"/>
		<stop  offset="1" style="stop-color:#DECE8F"/>
	</linearGradient>
	<rect x="-48.1" y="-67.1" fill="url(#SVGID_1_)" width="754.1" height="769.9"/>
</g>
<g>
	
		<linearGradient id="SVGID_2_" gradientUnits="userSpaceOnUse" x1="580.4795" y1="148.1592" x2="572.7167" y2="-670.9401" gradientTransform="matrix(1 0 0 -1 -251.0098 418.0547)">
		<stop  offset="0" style="stop-color:#0F0D0B;stop-opacity:0.451"/>
		<stop  offset="1" style="stop-color:#97814F;stop-opacity:8.627451e-002"/>
	</linearGradient>
	<rect x="-48.1" y="-59.4" fill="url(#SVGID_2_)" width="754.1" height="768.3"/>
</g>
<g>
	
		<linearGradient id="SVGID_3_" gradientUnits="userSpaceOnUse" x1="579.959" y1="-209.2578" x2="579.959" y2="-242.1328" gradientTransform="matrix(1 0 0 -1 -251.0098 418.0547)">
		<stop  offset="0" style="stop-color:#373737"/>
		<stop  offset="0.1412" style="stop-color:#9B8886"/>
		<stop  offset="0.2392" style="stop-color:#312B24"/>
		<stop  offset="0.8784" style="stop-color:#3A322C"/>
		<stop  offset="0.9882" style="stop-color:#404040"/>
	</linearGradient>
	<polygon fill="url(#SVGID_3_)" points="706,654.5 545.2,654.5 541.2,654.5 474.8,654.5 470.7,654.5 172,654.5 168,654.5 
		107.5,654.5 45,654.5 42.5,654.5 24.2,654.5 -48.1,654.5 -48.1,629.8 24.2,629.8 107.5,629.8 706,629.8 	"/>
	<path fill="#76412C" d="M-48.1,654.5h72.3h18.3H45h62.6H168V709H-48.1V654.5z M541.2,709H172v-54.5h298.7h4.1h66.4V709z M545.2,709
		v-54.5H706V709H545.2z"/>
	
		<linearGradient id="SVGID_4_" gradientUnits="userSpaceOnUse" x1="-160.8779" y1="-168.645" x2="1525.3972" y2="-168.645" gradientTransform="matrix(1 0 0 -1 -251.0098 418.0547)">
		<stop  offset="0" style="stop-color:#373737"/>
		<stop  offset="0.4902" style="stop-color:#685553"/>
		<stop  offset="0.9882" style="stop-color:#555555"/>
	</linearGradient>
	<polygon fill="url(#SVGID_4_)" points="-48.1,629.8 -48.1,543.6 24.2,543.6 107.5,543.6 706,543.9 706,629.8 107.5,629.8 
		24.2,629.8 	"/>
	<path fill="#5C3423" d="M168,709v-54.5h4V709H168z M541.2,709v-54.5h4V709H541.2z"/>
</g>
<g>
	<g>
		<polygon fill="#312113" fill-opacity="0.4431" points="706.2,57 706.2,315.3 527.3,315.3 510.4,271.8 510.4,163.9 186,163.9 
			186.1,276.1 162.5,314.8 -12.3,314.8 -29.8,275.3 -29.8,53.2 560.5,56 560.5,56.1 		"/>
	</g>
	<g>
		<path fill="#DE9869" d="M709,42H529.2v97.9v2.9H709V157H529.2v106.6v6.4H709v13.5H519.8v-0.8V157h-6.6H184h-7.9v126.4l-0.1,0.1
			H-19V270h185.5v-6.4V157H-19l0,0v-14.3h185.5v-2.9V42H-19l0,0V30.5h728V42z M513.2,42H184h-7.9v100v0.8h343.6V42H513.2z
			 M340.6,154.3c2.1,0.1,4.3,0.1,6.4,0.1c13.2,0.1,22.8,0.2,28.8,0.3v-0.1c-3.4,0-8-0.1-13.8-0.3H340.6z"/>
		<path fill="#946538" d="M-19,142.8v-3.3l0,0l0,0v-0.3l0,0l73,0.3l0,0l112.5,0.4v2.9H-19z M-19,270v-6.4h185.5v6.4H-19z
			 M529.2,263.6H709v6.4H529.2V263.6z M529.2,139.9H709v2.9H529.2V139.9z M184,139.9h329.2l6.6,2.9H176.1V142l7.8-2L184,139.9z"/>
		
			<linearGradient id="SVGID_5_" gradientUnits="userSpaceOnUse" x1="870.1094" y1="327.0923" x2="870.1094" y2="369.8173" gradientTransform="matrix(1 0 0 -1 -251.0098 418.0547)">
			<stop  offset="0" style="stop-color:#C9805B"/>
			<stop  offset="1" style="stop-color:#A0603D"/>
		</linearGradient>
		<rect x="529.2" y="42" fill="url(#SVGID_5_)" width="179.8" height="97.9"/>
		
			<linearGradient id="SVGID_6_" gradientUnits="userSpaceOnUse" x1="870.1094" y1="154.4546" x2="870.1094" y2="261.0547" gradientTransform="matrix(1 0 0 -1 -251.0098 418.0547)">
			<stop  offset="0" style="stop-color:#C9805B"/>
			<stop  offset="1" style="stop-color:#A0603D"/>
		</linearGradient>
		<rect x="529.2" y="157" fill="url(#SVGID_6_)" width="179.8" height="106.6"/>
		<path fill="#9A452E" d="M-19,42L-19,42v97.3l0,0V42z M-19,139.5L-19,139.5L-19,139.5L-19,139.5z M-19,263.5V157l0,0V263.5
			L-19,263.5z M184,157v120.5l-7.9,5.9V157H184z M519.8,282.8l-6.6-12V157h6.6V282.8z M513.2,139.9V42h6.6v100.8L513.2,139.9z
			 M184,42v97.9l-0.1,0.1l-7.8,2V42H184z"/>
		
			<linearGradient id="SVGID_7_" gradientUnits="userSpaceOnUse" x1="599.6094" y1="327.0923" x2="599.6094" y2="369.8173" gradientTransform="matrix(1 0 0 -1 -251.0098 418.0547)">
			<stop  offset="0" style="stop-color:#C9805B"/>
			<stop  offset="1" style="stop-color:#A0603D"/>
		</linearGradient>
		<rect x="184" y="42" fill="url(#SVGID_7_)" width="329.2" height="97.9"/>
		<path fill="#C18C57" d="M340.6,154.3H362c5.7,0.1,10.3,0.2,13.8,0.3v0.1c-6-0.1-15.6-0.2-28.8-0.3
			C344.9,154.4,342.7,154.3,340.6,154.3z"/>
		
			<linearGradient id="SVGID_8_" gradientUnits="userSpaceOnUse" x1="324.7593" y1="327.0923" x2="324.7593" y2="369.8173" gradientTransform="matrix(1 0 0 -1 -251.0098 418.0547)">
			<stop  offset="0" style="stop-color:#C9805B"/>
			<stop  offset="1" style="stop-color:#A0603D"/>
		</linearGradient>
		<polygon fill="url(#SVGID_8_)" points="-19,139.2 -19,42 166.5,42 166.5,139.9 54,139.4 54,139.5 		"/>
		
			<linearGradient id="SVGID_9_" gradientUnits="userSpaceOnUse" x1="324.7593" y1="190.6548" x2="324.7593" y2="245.1548" gradientTransform="matrix(1 0 0 -1 -251.0098 418.0547)">
			<stop  offset="0" style="stop-color:#C9805B"/>
			<stop  offset="1" style="stop-color:#A0603D"/>
		</linearGradient>
		<polygon fill="url(#SVGID_9_)" points="166.5,263.6 -19,263.6 -19,263.5 -19,263.5 -19,157 166.5,157 		"/>
	</g>
</g>
<g>
	<path fill="#292929" d="M536,440.9c0,0.1,0,0.1,0,0.2v0.1c0,0,0,0,0,0.1V440.9z"/>
	<g>
		<g>
			<polygon fill-opacity="0.298" points="706,588 706,611.1 457.2,611.2 447.5,588 			"/>
		</g>
		<g>
			<polygon points="706,589.7 706,608.7 459.1,608.8 451.7,589.7 			"/>
		</g>
		<g>
			
				<linearGradient id="SVGID_10_" gradientUnits="userSpaceOnUse" x1="833.6602" y1="-32.9043" x2="833.7354" y2="-187.9543" gradientTransform="matrix(1 0 0 -1 -251.0098 418.0547)">
				<stop  offset="7.843138e-003" style="stop-color:#C6CCD2"/>
				<stop  offset="3.529412e-002" style="stop-color:#E5E9EC"/>
				<stop  offset="5.490196e-002" style="stop-color:#C6CCD2"/>
				<stop  offset="0.9804" style="stop-color:#95A6A6"/>
				<stop  offset="1" style="stop-color:#627373"/>
			</linearGradient>
			<path fill="url(#SVGID_10_)" d="M459.5,607.5l-0.2-153.8l1.8-3.5l0.1-0.3H706v157.8H459.5V607.5z M576.5,453.5
				c-4.9,0-9.8,0.1-14.6,0.2h33.3C588.8,453.5,582.7,453.5,576.5,453.5z M502.5,474.7l-0.3-0.3v0.3H502.5z M500.9,481.2h-0.3
				l0.2,0.1L500.9,481.2z M498.6,481.2L498.6,481.2L498.6,481.2L498.6,481.2z M494.5,474.3v0.3h0.2L494.5,474.3z M481.8,481.2h-0.3
				H481.8L481.8,481.2z M463.1,481.2l0.3,0.1l0.1-0.1H463.1z"/>
			
				<linearGradient id="SVGID_11_" gradientUnits="userSpaceOnUse" x1="829.4082" y1="19.2148" x2="829.4959" y2="-75.7968" gradientTransform="matrix(1 0 0 -1 -251.0098 418.0547)">
				<stop  offset="0" style="stop-color:#E5E9EC"/>
				<stop  offset="1" style="stop-color:#C6CCD2"/>
			</linearGradient>
			<path fill="url(#SVGID_11_)" d="M576.5,453.5c6.1,0,12.3,0.1,18.6,0.2h-33.3C566.8,453.5,571.7,453.5,576.5,453.5z"/>
			<polygon fill="#798587" points="459.5,607.5 453,590.1 453,409.5 461.2,450.3 459.3,453.8 			"/>
		</g>
		<g>
			
				<linearGradient id="SVGID_12_" gradientUnits="userSpaceOnUse" x1="702.3477" y1="-32.7954" x2="1111.2727" y2="-32.7954" gradientTransform="matrix(1 0 0 -1 -251.0098 418.0547)">
				<stop  offset="0" style="stop-color:#A48B77"/>
				<stop  offset="0.1255" style="stop-color:#373634"/>
				<stop  offset="0.2078" style="stop-color:#B3ADAA"/>
				<stop  offset="0.3137" style="stop-color:#A48D6B"/>
				<stop  offset="0.3765" style="stop-color:#4A4947"/>
				<stop  offset="0.4549" style="stop-color:#363533"/>
				<stop  offset="0.5333" style="stop-color:#AA8D6D"/>
				<stop  offset="0.6627" style="stop-color:#E9E3E2"/>
				<stop  offset="0.7529" style="stop-color:#D6D6D6"/>
				<stop  offset="0.8627" style="stop-color:#615851"/>
				<stop  offset="1" style="stop-color:#CFCAC0"/>
			</linearGradient>
			<polygon fill="url(#SVGID_12_)" points="459.2,446.4 706,446.4 706,455.3 459.2,455.3 			"/>
			<line fill="none" x1="706" y1="446.4" x2="459.2" y2="446.4"/>
		</g>
		<g>
			
				<linearGradient id="SVGID_13_" gradientUnits="userSpaceOnUse" x1="75.5605" y1="-241.2686" x2="360.0874" y2="-241.2686" gradientTransform="matrix(0.7794 -0.6266 -0.8883 -0.5689 226.793 402.9691)">
				<stop  offset="0" style="stop-color:#888888"/>
				<stop  offset="9.411765e-002" style="stop-color:#AAAAAA"/>
				<stop  offset="0.1882" style="stop-color:#6A6A6A"/>
				<stop  offset="0.3451" style="stop-color:#888888"/>
				<stop  offset="0.5686" style="stop-color:#FFFFFF"/>
				<stop  offset="0.7294" style="stop-color:#737373"/>
				<stop  offset="0.7725" style="stop-color:#D0D0D0"/>
				<stop  offset="0.9098" style="stop-color:#9D9D9D"/>
			</linearGradient>
			<path fill="url(#SVGID_13_)" d="M706,410.3v36.8H461.3c-0.8,0-1.6,0-2.4,0l-5.6-36.5L706,410.3z"/>
		</g>
		<g>
			
				<linearGradient id="SVGID_14_" gradientUnits="userSpaceOnUse" x1="809.2324" y1="52.042" x2="869.23" y2="-68.0135" gradientTransform="matrix(1 0 0 -1 -251.0098 418.0547)">
				<stop  offset="0" style="stop-color:#6D6D6D"/>
				<stop  offset="0.2314" style="stop-color:#7C7C7C"/>
				<stop  offset="0.5412" style="stop-color:#B5B5B5"/>
				<stop  offset="1" style="stop-color:#9D9D9D"/>
			</linearGradient>
			<polygon fill="url(#SVGID_14_)" points="706,412.8 706,442.2 472,442.4 463.8,413.2 			"/>
		</g>
	</g>
	<g>
		<path d="M481.2,435.8c0.4-1.4,2.2-2.6,5.5-3.7c3.8-1.1,8.3-1.6,13.7-1.6c5.3,0,9.9,0.5,13.6,1.6c2.6,0.8,4.3,1.7,5.1,2.8
			c-0.4,1.4-2.3,2.6-5.6,3.6c-3.7,1.2-8.3,1.8-13.6,1.8c-5.4,0-9.9-0.6-13.7-1.8C483.7,437.6,482,436.8,481.2,435.8z"/>
		
			<linearGradient id="SVGID_15_" gradientUnits="userSpaceOnUse" x1="732.8096" y1="-13.9956" x2="768.9095" y2="-13.9956" gradientTransform="matrix(1 0 0 -1 -251.0098 418.0547)">
			<stop  offset="0" style="stop-color:#999999"/>
			<stop  offset="0.5412" style="stop-color:#FFFFFF"/>
			<stop  offset="1" style="stop-color:#949494"/>
		</linearGradient>
		<path fill="url(#SVGID_15_)" d="M519.1,434.8c-0.8-1-2.5-1.9-5.1-2.8c-3.7-1.1-8.3-1.6-13.6-1.6c-5.4,0-9.9,0.5-13.7,1.6
			c-3.3,1-5.2,2.3-5.5,3.7c-0.3-0.3-0.4-0.7-0.5-1c0-0.1-0.1-0.2-0.1-0.3v-0.2c0-1.6,1.9-3,5.6-4.2c3.8-1.1,8.3-1.6,13.7-1.6
			c5.3,0,9.9,0.5,13.6,1.6c3.8,1.2,5.7,2.6,5.7,4.2v0.2C519.2,434.5,519.2,434.7,519.1,434.8L519.1,434.8z"/>
	</g>
	<g>
		
			<linearGradient id="SVGID_16_" gradientUnits="userSpaceOnUse" x1="826.6094" y1="-13.9956" x2="862.7094" y2="-13.9956" gradientTransform="matrix(1 0 0 -1 -251.0098 418.0547)">
			<stop  offset="0" style="stop-color:#999999"/>
			<stop  offset="0.5412" style="stop-color:#FFFFFF"/>
			<stop  offset="1" style="stop-color:#949494"/>
		</linearGradient>
		<path fill="url(#SVGID_16_)" d="M613,434.8c-0.8-1-2.5-1.9-5.2-2.8c-3.7-1.1-8.3-1.6-13.6-1.6c-5.4,0-9.9,0.5-13.7,1.6
			c-3.3,1-5.2,2.3-5.5,3.7c-0.3-0.3-0.5-0.7-0.5-1c0-0.1,0-0.2,0-0.3v-0.2c0-1.6,1.9-3,5.6-4.2c3.8-1.1,8.3-1.6,13.7-1.6
			c5.3,0,9.9,0.5,13.6,1.6c3.8,1.2,5.7,2.6,5.7,4.2v0.2C613,434.5,613,434.7,613,434.8L613,434.8z"/>
		<path d="M575,435.8c0.3-1.4,2.2-2.7,5.5-3.7c3.8-1.1,8.3-1.6,13.7-1.6c5.3,0,9.9,0.5,13.6,1.6c2.6,0.8,4.4,1.7,5.2,2.8
			c-0.4,1.4-2.3,2.6-5.7,3.6c-3.7,1.2-8.3,1.8-13.6,1.8c-5.4,0-9.9-0.6-13.7-1.8C577.5,437.6,575.8,436.8,575,435.8z"/>
	</g>
	<g>
		<g>
			
				<radialGradient id="SVGID_17_" cx="743.5596" cy="-154.1318" r="17.7653" gradientTransform="matrix(1 0 0 -0.2377 -251.0098 386.6125)" gradientUnits="userSpaceOnUse">
				<stop  offset="0" style="stop-color:#848484"/>
				<stop  offset="1" style="stop-color:#BCBCBC"/>
			</radialGradient>
			<path fill="url(#SVGID_17_)" d="M510.1,423.6c-0.3,1-2,1.9-5,2.6c-3.4,0.9-7.5,1.3-12.3,1.3c-4.9,0-9-0.4-12.4-1.3
				c-3.1-0.7-4.7-1.6-5-2.6c0-0.1,0-0.2,0-0.3v-0.1c0-1.1,1.7-2.1,5-3c3.4-0.8,7.5-1.2,12.4-1.2c4.8,0,8.9,0.4,12.3,1.2
				c3.4,0.9,5.1,1.9,5.1,3v0.1C510.2,423.4,510.1,423.5,510.1,423.6z"/>
			<path fill="#2E2E2E" d="M475.3,423.6c0.3,1,1.9,1.9,5,2.6c3.4,0.9,7.5,1.3,12.4,1.3c4.8,0,8.9-0.4,12.3-1.3
				c3.1-0.7,4.8-1.6,5-2.6c0,0.1,0.1,0.2,0.1,0.3l0,0c0,1.1-1.7,2.1-5.1,2.9c-3.4,0.9-7.5,1.3-12.3,1.3c-4.9,0-9-0.4-12.4-1.3
				c-3.3-0.8-5-1.8-5-2.9l0,0C475.3,423.8,475.3,423.7,475.3,423.6z"/>
		</g>
		<g>
			<g>
				<path d="M490.5,419.8h4.4v2.9v0.2l0,0c-0.1,0.1-0.3,0.2-0.6,0.3c-0.4,0.1-1,0.1-1.6,0.1c-0.6,0-1.1,0-1.5-0.1
					c-0.3-0.1-0.5-0.1-0.5-0.2l0,0h-0.1L490.5,419.8L490.5,419.8z"/>
			</g>
			<g>
				<path fill="#292929" d="M497.4,420.5c0,0.1,0,0.1-0.1,0.2c-0.2,0.2-0.6,0.4-1.2,0.5c-0.9,0.2-2,0.3-3.3,0.3s-2.3-0.1-3.3-0.3
					c-0.6-0.2-1-0.3-1.1-0.5c-0.1,0-0.1-0.1-0.2-0.2v-0.1c0.1-0.3,0.5-0.5,1.3-0.7c0.9-0.2,2-0.4,3.3-0.4s2.4,0.1,3.3,0.4
					C497,419.9,497.4,420.2,497.4,420.5L497.4,420.5z"/>
				<path d="M488.3,420.5c0,0.1,0.1,0.1,0.2,0.2c0.2,0.2,0.5,0.4,1.1,0.5c0.9,0.2,2,0.3,3.3,0.3c1.3,0,2.4-0.1,3.3-0.3
					c0.6-0.2,1-0.3,1.2-0.5c0.1,0,0.1-0.1,0.1-0.2v0.5v0.1c-0.1,0.3-0.5,0.5-1.3,0.7c-0.9,0.2-2,0.3-3.3,0.3c-1.3,0-2.3-0.1-3.3-0.3
					c-0.7-0.2-1.2-0.4-1.3-0.7V420.5L488.3,420.5z"/>
			</g>
		</g>
	</g>
	<g>
		<g>
			
				<radialGradient id="SVGID_18_" cx="834.9102" cy="-154.1318" r="17.7686" gradientTransform="matrix(1 0 0 -0.2377 -251.0098 386.6125)" gradientUnits="userSpaceOnUse">
				<stop  offset="0" style="stop-color:#848484"/>
				<stop  offset="1" style="stop-color:#BCBCBC"/>
			</radialGradient>
			<path fill="url(#SVGID_18_)" d="M601.5,423.6c-0.3,1-2,1.9-5.1,2.6c-3.4,0.9-7.5,1.3-12.3,1.3c-4.8,0-9-0.4-12.4-1.3
				c-3-0.7-4.7-1.6-5-2.6c0-0.1-0.1-0.2-0.1-0.3v-0.1c0-1.1,1.7-2.1,5.1-3c3.4-0.8,7.6-1.2,12.4-1.2c4.8,0,8.9,0.4,12.3,1.2
				c3.4,0.9,5.1,1.9,5.2,3v0.1C601.5,423.4,601.5,423.5,601.5,423.6z"/>
			<path fill="#2E2E2E" d="M566.7,423.6c0.3,1,2,1.9,5,2.6c3.4,0.9,7.6,1.3,12.4,1.3c4.8,0,8.9-0.4,12.3-1.3
				c3.1-0.7,4.8-1.6,5.1-2.6c0,0.1,0,0.2,0,0.3l0,0c0,1.1-1.8,2.1-5.2,2.9c-3.4,0.9-7.5,1.3-12.3,1.3s-9-0.4-12.4-1.3
				c-3.3-0.8-5-1.8-5.1-2.9l0,0C566.6,423.8,566.6,423.7,566.7,423.6z"/>
		</g>
		<g>
			<g>
				<path d="M581.8,419.8h4.5v3.2c-0.1,0.1-0.3,0.2-0.6,0.3c-0.5,0.1-1,0.1-1.6,0.1c-0.6,0-1.1,0-1.5-0.1c-0.3-0.1-0.5-0.1-0.6-0.2
					l0,0h-0.1v-3.3H581.8z"/>
			</g>
			<g>
				<path fill="#292929" d="M588.7,420.5c0,0.1,0,0.1,0,0.2c-0.2,0.2-0.6,0.4-1.3,0.5c-0.9,0.2-2,0.3-3.2,0.3
					c-1.3,0-2.4-0.1-3.3-0.3c-0.6-0.2-1-0.3-1.2-0.5c-0.1,0-0.1-0.1-0.1-0.2v-0.1c0.1-0.3,0.5-0.5,1.3-0.7c0.9-0.2,2-0.4,3.3-0.4
					c1.2,0,2.3,0.1,3.2,0.4C588.3,419.9,588.7,420.2,588.7,420.5L588.7,420.5z"/>
				<path d="M579.7,420.5c0,0.1,0,0.1,0.1,0.2c0.2,0.2,0.6,0.4,1.2,0.5c0.9,0.2,2,0.3,3.3,0.3c1.2,0,2.3-0.1,3.2-0.3
					c0.6-0.2,1-0.3,1.3-0.5c0,0,0-0.1,0-0.2v0.5v0.1c-0.1,0.3-0.5,0.5-1.3,0.7c-0.9,0.2-2,0.3-3.2,0.3c-1.3,0-2.4-0.1-3.3-0.3
					c-0.8-0.2-1.2-0.4-1.3-0.7V420.5z"/>
			</g>
		</g>
	</g>
	<g>
		<g>
			
				<radialGradient id="SVGID_19_" cx="921.6094" cy="-154.1318" r="17.7686" gradientTransform="matrix(1 0 0 -0.2377 -251.0098 386.6125)" gradientUnits="userSpaceOnUse">
				<stop  offset="0" style="stop-color:#848484"/>
				<stop  offset="1" style="stop-color:#BCBCBC"/>
			</radialGradient>
			<path fill="url(#SVGID_19_)" d="M688.2,423.6c-0.3,1-2,1.9-5.1,2.6c-3.4,0.9-7.5,1.3-12.3,1.3s-9-0.4-12.3-1.3
				c-3.1-0.7-4.7-1.6-5-2.6c0-0.1-0.1-0.2-0.1-0.3v-0.1c0-1.1,1.7-2.1,5.1-3c3.4-0.8,7.5-1.2,12.3-1.2s9,0.4,12.3,1.2
				c3.4,0.9,5.1,1.9,5.1,3v0.1C688.2,423.4,688.2,423.5,688.2,423.6z"/>
			<path fill="#2E2E2E" d="M653.4,423.6c0.3,1,1.9,1.9,5,2.6c3.4,0.9,7.5,1.3,12.3,1.3s9-0.4,12.3-1.3c3.1-0.7,4.8-1.6,5.1-2.6
				c0,0.1,0,0.2,0,0.3l0,0c0,1.1-1.7,2.1-5.1,2.9c-3.4,0.9-7.5,1.3-12.3,1.3s-9-0.4-12.3-1.3c-3.3-0.8-5-1.8-5.1-2.9l0,0
				C653.3,423.8,653.4,423.7,653.4,423.6z"/>
		</g>
		<g>
			<g>
				<path d="M668.6,419.8h4.4v2.9v0.2l0,0c-0.1,0.1-0.3,0.2-0.6,0.3c-0.4,0.1-1,0.1-1.6,0.1c-0.6,0-1.1,0-1.5-0.1
					c-0.3-0.1-0.5-0.1-0.6-0.2l0,0h-0.1V419.8L668.6,419.8z"/>
			</g>
			<g>
				<path fill="#292929" d="M675.5,420.5c0,0.1,0,0.1-0.1,0.2c-0.2,0.2-0.6,0.4-1.2,0.5c-0.9,0.2-2,0.3-3.3,0.3
					c-1.3,0-2.4-0.1-3.3-0.3c-0.6-0.2-1-0.3-1.2-0.5c-0.1,0-0.1-0.1-0.2-0.2v-0.1c0.1-0.3,0.5-0.5,1.3-0.7c0.9-0.2,2-0.4,3.3-0.4
					s2.3,0.1,3.3,0.4C675,419.9,675.5,420.2,675.5,420.5L675.5,420.5z"/>
				<path d="M666.3,420.5c0,0.1,0.1,0.1,0.2,0.2c0.2,0.2,0.5,0.4,1.2,0.5c0.9,0.2,2,0.3,3.3,0.3s2.3-0.1,3.3-0.3
					c0.6-0.2,1-0.3,1.2-0.5c0.1,0,0.1-0.1,0.1-0.2v0.5v0.1c-0.1,0.3-0.5,0.5-1.3,0.7c-0.9,0.2-2,0.3-3.3,0.3s-2.4-0.1-3.3-0.3
					c-0.7-0.2-1.2-0.4-1.3-0.7v-0.6H666.3z"/>
			</g>
		</g>
	</g>
	<g>
		<g>
			
				<radialGradient id="SVGID_20_" cx="750.71" cy="-124.667" r="21.1627" gradientTransform="matrix(1 0 0 -0.3001 -251.0098 397.0061)" gradientUnits="userSpaceOnUse">
				<stop  offset="0" style="stop-color:#848484"/>
				<stop  offset="1" style="stop-color:#BCBCBC"/>
			</radialGradient>
			<path fill="url(#SVGID_20_)" d="M520.6,434.9c-0.4,1.5-2.4,2.8-6,3.9c-4,1.3-8.9,2-14.6,2c-5.8,0-10.7-0.6-14.8-2
				c-3.6-1.1-5.6-2.4-6-3.9c0-0.1,0-0.3,0-0.4v-0.2c0-1.7,2-3.2,6-4.5c4.1-1.2,9-1.8,14.8-1.8c5.7,0,10.6,0.6,14.6,1.8
				c4,1.3,6.1,2.8,6.1,4.5v0.2C520.7,434.6,520.6,434.8,520.6,434.9z"/>
			<path fill="#2E2E2E" d="M479.2,434.9c0.3,1.5,2.3,2.8,6,3.9c4.1,1.3,9,2,14.8,2c5.7,0,10.6-0.6,14.6-2c3.7-1.1,5.7-2.4,6-3.9
				c0,0.1,0.1,0.3,0.1,0.4v0.1c0,1.7-2.1,3.2-6.1,4.4c-4,1.3-8.9,2-14.6,2c-5.8,0-10.7-0.6-14.8-2c-4-1.2-6-2.7-6-4.4v-0.1
				C479.2,435.2,479.2,435,479.2,434.9z"/>
		</g>
		<g>
			<g>
				<path d="M497.3,429.2h5.3v4.4v0.3l0,0c-0.1,0.1-0.3,0.3-0.7,0.4c-0.5,0.1-1.2,0.2-1.9,0.2s-1.4-0.1-1.9-0.2
					c-0.3-0.1-0.6-0.2-0.7-0.3l0,0l-0.1-0.1V429.2L497.3,429.2z"/>
			</g>
			<g>
				<path fill="#292929" d="M505.5,430.3c0,0.1,0,0.2-0.1,0.3c-0.2,0.3-0.7,0.6-1.4,0.8c-1.1,0.3-2.4,0.5-3.9,0.5s-2.8-0.2-3.8-0.5
					c-0.7-0.2-1.2-0.5-1.4-0.8c-0.1-0.1-0.1-0.1-0.1-0.3v-0.1l0,0v-0.1c0.1-0.4,0.6-0.8,1.5-1c1.1-0.3,2.3-0.5,3.8-0.5
					s2.8,0.2,3.9,0.5C505,429.4,505.5,429.8,505.5,430.3L505.5,430.3L505.5,430.3z"/>
				<path d="M494.7,430.3c0,0.1,0.1,0.2,0.1,0.3c0.2,0.3,0.7,0.6,1.4,0.8c1.1,0.3,2.3,0.5,3.8,0.5s2.8-0.2,3.9-0.5
					c0.7-0.2,1.2-0.5,1.4-0.8c0.1-0.1,0.1-0.1,0.1-0.3v0.7v0.1c-0.1,0.4-0.6,0.7-1.5,1c-1.1,0.4-2.4,0.5-3.9,0.5s-2.8-0.2-3.8-0.5
					c-0.9-0.3-1.4-0.6-1.5-1V431V430.3z"/>
			</g>
		</g>
	</g>
	<g>
		<g>
			<path fill="#2E2E2E" d="M658.8,434.9c0.3,1.5,2.3,2.8,6,3.9c4.1,1.3,9,2,14.8,2c5.7,0,10.6-0.6,14.7-2c3.7-1.1,5.7-2.4,6-3.9
				c0,0.1,0,0.3,0,0.4v0.1c0,1.7-2.1,3.2-6.1,4.4c-4,1.3-8.9,2-14.7,2s-10.7-0.6-14.8-2c-4-1.2-6-2.7-6-4.4v-0.1
				C658.8,435.2,658.8,435,658.8,434.9z"/>
			
				<radialGradient id="SVGID_21_" cx="930.3096" cy="-124.667" r="21.1627" gradientTransform="matrix(1 0 0 -0.3001 -251.0098 397.0061)" gradientUnits="userSpaceOnUse">
				<stop  offset="0" style="stop-color:#848484"/>
				<stop  offset="1" style="stop-color:#BCBCBC"/>
			</radialGradient>
			<path fill="url(#SVGID_21_)" d="M700.2,434.9c-0.4,1.5-2.4,2.8-6,3.9c-4,1.3-8.9,2-14.7,2s-10.7-0.6-14.8-2
				c-3.6-1.1-5.6-2.4-6-3.9c0-0.1,0-0.3,0-0.4v-0.2c0-1.7,2-3.2,6-4.5c4.1-1.2,9-1.8,14.8-1.8c5.7,0,10.6,0.6,14.7,1.8
				c4,1.3,6.1,2.8,6.1,4.5v0.2C700.3,434.6,700.2,434.8,700.2,434.9z"/>
		</g>
		<g>
			<g>
				<path d="M677.7,434.3c-0.3-0.1-0.6-0.2-0.7-0.3l0,0l-0.1-0.1v-4.6h5.3v4.4v0.3l0,0c-0.1,0.1-0.3,0.3-0.7,0.4
					c-0.5,0.1-1.2,0.2-1.9,0.2C678.9,434.6,678.2,434.5,677.7,434.3z"/>
			</g>
			<g>
				<path d="M685,430.3v0.7v0.1c-0.1,0.4-0.6,0.7-1.5,1c-1.1,0.4-2.3,0.5-3.8,0.5s-2.8-0.2-3.9-0.5c-0.9-0.3-1.4-0.6-1.5-1V431v-0.8
					c0,0.1,0.1,0.2,0.2,0.3c0.2,0.3,0.7,0.6,1.4,0.8c1.1,0.3,2.4,0.5,3.9,0.5s2.8-0.2,3.8-0.5c0.7-0.2,1.2-0.5,1.5-0.8
					C685,430.5,685,430.5,685,430.3z"/>
				<path fill="#292929" d="M674.3,430.3L674.3,430.3L674.3,430.3v-0.2c0.1-0.4,0.6-0.8,1.5-1c1.1-0.3,2.4-0.5,3.9-0.5
					s2.8,0.2,3.8,0.5c1,0.3,1.5,0.7,1.5,1.2l0,0v0.1c0,0.1,0,0.2-0.1,0.3c-0.2,0.3-0.7,0.6-1.5,0.8c-1.1,0.3-2.3,0.5-3.8,0.5
					s-2.8-0.2-3.9-0.5c-0.7-0.2-1.2-0.5-1.4-0.8C674.3,430.5,674.3,430.5,674.3,430.3z"/>
			</g>
		</g>
	</g>
	<g>
		<g>
			<path fill="#2E2E2E" d="M472.3,415c0.3,0.8,1.8,1.4,4.6,2c3.1,0.6,6.9,1,11.3,1c4.4,0,8.2-0.3,11.3-1c2.8-0.5,4.4-1.2,4.7-2
				c0,0.1,0,0.2,0,0.3l0,0c0,0.8-1.5,1.6-4.7,2.2c-3.1,0.6-6.8,1-11.3,1s-8.3-0.3-11.3-1c-3.1-0.6-4.6-1.3-4.7-2.2l0,0
				C472.3,415.2,472.3,415.1,472.3,415z"/>
			
				<radialGradient id="SVGID_22_" cx="739.1094" cy="-190.3281" r="16.2748" gradientTransform="matrix(1 0 0 -0.1935 -251.0098 377.952)" gradientUnits="userSpaceOnUse">
				<stop  offset="0" style="stop-color:#848484"/>
				<stop  offset="1" style="stop-color:#BCBCBC"/>
			</radialGradient>
			<path fill="url(#SVGID_22_)" d="M504.2,415c-0.3,0.8-1.9,1.4-4.7,2c-3.1,0.6-6.8,1-11.3,1s-8.3-0.3-11.3-1
				c-2.8-0.5-4.3-1.2-4.6-2c0-0.1,0-0.1,0-0.2v-0.1c0-0.8,1.6-1.6,4.7-2.2s6.9-0.9,11.3-0.9c4.4,0,8.2,0.3,11.3,0.9
				c3.1,0.6,4.7,1.4,4.7,2.2v0.1C504.2,414.9,504.2,415,504.2,415z"/>
		</g>
		<g>
			<g>
				<path d="M486.3,412.3h4v2.2v0.1l0,0c-0.1,0.1-0.3,0.1-0.5,0.2c-0.4,0.1-0.9,0.2-1.5,0.2c-0.6,0-1-0.1-1.5-0.2
					c-0.2,0-0.4-0.1-0.5-0.2l0,0V412.3z"/>
			</g>
			<g>
				<path d="M484.2,412.8l0.1,0.1c0.2,0.2,0.5,0.3,1.1,0.4c0.8,0.2,1.8,0.3,3,0.3c1.1,0,2.1-0.1,2.9-0.3c0.6-0.1,0.9-0.2,1.1-0.4
					c0.1,0,0.1-0.1,0.1-0.1v0.4c-0.1,0.2-0.5,0.4-1.2,0.5c-0.8,0.2-1.8,0.3-2.9,0.3c-1.2,0-2.2-0.1-3-0.3c-0.7-0.1-1.1-0.3-1.2-0.5
					V412.8z"/>
				<path fill="#292929" d="M492.5,412.8c0,0,0,0.1-0.1,0.1c-0.2,0.2-0.5,0.3-1.1,0.4c-0.8,0.2-1.8,0.3-2.9,0.3
					c-1.2,0-2.2-0.1-3-0.3c-0.5-0.1-0.9-0.2-1.1-0.4c-0.1,0-0.1-0.1-0.1-0.1v-0.1c0.1-0.2,0.5-0.4,1.2-0.5c0.8-0.2,1.8-0.3,3-0.3
					c1.1,0,2.1,0.1,2.9,0.3C492.2,412.3,492.5,412.5,492.5,412.8L492.5,412.8z"/>
			</g>
		</g>
	</g>
	<g>
		<g>
			
				<radialGradient id="SVGID_23_" cx="825.3594" cy="-190.3281" r="16.2748" gradientTransform="matrix(1 0 0 -0.1935 -251.0098 377.952)" gradientUnits="userSpaceOnUse">
				<stop  offset="0" style="stop-color:#848484"/>
				<stop  offset="1" style="stop-color:#BCBCBC"/>
			</radialGradient>
			<path fill="url(#SVGID_23_)" d="M590.4,415c-0.3,0.8-1.8,1.4-4.7,2c-3.1,0.6-6.9,1-11.3,1c-4.4,0-8.2-0.3-11.4-1
				c-2.8-0.5-4.3-1.2-4.5-2c0-0.1,0-0.1,0-0.2v-0.1c0-0.8,1.6-1.6,4.6-2.2c3.2-0.6,7-0.9,11.4-0.9s8.2,0.3,11.3,0.9
				c3.1,0.6,4.7,1.4,4.7,2.2v0.1C590.5,414.9,590.4,415,590.4,415z"/>
			<path fill="#2E2E2E" d="M558.5,415c0.3,0.8,1.8,1.4,4.5,2c3.2,0.6,7,1,11.4,1c4.4,0,8.2-0.3,11.3-1c2.8-0.5,4.4-1.2,4.7-2
				c0,0.1,0,0.2,0,0.3l0,0c0,0.8-1.6,1.6-4.7,2.2c-3.1,0.6-6.9,1-11.3,1c-4.4,0-8.2-0.3-11.4-1c-3-0.6-4.6-1.3-4.6-2.2l0,0
				C558.5,415.2,558.5,415.1,558.5,415z"/>
		</g>
		<g>
			<g>
				<path d="M576.5,412.3v2.3c-0.1,0.1-0.3,0.1-0.5,0.2c-0.4,0.1-0.9,0.2-1.5,0.2s-1-0.1-1.4-0.2c-0.3,0-0.4-0.1-0.5-0.2h-0.1v-2.3
					H576.5z"/>
			</g>
			<g>
				<path d="M570.5,412.8c0,0,0,0.1,0.1,0.1c0.1,0.2,0.5,0.3,1.1,0.4c0.8,0.2,1.8,0.3,2.9,0.3c1.1,0,2.1-0.1,3-0.3
					c0.6-0.1,1-0.2,1.2-0.4v-0.1v0.4c-0.1,0.2-0.5,0.4-1.2,0.5c-0.8,0.2-1.8,0.3-3,0.3c-1.2,0-2.1-0.1-2.9-0.3
					c-0.7-0.1-1.1-0.3-1.2-0.5V412.8L570.5,412.8z"/>
				<path fill="#292929" d="M578.8,412.8v0.1c-0.2,0.2-0.6,0.3-1.2,0.4c-0.8,0.2-1.8,0.3-3,0.3c-1.2,0-2.1-0.1-2.9-0.3
					c-0.6-0.1-1-0.2-1.1-0.4c-0.1,0-0.1-0.1-0.1-0.1v-0.1c0.1-0.2,0.5-0.4,1.2-0.5c0.8-0.2,1.8-0.3,2.9-0.3c1.1,0,2.1,0.1,3,0.3
					C578.3,412.3,578.8,412.5,578.8,412.8L578.8,412.8z"/>
			</g>
		</g>
	</g>
	<g>
		<g>
			<path fill="#2E2E2E" d="M676.3,415c0,0.1,0.1,0.2,0.1,0.3l0,0c0,0.8-1.6,1.6-4.7,2.2c-3.1,0.6-6.9,1-11.3,1
				c-4.4,0-8.2-0.3-11.3-1c-3.1-0.6-4.6-1.3-4.7-2.2l0,0c0-0.1,0-0.2,0-0.3c0.2,0.8,1.8,1.4,4.6,2c3.1,0.6,6.9,1,11.3,1
				c4.4,0,8.2-0.3,11.3-1C674.5,416.5,676.1,415.8,676.3,415z"/>
			
				<radialGradient id="SVGID_24_" cx="911.3096" cy="-190.3281" r="16.2748" gradientTransform="matrix(1 0 0 -0.1935 -251.0098 377.952)" gradientUnits="userSpaceOnUse">
				<stop  offset="0" style="stop-color:#848484"/>
				<stop  offset="1" style="stop-color:#BCBCBC"/>
			</radialGradient>
			<path fill="url(#SVGID_24_)" d="M644.5,415c0-0.1,0-0.1,0-0.2v-0.1c0-0.8,1.6-1.6,4.7-2.2c3.1-0.6,6.9-0.9,11.3-0.9
				s8.2,0.3,11.3,0.9c3.1,0.6,4.6,1.4,4.7,2.2v0.1c0,0.1,0,0.1-0.1,0.2c-0.3,0.8-1.8,1.4-4.6,2c-3.1,0.6-6.9,1-11.3,1
				s-8.2-0.3-11.3-1C646.3,416.5,644.8,415.8,644.5,415z"/>
		</g>
		<g>
			<g>
				<path d="M658.5,412.3h4v2.2v0.1l0,0c-0.1,0.1-0.3,0.1-0.5,0.2c-0.4,0.1-0.9,0.2-1.5,0.2s-1-0.1-1.5-0.2c-0.2,0-0.4-0.1-0.5-0.2
					l0,0V412.3z"/>
			</g>
			<g>
				<path fill="#292929" d="M656.4,412.8L656.4,412.8c0.1-0.3,0.5-0.5,1.2-0.6c0.8-0.2,1.8-0.3,3-0.3c1.1,0,2.1,0.1,3,0.3
					c0.8,0.2,1.2,0.3,1.2,0.5v0.1c0,0,0,0.1-0.1,0.1c-0.2,0.2-0.5,0.3-1.1,0.4c-0.8,0.2-1.8,0.3-3,0.3c-1.2,0-2.2-0.1-3-0.3
					c-0.5-0.1-0.9-0.2-1-0.4C656.5,412.9,656.4,412.8,656.4,412.8z"/>
				<path d="M664.8,412.8v0.4c-0.1,0.2-0.5,0.4-1.2,0.5c-0.8,0.2-1.8,0.3-3,0.3c-1.2,0-2.2-0.1-3-0.3c-0.7-0.1-1.1-0.3-1.2-0.5v-0.4
					l0.1,0.1c0.2,0.2,0.5,0.3,1,0.4c0.8,0.2,1.8,0.3,3,0.3c1.1,0,2.1-0.1,3-0.3c0.6-0.1,0.9-0.2,1.1-0.4
					C664.7,412.9,664.7,412.8,664.8,412.8z"/>
			</g>
		</g>
	</g>
</g>
<g>
	
		<path fill="none" stroke="#FFFFFF" stroke-width="0.1" stroke-linecap="round" stroke-linejoin="round" stroke-miterlimit="3" stroke-opacity="8.627451e-002" d="
		M237.9,587.3v-55 M414.5,532.3V588"/>
	
		<line fill="none" stroke="#FFFFFF" stroke-width="0.1" stroke-linecap="round" stroke-linejoin="round" stroke-miterlimit="3" stroke-opacity="0.298" x1="234.3" y1="527.3" x2="421.7" y2="527.3"/>
	<g>
		<polygon fill-opacity="0.2471" points="231.4,589 416.9,589 427.2,611.2 230.6,610.7 		"/>
	</g>
	<g>
		<path fill="#436978" d="M423,602.5l-189.4-0.1l-0.8-15v-0.9h44.8l0,0l64.9,0.1l0,0h32.1l0,0h40.2L423,602.5z M248.4,595.2
			c1.8,1.4,6.1,2.2,12.9,2.5c8,0,12.9-0.9,14.6-2.6c0,0,0,0.1,0.1,0.1v-0.1c0.4-0.8,0.4-1.6,0-2.3c-0.6-0.7-2-1.4-4-2.1
			c-2.7-0.7-6.1-1-10-1c-4.2,0-7.6,0.3-10.3,1c-2.9,1-4.4,1.8-4.5,2.6c0.1,0.7,0.4,1.3,1.1,1.8v0.1H248.4z M280.9,595.2
			c1.8,1.4,6.1,2.2,13,2.5c8,0,12.9-0.9,14.6-2.6c0.5-0.8,0.5-1.6,0-2.3c-0.6-0.7-1.9-1.4-4-2.1c-2.7-0.7-6-1-9.9-1
			c-4.2,0-7.7,0.3-10.4,1c-2.9,1-4.5,1.8-4.6,2.6c0.1,0.7,0.5,1.3,1.1,1.8v0.1H280.9z M313.4,595.3c1.8,1.4,6.2,2.2,13,2.4
			c8,0,12.9-0.9,14.6-2.5c0,0.1,0,0.1,0,0.1v-0.2c0.4-0.8,0.4-1.5,0-2.3c-0.7-0.7-2-1.4-4.1-2c-2.7-0.7-6-1.1-9.9-1.1
			c-4.2,0-7.7,0.4-10.4,1.1c-2.9,0.9-4.4,1.8-4.5,2.7c0.1,0.7,0.4,1.2,1.1,1.7L313.4,595.3L313.4,595.3z M345.7,595.3
			c1.9,1.4,6.2,2.2,13,2.4c8,0,12.8-0.9,14.5-2.5c0,0.1,0,0.1,0.1,0.1v-0.2c0.4-0.8,0.4-1.5,0-2.3c-0.6-0.7-2-1.4-4-2
			c-2.7-0.7-6.1-1.1-10-1.1c-4.2,0-7.6,0.4-10.3,1.1c-2.9,0.9-4.5,1.8-4.6,2.7C344.6,594.1,345,594.7,345.7,595.3L345.7,595.3
			L345.7,595.3z M378.5,595.3c1.8,1.4,6.1,2.2,13,2.4c8,0,12.9-0.9,14.6-2.5c0,0.1,0,0.1,0.1,0.1v-0.2c0.4-0.8,0.4-1.5,0-2.3
			c-0.6-0.7-2-1.4-4.1-2c-2.7-0.7-6-1.1-9.9-1.1c-4.2,0-7.7,0.4-10.4,1.1c-2.9,0.9-4.5,1.8-4.5,2.7
			C377.3,594.1,377.7,594.7,378.5,595.3L378.5,595.3L378.5,595.3z"/>
		<path fill="#1F3236" d="M313.4,595.3L313.4,595.3l-0.1-0.1c-0.7-0.5-1-1-1.1-1.7c0.1-0.8,1.6-1.7,4.5-2.7
			c2.7-0.7,6.2-1.1,10.4-1.1c3.9,0,7.2,0.4,9.9,1.1c2.1,0.7,3.4,1.4,4.1,2c0.4,0.7,0.4,1.5,0,2.3v0.2c0,0,0,0,0-0.1
			c-2.7-1.6-7.8-2.5-15.3-2.5C320.4,592.9,316.3,593.7,313.4,595.3L313.4,595.3z M308.5,595.1c-2.7-1.6-7.8-2.4-15.3-2.4
			c-5.2,0.1-9.3,0.9-12.4,2.4c0.1,0,0.1,0,0.1,0.1h-0.1v-0.1c-0.6-0.4-1-1-1.1-1.8c0.1-0.8,1.6-1.7,4.6-2.6c2.7-0.7,6.2-1,10.4-1
			c3.9,0,7.2,0.3,9.9,1c2.1,0.7,3.4,1.4,4,2.1C309,593.5,309,594.3,308.5,595.1z M275.9,595.1c-2.6-1.6-7.7-2.4-15.2-2.4
			c-5.2,0.1-9.4,0.9-12.4,2.4c0.1,0,0.1,0,0.1,0.1h-0.1v-0.1c-0.7-0.4-1-1-1.1-1.8c0.1-0.8,1.6-1.7,4.5-2.6c2.7-0.7,6.1-1,10.3-1
			c3.9,0,7.3,0.3,10,1c2,0.7,3.4,1.4,4,2.1c0.4,0.7,0.4,1.5,0,2.3v0.1C275.9,595.2,275.9,595.1,275.9,595.1z M378.5,595.3
			L378.5,595.3L378.5,595.3c-0.8-0.6-1.2-1.1-1.3-1.8c0.1-0.8,1.6-1.7,4.5-2.7c2.7-0.7,6.2-1.1,10.4-1.1c3.9,0,7.2,0.4,9.9,1.1
			c2.1,0.7,3.5,1.4,4.1,2c0.4,0.7,0.4,1.5,0,2.3v0.2c0,0-0.1,0-0.1-0.1c-2.7-1.6-7.8-2.5-15.3-2.5
			C385.6,592.9,381.5,593.7,378.5,595.3L378.5,595.3z M373.3,595.2c-2.6-1.6-7.7-2.5-15.2-2.5c-5.2,0.2-9.4,1-12.4,2.5v0.1h-0.1
			v-0.1c-0.7-0.5-1-1-1.1-1.7c0.1-0.8,1.6-1.7,4.6-2.7c2.7-0.7,6.1-1.1,10.3-1.1c3.9,0,7.3,0.4,10,1.1c2,0.7,3.4,1.4,4,2
			c0.4,0.7,0.4,1.5,0,2.3v0.2C373.3,595.3,373.3,595.2,373.3,595.2z"/>
		<path fill="#2E4F52" d="M275.9,595.1c-1.7,1.7-6.6,2.5-14.6,2.6c-6.8-0.3-11.1-1.1-12.9-2.5c0,0,0-0.1-0.1-0.1
			c3-1.5,7.2-2.3,12.4-2.4C268.2,592.7,273.3,593.5,275.9,595.1z M280.9,595.2c0,0,0-0.1-0.1-0.1c3.1-1.5,7.2-2.3,12.4-2.4
			c7.5,0,12.6,0.8,15.3,2.4c-1.8,1.7-6.6,2.5-14.6,2.6C287,597.4,282.7,596.5,280.9,595.2z M313.4,595.3L313.4,595.3
			c3-1.6,7.1-2.4,12.4-2.5c7.5,0,12.6,0.8,15.3,2.5c-1.8,1.6-6.6,2.5-14.6,2.5C319.5,597.4,315.2,596.6,313.4,595.3z M373.3,595.2
			c-1.7,1.6-6.5,2.5-14.5,2.5c-6.8-0.2-11.2-1-13-2.4v-0.1c3-1.5,7.2-2.3,12.4-2.5C365.6,592.7,370.7,593.5,373.3,595.2z
			 M378.5,595.3L378.5,595.3c3-1.6,7.1-2.4,12.3-2.5c7.5,0,12.6,0.8,15.3,2.5c-1.8,1.6-6.6,2.5-14.6,2.5
			C384.6,597.4,380.3,596.6,378.5,595.3z"/>
		<polygon fill="#243942" points="232.7,587.4 233.5,602.4 233.4,607.3 		"/>
		<polygon fill="#2E4752" points="233.5,602.4 423,602.5 423,607.3 233.4,607.3 		"/>
	</g>
	<g>
		
			<linearGradient id="SVGID_25_" gradientUnits="userSpaceOnUse" x1="579.1846" y1="-113.1538" x2="579.2095" y2="-187.5783" gradientTransform="matrix(1 0 0 -1 -251.0098 418.0547)">
			<stop  offset="0" style="stop-color:#243942"/>
			<stop  offset="5.490196e-002" style="stop-color:#243942"/>
			<stop  offset="0.1176" style="stop-color:#3E636E"/>
			<stop  offset="1" style="stop-color:#43899A"/>
		</linearGradient>
		<path fill="url(#SVGID_25_)" d="M405,602.4v4.8h17.8l0,0l-187.4,0.4c-0.6,0-1.2,0-1.8,0v-5.3h4.3V602v-72.8h1.9v0.5h0.7l1.8,0.3
			v72.4H405z"/>
		<path fill="#274247" d="M237.9,529.3V602l-1.9-15.5v-57.3L237.9,529.3L237.9,529.3z M414.4,529.3V602l-4.2-15.5v-57.3L414.4,529.3
			L414.4,529.3z"/>
		
			<linearGradient id="SVGID_26_" gradientUnits="userSpaceOnUse" x1="664.8848" y1="-113.1143" x2="664.9097" y2="-187.5397" gradientTransform="matrix(1 0 0 -1 -251.0098 418.0547)">
			<stop  offset="0" style="stop-color:#243942"/>
			<stop  offset="5.490196e-002" style="stop-color:#243942"/>
			<stop  offset="0.1176" style="stop-color:#3E636E"/>
			<stop  offset="1" style="stop-color:#43899A"/>
		</linearGradient>
		<polygon fill="url(#SVGID_26_)" points="414.4,602 414.4,529.3 418.7,529.3 418.7,602.4 422.8,602.4 422.8,607.2 405,607.3 
			405,602.4 414.4,602.4 		"/>
	</g>
	<g>
		<polygon fill="#243942" points="233.7,520.3 233.3,520.3 233.3,512.3 		"/>
		<path fill="#588A9E" d="M405,520L405,520L405,520c0.5-0.9,0.5-1.6,0.1-2.3c-0.6-0.7-2-1.3-4-2c-2.7-0.7-6-1.1-9.9-1.1
			c-4.2,0-7.6,0.4-10.4,1.1c-2.9,1-4.3,1.8-4.4,2.6c0.1,0.6,0.4,1.2,0.8,1.6c0.1,0,0.2,0.1,0.3,0.1l0,0h0.1c0.1,0.1,0.1,0.2,0.3,0.3
			h-5.2c0.1-0.1,0.1-0.1,0.3-0.3h0.1l0,0c0.4-0.8,0.4-1.5,0-2.3c-0.6-0.7-2-1.3-4-2c-2.7-0.7-6-1.1-9.8-1.1c-4.2,0-7.6,0.4-10.3,1.1
			c-2.9,1-4.4,1.8-4.5,2.6c0.1,0.6,0.4,1.2,0.9,1.6c0.1,0,0.2,0.1,0.3,0.1l0,0l0,0c0.1,0.1,0.2,0.2,0.3,0.3h-5.3
			c0-0.1,0.1-0.1,0.2-0.3h0.1l0,0l0,0c0.4-0.8,0.4-1.5,0-2.3c-0.6-0.7-2-1.3-4.1-2c-2.7-0.7-5.9-1.1-9.8-1.1
			c-4.2,0-7.6,0.4-10.4,1.1c-2.9,1-4.3,1.8-4.4,2.6c0,0.6,0.3,1.2,0.9,1.6l0.1,0.1h0.1c0.1,0.1,0.2,0.2,0.3,0.3h-5.4
			c0.1-0.1,0.2-0.2,0.3-0.3l0,0l0,0h0.1c0.4-0.8,0.3-1.5-0.1-2.3c-0.6-0.7-1.9-1.4-4-2c-2.7-0.7-5.9-1.1-9.8-1.1
			c-4.2,0-7.7,0.4-10.4,1.1c-2.9,0.9-4.4,1.8-4.4,2.6c0.1,0.6,0.4,1.2,0.9,1.7l0.1,0.1h0.1c0.1,0.1,0.2,0.2,0.4,0.3h-5.6
			c0.1-0.1,0.2-0.2,0.3-0.3c0,0,0,0,0.1,0V520c0.4-0.8,0.4-1.5,0-2.3c-0.6-0.7-2-1.4-4-2c-2.7-0.7-6-1.1-9.9-1.1
			c-4.1,0-7.6,0.4-10.3,1.1c-2.9,0.9-4.4,1.8-4.5,2.6c0.1,0.6,0.4,1.2,1,1.7c0,0,0,0,0.1,0h0.1l0,0c0.1,0.1,0.2,0.2,0.3,0.3h-15.3
			l-0.4-8v-0.8h44.5l0,0l64.5,0.1v-0.1l32,0.1v-0.1l39.4,0.1l4.6,8.8H405C404.8,520.2,404.9,520.2,405,520z"/>
		<path fill="#314D57" d="M248.8,520L248.8,520L248.8,520h-0.2c-0.6-0.5-0.9-1-1-1.7c0.1-0.8,1.6-1.7,4.5-2.6
			c2.7-0.7,6.2-1.1,10.3-1.1c3.9,0,7.2,0.4,9.9,1.1c2.1,0.7,3.4,1.3,4,2c0.4,0.7,0.4,1.5,0,2.3v0.1c-0.1,0-0.1,0-0.1,0h-0.1
			c-2.7-1.6-7.6-2.4-15-2.4c-5.1,0.2-9.2,1-12.1,2.4C248.8,520,248.7,520,248.8,520C248.7,520,248.8,520,248.8,520z M281.1,520
			L281.1,520l-0.2-0.1c-0.6-0.5-0.9-1-0.9-1.7c0.1-0.8,1.6-1.7,4.4-2.6c2.7-0.7,6.1-1.1,10.4-1.1c3.9,0,7.1,0.4,9.8,1.1
			c2.1,0.7,3.4,1.3,4,2c0.4,0.7,0.5,1.5,0.1,2.3h-0.1l0,0l0,0h-0.1c-2.7-1.6-7.7-2.4-15-2.4c-5.1,0.2-9.1,1-12.1,2.4
			C281.2,520,281.2,520,281.1,520L281.1,520z M313.4,520h-0.1c-0.1,0-0.1-0.1-0.1-0.1c-0.5-0.4-0.8-1-0.9-1.6
			c0.1-0.8,1.5-1.7,4.4-2.6c2.7-0.7,6.1-1.1,10.4-1.1c3.9,0,7.1,0.4,9.8,1.1c2.1,0.7,3.4,1.3,4.1,2c0.4,0.7,0.4,1.5,0,2.3l0,0l0,0
			h-0.1c0,0-0.1-0.1-0.2-0.1c-2.7-1.5-7.6-2.3-14.9-2.3c-5.1,0.1-9.1,0.9-12,2.3C313.5,520,313.4,520,313.4,520z M405,520
			c0,0-0.1-0.1-0.2-0.1c-2.7-1.5-7.7-2.3-14.9-2.3c-5.1,0.1-9.1,0.9-12.1,2.3c-0.1,0-0.2,0.1-0.3,0.1l0,0c-0.1,0-0.2-0.1-0.3-0.1
			c-0.5-0.4-0.8-1-0.8-1.6c0.1-0.8,1.6-1.7,4.4-2.6c2.7-0.7,6.2-1.1,10.4-1.1c3.9,0,7.2,0.4,9.9,1.1c2,0.7,3.4,1.3,4,2
			C405.5,518.4,405.5,519.2,405,520L405,520L405,520z M373,520c0,0-0.1-0.1-0.2-0.1c-2.7-1.5-7.6-2.3-14.9-2.3
			c-5.1,0.1-9.1,0.9-12,2.3c-0.1,0-0.2,0.1-0.3,0.1l0,0c-0.1,0-0.2-0.1-0.3-0.1c-0.5-0.4-0.8-1-0.9-1.6c0.1-0.8,1.6-1.7,4.5-2.6
			c2.7-0.7,6.1-1.1,10.3-1.1c3.9,0,7.2,0.4,9.8,1.1c2.1,0.7,3.4,1.3,4,2C373.5,518.4,373.5,519.2,373,520L373,520L373,520z"/>
	</g>
	<g>
		<polygon fill="#243942" points="233.9,532.3 233.3,520.3 233.7,520.3 234,527.3 		"/>
		<polygon fill="#365461" points="421.8,527.5 421.8,532.2 233.9,532.3 234,527.3 373.3,527.4 373.3,527.5 		"/>
		<path fill="#588A9E" d="M233.7,520.3H249c2,1.3,6.2,2,12.6,2.3c7.5-0.1,12.2-0.9,14.1-2.3h5.6c2,1.3,6.2,2,12.6,2.3
			c7.5-0.1,12.2-0.9,14.1-2.3h5.5c2,1.3,6.2,2,12.6,2.3c7.6-0.1,12.3-0.8,14.2-2.3h5.3c2,1.3,6.2,2,12.7,2.3
			c7.5-0.1,12.2-0.8,14.1-2.3h5.4c2,1.3,6.2,2,12.6,2.3c7.6-0.1,12.4-0.8,14.3-2.3h13.4l3.6,7.2h-48.5l0,0L234,527.3L233.7,520.3z"
			/>
	</g>
</g>
<g opacity="0.5">
	<path fill="#FFFFFF" fill-opacity="0.851" d="M347.2,465.2H370l0.1,115.1l0,0v9l0.1,0.1h-0.1c-0.4,1.5-1,2.9-1.9,4.1
		c-1.9,2.6-4.4,4.1-7.7,4.6c-2.8,0.3-5.4-0.2-8-1.5c-3-1.5-4.8-4-5.3-7.3V465.2z"/>
</g>
<g>
	
		<linearGradient id="SVGID_27_" gradientUnits="userSpaceOnUse" x1="596.96" y1="-33.4951" x2="621.96" y2="-33.4951" gradientTransform="matrix(1 0 0 -1 -251.0098 418.0547)">
		<stop  offset="0" style="stop-color:#FFFFFF;stop-opacity:0.6314"/>
		<stop  offset="0.1647" style="stop-color:#FFFFFF;stop-opacity:0.2314"/>
		<stop  offset="0.4784" style="stop-color:#FFFFFF;stop-opacity:0"/>
		<stop  offset="0.7529" style="stop-color:#FFFFFF;stop-opacity:9.411765e-002"/>
		<stop  offset="1" style="stop-color:#FFFFFF;stop-opacity:0.6392"/>
	</linearGradient>
	<path fill="url(#SVGID_27_)" d="M346,451.5c0-0.1,0.2-0.3,0.5-0.3c0.6-0.2,1.6-0.4,3.1-0.5c2.4-0.2,5.4-0.4,8.9-0.4
		s6.4,0.1,8.8,0.4c1.5,0.1,2.6,0.3,3.2,0.5c0.3,0.1,0.5,0.2,0.5,0.3s-0.2,0.3-0.5,0.4c-0.6,0.2-1.6,0.4-3.2,0.5
		c-0.7,0.1-1.5,0.1-2.3,0.2c-1.9,0.1-4.1,0.2-6.6,0.2s-4.7,0-6.5-0.2c-0.8-0.1-1.6-0.1-2.3-0.2c-1.5-0.1-2.6-0.3-3.1-0.5
		C346.1,451.8,346,451.7,346,451.5z"/>
	
		<radialGradient id="SVGID_28_" cx="607.8096" cy="-35.5449" r="14.3" gradientTransform="matrix(1 0 0 -1 -251.0098 418.0547)" gradientUnits="userSpaceOnUse">
		<stop  offset="0" style="stop-color:#FFFFFF;stop-opacity:0.6314"/>
		<stop  offset="0.1647" style="stop-color:#FFFFFF;stop-opacity:0.2314"/>
		<stop  offset="0.4784" style="stop-color:#FFFFFF;stop-opacity:0"/>
		<stop  offset="0.7529" style="stop-color:#FFFFFF;stop-opacity:9.411765e-002"/>
		<stop  offset="1" style="stop-color:#FFFFFF;stop-opacity:0.6392"/>
	</radialGradient>
	<path fill="url(#SVGID_28_)" d="M371,451.5v2c0,0.1-0.2,0.3-0.5,0.4c-0.6,0.2-1.6,0.4-3.2,0.5c-2.4,0.2-5.4,0.3-8.8,0.3
		s-6.4-0.1-8.9-0.3c-1.5-0.1-2.6-0.3-3.1-0.5c-0.3-0.1-0.5-0.2-0.5-0.4v-2c0,0.1,0.2,0.3,0.5,0.4c0.6,0.2,1.6,0.4,3.1,0.5
		c0.7,0.1,1.5,0.1,2.3,0.2c1.9,0.1,4.1,0.2,6.5,0.2c2.4,0,4.7,0,6.6-0.2c0.8-0.1,1.5-0.1,2.3-0.2c1.5-0.1,2.6-0.3,3.2-0.5
		C370.8,451.8,370.9,451.7,371,451.5z"/>
	
		<linearGradient id="SVGID_29_" gradientUnits="userSpaceOnUse" x1="596.8096" y1="-108.2451" x2="622.8096" y2="-108.2451" gradientTransform="matrix(1 0 0 -1 -251.0098 418.0547)">
		<stop  offset="0" style="stop-color:#FFFFFF;stop-opacity:0.6314"/>
		<stop  offset="0.1647" style="stop-color:#FFFFFF;stop-opacity:0.2314"/>
		<stop  offset="0.4784" style="stop-color:#FFFFFF;stop-opacity:0"/>
		<stop  offset="0.7529" style="stop-color:#FFFFFF;stop-opacity:9.411765e-002"/>
		<stop  offset="1" style="stop-color:#FFFFFF;stop-opacity:0.6392"/>
	</linearGradient>
	<path fill="url(#SVGID_29_)" d="M370.5,454v135.1v0.1c-0.2,2.5-1.3,4.7-3.5,6.5c-2.3,1.9-5.2,2.9-8.5,2.9s-6.2-1-8.5-2.9
		c-2.3-1.9-3.5-4.1-3.5-6.6V454c0.6,0.2,1.6,0.4,3.1,0.5c2.4,0.2,5.4,0.3,8.9,0.3s6.4-0.1,8.8-0.3
		C368.8,454.3,369.9,454.2,370.5,454z"/>
	<path fill="none" stroke="#FFFFFF" stroke-width="0.75" stroke-linecap="round" stroke-linejoin="round" stroke-miterlimit="3" d="
		M346,451.5v2c0,0.1,0.2,0.3,0.5,0.4 M370.5,454c0.3-0.1,0.5-0.2,0.5-0.4v-2 M346,451.5c0-0.1,0.2-0.3,0.5-0.3
		c0.6-0.2,1.6-0.4,3.1-0.5c2.4-0.2,5.4-0.4,8.9-0.4s6.4,0.1,8.8,0.4c1.5,0.1,2.6,0.3,3.2,0.5c0.3,0.1,0.5,0.2,0.5,0.3 M370.5,454
		v135.1v0.1c-0.2,2.5-1.3,4.7-3.5,6.5c-2.3,1.9-5.2,2.9-8.5,2.9s-6.2-1-8.5-2.9c-2.3-1.9-3.5-4.1-3.5-6.6V454"/>
	
		<path fill="none" stroke="#FFFFFF" stroke-width="0.75" stroke-linecap="round" stroke-linejoin="round" stroke-miterlimit="3" stroke-opacity="0.502" d="
		M346.5,454c0.6,0.2,1.6,0.4,3.1,0.5c2.4,0.2,5.4,0.3,8.9,0.3s6.4-0.1,8.8-0.3c1.5-0.1,2.6-0.3,3.2-0.5"/>
	
		<path fill="none" stroke="#FFFFFF" stroke-width="0.75" stroke-linecap="round" stroke-linejoin="round" stroke-miterlimit="3" stroke-opacity="0.6196" d="
		M371,451.5c0,0.1-0.2,0.3-0.5,0.4c-0.6,0.2-1.6,0.4-3.2,0.5c-0.7,0.1-1.5,0.1-2.3,0.2c-1.9,0.1-4.1,0.2-6.6,0.2s-4.7,0-6.5-0.2
		c-0.8-0.1-1.6-0.1-2.3-0.2c-1.5-0.1-2.6-0.3-3.1-0.5c-0.3-0.1-0.5-0.2-0.5-0.4"/>
</g>
<g>
	
		<radialGradient id="SVGID_30_" cx="411.3018" cy="-545.498" r="77.1501" gradientTransform="matrix(1 8.911201e-004 1.012110e-004 -0.1136 -250.9954 538.4785)" gradientUnits="userSpaceOnUse">
		<stop  offset="0" style="stop-color:#FFFFFF;stop-opacity:0"/>
		<stop  offset="0.3922" style="stop-color:#7C7C7C;stop-opacity:0"/>
		<stop  offset="0.5333" style="stop-color:#000000;stop-opacity:0.298"/>
		<stop  offset="0.6314" style="stop-color:#000000;stop-opacity:0"/>
		<stop  offset="1" style="stop-color:#000000;stop-opacity:0"/>
	</radialGradient>
	<path fill="url(#SVGID_30_)" d="M217.3,585.5c13.9,2.9,20.8,6.5,20.8,10.7s-6.9,7.8-20.8,10.7c-13.8,2.9-30.5,4.3-50.1,4.3
		c-19.6,0-36.3-1.5-50.2-4.5c-2.8-0.6-5.3-1.2-7.5-1.9c-8.8-2.6-13.3-5.5-13.3-8.9c0-3.4,4.4-6.3,13.3-8.9c2.2-0.6,4.7-1.2,7.5-1.8
		c13.9-2.9,30.6-4.3,50.2-4.3C186.8,580.9,203.5,582.5,217.3,585.5z"/>
</g>
<g>
	<path fill="#619EDA" d="M504.8,95H198.4l4.4-9.7h295.8L504.8,95z M492.8,93l-3-6.6l-278.4,0.3l-1.8,6.3h25.8l0.1,0.1h232.8V93
		H492.8z"/>
	<path fill="#0F273E" d="M492.8,93h-24.5v0.1H235.5l-0.1-0.1h-25.8l1.8-6.3l278.4-0.3L492.8,93z M474.6,87.9L474,88h0.9L474.6,87.9z
		 M308,88.1L308,88.1l0.2,0.1l0.1-0.2C308.2,88.1,308.1,88.1,308,88.1z M317.7,88.9h0.5c-0.2-0.1-0.4-0.1-0.5-0.2V88.9z M229.6,88
		l0.4,0.2l0.1-0.2H229.6z"/>
	<polygon fill="#25629E" points="474.6,87.9 474.8,88 474,88 	"/>
	<path fill="#1E4E7B" d="M317.7,88.9v-0.2c0.2,0.1,0.4,0.1,0.5,0.2H317.7z"/>
	<path fill="#1C4975" d="M308,88.1c0,0,0.1,0,0.3-0.1l-0.1,0.2L308,88.1L308,88.1z M229.6,88h0.5l-0.1,0.2L229.6,88z"/>
</g>
<g>
	<g>
		<path fill="#FFFFFF" d="M265.7,73.4c-0.5,0.3-1.8,0.6-3.9,1c-2.1,0.3-5.4,0.6-9.9,0.7s-8.1-0.1-10.9-0.5s-4.2-0.8-4.2-1.2
			c-0.1,0-0.1-0.1-0.2-0.1c-0.2-0.1-0.2-0.3,0.1-0.6c0.1-0.1,0.3-0.2,0.6-0.3c-0.5,0.2-0.6,0.4-0.4,0.5c0.4,0.3,1.8,0.5,4,0.6
			c2.8,0.3,6.2,0.4,10.1,0.4c4,0,7.4-0.1,10.3-0.4c2.4-0.2,3.7-0.4,4-0.6V73v-0.1v-0.1c0.3-0.4-0.6-0.8-2.9-1c-0.1,0-0.3,0-0.4-0.1
			c2.3,0.2,3.5,0.5,3.7,0.9v0.1c0,0.1,0,0.1,0,0.2V73c0,0.1,0,0.1-0.1,0.2C265.9,73.3,265.8,73.3,265.7,73.4z"/>
		<path fill="#E0B510" fill-opacity="0.3725" d="M237.5,72.4c2.6-0.8,8.3-1.1,17.3-1l2.7,0.1c1.4,0.1,2.8,0.2,4.1,0.3
			c0.2,0,0.5,0,0.7,0c0.1,0,0.2,0.1,0.4,0.1c2.2,0.3,3.1,0.6,2.9,1V73v0.1V73c-0.2,0.3-1.5,0.5-4,0.6c-2.9,0.3-6.3,0.4-10.3,0.4
			c-3.9,0-7.3-0.1-10.1-0.4c-2.3-0.2-3.6-0.4-4-0.6C236.9,72.7,237.1,72.5,237.5,72.4z"/>
		<path fill="#F7D42D" fill-opacity="0.2706" d="M265.7,73.4v17.1H237V73.4c0,0.4,1.4,0.8,4.2,1.2c2.7,0.4,6.4,0.6,10.9,0.5
			s7.8-0.4,9.9-0.7C263.9,74,265.2,73.7,265.7,73.4z"/>
	</g>
	<g>
		<path fill="#FFFFFF" fill-opacity="8.627451e-002" d="M259.5,60.8v1.5c0,0.8,0.3,1.5,0.8,2c3.7,2.4,5.6,5.3,5.7,8.7l0,0v17.5
			h-29.3V73c0.4-3.4,2.2-6.3,5.3-8.7h0.1c0.8-0.6,1.2-1.3,1.4-2v-1.4L259.5,60.8z"/>
		<path fill="none" stroke="#FFFFFF" stroke-linecap="round" stroke-linejoin="round" stroke-miterlimit="3" d="M266,73L266,73
			L266,73v17.5 M236.7,90.5V73c0.4-3.4,2.2-6.3,5.3-8.7h0.1c0.8-0.6,1.2-1.3,1.4-2v-1.4 M259.5,60.8v1.5c0,0.8,0.3,1.5,0.8,2
			c3.7,2.4,5.6,5.3,5.7,8.7l0,0"/>
	</g>
	<g>
		
			<linearGradient id="SVGID_31_" gradientUnits="userSpaceOnUse" x1="502.3105" y1="367.2295" x2="502.3105" y2="372.0795" gradientTransform="matrix(1 0 0 -1 -251.0098 418.0547)">
			<stop  offset="0" style="stop-color:#425FBD"/>
			<stop  offset="0.2902" style="stop-color:#617DE0"/>
			<stop  offset="0.5804" style="stop-color:#758FEC"/>
			<stop  offset="0.7098" style="stop-color:#AFC2FF"/>
			<stop  offset="1" style="stop-color:#6280D8"/>
		</linearGradient>
		<path fill="url(#SVGID_31_)" d="M260.7,49.1c0,0.3-0.9,0.6-2.8,0.8c-1.8,0.2-4,0.3-6.6,0.3c-2.6,0-4.8-0.1-6.6-0.3
			c-1.8-0.2-2.7-0.4-2.8-0.8c0-0.3,0.9-0.5,2.8-0.8c1.8-0.2,4-0.3,6.6-0.3c2.6,0,4.8,0.1,6.6,0.3C259.8,48.6,260.7,48.8,260.7,49.1z
			"/>
		
			<linearGradient id="SVGID_32_" gradientUnits="userSpaceOnUse" x1="493.0098" y1="362.8555" x2="511.71" y2="362.8555" gradientTransform="matrix(1 0 0 -1 -251.0098 418.0547)">
			<stop  offset="0" style="stop-color:#253D8A"/>
			<stop  offset="0.2902" style="stop-color:#617DE0"/>
			<stop  offset="0.4471" style="stop-color:#AFC2FF"/>
			<stop  offset="0.6627" style="stop-color:#758FEC"/>
			<stop  offset="1" style="stop-color:#1D3993"/>
		</linearGradient>
		<path fill="url(#SVGID_32_)" d="M242,49.1c0,0.3,0.9,0.6,2.8,0.8c1.8,0.2,4,0.3,6.6,0.3s4.8-0.1,6.6-0.3c1.8-0.2,2.7-0.4,2.8-0.8
			v11.2c0,0.2-0.4,0.4-1.2,0.5c-0.4,0.1-0.9,0.2-1.5,0.2c-1.8,0.2-4,0.3-6.6,0.3s-4.8-0.1-6.6-0.3c-0.5-0.1-0.9-0.1-1.3-0.2
			c-1-0.2-1.5-0.4-1.5-0.6V49.1H242z"/>
	</g>
	<g>
		<path fill-opacity="0.298" d="M249.4,48c1.8-0.2,4-0.3,6.6-0.3s4.8,0.1,6.6,0.3c1.8,0.2,2.8,0.5,2.8,0.8V60c0,0.2-0.4,0.4-1.2,0.6
			V62c0,0.8,0.3,1.5,0.8,2c3.5,2.3,5.4,5.1,5.7,8.4v0.1c0,0.1,0,0.1,0,0.1v17.6H266V73c0,0,0-0.1,0-0.2v-0.1
			c-0.3-3.3-2.2-6.1-5.7-8.4c-0.5-0.5-0.8-1.2-0.8-2v-1.4c0.8-0.2,1.2-0.4,1.2-0.6V49.1c0-0.3-0.9-0.5-2.8-0.8
			c-1.8-0.2-4-0.3-6.6-0.3c-1.1,0-2.1,0-3.1,0.1C248.6,48.1,249,48,249.4,48z"/>
	</g>
</g>
<g>
	<g>
		<path fill="#F7D42D" fill-opacity="0.2706" d="M465.7,73.4v17.1H437V73.4c0,0.4,1.4,0.8,4.2,1.2c2.7,0.4,6.3,0.6,10.8,0.5
			s7.8-0.4,9.8-0.7C463.9,74,465.2,73.7,465.7,73.4z"/>
		<path fill="#FFFFFF" d="M462.3,71.8c2.3,0.2,3.5,0.5,3.7,0.9v0.1c0,0.1,0,0.1,0,0.2v0.1c0,0.1,0,0.1,0,0.2c0,0.1-0.1,0.1-0.2,0.2
			c-0.5,0.3-1.8,0.6-3.9,1c-2.1,0.3-5.4,0.6-9.8,0.7c-4.5,0.1-8.1-0.1-10.8-0.5c-2.8-0.4-4.2-0.8-4.2-1.2c-0.1,0-0.1-0.1-0.2-0.1
			c-0.2-0.1-0.2-0.3,0.1-0.6c0.1-0.1,0.3-0.2,0.6-0.3c-0.5,0.2-0.6,0.4-0.5,0.5c0.4,0.3,1.8,0.5,4.1,0.6c2.8,0.3,6.2,0.4,10.1,0.4
			c4,0,7.4-0.1,10.3-0.4c2.4-0.2,3.7-0.4,4-0.6v0.1V73v-0.1c0.3-0.4-0.7-0.8-2.8-1C462.5,71.9,462.4,71.8,462.3,71.8z"/>
		<path fill="#E0B510" fill-opacity="0.3686" d="M437.5,72.4c2.6-0.8,8.3-1.1,17.3-1l2.7,0.1c1.4,0.1,2.8,0.2,4.1,0.3
			c0.2,0,0.5,0,0.7,0c0.1,0,0.2,0.1,0.4,0.1c2.2,0.3,3.1,0.6,2.8,1V73v0.1V73c-0.2,0.3-1.5,0.5-4,0.6c-2.9,0.3-6.3,0.4-10.3,0.4
			c-3.9,0-7.3-0.1-10.1-0.4c-2.3-0.2-3.7-0.4-4.1-0.6C436.9,72.7,437.1,72.5,437.5,72.4z"/>
	</g>
	<g>
		<path fill="#FFFFFF" fill-opacity="8.627451e-002" d="M466,90.5h-29.3V73c0.4-3.4,2.2-6.3,5.3-8.7l0,0c0.8-0.6,1.2-1.3,1.4-2v-1.4
			h16v1.4c0,0.8,0.3,1.5,0.8,2c3.7,2.4,5.6,5.3,5.7,8.7L466,90.5L466,90.5z"/>
		<path fill="none" stroke="#FFFFFF" stroke-linecap="round" stroke-linejoin="round" stroke-miterlimit="3" d="M436.7,90.5V73
			c0.4-3.4,2.2-6.3,5.3-8.7l0,0c0.8-0.6,1.2-1.3,1.4-2v-1.4 M459.5,60.9v1.4c0,0.8,0.3,1.5,0.8,2c3.7,2.4,5.6,5.3,5.7,8.7v17.5"/>
	</g>
	<g>
		
			<linearGradient id="SVGID_33_" gradientUnits="userSpaceOnUse" x1="702.3105" y1="367.2295" x2="702.3105" y2="372.0795" gradientTransform="matrix(1 0 0 -1 -251.0098 418.0547)">
			<stop  offset="0" style="stop-color:#425FBD"/>
			<stop  offset="0.2902" style="stop-color:#617DE0"/>
			<stop  offset="0.5804" style="stop-color:#758FEC"/>
			<stop  offset="0.7098" style="stop-color:#AFC2FF"/>
			<stop  offset="1" style="stop-color:#6280D8"/>
		</linearGradient>
		<path fill="url(#SVGID_33_)" d="M460.7,49.1c0,0.3-0.9,0.6-2.8,0.8c-1.8,0.2-4,0.3-6.6,0.3c-2.6,0-4.8-0.1-6.6-0.3
			c-1.8-0.2-2.7-0.4-2.8-0.8c0-0.3,0.9-0.5,2.8-0.8c1.8-0.2,4-0.3,6.6-0.3c2.6,0,4.8,0.1,6.6,0.3C459.8,48.6,460.7,48.8,460.7,49.1z
			"/>
		
			<linearGradient id="SVGID_34_" gradientUnits="userSpaceOnUse" x1="693.0098" y1="362.8047" x2="711.71" y2="362.8047" gradientTransform="matrix(1 0 0 -1 -251.0098 418.0547)">
			<stop  offset="0" style="stop-color:#253D8A"/>
			<stop  offset="0.2902" style="stop-color:#617DE0"/>
			<stop  offset="0.4471" style="stop-color:#AFC2FF"/>
			<stop  offset="0.6627" style="stop-color:#758FEC"/>
			<stop  offset="1" style="stop-color:#1D3993"/>
		</linearGradient>
		<path fill="url(#SVGID_34_)" d="M442,49.1c0,0.3,0.9,0.6,2.8,0.8c1.8,0.2,4,0.3,6.6,0.3c2.6,0,4.8-0.1,6.6-0.3
			c1.8-0.2,2.7-0.4,2.8-0.8v11.2c0,0.2-0.4,0.4-1.2,0.6c-0.4,0.1-0.9,0.1-1.5,0.2c-1.8,0.2-4,0.3-6.6,0.3s-4.8-0.1-6.6-0.3
			c-0.5-0.1-0.9-0.1-1.3-0.1c-1-0.2-1.5-0.4-1.5-0.6L442,49.1L442,49.1z"/>
	</g>
	<g>
		<path fill-opacity="0.298" d="M448.3,48.1c0.3,0,0.7-0.1,1-0.1c1.8-0.2,4-0.3,6.6-0.3c2.6,0,4.8,0.1,6.6,0.3s2.8,0.5,2.8,0.8V60
			c0,0.2-0.4,0.4-1.2,0.6V62c0,0.8,0.3,1.5,0.8,2c3.5,2.3,5.4,5.1,5.7,8.4v0.1c0,0.1,0,0.1,0,0.1v17.6H466V73c0,0,0-0.1,0-0.2v-0.1
			c-0.3-3.3-2.2-6.1-5.7-8.4c-0.5-0.5-0.8-1.2-0.8-2v-1.4c0.8-0.2,1.2-0.4,1.2-0.6V49.1c0-0.3-0.9-0.5-2.8-0.8
			c-1.8-0.2-4-0.3-6.6-0.3C450.3,48,449.2,48.1,448.3,48.1z"/>
	</g>
</g>
<g>
	<g>
		<path fill="#FFFFFF" d="M583.9,95c2.9,0.3,4.5,0.6,4.8,1.1v0.1c0,0.1,0,0.1,0,0.2l-0.1,0.1c0,0.1,0,0.2,0,0.2
			c0,0.1-0.1,0.2-0.3,0.3c-0.6,0.4-2.3,0.8-5,1.3c-2.7,0.4-6.9,0.7-12.6,0.9c-5.8,0.1-10.4-0.1-14-0.6c-3.5-0.6-5.3-1.1-5.3-1.6
			c-0.1,0-0.2-0.1-0.2-0.1c-0.3-0.2-0.2-0.4,0.1-0.8c0.1-0.1,0.4-0.3,0.9-0.4c-0.6,0.2-0.8,0.5-0.6,0.7c0.5,0.3,2.2,0.6,5.2,0.9
			c3.6,0.3,7.9,0.5,13,0.5c5.1,0,9.5-0.2,13.3-0.5c3.1-0.2,4.8-0.5,5-0.9v0.2v-0.1v-0.1c0.4-0.5-0.8-0.9-3.7-1.4
			C584.2,95,584,95,583.9,95z"/>
		<path fill="#E0B510" fill-opacity="0.3647" d="M552.2,95.7c3.3-1,10.7-1.5,22.1-1.3l3.5,0.1c1.8,0.1,3.5,0.3,5.3,0.4
			c0.3,0,0.6,0,0.9,0c0.1,0,0.3,0,0.4,0c2.8,0.4,4,0.9,3.7,1.4v0.1v0.1v-0.2c-0.3,0.3-2,0.6-5,0.9c-3.7,0.3-8.1,0.5-13.3,0.5
			c-5,0-9.4-0.2-13-0.5c-2.9-0.2-4.7-0.5-5.2-0.9C551.4,96.2,551.5,95.9,552.2,95.7z"/>
		<path fill="#F7D42D" fill-opacity="0.2706" d="M588.3,97v22h-36.8V97c0,0.5,1.8,1,5.3,1.6c3.5,0.5,8.2,0.8,14,0.6
			c5.7-0.2,9.9-0.5,12.6-0.9C586,97.9,587.6,97.5,588.3,97z"/>
	</g>
	<g>
		<path fill="#FFFFFF" fill-opacity="8.627451e-002" d="M559.8,81l20.5-0.1v1.8c0,1,0.3,1.9,1,2.6c4.7,3,7.2,6.8,7.4,11.1V119H551
			V96.5c0.6-4.4,2.9-8.1,6.9-11.1l0,0c1-0.8,1.6-1.6,1.8-2.6L559.8,81L559.8,81z"/>
		<path fill="none" stroke="#FFFFFF" stroke-linecap="round" stroke-linejoin="round" stroke-miterlimit="3" d="M580.3,81v1.8
			c0,1,0.3,1.9,1,2.6c4.7,3,7.2,6.8,7.4,11.1V119H551V96.5c0.6-4.4,2.9-8.1,6.9-11.1l0,0c1-0.8,1.6-1.6,1.8-2.6V81"/>
	</g>
	<g>
		
			<linearGradient id="SVGID_35_" gradientUnits="userSpaceOnUse" x1="808.8594" y1="344.2544" x2="832.8344" y2="344.2544" gradientTransform="matrix(1 0 0 -1 -251.0098 418.0547)">
			<stop  offset="0" style="stop-color:#253D8A"/>
			<stop  offset="0.2902" style="stop-color:#617DE0"/>
			<stop  offset="0.4471" style="stop-color:#AFC2FF"/>
			<stop  offset="0.6627" style="stop-color:#758FEC"/>
			<stop  offset="1" style="stop-color:#1D3993"/>
		</linearGradient>
		<path fill="url(#SVGID_35_)" d="M557.8,65.9c0,0.4,1.2,0.7,3.6,1c2.3,0.3,5.1,0.4,8.4,0.4s6.1-0.1,8.5-0.4c2.4-0.2,3.5-0.5,3.5-1
			v14.4c0,0.3-0.5,0.5-1.5,0.7c-0.5,0.1-1.2,0.2-2,0.3c-2.3,0.3-5.1,0.4-8.5,0.4c-3.3,0-6.1-0.1-8.4-0.4c-0.6-0.1-1.1-0.1-1.6-0.2
			c-1.3-0.2-2-0.5-2-0.8V65.9z"/>
		
			<linearGradient id="SVGID_36_" gradientUnits="userSpaceOnUse" x1="820.8096" y1="349.9429" x2="820.8096" y2="356.1679" gradientTransform="matrix(1 0 0 -1 -251.0098 418.0547)">
			<stop  offset="0" style="stop-color:#425FBD"/>
			<stop  offset="0.2902" style="stop-color:#617DE0"/>
			<stop  offset="0.5804" style="stop-color:#758FEC"/>
			<stop  offset="0.7098" style="stop-color:#AFC2FF"/>
			<stop  offset="1" style="stop-color:#6280D8"/>
		</linearGradient>
		<path fill="url(#SVGID_36_)" d="M581.8,65.9c0,0.4-1.2,0.7-3.5,1c-2.3,0.3-5.1,0.4-8.5,0.4c-3.3,0-6.1-0.1-8.4-0.4
			c-2.4-0.2-3.5-0.5-3.6-1c0-0.3,1.2-0.6,3.6-0.9c2.3-0.3,5.1-0.4,8.4-0.4s6.1,0.1,8.5,0.4C580.7,65.3,581.8,65.6,581.8,65.9z"/>
	</g>
	<g>
		<path fill-opacity="0.298" d="M581.8,65.9c0-0.3-1.2-0.6-3.5-0.9s-5.1-0.4-8.5-0.4c-1.4,0-2.7,0-3.9,0.1c0.4,0,0.8-0.1,1.3-0.2
			c2.3-0.2,5.2-0.4,8.5-0.4s6.1,0.1,8.5,0.4c2.4,0.3,3.5,0.6,3.5,1v14.4c0,0.3-0.5,0.5-1.5,0.7v1.8c0,1,0.3,1.9,1,2.6
			c4.5,3,7,6.6,7.3,10.8v0.1c0,0.1,0,0.2,0,0.2v22.5h-5.9v-22c0-0.1,0-0.1,0-0.2s0-0.1,0-0.1c-0.4-4.2-2.8-7.8-7.4-10.8
			c-0.7-0.7-1-1.6-1-2.6V81c1-0.2,1.5-0.4,1.5-0.7L581.8,65.9L581.8,65.9z"/>
	</g>
</g>
<g>
	
		<linearGradient id="SVGID_37_" gradientUnits="userSpaceOnUse" x1="449.5088" y1="-86.7446" x2="366.9092" y2="-86.7446" gradientTransform="matrix(1 0 0 -1 -251.0098 418.0547)">
		<stop  offset="0" style="stop-color:#9EA2A5;stop-opacity:8.627451e-002"/>
		<stop  offset="3.921569e-002" style="stop-color:#7E8184;stop-opacity:0.4824"/>
		<stop  offset="9.411765e-002" style="stop-color:#A7AAAF;stop-opacity:8.627451e-002"/>
		<stop  offset="0.2353" style="stop-color:#FFFFFF;stop-opacity:0.5294"/>
		<stop  offset="0.3647" style="stop-color:#C6CED2;stop-opacity:8.627451e-002"/>
		<stop  offset="0.4863" style="stop-color:#E2E7E9;stop-opacity:8.627451e-002"/>
		<stop  offset="0.6" style="stop-color:#AAB3B1;stop-opacity:8.627451e-002"/>
		<stop  offset="0.7216" style="stop-color:#BCC1C2;stop-opacity:8.627451e-002"/>
		<stop  offset="0.8196" style="stop-color:#EDEFEF;stop-opacity:0.2235"/>
		<stop  offset="0.9882" style="stop-color:#8E9193;stop-opacity:0.4235"/>
	</linearGradient>
	<path fill="url(#SVGID_37_)" d="M198.5,504.8L198.5,504.8c0,1.2-4.1,2.1-12.1,2.9c-8.1,0.8-17.8,1.3-29.2,1.3
		c-11.4,0-21.1-0.4-29.2-1.3c-3.5-0.3-6.2-0.7-8.1-1.1c-1.7-0.4-2.9-0.8-3.5-1.1c-0.1-0.1-0.2-0.1-0.3-0.2c-0.1-0.2-0.2-0.3-0.2-0.5
		c0-1.1,4-2.1,12.1-3c8.1-0.8,17.8-1.2,29.2-1.2c11.4,0,21.1,0.4,29.2,1.2C194.5,502.7,198.5,503.7,198.5,504.8z"/>
	<path fill="none" stroke="#FFFFFF" stroke-width="0.75" stroke-linecap="round" stroke-linejoin="round" stroke-miterlimit="3" d="
		M116,504.8c0-1.1,4-2.1,12.1-3c8.1-0.8,17.8-1.2,29.2-1.2c11.4,0,21.1,0.4,29.2,1.2c8,0.8,12.1,1.8,12.1,3"/>
</g>
<g>
	<g>
		<path fill-opacity="0.298" d="M35.5,176.4h26.6l7.3,0.8l0,0v7.3l-4.4,1.9l-2.1,0.1v-7.2l0,0l-4.9-0.5l-3.5-0.5h-2.7
			c-6.3,0.4-11.7,0.6-16.4,0.6c-0.5,0-1,0-1.4,0C34.6,177.9,35.1,177.1,35.5,176.4z M58.6,188.4l3.2-1.4v9.5c0.6,0.2,1,0.6,1.1,1v2
			v0.3c0,0.3-0.4,0.6-1,0.9v0.9c-0.2,0.1-0.3,0.2-0.5,0.4v3.4l11,13.8c0.7,0.9,1,2.4,0.9,4.4v26.3h-6.4v-24.3c0.1-2-0.2-3.4-0.9-4.4
			l-11-13.8V204c0.2-0.1,0.4-0.3,0.5-0.4v-0.9c0.6-0.2,1-0.5,1-0.9l-0.1-0.3v-2c-0.1-0.4-0.4-0.7-1-1v-9.9L58.6,188.4z"/>
	</g>
	<g>
		<path fill="#FFFFFF" fill-opacity="0.498" d="M64.5,225.6c1,0.2,1.4,0.5,1.4,0.8c0,0.6-2,1.1-5.9,1.5s-8.5,0.6-14,0.6
			c-5.4,0-10.1-0.2-13.9-0.6c-3.9-0.4-5.8-0.8-5.8-1.4s1.9-1.1,5.7-1.5s8.6-0.6,14.3-0.6c1,0,1.9,0,2.9,0l9.5,0.4
			c0.7,0.1,1.4,0.1,2,0.2C62.3,225.2,63.5,225.4,64.5,225.6z"/>
		<path fill="#FFFFFF" d="M66.7,226.6c0,0.6-2,1.2-5.9,1.8c-3.9,0.6-8.7,0.9-14.4,0.9c-5.7,0-10.6-0.2-14.8-0.9
			c-4.1-0.6-6.2-1.2-6.3-1.9c0-0.6,2-1.2,6.1-1.6c4-0.4,8.9-0.6,14.6-0.6c1.1,0,2.1,0,3.1,0c-0.9,0-1.9,0-2.9,0
			c-5.7,0-10.5,0.2-14.3,0.6c-3.8,0.4-5.7,0.9-5.7,1.5s2,1.1,5.8,1.4c3.9,0.4,8.5,0.6,13.9,0.6s10.1-0.2,14-0.6
			c3.9-0.4,5.8-0.9,5.9-1.5c0-0.3-0.4-0.6-1.4-0.8C66,225.9,66.7,226.3,66.7,226.6z"/>
		<path fill="#FFFFFF" fill-opacity="0.2431" d="M25.4,226.6c0,0.6,2.1,1.3,6.3,1.9c4.2,0.6,9.1,0.9,14.8,0.9s10.5-0.3,14.4-0.9
			s5.9-1.2,5.9-1.8l0,0v21.1H25.4V226.6z"/>
		<polygon fill="#FFFFFF" fill-opacity="0.6235" points="25.8,224.8 25.9,224.8 25.9,224.9 		"/>
		<path fill="none" stroke="#FFFFFF" stroke-linecap="round" stroke-linejoin="round" stroke-miterlimit="3" d="M49.1,224.4l9.5,0.4
			c0.7,0.1,1.4,0.1,2,0.2c1.6,0.2,2.9,0.4,3.9,0.6c1.5,0.3,2.2,0.6,2.2,1 M25.4,226.6c0-0.6,2-1.2,6.1-1.6c4-0.4,8.9-0.6,14.6-0.6
			c1.1,0,2.1,0,3.1,0"/>
	</g>
	<g>
		
			<linearGradient id="SVGID_38_" gradientUnits="userSpaceOnUse" x1="287.4097" y1="214.6475" x2="306.5098" y2="214.6475" gradientTransform="matrix(1 0 0 -1 -251.0098 418.0547)">
			<stop  offset="0" style="stop-color:#FFFFFF;stop-opacity:0.5922"/>
			<stop  offset="0.1294" style="stop-color:#FFFFFF;stop-opacity:8.627451e-002"/>
			<stop  offset="0.3373" style="stop-color:#FFFFFF;stop-opacity:0.298"/>
			<stop  offset="0.4706" style="stop-color:#FFFFFF;stop-opacity:0.7922"/>
			<stop  offset="0.7569" style="stop-color:#FFFFFF;stop-opacity:6.666667e-002"/>
			<stop  offset="0.9569" style="stop-color:#FFFFFF;stop-opacity:0.298"/>
			<stop  offset="1" style="stop-color:#FFFFFF"/>
		</linearGradient>
		<path fill="url(#SVGID_38_)" d="M55,203.9c-0.7,0.4-1.9,0.8-3.6,1c-3.3,0.4-6.6,0.4-9.9,0.1c-1.8-0.2-3.2-0.5-4.3-1
			c-0.3-0.1-0.5-0.3-0.8-0.4v-2c0,0.1,0.1,0.2,0.2,0.3c0.4,0.3,1.1,0.5,2.2,0.8c0.2,0,0.4,0.1,0.6,0.1c0,0,0.1,0,0.1,0.1
			c4.3,0.6,8.7,0.5,13.3-0.1c0.1,0,0.3-0.1,0.4-0.1c0.6-0.1,1.1-0.2,1.5-0.4c0.4-0.2,0.7-0.4,0.8-0.7v2.1
			C55.3,203.6,55.2,203.8,55,203.9z"/>
		<path fill="#FFFFFF" fill-opacity="8.627451e-002" d="M37.1,203.9c1.1,0.5,2.5,0.8,4.3,1c3.3,0.3,6.6,0.3,9.9-0.1
			c1.7-0.2,2.9-0.6,3.6-1v3.4L66,221c0.7,0.9,1,2.4,0.9,4.4v24.4H25.1v-25.5c0.3-2.1,0.9-3.5,1.6-4.3l6.4-7.8l3.9-5v-3.3H37.1z"/>
		<path fill="none" stroke="#FFFFFF" stroke-linecap="round" stroke-linejoin="round" stroke-miterlimit="3" d="M66.9,249.8v-24.4
			c0.1-2-0.2-3.4-0.9-4.4l-11-13.8v-3.4 M37.1,203.9v3.3l-3.9,5l-6.4,7.8c-0.8,0.8-1.3,2.2-1.6,4.3v25.5"/>
	</g>
	<g>
		
			<linearGradient id="SVGID_39_" gradientUnits="userSpaceOnUse" x1="286.0347" y1="216.4795" x2="307.4844" y2="216.4795" gradientTransform="matrix(1 0 0 -1 -251.0098 418.0547)">
			<stop  offset="0" style="stop-color:#9F672E"/>
			<stop  offset="0.2392" style="stop-color:#A55D24"/>
			<stop  offset="0.4118" style="stop-color:#DE7B3A"/>
			<stop  offset="0.6196" style="stop-color:#AF4B13"/>
			<stop  offset="1" style="stop-color:#BA3801"/>
		</linearGradient>
		<path fill="url(#SVGID_39_)" d="M35,199.7c0,0.3,0.4,0.6,1.1,0.9c0.2,0,0.4,0.1,0.6,0.2c6.1,1,12.3,0.9,18.5-0.1
			c0.1,0,0.1-0.1,0.1-0.1l0,0c0.6-0.2,0.9-0.5,1-0.8v1.6l0.1,0.3c-0.1,0.3-0.4,0.6-1.1,0.9c0,0-0.1,0-0.1,0.1c-6.3,1-12.5,1-18.5,0
			c-1.1-0.3-1.7-0.6-1.7-1V199.7z"/>
		<path fill="#AF4911" d="M56.4,199.9c-0.1,0.3-0.4,0.5-1,0.8l0,0c0,0-0.1,0-0.1,0.1c-6.3,1-12.5,1.1-18.5,0.1
			c-0.2-0.1-0.4-0.2-0.6-0.2c-0.7-0.3-1.1-0.6-1.1-0.9v-0.1c0-0.6,0.9-1.1,2.7-1.4c5.4-0.8,10.8-0.8,16.3,0c0.1,0,0.3,0.1,0.5,0.1
			c1.1,0.3,1.7,0.7,1.9,1.2v0.3H56.4z"/>
	</g>
	<g>
		
			<linearGradient id="SVGID_40_" gradientUnits="userSpaceOnUse" x1="287.0347" y1="224.9985" x2="306.4842" y2="224.9985" gradientTransform="matrix(1 0 0 -1 -251.0098 418.0547)">
			<stop  offset="0" style="stop-color:#9F672E"/>
			<stop  offset="0.2392" style="stop-color:#E09E74"/>
			<stop  offset="0.4118" style="stop-color:#EAAC84"/>
			<stop  offset="0.6196" style="stop-color:#E86128"/>
			<stop  offset="1" style="stop-color:#6D2101"/>
		</linearGradient>
		<path fill="url(#SVGID_40_)" d="M37,185.8c0.2,0.1,0.4,0.2,0.6,0.2c5.5,0.9,11.1,0.9,16.8-0.1c0.1-0.1,0.1-0.1,0.2-0.1l0,0
			c0.5,0,0.8-0.1,0.8-0.3v14c-0.5,0.4-1.6,0.8-3.5,1c-4.8,0.5-9.6,0.4-14.3-0.3c-0.7-0.2-1.1-0.4-1.4-0.6l-0.1-14.3
			C36.4,185.5,36.6,185.6,37,185.8z"/>
	</g>
	<g>
		
			<linearGradient id="SVGID_41_" gradientUnits="userSpaceOnUse" x1="280.5225" y1="234.5547" x2="282.7975" y2="234.5547" gradientTransform="matrix(1 0 0 -1 -251.0098 418.0547)">
			<stop  offset="0" style="stop-color:#962F06"/>
			<stop  offset="0.8196" style="stop-color:#962F06"/>
			<stop  offset="1" style="stop-color:#F75831"/>
		</linearGradient>
		<polygon fill="url(#SVGID_41_)" points="31.9,180.9 31.9,188.1 29.5,186.1 29.5,178.9 		"/>
		
			<linearGradient id="SVGID_42_" gradientUnits="userSpaceOnUse" x1="282.7974" y1="233.0049" x2="309.6229" y2="233.0049" gradientTransform="matrix(1 0 0 -1 -251.0098 418.0547)">
			<stop  offset="0" style="stop-color:#F85932"/>
			<stop  offset="0.4706" style="stop-color:#C8451D"/>
			<stop  offset="0.5098" style="stop-color:#E85531"/>
			<stop  offset="0.5412" style="stop-color:#BE4119"/>
			<stop  offset="1" style="stop-color:#CC2F09"/>
		</linearGradient>
		<polygon fill="url(#SVGID_42_)" points="58.6,181.2 58.6,188.4 44.8,189.2 31.9,188.1 31.9,180.9 44.8,182 		"/>
		
			<linearGradient id="SVGID_43_" gradientUnits="userSpaceOnUse" x1="297.2598" y1="234.0171" x2="297.2598" y2="238.5921" gradientTransform="matrix(1 0 0 -1 -251.0098 418.0547)">
			<stop  offset="0" style="stop-color:#FF6113"/>
			<stop  offset="1" style="stop-color:#BA3801"/>
		</linearGradient>
		<polygon fill="url(#SVGID_43_)" points="63,179.3 58.6,181.2 44.8,182 31.9,180.9 29.5,178.9 39.8,178.1 54.6,178.3 		"/>
		
			<linearGradient id="SVGID_44_" gradientUnits="userSpaceOnUse" x1="313.9233" y1="234.2056" x2="309.5988" y2="234.2056" gradientTransform="matrix(1 0 0 -1 -251.0098 418.0547)">
			<stop  offset="0" style="stop-color:#962F06"/>
			<stop  offset="0.8196" style="stop-color:#962F06"/>
			<stop  offset="1" style="stop-color:#CA300A"/>
		</linearGradient>
		<polygon fill="url(#SVGID_44_)" points="58.6,188.4 58.6,181.2 63,179.3 63,186.5 		"/>
	</g>
</g>
<g>
	<path fill-opacity="0.298" d="M163.5,99.3h0.3c0,0.1-0.1,0.2-0.3,0.4V99.3z"/>
	<g>
		<g>
			<path fill="#FFFFFF" fill-opacity="0.6314" d="M139.3,66.6l3.9,1.8l0.4,2.1v0.1c0,0.5-0.9,0.9-2.8,1.3c-0.5,0.1-1.2,0.2-1.9,0.3
				c-0.8,0.1-1.6,0.2-2.4,0.2c-2.6,0.3-5.6,0.4-8.9,0.3c-3.4-0.1-6.4-0.3-9-0.5h-0.1c-0.8-0.1-1.5-0.2-2.3-0.4
				c-0.5-0.1-1-0.1-1.4-0.3c-2.1-0.5-3.2-1-3.2-1.5v-0.1c0-0.1,0-0.1,0-0.1l0.8-2.3l4.1-1.5c0,0.1-0.1,0.1-0.1,0.2
				c0,0.5,1.1,1,3.4,1.4c0,0,0.1,0.1,0.2,0.1s0.3,0,0.4,0c2.1,0.3,4.6,0.5,7.5,0.6c2.7,0,5.1-0.1,7.2-0.4c0.1,0,0.2,0,0.4,0
				s0.3,0,0.5,0C138.2,67.6,139.3,67.2,139.3,66.6L139.3,66.6z"/>
			<path fill="#FFFFFF" fill-opacity="0.8118" d="M116.6,66.1l0.1-0.1c0.3-0.4,1.4-0.7,3.1-1c2.2-0.3,4.9-0.5,8.1-0.4
				c3.1,0.1,5.8,0.3,8,0.8c2.1,0.4,3.2,0.8,3.3,1.3v0.1c0,0.5-1.1,0.9-3.3,1.3c-0.1,0-0.3,0-0.5,0c-0.1,0-0.3,0-0.4,0
				c-2.1,0.3-4.5,0.4-7.2,0.4c-2.9-0.1-5.4-0.3-7.5-0.6c-0.1,0-0.3,0-0.4,0s-0.2-0.1-0.2-0.1c-2.2-0.4-3.4-0.8-3.4-1.4
				C116.5,66.2,116.6,66.2,116.6,66.1z"/>
			
				<linearGradient id="SVGID_45_" gradientUnits="userSpaceOnUse" x1="365.2344" y1="337.5947" x2="392.2844" y2="337.5947" gradientTransform="matrix(1 0 0 -1 -251.0098 418.0547)">
				<stop  offset="0" style="stop-color:#FFFFFF;stop-opacity:0.7804"/>
				<stop  offset="0.3412" style="stop-color:#F1F1F1;stop-opacity:0.2824"/>
				<stop  offset="0.502" style="stop-color:#BCBBBA;stop-opacity:0.2118"/>
				<stop  offset="0.8118" style="stop-color:#F2F2F2;stop-opacity:0.4118"/>
				<stop  offset="1" style="stop-color:#FFFFFF;stop-opacity:0.5608"/>
			</linearGradient>
			<path fill="url(#SVGID_45_)" d="M119.5,88.4c-1.8-0.3-2.9-0.6-3.2-1c-0.1-0.1-0.1-0.2-0.1-0.3s0-0.1,0-0.2v-0.1l-1.4-15.2
				c0.4,0.1,0.9,0.2,1.4,0.3c0.7,0.1,1.5,0.3,2.3,0.4h0.1c2.6,0.3,5.6,0.5,9,0.5c3.3,0.1,6.3,0,8.9-0.3c0.8,0,1.6-0.1,2.4-0.2
				c0.7-0.1,1.3-0.2,1.9-0.3l-1.4,15.2v0.1v0.1c0,0.1,0,0.2-0.1,0.3c-0.3,0.4-1.5,0.8-3.4,1.1c-0.1,0-0.3,0.1-0.4,0.1
				s-0.3,0.1-0.4,0.1c-0.8,0.1-1.6,0.1-2.5,0.2c-0.3,0-0.7,0-1,0.1c-0.2,0-0.3,0-0.5,0c-5.2,0.1-9-0.2-11.3-0.6L119.5,88.4z
				 M131.1,89.1c-1.1,0-2.2,0-3.3,0c-3-0.1-5.5-0.3-7.6-0.6l-0.4-0.1C122.1,88.9,125.9,89.2,131.1,89.1z"/>
			<path fill="#FFFFFF" fill-opacity="8.627451e-002" d="M139.3,87.6l0.2-0.1c4.1,1.4,6.3,3.6,6.7,6.6v35.6h-37.1V94.1
				c0.4-3.5,2.8-5.8,7-6.9l0.1,0.1c0.3,0.4,1.4,0.8,3.2,1l0.6,0.1c2.1,0.3,4.7,0.5,7.6,0.6c1.1,0,2.2,0,3.3,0c0.2,0,0.3,0,0.5,0
				c0.3,0,0.7-0.1,1-0.1c0.9-0.1,1.7-0.1,2.5-0.2c0.1,0,0.2,0,0.4-0.1c0.2,0,0.3-0.1,0.4-0.1C137.8,88.4,139,88.1,139.3,87.6z"/>
			<path fill="none" stroke="#FFFFFF" stroke-linecap="round" stroke-linejoin="round" stroke-miterlimit="3" d="M119.5,88.4
				l0.3,0.1c2.3,0.5,6.1,0.7,11.3,0.6c0.2,0,0.3,0,0.5,0c0.3,0,0.7-0.1,1-0.1c0.9-0.1,1.7-0.1,2.5-0.2c0.1,0,0.2,0,0.4-0.1
				c0.2,0,0.3-0.1,0.4-0.1c1.9-0.3,3.1-0.6,3.4-1.1c0.1-0.1,0.1-0.1,0.1-0.3c0-0.1,0-0.1,0-0.1V87l1.4-15.2 M116.2,87.1
				c0-0.1,0-0.1,0-0.2v-0.1l-1.4-15.2 M116.1,87.2l0.1-0.1 M116.3,87.4c-0.1-0.1-0.1-0.2-0.1-0.3 M119.5,88.4
				c-1.8-0.3-2.9-0.6-3.2-1 M109.1,129.8V94.1c0.4-3.5,2.8-5.8,7-6.9 M139.4,87.1v0.3l0.1,0.1c4.1,1.4,6.3,3.6,6.7,6.6v35.6"/>
		</g>
		<g>
			<path fill-opacity="0.298" d="M118,65.5v-0.1l4.1-1.5c0,0,0.1,0,0.2,0c0.3-0.4,1.4-0.7,3.1-1c2.2-0.3,4.9-0.5,8-0.5
				c3.1,0.1,5.8,0.3,8,0.8c2.1,0.4,3.2,0.8,3.4,1.3l3.9,1.8l0.4,2.1v0.1c0,0.5-1,0.9-2.9,1.3L144.8,85l0,0c0,0,0,0.1,0.1,0.2l0,0
				c4.2,1.8,6.4,4,6.8,6.7v35.6h-5.4V94.1c-0.4-3-2.7-5.2-6.8-6.8l1.3-15.4c1.9-0.4,2.9-0.8,2.9-1.3v-0.1l-0.4-2.1l-3.9-1.8
				c-0.1-0.5-1.3-0.9-3.4-1.3c-2.2-0.4-4.9-0.7-8-0.8c-3.2,0-5.9,0.1-8,0.4C119.1,65.2,118.5,65.3,118,65.5z"/>
		</g>
		<g>
			<path fill="#FFFFFF" d="M145.8,103.4c0-0.1,0.1-0.1,0.1-0.3c0-0.1-0.1-0.2-0.1-0.2v-0.1c-0.6-0.5-2.3-0.9-5.1-1.2
				c-3.6-0.5-7.9-0.7-12.9-0.7s-9.3,0.2-12.8,0.7c-2.7,0.3-4.4,0.7-5,1.1l-0.1,0.1c-0.1,0-0.1,0.1-0.1,0.1l0,0c0,0.1,0,0.1,0,0.1
				c0,0.1,0,0.1,0,0.1l0,0c0,0.1,0,0.1,0.1,0.1c0,0,0.1,0,0.1,0.1c0.6,0.5,2.3,0.9,5,1.2c3.5,0.4,7.8,0.7,12.8,0.7s9.3-0.3,12.9-0.7
				C143.4,104.3,145.1,103.9,145.8,103.4C145.7,103.4,145.7,103.4,145.8,103.4z M145.8,103.6c-0.1,0.5-2,1.1-5.6,1.8
				c-3.6,0.6-7.9,0.9-12.9,0.9c-5.1-0.1-9.1-0.4-11.9-0.8c-2.8-0.4-4.7-1-5.5-1.8c0,0-0.1,0-0.1-0.1c-0.2-0.1-0.3-0.2-0.3-0.3
				c0-0.1,0-0.1,0-0.3s0-0.2,0-0.2c0-0.1,0.1-0.3,0.3-0.4c0.6-0.4,2.3-0.8,5.1-1.2c3.5-0.5,7.8-0.7,12.9-0.6c5,0,9.3,0.2,12.9,0.6
				c2.8,0.4,4.5,0.8,5.1,1.3c0.2,0.2,0.3,0.3,0.3,0.5C146.1,103.3,146,103.4,145.8,103.6L145.8,103.6z"/>
			<path fill="#FFFFFF" fill-opacity="0.3333" d="M109.9,103.4v-0.1c0-0.1-0.1-0.1-0.1-0.2s0-0.1,0.1-0.2l0,0l0.1-0.1
				c0.6-0.5,2.3-0.9,5-1.1c3.5-0.5,7.8-0.7,12.8-0.7s9.3,0.2,12.9,0.7c2.8,0.3,4.5,0.7,5.1,1.2v0.1v0.5l0,0
				c-0.6,0.5-2.3,0.9-5.1,1.3c-3.6,0.4-7.9,0.7-12.9,0.7s-9.3-0.3-12.8-0.7c-2.7-0.3-4.4-0.7-5-1.2
				C109.9,103.4,109.9,103.4,109.9,103.4z"/>
			<path fill="#FFFFFF" fill-opacity="8.627451e-002" d="M145.8,103.6v23.6h-35.9v-23.5c0.8,0.8,2.7,1.4,5.5,1.8
				c2.8,0.4,6.8,0.7,11.9,0.8c5,0,9.3-0.3,12.9-0.9C143.8,104.7,145.6,104.1,145.8,103.6z"/>
		</g>
	</g>
</g>
<g>
	<g>
		<g>
			<path d="M33,81.5L33,81.5c0-0.1,0-0.1,0-0.1c5-1,10-1,15.3,0v0.1c0,0.1,0,0.2,0,0.3v0.1V82c0.3,0.1-0.7,0.2-2.8,0.4
				c-2.1,0.2-4.7,0.3-7.7,0.2h-0.2c0,0-0.8,0-2.2-0.1c-1.5-0.1-2.2-0.3-2.2-0.5v-0.1C33.1,81.9,33.1,81.7,33,81.5z M50,82.3v0.5
				c0,0.4,0,0.6,0.3,0.8l0,0c0,0.1,0,0.2,0,0.3c-0.2,0-0.5,0.1-0.7,0.1c-3.1,0.4-6.2,0.7-9.3,0.8c-2.9,0-5.7-0.1-8.5-0.5
				c-0.2,0-0.5-0.1-0.7-0.1c-0.3-0.1-0.6-0.2-0.8-0.3l0,0c0.1-0.1,0.1-0.1,0.1-0.2c0.1-0.2,0.2-0.5,0.1-0.8v-0.1h-0.1
				c0-0.2,0-0.4,0-0.6l0,0l0.1,0.1c0,0,0,0,0,0.1h0.2c0.1,0,0.1,0,0.1,0h0.1c0.5,0.1,1.6,0.2,3.1,0.4c1.7,0.2,3.9,0.3,6.6,0.3
				c2.7,0,4.7-0.1,6.1-0.3c1.2-0.2,2.1-0.3,2.6-0.4c0.1,0,0.2-0.1,0.3-0.1v-0.1C49.8,82.3,49.9,82.3,50,82.3L50,82.3z"/>
			<path fill="#2E3128" d="M48.2,81.5c0.6,0.1,1,0.2,1.1,0.2h0.1c0.2,0,0.3,0.1,0.4,0.2l0,0l0.1,0.1v0.1h-0.1c0,0-0.1,0-0.1,0.1v0.1
				c-0.1,0-0.2,0.1-0.3,0.1c-0.5,0.1-1.3,0.2-2.6,0.4c-1.4,0.2-3.5,0.3-6.1,0.3c-2.7,0-4.9-0.1-6.6-0.3c-1.5-0.2-2.6-0.3-3.1-0.4
				c-0.1,0-0.1,0-0.1,0h-0.1h-0.2v-0.1l-0.1-0.1l0,0c0-0.1,0.2-0.1,0.4-0.3c0.1,0,0.2-0.1,0.3-0.1c0.1,0,0.1,0,0.2,0
				c0.5-0.1,1.1-0.2,1.8-0.3c0.1,0.2,0.1,0.3,0.1,0.5c0,0.1,0,0.1,0,0.1c0,0.2,0.7,0.4,2.2,0.5c1.4,0.1,2.2,0.1,2.2,0.1h0.2
				c3,0.1,5.6,0,7.7-0.2s3.1-0.3,2.8-0.4c0-0.1,0-0.1,0-0.1c0-0.1,0-0.1,0-0.1C48.2,81.8,48.2,81.6,48.2,81.5z"/>
			
				<radialGradient id="SVGID_46_" cx="284.7598" cy="324.0049" r="29.0745" gradientTransform="matrix(1 0 0 -1 -251.0098 418.0547)" gradientUnits="userSpaceOnUse">
				<stop  offset="0" style="stop-color:#AD3D0E"/>
				<stop  offset="0.2824" style="stop-color:#75280A"/>
				<stop  offset="0.7137" style="stop-color:#4B1001"/>
				<stop  offset="1" style="stop-color:#311813"/>
			</radialGradient>
			<path fill="url(#SVGID_46_)" d="M50.3,84l0.1-0.2l1,0.6h0.1c0.7,0.4,1.3,0.7,1.8,0.9c2.7,1.3,4.3,3,4.8,5.1v0.1
				c0.1,0.3,0.2,0.9,0.3,1.6v33.6H22.1l0.1-33.6l0.1-0.3l-0.1-0.5c0-0.3,0.1-0.6,0.2-1c0.4-2.1,2-3.8,4.8-5c1.4-0.7,2.4-1.3,3-1.6
				h0.1c0,0-0.1,0.1-0.1,0.2l0,0c0.3,0.1,0.5,0.2,0.8,0.3c0.2,0,0.4,0.1,0.7,0.1c2.8,0.3,5.7,0.5,8.5,0.5c3.1-0.1,6.2-0.3,9.3-0.8
				C49.8,84,50,84,50.3,84z"/>
			
				<radialGradient id="SVGID_47_" cx="176.8774" cy="328.604" r="49.1499" gradientTransform="matrix(0.8204 -0.5717 -0.4842 -0.6017 44.1985 423.3875)" gradientUnits="userSpaceOnUse">
				<stop  offset="0.1176" style="stop-color:#0B0706"/>
				<stop  offset="0.3529" style="stop-color:#311813"/>
				<stop  offset="0.6314" style="stop-color:#4B1001"/>
				<stop  offset="1" style="stop-color:#84300D"/>
			</radialGradient>
			<path fill="url(#SVGID_47_)" d="M22.4,91.9l-0.1,0.3c0-0.3,0.1-0.5,0.1-0.8v0.1C22.3,91.5,22.3,91.7,22.4,91.9z"/>
			
				<linearGradient id="SVGID_48_" gradientUnits="userSpaceOnUse" x1="273.3599" y1="341.4917" x2="273.3599" y2="324.8167" gradientTransform="matrix(1 0 0 -1 -251.0098 418.0547)">
				<stop  offset="0" style="stop-color:#311F11"/>
				<stop  offset="0.4588" style="stop-color:#1D0C05"/>
				<stop  offset="0.6784" style="stop-color:#641C0B;stop-opacity:0.902"/>
				<stop  offset="0.8706" style="stop-color:#8B3303;stop-opacity:0.7922"/>
				<stop  offset="1" style="stop-color:#805544;stop-opacity:0"/>
			</linearGradient>
			<path fill="url(#SVGID_48_)" d="M22.3,91.4l0.1,0.5c0-0.2-0.1-0.3-0.1-0.4S22.3,91.4,22.3,91.4z"/>
			<path fill="#656270" d="M49.5,64.5v0.1v0.1V64.5z"/>
			
				<linearGradient id="SVGID_49_" gradientUnits="userSpaceOnUse" x1="418.4941" y1="470.3027" x2="435.2099" y2="470.3027" gradientTransform="matrix(5.997002e-005 1 1 1.000000e-003 -420.0278 -342.4095)">
				<stop  offset="0" style="stop-color:#311F11"/>
				<stop  offset="0.4588" style="stop-color:#1D0C05"/>
				<stop  offset="0.6784" style="stop-color:#641C0B;stop-opacity:0.902"/>
				<stop  offset="0.8706" style="stop-color:#8B3303;stop-opacity:0.7922"/>
				<stop  offset="1" style="stop-color:#805544;stop-opacity:0"/>
			</linearGradient>
			<path fill="url(#SVGID_49_)" d="M50.2,83.6L50.2,83.6l0.2,0.1L50.3,84C50.2,83.9,50.2,83.8,50.2,83.6z"/>
		</g>
		<g>
			
				<linearGradient id="SVGID_50_" gradientUnits="userSpaceOnUse" x1="300.7466" y1="344.4136" x2="278.5471" y2="344.2418" gradientTransform="matrix(1 0 0 -1 -251.0098 418.0547)">
				<stop  offset="0" style="stop-color:#1A1210"/>
				<stop  offset="0.2235" style="stop-color:#747182"/>
				<stop  offset="0.4275" style="stop-color:#2C1E1E"/>
				<stop  offset="0.7294" style="stop-color:#1D1312"/>
				<stop  offset="1" style="stop-color:#140F0B"/>
			</linearGradient>
			<path fill="url(#SVGID_50_)" d="M49.5,66.7v11.8c0.1,0.5,0.4,0.9,1,1.3c-0.1,0.1-0.4,0.3-1,0.4c-0.5,0.1-1.2,0.1-2.1,0.3
				c-0.2,0-0.5,0.1-0.8,0.1c-1.8,0.2-3.9,0.3-6.4,0.3s-4.6-0.1-6.4-0.3c-0.3,0-0.5-0.1-0.8-0.1c-0.9-0.1-1.6-0.2-2.1-0.3
				c-0.5-0.1-0.8-0.2-0.8-0.3c0.7-0.3,1-0.8,0.9-1.3v-12c0,0.2,0.9,0.4,2.6,0.6c1.8,0.2,4,0.3,6.5,0.3s4.7-0.1,6.5-0.3
				C48.4,67.1,49.3,66.9,49.5,66.7z"/>
			
				<linearGradient id="SVGID_51_" gradientUnits="userSpaceOnUse" x1="282.1597" y1="351.5049" x2="300.4595" y2="351.5049" gradientTransform="matrix(1 0 0 -1 -251.0098 418.0547)">
				<stop  offset="0" style="stop-color:#656270"/>
				<stop  offset="1" style="stop-color:#392D31"/>
			</linearGradient>
			<path fill="url(#SVGID_51_)" d="M31.1,66.6c0-0.3,0.9-0.5,2.6-0.7c1.8-0.2,4-0.3,6.5-0.3s4.7,0.1,6.5,0.3
				c1.6,0.2,2.5,0.4,2.7,0.6v0.2c-0.2,0.2-1.1,0.4-2.7,0.5c-1.8,0.2-3.9,0.3-6.5,0.3c-2.5,0-4.7-0.1-6.5-0.3
				C32,67,31.1,66.8,31.1,66.6z"/>
			<path fill="#464048" d="M50.5,79.7v1.6c0,0.2-0.3,0.3-1,0.5c-0.5,0.1-1.2,0.1-2.1,0.3c-2,0.2-4.3,0.4-7.1,0.4
				c-2.8,0-5.2-0.1-7.2-0.4c-0.9-0.1-1.6-0.2-2.1-0.3c-0.6-0.1-0.9-0.3-0.9-0.4v-1.6c0,0,0,0.1,0.1,0.1c0.1,0.1,0.3,0.2,0.8,0.3
				c0.5,0.1,1.2,0.2,2.1,0.3c0.2,0,0.5,0.1,0.8,0.1c1.8,0.2,4,0.3,6.4,0.3c2.4,0,4.6-0.1,6.4-0.3c0.3,0,0.5-0.1,0.8-0.1
				c0.9-0.1,1.6-0.2,2.1-0.3C50,80,50.4,79.8,50.5,79.7z"/>
		</g>
	</g>
	<g>
		<path fill-opacity="0.298" d="M37.5,65.7c0.4-0.1,1.2-0.3,2.2-0.4c1.8-0.2,4-0.3,6.5-0.3s4.7,0.1,6.4,0.3c1.6,0.2,2.5,0.4,2.7,0.6
			v12c0.1,0.5,0.4,0.9,1,1.3v1.6c0,0.2-0.3,0.3-1,0.4h-0.1l0.1,0.1c0.2,0,0.3,0.1,0.4,0.1l0,0l0.1,0.1v0.7c0,0.4,0,0.6,0.3,0.8l0,0
			l0,0l1.1,0.8h0.1c0.7,0.4,1.3,0.7,1.8,0.9c2.7,1.3,4.3,3,4.8,5.1v0.1c0.1,0.3,0.2,0.9,0.3,1.6v33.6h-6v-33
			c-0.1-0.8-0.2-1.3-0.3-1.6v-0.1c-0.5-2.1-2-3.8-4.8-5.1c-0.5-0.2-1.1-0.5-1.8-0.9h-0.1l-1.1-0.8l0,0l0,0c-0.2-0.2-0.3-0.4-0.3-0.8
			v-0.7c0,0,0-0.1-0.1-0.1l0,0c-0.1-0.1-0.2-0.1-0.4-0.2h-0.1h0.1c0.7-0.1,1-0.3,1-0.5v-1.6c-0.6-0.3-0.9-0.7-1-1.3v-12
			c-0.2-0.2-1.1-0.4-2.7-0.6c-1.8-0.2-3.9-0.3-6.4-0.3C39.3,65.6,38.4,65.7,37.5,65.7z"/>
	</g>
</g>
<g>
	<polygon fill="#FFFFFF" fill-opacity="0.7059" points="666,183 666.2,183.1 666,183.1 	"/>
	<g>
		
			<linearGradient id="SVGID_52_" gradientUnits="userSpaceOnUse" x1="900.7344" y1="234.5547" x2="917.7844" y2="234.5547" gradientTransform="matrix(1 0 0 -1 -251.0098 418.0547)">
			<stop  offset="0" style="stop-color:#9EA2A5;stop-opacity:8.627451e-002"/>
			<stop  offset="0.2353" style="stop-color:#FFFFFF;stop-opacity:0.2314"/>
			<stop  offset="0.3647" style="stop-color:#C6CED2;stop-opacity:8.627451e-002"/>
			<stop  offset="1" style="stop-color:#8E9193;stop-opacity:0"/>
		</linearGradient>
		<path fill="url(#SVGID_52_)" d="M649.8,183.4c0.1-0.3,1-0.5,2.5-0.7c1.7-0.2,3.7-0.3,6-0.3c2.4,0,4.4,0.1,6,0.3
			c1.7,0.2,2.5,0.4,2.5,0.8c0,0.3-0.8,0.5-2.5,0.7c-1.6,0.2-3.6,0.4-6,0.4c-2.3,0-4.3-0.1-6-0.4c-1.5-0.2-2.3-0.4-2.5-0.6V183.4z"/>
		<path fill="none" stroke="#FFFFFF" stroke-linecap="round" stroke-linejoin="round" stroke-miterlimit="3" d="M649.8,183.4
			c0.1-0.3,1-0.5,2.5-0.7c1.7-0.2,3.7-0.3,6-0.3c2.4,0,4.4,0.1,6,0.3c1.7,0.2,2.5,0.4,2.5,0.8"/>
	</g>
	<g>
		<path fill="#FAF5FB" d="M665.8,174.5c-0.5,1-1,1.7-1.4,2.1c-0.6,0.5-1.6,0.8-3.3,0.8c-0.5,0-1.3-0.1-2.4-0.2
			c-1.2-0.1-1.8-0.2-1.8-0.2c-0.5,0-1,0.1-1.6,0.5c-0.9,0.4-1.4,0.9-1.4,1.6l0.1,0.7c0,0.2-0.4,0.5-1.2,0.9
			c-0.9,0.4-1.8,0.7-2.7,0.7c-0.5-2.7,0.1-4.8,1.7-6.4c0.4-0.2,0.9-0.4,1.5-0.6c0-0.3,0.3-0.8,0.7-1.4c1.3-0.5,2.4-1,3.5-1.3
			c1-0.4,2.6,0.1,5,1.3c0,0,1,0.4,3,1.4C665.5,174.5,665.6,174.5,665.8,174.5z M651,184.4c1,0,2.4-0.1,4-0.2c1.4,0,2.3,0,2.7,0.1
			c1.3,0.1,2,0.5,2.1,1c0,0.1,0,0.3,0,0.8s0,0.9,0.1,1.3c0.2,1.1,1.3,1.9,3.5,2.3c-0.4,0.3-0.9,0.6-1.4,0.8c-2,0.7-3.8,1.1-5.4,1.1
			c-1.6,0-2.8-0.8-3.5-2.6c-0.8-1.7-1.2-2.6-1.3-2.7C651.5,185.6,651.2,185,651,184.4z"/>
		<path fill="#ECEAED" d="M663.5,189.6c-2.2-0.4-3.4-1.2-3.5-2.3c-0.1-0.4-0.1-0.8-0.1-1.3s0-0.7,0-0.8c-0.1-0.5-0.8-0.9-2.1-1
			c-0.4,0-1.3-0.1-2.7-0.1c-1.7,0.1-3,0.2-4,0.2c-0.4-1-0.7-2-0.9-3c0.9,0,1.8-0.3,2.7-0.7c0.8-0.4,1.2-0.7,1.2-0.9L654,179
			c0-0.7,0.5-1.3,1.4-1.6c0.6-0.3,1.2-0.5,1.6-0.5c0,0,0.6,0.1,1.8,0.2c1.1,0.1,1.9,0.2,2.4,0.2c1.6,0,2.7-0.3,3.3-0.8
			c0.4-0.4,0.9-1.1,1.4-2.1c1.8,1,2.6,2.9,2.5,5.9c-0.2,0.6-0.4,1.1-0.7,1.5l-0.1,0.1h-0.1c-2.9,0.1-4.5,0.2-4.8,0.3
			c-1.7,0.2-2.5,0.7-2.5,1.4c0,0.5,0.4,0.9,1.3,1.1c0.5,0.1,1.5,0.2,2.8,0.3c0.7,0.1,1.3,0.4,1.7,0.8l-0.1,0.1v-0.1
			C665.2,187.6,664.4,188.8,663.5,189.6z"/>
		<path fill="#CCC8C9" d="M665.7,185.8c-0.5-0.4-1-0.7-1.7-0.8c-1.3-0.1-2.2-0.3-2.8-0.3c-0.8-0.2-1.3-0.6-1.3-1.1
			c0-0.7,0.8-1.1,2.5-1.4c0.3-0.1,1.9-0.2,4.8-0.3h0.1c-0.5,0.9-1.2,1.2-1.9,1v0.1l0.2,0.1l0.3,0.8v0.4l-0.1-0.1v0.1v0.1l0.2,0.1
			c0,0.1,0,0.2,0,0.3c0.1-0.1,0.1-0.1,0.2-0.2l0.1,0.3v0.3C666,185.4,665.8,185.6,665.7,185.8z"/>
	</g>
	<g>
		
			<linearGradient id="SVGID_53_" gradientUnits="userSpaceOnUse" x1="900.7344" y1="223.5049" x2="917.7842" y2="223.5049" gradientTransform="matrix(1 0 0 -1 -251.0098 418.0547)">
			<stop  offset="0" style="stop-color:#9EA2A5;stop-opacity:8.627451e-002"/>
			<stop  offset="0.2353" style="stop-color:#FFFFFF;stop-opacity:0.2314"/>
			<stop  offset="0.3647" style="stop-color:#C6CED2;stop-opacity:8.627451e-002"/>
			<stop  offset="1" style="stop-color:#8E9193;stop-opacity:0"/>
		</linearGradient>
		<path fill="url(#SVGID_53_)" d="M666.8,205.4v0.3h-17v-0.1l0.1-22.1c0.1,0.2,1,0.4,2.5,0.6c1.7,0.2,3.7,0.4,6,0.4
			c2.4,0,4.4-0.1,6-0.4c1.7-0.2,2.5-0.4,2.5-0.7v22H666.8z"/>
		
			<linearGradient id="SVGID_54_" gradientUnits="userSpaceOnUse" x1="890.7402" y1="197.2456" x2="933.8385" y2="185.8663" gradientTransform="matrix(1 0 0 -1 -251.0098 418.0547)">
			<stop  offset="0" style="stop-color:#9EA2A5;stop-opacity:8.627451e-002"/>
			<stop  offset="0.2353" style="stop-color:#FFFFFF;stop-opacity:0.2314"/>
			<stop  offset="0.3647" style="stop-color:#C6CED2;stop-opacity:8.627451e-002"/>
			<stop  offset="1" style="stop-color:#8E9193;stop-opacity:0"/>
		</linearGradient>
		<polygon fill="url(#SVGID_54_)" points="649.8,205.7 666.8,205.7 666.9,205.7 681,242 635.6,242 649.7,205.8 649.7,205.7 		"/>
		<path fill="none" stroke="#FFFFFF" stroke-linecap="round" stroke-linejoin="round" stroke-miterlimit="3" d="M666.8,205.4v-21.9
			c0,0.3-0.8,0.5-2.5,0.7c-1.6,0.2-3.6,0.4-6,0.4c-2.3,0-4.3-0.1-6-0.4c-1.5-0.2-2.3-0.4-2.5-0.6l-0.1,22.1 M649.8,183.5
			L649.8,183.5c0-0.1,0-0.1,0-0.1V183.5z M666.8,205.4l0.1,0.3l14,36.3 M635.6,242l14.1-36.2v-0.1v-0.1 M649.7,205.7L649.7,205.7
			 M666.8,205.7h0.1"/>
	</g>
	<g>
		<path fill="#FFFFFF" d="M671.9,219.2c-0.4,0.3-1.8,0.6-4,0.8c-2.6,0.2-5.8,0.3-9.6,0.3c-3.7,0-6.9-0.1-9.6-0.3
			c-2.4-0.2-3.8-0.4-4-0.7l0,0c-0.1-0.1-0.1-0.2-0.1-0.3c0-0.5,1.4-0.8,4.2-1c2.6-0.2,5.8-0.3,9.6-0.3c3.7,0,6.9,0.1,9.6,0.3
			c2.6,0.2,4,0.5,4.2,0.8v0.1v0.1C672.1,219,672,219.1,671.9,219.2z M667.8,218.3c-2.2-0.3-5.2-0.4-9-0.4s-6.9,0.2-9.5,0.4
			c-2.6,0.2-4,0.4-4.2,0.6c0.2,0.2,1.5,0.3,3.7,0.5c2.6,0.2,5.8,0.3,9.5,0.3s6.9-0.1,9.5-0.3c2.4-0.2,3.6-0.3,3.7-0.5
			C671.3,218.8,670,218.6,667.8,218.3z"/>
		<path fill="#FFFFFF" fill-opacity="0.5294" d="M667.8,218.3c2.2,0.3,3.5,0.5,3.8,0.6c-0.1,0.1-1.4,0.3-3.7,0.5
			c-2.6,0.2-5.8,0.3-9.5,0.3c-3.7,0-6.9-0.1-9.5-0.3c-2.2-0.2-3.5-0.4-3.7-0.5c0.2-0.1,1.6-0.3,4.2-0.6c2.6-0.2,5.8-0.4,9.5-0.4
			C662.6,217.9,665.6,218.1,667.8,218.3z"/>
		<path fill="#FFFFFF" fill-opacity="0.1216" d="M671.9,219.2l7.8,20.7h-42.9l7.9-20.6c0.3,0.3,1.6,0.5,4,0.7
			c2.6,0.2,5.8,0.3,9.6,0.3c3.7,0,6.9-0.1,9.6-0.3C670.2,219.8,671.5,219.5,671.9,219.2z"/>
	</g>
	<g>
		<path fill-opacity="0.298" d="M660.8,172.2c0.5-0.2,0.9-0.3,1.4-0.5c0.9-0.3,2.4,0,4.5,1.1c0.1,0.1,0.3,0.1,0.5,0.2
			c0,0,1,0.4,3,1.4c0.1,0.1,0.2,0.1,0.3,0.1c1.8,1,2.6,3,2.5,5.9c-0.2,0.6-0.4,1.1-0.7,1.5l-0.1,0.1c-0.4,0.6-0.8,1-1.3,1
			c0.4,0.1,0.6,0.3,0.6,0.4v22.3h0.2l14,36.3h-4.6l-9-23.1v-0.1v-0.1l-5-13H667l-0.2-22.3l0.8-1.5l0.1-0.1c0.2-0.4,0.5-0.9,0.7-1.5
			c0.1-2.9-0.7-4.9-2.5-5.9c-0.1,0-0.2-0.1-0.3-0.1c-2-0.9-3-1.4-3.1-1.4C662,172.7,661.4,172.4,660.8,172.2z"/>
	</g>
</g>
<g>
	<g>
		<g>
			
				<radialGradient id="SVGID_55_" cx="895.9102" cy="328.2051" r="35.4375" gradientTransform="matrix(1 0 0 -1 -251.0098 418.0547)" gradientUnits="userSpaceOnUse">
				<stop  offset="0" style="stop-color:#FFFFFF;stop-opacity:0.6784"/>
				<stop  offset="0.3098" style="stop-color:#FFFFFF;stop-opacity:0.2784"/>
				<stop  offset="1" style="stop-color:#FFFFFF;stop-opacity:0.2118"/>
				<stop  offset="1" style="stop-color:#FFFFFF;stop-opacity:0.2196"/>
			</radialGradient>
			<path fill="url(#SVGID_55_)" d="M643.7,72h14.2l-0.6,6.6c-0.2,0.9,0.2,1.6,1,2.2c1.3,0.8,2.5,1.5,3.5,2.1
				c1.5,0.9,2.7,1.9,3.8,3.2c0.4,0.4,0.8,0.8,1.1,1.3c1.3,1.8,2,3.9,2.2,6.2v0.1v27.9h-36.1l-0.1-27.9v-0.1c0.1-2.3,0.8-4.4,2.1-6.2
				c0.4-0.5,0.8-0.9,1-1.3c1.1-1.3,2.4-2.3,3.9-3.2c1-0.6,2.2-1.3,3.5-2.1c0.8-0.6,1.1-1.3,1-2.2L643.7,72z"/>
			<path fill="none" stroke="#FFFFFF" stroke-linecap="round" stroke-linejoin="round" stroke-miterlimit="3" d="M657.8,72l-0.6,6.6
				c-0.2,0.9,0.2,1.6,1,2.2c1.3,0.8,2.5,1.5,3.5,2.1c1.5,0.9,2.7,1.9,3.8,3.2c0.4,0.4,0.8,0.8,1.1,1.3c1.3,1.8,2,3.9,2.2,6.2v0.1
				v27.9 M632.8,121.6l-0.1-27.9v-0.1c0.1-2.3,0.8-4.4,2.1-6.2c0.4-0.5,0.8-0.9,1-1.3c1.1-1.3,2.4-2.3,3.9-3.2
				c1-0.6,2.2-1.3,3.5-2.1c0.8-0.6,1.1-1.3,1-2.2l-0.5-6.6"/>
		</g>
		<g>
			<g>
				<g>
					<path fill="#FFFFFF" fill-opacity="0.5333" d="M659,66.8l2.8,1.8l0.3,2l0,0c0,0.6-1.1,1.2-3.4,1.6c-0.6,0.1-1.2,0.2-1.8,0.3
						c-1.9,0.3-4.1,0.5-6.5,0.5c-2.6,0-4.8-0.2-6.7-0.5l0,0c-0.5-0.1-1-0.1-1.5-0.3c-2.2-0.4-3.4-1-3.4-1.6v-0.1l0.5-2.3l3.1-1.5
						l-0.1,0.1c0,0.5,0.8,1,2.5,1.4c0,0,0.1,0,0.2,0c0,0,0.1,0,0.3,0.1c1.5,0.3,3.3,0.4,5.5,0.4c2,0,3.7-0.1,5.2-0.4
						c0.1,0,0.2,0,0.3-0.1c0.1,0,0.2,0,0.3,0C658.2,67.7,659,67.3,659,66.8z"/>
					<path fill="#FFFFFF" fill-opacity="0.8118" d="M642.4,66.6v-0.2c0.3-0.3,1.1-0.6,2.3-1c1.7-0.4,3.7-0.6,6-0.6
						c2.2,0,4.2,0.2,5.8,0.6c1.6,0.3,2.4,0.8,2.5,1.3c0,0.5-0.8,1-2.5,1.4c0,0-0.1,0-0.3,0c-0.1,0.1-0.3,0.1-0.3,0.1
						c-1.5,0.3-3.2,0.4-5.2,0.4c-2.1,0-4-0.1-5.5-0.4c-0.2-0.1-0.3-0.1-0.3-0.1c-0.1,0-0.2,0-0.2,0c-1.6-0.4-2.5-0.8-2.5-1.4
						L642.4,66.6z"/>
				</g>
			</g>
		</g>
		<g>
			
				<radialGradient id="SVGID_56_" cx="896.0596" cy="329.1084" r="34.8625" gradientTransform="matrix(1 0 0 -1.0165 -251.0098 424.2393)" gradientUnits="userSpaceOnUse">
				<stop  offset="0" style="stop-color:#FFFFFF;stop-opacity:0.6784"/>
				<stop  offset="0.3098" style="stop-color:#FFFFFF;stop-opacity:0.2784"/>
				<stop  offset="1" style="stop-color:#FFFFFF;stop-opacity:0.2118"/>
				<stop  offset="1" style="stop-color:#FFFFFF;stop-opacity:0.2196"/>
			</radialGradient>
			<path fill="url(#SVGID_56_)" d="M632.8,104.9l0.1,0.1l0,0l0,0c0.1,0.1,0.3,0.2,0.5,0.3l0,0l0.3,0.1v0.1c3.2,0.9,7.1,1.4,11.9,1.5
				c1.4,0,2.9,0.1,4.5,0.1c4.5,0.1,7.3,0,8.5-0.1c1.2-0.1,2.9-0.4,5.1-0.6c2.3-0.3,3.9-0.8,4.8-1.4v16.6h-35.9V105
				C632.7,104.8,632.8,104.8,632.8,104.9z"/>
			<path fill="#FFFFFF" d="M668.6,104.9c-0.9,0.6-2.5,1-4.8,1.4c-2.2,0.3-4,0.5-5.1,0.6c-1.2,0.2-4,0.2-8.5,0.1
				c-1.6,0-3.1-0.1-4.5-0.1c-4.7-0.2-8.7-0.7-11.9-1.5v-0.1l-0.3-0.1l0,0c-0.2-0.1-0.4-0.1-0.5-0.3l0,0l0,0l-0.1-0.1
				c-0.1-0.1-0.1-0.3-0.1-0.4s0-0.3,0.3-0.4c0.2-0.2,0.8-0.4,1.7-0.6l3.3-0.5l0,0c3.5-0.4,7.7-0.6,12.6-0.6l0,0c0.1,0,0.2,0,0.3,0
				c4.7,0,8.5,0.2,11.7,0.5c0.3,0,0.5,0,0.8,0.1c3.2,0.4,5,0.8,5.3,1.3l0,0c0.1,0.1,0.1,0.1,0.1,0.3s0,0.2-0.1,0.3
				C668.7,104.8,668.6,104.8,668.6,104.9z M668.5,104.5L668.5,104.5L668.5,104.5c-0.3-0.6-2-1-5.1-1.3c-0.2,0-0.5-0.1-0.8-0.1
				c-3.1-0.3-7-0.5-11.7-0.5c-0.1,0-0.2,0-0.3,0l0,0c-4.9,0-9.1,0.2-12.5,0.6H638l-3.3,0.5c-0.9,0.2-1.4,0.4-1.6,0.5
				c-0.1,0.1-0.2,0.1-0.2,0.2s0,0.1,0.2,0.3c0.1,0.1,0.3,0.2,0.5,0.3l0.3,0.1c0.9,0.2,2.3,0.5,4.2,0.7h0.1c3.5,0.4,7.6,0.6,12.5,0.6
				c4.1,0.1,8.1-0.1,12-0.5c0.2,0,0.5-0.1,0.8-0.1C666.5,105.5,668.2,105.1,668.5,104.5L668.5,104.5z"/>
			<path fill="#FFFFFF" fill-opacity="0.4314" d="M668.5,104.5L668.5,104.5c-0.3,0.5-2,0.9-5.1,1.3c-0.3,0-0.5,0.1-0.8,0.1
				c-3.8,0.4-7.8,0.6-12,0.5c-4.9,0-9.1-0.2-12.5-0.6H638c-1.9-0.2-3.3-0.5-4.2-0.7l-0.3-0.1c-0.2-0.1-0.4-0.1-0.5-0.3
				c-0.1-0.1-0.2-0.2-0.2-0.3s0-0.1,0.2-0.2c0.2-0.2,0.7-0.4,1.6-0.5l3.3-0.5h0.1c3.5-0.4,7.6-0.6,12.5-0.6l0,0c0.1,0,0.2,0,0.3,0
				c4.7,0,8.5,0.2,11.7,0.5c0.3,0,0.5,0,0.8,0.1C666.5,103.5,668.2,104,668.5,104.5L668.5,104.5L668.5,104.5z"/>
		</g>
	</g>
	<g>
		<path fill-opacity="0.298" d="M649.8,65c1.5-0.3,3.2-0.5,5-0.5c2.2,0,4.2,0.2,5.8,0.6c1.6,0.3,2.4,0.8,2.5,1.3l2.8,1.8l0.3,2l0,0
			c0,0.6-1.1,1.2-3.4,1.6c-0.3,0.1-0.6,0.1-0.9,0.1l-0.6,6.4c-0.2,0.9,0.2,1.6,1,2.2c1.3,0.8,2.5,1.5,3.5,2.1
			c1.5,0.9,2.7,1.9,3.8,3.2c0.4,0.4,0.8,0.8,1,1.3c1.3,1.8,2,3.9,2.2,6.2v0.1v27.9h-4V93.8v-0.1c-0.2-2.3-0.9-4.4-2.2-6.2
			c-0.3-0.5-0.7-0.9-1-1.3c-1.1-1.3-2.3-2.3-3.8-3.2c-1-0.6-2.2-1.3-3.5-2.1c-0.9-0.6-1.2-1.3-1-2.2l0.6-6.4c0.3,0,0.6-0.1,0.9-0.1
			c2.3-0.4,3.4-1,3.4-1.6l0,0l-0.3-2l-2.8-1.8c-0.1-0.5-0.9-0.9-2.5-1.3c-1.6-0.4-3.6-0.6-5.8-0.6C650.4,64.9,650.1,64.9,649.8,65z"
			/>
	</g>
</g>
<g>
	<g>
		<g>
			
				<radialGradient id="SVGID_57_" cx="602.8594" cy="351.4541" r="29.1132" gradientTransform="matrix(1 0 0 -1 -251.0098 418.0547)" gradientUnits="userSpaceOnUse">
				<stop  offset="0" style="stop-color:#FFFFFF;stop-opacity:0.6784"/>
				<stop  offset="0.3098" style="stop-color:#FFFFFF;stop-opacity:0.2784"/>
				<stop  offset="1" style="stop-color:#FFFFFF;stop-opacity:0.2118"/>
				<stop  offset="1" style="stop-color:#FFFFFF;stop-opacity:0.2196"/>
			</radialGradient>
			<path fill="url(#SVGID_57_)" d="M341.9,92.6l-0.1-22.9v-0.1c0.1-1.9,0.7-3.6,1.8-5.1c0.3-0.4,0.6-0.7,0.9-1.1
				c0.9-1.1,2-1.9,3.1-2.6c0.8-0.5,1.8-1.1,3-1.7c0.7-0.5,0.9-1.1,0.8-1.9l-0.4-5.4h11.7l-0.5,5.4c-0.1,0.7,0.2,1.4,0.8,1.9
				c1.1,0.6,2.1,1.2,2.9,1.7c1.2,0.7,2.3,1.6,3.1,2.6c0.3,0.3,0.6,0.7,0.9,1.1c1.1,1.5,1.7,3.2,1.8,5.1v0.1v22.9H341.9z"/>
			<path fill="none" stroke="#FFFFFF" stroke-linecap="round" stroke-linejoin="round" stroke-miterlimit="3" d="M362.5,52l-0.5,5.4
				c-0.1,0.7,0.2,1.4,0.8,1.9c1.1,0.6,2.1,1.2,2.9,1.7c1.2,0.7,2.3,1.6,3.1,2.6c0.3,0.3,0.6,0.7,0.9,1.1c1.1,1.5,1.7,3.2,1.8,5.1
				v0.1v22.9 M341.9,92.6l-0.1-22.9v-0.1c0.1-1.9,0.7-3.6,1.8-5.1c0.3-0.4,0.6-0.7,0.9-1.1c0.9-1.1,2-1.9,3.1-2.6
				c0.8-0.5,1.8-1.1,3-1.7c0.7-0.5,0.9-1.1,0.8-1.9l-0.4-5.4"/>
		</g>
		<g>
			<g>
				<g>
					<path fill="#FFFFFF" fill-opacity="0.8118" d="M349.8,47.5v-0.1c0.3-0.2,0.9-0.5,2-0.8c1.4-0.3,3-0.4,4.9-0.4
						c1.8,0,3.4,0.1,4.8,0.4c1.3,0.3,2,0.7,2,1.1c0,0.4-0.7,0.8-2,1.1c0,0-0.1,0-0.2,0c-0.1,0.1-0.2,0.1-0.3,0.1
						c-1.2,0.2-2.7,0.3-4.3,0.3c-1.8,0-3.3-0.1-4.5-0.3c-0.1-0.1-0.2-0.1-0.3-0.1c-0.1,0-0.1,0-0.2,0c-1.3-0.3-2-0.7-2-1.1
						L349.8,47.5z"/>
					<path fill="#FFFFFF" fill-opacity="0.5294" d="M349.8,47.5v0.1c0,0.4,0.7,0.8,2,1.1c0,0,0.1,0,0.2,0c0,0,0.1,0,0.3,0.1
						c1.2,0.2,2.7,0.3,4.5,0.3c1.6,0,3-0.1,4.3-0.3c0.1,0,0.2,0,0.3-0.1c0.1,0,0.2,0,0.2,0c1.4-0.3,2-0.7,2-1.1l2.3,1.4l0.3,1.7
						c0,0.5-0.9,1-2.8,1.3c-0.5,0.1-0.9,0.1-1.4,0.2c-1.6,0.3-3.4,0.4-5.3,0.4c-2.1,0-4-0.1-5.5-0.4l0,0c-0.4-0.1-0.9-0.1-1.3-0.2
						c-1.8-0.4-2.8-0.8-2.8-1.3v-0.1l0.4-1.9L349.8,47.5z"/>
				</g>
			</g>
		</g>
		<g>
			<path fill="#FFFFFF" d="M371.3,78.9c-0.8,0.5-2.1,0.8-4,1.1c-1.8,0.3-3.2,0.5-4.2,0.5c-1,0.1-3.3,0.2-7,0.1c-1.3,0-2.5,0-3.7,0
				c-3.9-0.1-7.1-0.6-9.8-1.3l0,0h-0.2l0,0c-0.2-0.1-0.3-0.1-0.4-0.3l0,0v-0.1c-0.1-0.1-0.1-0.2-0.1-0.3s0-0.2,0.2-0.3
				c0.2-0.2,0.7-0.3,1.4-0.5l2.8-0.4l0,0c2.9-0.3,6.3-0.5,10.3-0.5h0.1c0,0,0.1,0,0.2,0c3.8,0,7,0.1,9.6,0.4c0.2,0,0.5,0,0.7,0.1
				c2.6,0.3,4,0.7,4.3,1.1v-0.1c0,0.1,0,0.1,0,0.2s0,0.2,0,0.2C371.4,78.8,371.3,78.9,371.3,78.9z M342,78.6c0,0.1,0.1,0.1,0.2,0.2
				c0.1,0.1,0.2,0.2,0.4,0.2l0.2,0.1c0.7,0.2,1.9,0.4,3.5,0.6l0,0c2.8,0.3,6.3,0.4,10.3,0.4c3.4,0.1,6.7-0.1,9.8-0.4
				c0.2,0,0.4,0,0.6,0c2.5-0.3,3.9-0.6,4.2-1v-0.2c-0.3-0.4-1.7-0.7-4.2-1c-0.2,0-0.4,0-0.6,0c-2.5-0.2-5.7-0.4-9.6-0.4
				c-0.1,0-0.2,0-0.2,0h-0.1c-4,0-7.5,0.1-10.3,0.4h-0.1l-2.7,0.5c-0.7,0.1-1.1,0.3-1.3,0.5L342,78.6z"/>
			<path fill="#FFFFFF" fill-opacity="0.4314" d="M342,78.6c0,0,0.1-0.1,0.2-0.1c0.2-0.2,0.6-0.3,1.3-0.5l2.7-0.5h0.1
				c2.8-0.3,6.3-0.4,10.3-0.4h0.1c0,0,0.1,0,0.2,0c3.8,0,7,0.2,9.6,0.4c0.2,0,0.4,0,0.6,0c2.5,0.3,3.9,0.6,4.2,1v0.2
				c-0.3,0.4-1.7,0.7-4.2,1c-0.2,0-0.5,0-0.6,0c-3.1,0.3-6.4,0.5-9.8,0.4c-4,0-7.5-0.1-10.3-0.4l0,0c-1.6-0.2-2.8-0.4-3.5-0.6
				l-0.2-0.1c-0.2,0-0.3-0.1-0.4-0.2C342.1,78.7,342,78.7,342,78.6z"/>
			
				<radialGradient id="SVGID_58_" cx="602.96" cy="352.3398" r="28.6497" gradientTransform="matrix(1 0 0 -1.0161 -251.0098 424.4605)" gradientUnits="userSpaceOnUse">
				<stop  offset="0" style="stop-color:#FFFFFF;stop-opacity:0.6784"/>
				<stop  offset="0.3098" style="stop-color:#FFFFFF;stop-opacity:0.2784"/>
				<stop  offset="1" style="stop-color:#FFFFFF;stop-opacity:0.2118"/>
				<stop  offset="1" style="stop-color:#FFFFFF;stop-opacity:0.2196"/>
			</radialGradient>
			<path fill="url(#SVGID_58_)" d="M371.3,78.9v13.6h-29.5V78.9c0,0,0.1,0,0.2,0V79h0.1c0.1,0.1,0.3,0.2,0.4,0.3l0,0h0.2l0,0
				c2.6,0.7,5.9,1.2,9.8,1.3c1.1,0,2.3,0,3.7,0c3.7,0.1,6,0,7-0.1s2.4-0.3,4.2-0.5C369.2,79.7,370.5,79.4,371.3,78.9z"/>
		</g>
	</g>
	<g>
		<path fill-opacity="0.298" d="M364.8,46.3c1.3,0.3,2,0.6,2,1l2.3,1.5l0.3,1.6l0,0c0,0.5-0.9,0.9-2.8,1.3c-0.3,0.1-0.5,0.1-0.8,0.1
			l-0.5,5.2c-0.1,0.7,0.2,1.3,0.9,1.8c1.1,0.7,2.1,1.3,2.9,1.8c1.2,0.7,2.2,1.6,3.1,2.6c0.3,0.3,0.6,0.7,0.9,1.1
			c1.1,1.5,1.7,3.2,1.8,5.1v0.1v22.9h-3.3V69.8v-0.1c-0.1-1.9-0.7-3.6-1.8-5.1c-0.2-0.4-0.5-0.7-0.8-1.1c-0.9-1.1-2-1.9-3.2-2.6
			c-0.8-0.5-1.8-1.1-2.8-1.7c-0.7-0.5-1-1.1-0.9-1.9l0.5-5.2c0.3,0,0.5-0.1,0.8-0.1c1.9-0.4,2.8-0.8,2.8-1.3l-0.3-1.7l-2.3-1.4
			c-0.1-0.4-0.8-0.8-2-1.1c-1.3-0.3-2.9-0.4-4.8-0.4c-0.3,0-0.6,0-0.9,0c1.2-0.2,2.6-0.4,4.2-0.4C361.8,45.8,363.4,45.9,364.8,46.3z
			"/>
	</g>
</g>
<g>
	<g>
		<g>
			<path fill="#FFFFFF" d="M594,228.1c0.1-0.1,0.1-0.1,0.2-0.3c0-0.1-0.1-0.1-0.2-0.2l0,0c-0.6-0.5-2.4-0.9-5.3-1.3
				c-3.7-0.4-8.1-0.6-13.3-0.6c-5.2,0-9.6,0.2-13.2,0.6c-3,0.4-4.8,0.8-5.3,1.3l-0.1,0.1v0.1v0.1c0.1,0,0.1,0.1,0.1,0.1
				c0.5,0.5,2.3,0.9,5.3,1.3c3.6,0.4,8,0.7,13.2,0.7c5.1,0,9.5-0.3,13.3-0.7C591.7,229,593.5,228.6,594,228.1L594,228.1z
				 M594.2,228.4c-0.6,0.5-2.6,1.1-5.9,1.7c-3.3,0.7-7.5,1-12.6,1c-5.2-0.1-9.4-0.4-12.8-1c-3.4-0.6-5.4-1.1-6-1.6v-0.1h-0.1
				c-0.1-0.1-0.2-0.3-0.1-0.4c0-0.1,0-0.3,0.1-0.4h0.1c0.5-0.5,2.3-1,5.4-1.4c3.7-0.5,8.1-0.7,13.3-0.6c5.1,0,9.6,0.2,13.3,0.6
				c3,0.4,4.8,0.9,5.4,1.4c0.1,0.1,0.2,0.3,0.2,0.4C594.5,228,594.4,228.2,594.2,228.4C594.2,228.3,594.2,228.4,594.2,228.4z"/>
			<path fill="#FFFFFF" fill-opacity="0.2314" d="M594,228.1L594,228.1c-0.5,0.5-2.3,0.9-5.3,1.3c-3.7,0.4-8.1,0.7-13.3,0.7
				c-5.2,0-9.6-0.3-13.2-0.7c-3-0.3-4.8-0.8-5.3-1.3l-0.1-0.1c0-0.1,0-0.1,0-0.1v-0.1c0.1-0.1,0.1-0.1,0.1-0.1
				c0.5-0.5,2.3-0.9,5.3-1.3c3.6-0.4,8-0.6,13.2-0.6c5.1,0,9.5,0.2,13.3,0.6c2.9,0.4,4.7,0.8,5.3,1.3l0,0c0.1,0.1,0.1,0.1,0.2,0.2
				C594.2,228,594.1,228,594,228.1z"/>
			<path fill="#FFFFFF" fill-opacity="8.627451e-002" d="M594.2,228.4v20.4H557v-20.4c0.6,0.5,2.6,1,6,1.6c3.3,0.6,7.6,0.9,12.8,1
				c5.2,0,9.4-0.3,12.6-1C591.6,229.4,593.5,228.9,594.2,228.4z"/>
		</g>
		<g>
			<g>
				
					<linearGradient id="SVGID_59_" gradientUnits="userSpaceOnUse" x1="826.7598" y1="225.167" x2="826.7598" y2="216.942" gradientTransform="matrix(1 0 0 -1 -251.0098 418.0547)">
					<stop  offset="0" style="stop-color:#FFFFFF;stop-opacity:0.3373"/>
					<stop  offset="0.2784" style="stop-color:#FFFFFF;stop-opacity:0.5294"/>
					<stop  offset="0.6353" style="stop-color:#FFFFFF;stop-opacity:0.2392"/>
					<stop  offset="1" style="stop-color:#FFFFFF;stop-opacity:0.3373"/>
					<stop  offset="1" style="stop-color:#FFFFFF;stop-opacity:0.2196"/>
				</linearGradient>
				<path fill="url(#SVGID_59_)" d="M568.1,192.5c0.1,0.1,0.3,0.3,0.4,0.4c2,2,4.3,3,7.2,3c2.8,0,5.1-1,7.1-3
					c0.2-0.1,0.3-0.3,0.5-0.4h3.7c1,0,1.9,0.3,2.6,1c0.7,0.8,1.1,1.7,1.1,2.7v0.1c0,1-0.4,1.8-1.1,2.5c-0.7,0.8-1.6,1.1-2.6,1.1
					h-2.6h-17.1h-2.8c-1,0-1.9-0.4-2.6-1.1c-0.7-0.7-1.1-1.5-1.1-2.5v-0.1c0-1,0.4-1.9,1.1-2.7c0.7-0.7,1.6-1,2.6-1H568.1z"/>
				<path fill="#FFFFFF" fill-opacity="0.3294" d="M568.1,192.5c-1.7-1.9-2.5-4.1-2.5-6.7c0-2.8,1-5.1,3-7.1s4.3-2.9,7.2-2.9
					c2.8,0,5.1,1,7.1,2.9c2,1.9,3,4.3,3,7.1c0,2.6-0.8,4.8-2.5,6.7c-0.1,0.1-0.3,0.3-0.5,0.4c-2,2-4.3,3-7.1,3s-5.2-1-7.2-3
					C568.4,192.7,568.2,192.6,568.1,192.5z"/>
				<path fill="#FFFFFF" fill-opacity="9.019608e-002" d="M594.8,246h-38v-24.8c0.5-4.9,4-8.4,10.4-10.4h0.1c6,1.8,11.7,1.8,17.1,0
					h0.1c6.4,2,9.8,5.5,10.3,10.4V246L594.8,246z"/>
				
					<linearGradient id="SVGID_60_" gradientUnits="userSpaceOnUse" x1="818.2598" y1="211.9795" x2="835.3348" y2="211.9795" gradientTransform="matrix(1 0 0 -1 -251.0098 418.0547)">
					<stop  offset="0" style="stop-color:#FFFFFF;stop-opacity:0.3373"/>
					<stop  offset="0.1333" style="stop-color:#FFFFFF;stop-opacity:0.1176"/>
					<stop  offset="0.2941" style="stop-color:#FFFFFF;stop-opacity:0.2902"/>
					<stop  offset="0.6353" style="stop-color:#FFFFFF;stop-opacity:0.2392"/>
					<stop  offset="1" style="stop-color:#FFFFFF;stop-opacity:0.3373"/>
					<stop  offset="1" style="stop-color:#FFFFFF;stop-opacity:0.2196"/>
				</linearGradient>
				<path fill="url(#SVGID_60_)" d="M584.3,210.9c-5.4,1.8-11.1,1.8-17.1,0v-11h17.1v10.9V210.9z"/>
				<path fill="none" stroke="#FFFFFF" stroke-linecap="round" stroke-linejoin="round" stroke-miterlimit="3" d="M568.1,192.5h-3.6
					c-1,0-1.9,0.3-2.6,1c-0.7,0.8-1.1,1.7-1.1,2.7v0.1c0,1,0.4,1.8,1.1,2.5c0.7,0.8,1.6,1.1,2.6,1.1h2.8h17.1h2.6
					c1,0,1.9-0.4,2.6-1.1c0.7-0.7,1.1-1.5,1.1-2.5v-0.1c0-1-0.4-1.9-1.1-2.7c-0.7-0.7-1.6-1-2.6-1h-3.7c-0.1,0.1-0.3,0.3-0.5,0.4
					c-2,2-4.3,3-7.1,3s-5.2-1-7.2-3C568.4,192.7,568.2,192.6,568.1,192.5c-1.7-1.9-2.5-4.1-2.5-6.7c0-2.8,1-5.1,3-7.1
					s4.3-2.9,7.2-2.9c2.8,0,5.1,1,7.1,2.9c2,1.9,3,4.3,3,7.1c0,2.6-0.8,4.8-2.5,6.7 M556.8,246v-24.8c0.5-4.9,4-8.4,10.4-10.4h0.1
					v-11 M584.3,210.9v-0.1v-10.9 M584.3,210.9h0.1l-0.1-0.1 M567.3,210.9c6,1.8,11.7,1.8,17.1,0 M584.5,210.9
					c6.4,2,9.8,5.5,10.3,10.4V246 M556.8,246H553"/>
			</g>
		</g>
		<g>
			
				<linearGradient id="SVGID_61_" gradientUnits="userSpaceOnUse" x1="826.5771" y1="244.6997" x2="826.6168" y2="235.8997" gradientTransform="matrix(1 0 0 -1 -251.0098 418.0547)">
				<stop  offset="0" style="stop-color:#FFFFFF"/>
				<stop  offset="1" style="stop-color:#FFFFFF;stop-opacity:0"/>
			</linearGradient>
			<path fill="url(#SVGID_61_)" d="M570.5,180.6c0-1,0.5-1.9,1.5-2.6s2.2-1.1,3.6-1.1c1.4,0,2.6,0.4,3.6,1.1s1.5,1.6,1.5,2.6
				c0,1.1-0.5,1.9-1.5,2.6c-1,0.8-2.2,1.1-3.6,1.1c-1.4,0-2.6-0.4-3.6-1.1C571,182.5,570.5,181.7,570.5,180.6z"/>
		</g>
	</g>
	<g>
		<path fill-opacity="0.298" d="M582,175.1c2.5,0.1,4.6,1.1,6.5,2.9c2,2,3,4.3,3,7.1c0,2.6-0.8,4.8-2.5,6.7h3.8c1,0,1.8,0.4,2.5,1
			c0.7,0.8,1.1,1.7,1.1,2.7v0.1c0,1-0.4,1.9-1.1,2.5c-0.7,0.7-1.5,1.1-2.5,1.1h-2.7v11h0.1c6.4,2,9.8,5.5,10.3,10.4l-0.1,27.6h-5.7
			v-27.1c-0.5-4.9-4-8.4-10.3-10.4h-0.1v-11h2.6c1,0,1.9-0.4,2.6-1.1c0.7-0.7,1.1-1.5,1.1-2.5V196c0-1-0.4-1.9-1.1-2.7
			c-0.7-0.7-1.6-1-2.6-1h-3.7c1.7-1.9,2.5-4.1,2.5-6.7c0-2.8-1-5.1-3-7.1c-0.9-0.9-2-1.6-3.1-2.1c-0.2-0.1-0.4-0.2-0.6-0.2
			c-0.2-0.1-0.4-0.1-0.6-0.2C579.5,175.5,580.8,175.2,582,175.1z"/>
	</g>
</g>
<g>
	<g>
		<g>
			<path fill="#FFFFFF" d="M147.6,228.4c-0.6,0.5-2.6,1.1-5.9,1.7c-3.3,0.7-7.5,1-12.6,1c-5.2-0.1-9.4-0.4-12.8-1
				c-3.4-0.6-5.4-1.1-5.9-1.6l-0.1-0.1l0,0c-0.1-0.1-0.2-0.3-0.1-0.4c0-0.1,0-0.3,0.1-0.4l0,0c0.5-0.5,2.3-1,5.4-1.4
				c3.7-0.5,8.1-0.7,13.3-0.6c5.1,0,9.6,0.2,13.3,0.6c3,0.4,4.8,0.9,5.4,1.4c0.1,0.1,0.2,0.3,0.2,0.4c0,0.2-0.1,0.3-0.2,0.4
				C147.7,228.3,147.7,228.4,147.6,228.4z M147.6,228.1L147.6,228.1c0-0.1,0.1-0.1,0.1-0.3c0-0.1-0.1-0.1-0.2-0.2h0.1
				c-0.6-0.5-2.4-0.9-5.3-1.3c-3.7-0.4-8.1-0.6-13.3-0.6s-9.6,0.2-13.2,0.6c-3,0.4-4.8,0.8-5.3,1.3l-0.1,0.1v0.2
				c0.1,0,0.1,0.1,0.1,0.1c0.5,0.5,2.3,0.9,5.3,1.3c3.6,0.4,8,0.7,13.2,0.7c5.1,0,9.6-0.3,13.3-0.7C145.2,229,147,228.6,147.6,228.1
				z"/>
			<path fill="#FFFFFF" fill-opacity="0.2314" d="M147.6,228.1c-0.6,0.5-2.4,0.9-5.3,1.3c-3.7,0.4-8.1,0.7-13.3,0.7
				s-9.6-0.3-13.2-0.7c-3-0.3-4.8-0.8-5.3-1.3l-0.1-0.1v-0.2c0.1-0.1,0.1-0.1,0.1-0.1c0.5-0.5,2.3-0.9,5.3-1.3
				c3.6-0.4,8-0.6,13.2-0.6c5.1,0,9.6,0.2,13.3,0.6c2.9,0.4,4.7,0.8,5.3,1.3h-0.1c0.1,0.1,0.1,0.1,0.2,0.2
				C147.7,228,147.6,228,147.6,228.1L147.6,228.1z"/>
			<path fill="#FFFFFF" fill-opacity="8.627451e-002" d="M147.6,228.4v20.4h-37.2v-20.4c0.6,0.5,2.6,1,5.9,1.6
				c3.3,0.6,7.6,0.9,12.8,1c5.2,0,9.4-0.3,12.6-1C145.1,229.4,147,228.9,147.6,228.4z"/>
		</g>
		<g>
			<g>
				
					<linearGradient id="SVGID_62_" gradientUnits="userSpaceOnUse" x1="380.209" y1="225.167" x2="380.209" y2="216.942" gradientTransform="matrix(1 0 0 -1 -251.0098 418.0547)">
					<stop  offset="0" style="stop-color:#FFFFFF;stop-opacity:0.3333"/>
					<stop  offset="0.2784" style="stop-color:#FFFFFF;stop-opacity:0.5255"/>
					<stop  offset="0.6353" style="stop-color:#FFFFFF;stop-opacity:0.2392"/>
					<stop  offset="1" style="stop-color:#FFFFFF;stop-opacity:0.3333"/>
					<stop  offset="1" style="stop-color:#FFFFFF;stop-opacity:0.2196"/>
				</linearGradient>
				<path fill="url(#SVGID_62_)" d="M121.6,192.5c0.1,0.1,0.3,0.3,0.4,0.4c2,2,4.4,3,7.1,3c2.8,0,5.1-1,7.1-3
					c0.2-0.1,0.3-0.3,0.5-0.4h3.7c1,0,1.9,0.3,2.6,1c0.7,0.8,1.1,1.7,1.1,2.7v0.1c0,1-0.4,1.8-1.1,2.5c-0.7,0.8-1.6,1.1-2.6,1.1
					h-2.5h-17.1H118c-1,0-1.9-0.4-2.6-1.1c-0.7-0.7-1.1-1.5-1.1-2.5v-0.1c0-1,0.4-1.9,1.1-2.7c0.7-0.7,1.6-1,2.6-1H121.6z"/>
				<path fill="#FFFFFF" fill-opacity="0.3255" d="M121.6,192.5c-1.7-1.9-2.6-4.1-2.6-6.7c0-2.8,1-5.1,3-7.1s4.4-2.9,7.1-2.9
					c2.8,0,5.1,1,7.1,2.9c2,1.9,3,4.3,3,7.1c0,2.6-0.8,4.8-2.5,6.7c-0.1,0.1-0.3,0.3-0.5,0.4c-2,2-4.3,3-7.1,3c-2.8,0-5.2-1-7.1-3
					C121.9,192.7,121.7,192.6,121.6,192.5z"/>
				<path fill="#FFFFFF" fill-opacity="8.627451e-002" d="M120.8,210.9c6,1.8,11.7,1.8,17.1,0h0.1c6.4,2,9.8,5.5,10.3,10.4V246h-38
					v-24.8c0.5-4.9,4-8.4,10.4-10.4h0.1V210.9z"/>
				
					<linearGradient id="SVGID_63_" gradientUnits="userSpaceOnUse" x1="371.7598" y1="211.9795" x2="388.8348" y2="211.9795" gradientTransform="matrix(1 0 0 -1 -251.0098 418.0547)">
					<stop  offset="0" style="stop-color:#FFFFFF;stop-opacity:0.3333"/>
					<stop  offset="0.1333" style="stop-color:#FFFFFF;stop-opacity:0.1137"/>
					<stop  offset="0.2941" style="stop-color:#FFFFFF;stop-opacity:0.2902"/>
					<stop  offset="0.6353" style="stop-color:#FFFFFF;stop-opacity:0.2392"/>
					<stop  offset="1" style="stop-color:#FFFFFF;stop-opacity:0.3333"/>
					<stop  offset="1" style="stop-color:#FFFFFF;stop-opacity:0.2196"/>
				</linearGradient>
				<path fill="url(#SVGID_63_)" d="M137.9,210.9c-5.4,1.8-11.1,1.8-17.1,0v-11h17.1v10.9V210.9z"/>
				<path fill="none" stroke="#FFFFFF" stroke-linecap="round" stroke-linejoin="round" stroke-miterlimit="3" d="M121.6,192.5H118
					c-1,0-1.9,0.3-2.6,1c-0.7,0.8-1.1,1.7-1.1,2.7v0.1c0,1,0.4,1.8,1.1,2.5c0.7,0.8,1.6,1.1,2.6,1.1h2.8h17.1h2.5
					c1,0,1.9-0.4,2.6-1.1c0.7-0.7,1.1-1.5,1.1-2.5v-0.1c0-1-0.4-1.9-1.1-2.7c-0.7-0.7-1.6-1-2.6-1h-3.7c-0.1,0.1-0.3,0.3-0.5,0.4
					c-2,2-4.3,3-7.1,3c-2.8,0-5.2-1-7.1-3C121.9,192.7,121.7,192.6,121.6,192.5c-1.7-1.9-2.6-4.1-2.6-6.7c0-2.8,1-5.1,3-7.1
					s4.4-2.9,7.1-2.9c2.8,0,5.1,1,7.1,2.9c2,1.9,3,4.3,3,7.1c0,2.6-0.8,4.8-2.5,6.7 M137.9,210.9v-0.1v-10.9 M137.9,210.9h0.1
					l-0.1-0.1 M138,210.9c6.4,2,9.8,5.5,10.3,10.4V246 M110.3,246h-3.8 M120.8,210.9v-11 M110.3,246v-24.8c0.5-4.9,4-8.4,10.4-10.4
					h0.1c6,1.8,11.7,1.8,17.1,0"/>
			</g>
		</g>
		<g>
			
				<linearGradient id="SVGID_64_" gradientUnits="userSpaceOnUse" x1="380.0762" y1="244.7002" x2="380.1158" y2="235.9002" gradientTransform="matrix(1 0 0 -1 -251.0098 418.0547)">
				<stop  offset="0" style="stop-color:#FFFFFF"/>
				<stop  offset="1" style="stop-color:#FFFFFF;stop-opacity:0"/>
			</linearGradient>
			<path fill="url(#SVGID_64_)" d="M125.5,178c1-0.7,2.2-1.1,3.6-1.1s2.5,0.4,3.5,1.1s1.6,1.6,1.6,2.6c0,1.1-0.5,1.9-1.6,2.6
				c-1,0.8-2.2,1.1-3.5,1.1c-1.4,0-2.6-0.4-3.6-1.1c-1-0.7-1.5-1.6-1.5-2.6S124.5,178.7,125.5,178z"/>
		</g>
	</g>
	<g>
		<path fill-opacity="0.298" d="M135.5,175.1c2.5,0.1,4.6,1.1,6.5,2.9c2,2,3,4.3,3,7.1c0,2.6-0.8,4.8-2.5,6.7h3.8c1,0,1.8,0.4,2.5,1
			c0.7,0.8,1.1,1.7,1.1,2.7v0.1c0,1-0.4,1.9-1.1,2.5c-0.7,0.7-1.5,1.1-2.5,1.1h-2.6v11h0.1c6.4,2,9.8,5.5,10.3,10.4l-0.1,27.6h-5.7
			v-27.1c-0.5-4.9-4-8.4-10.3-10.4h-0.1v-11h2.5c1,0,1.9-0.4,2.6-1.1c0.7-0.7,1.1-1.5,1.1-2.5V196c0-1-0.4-1.9-1.1-2.7
			c-0.7-0.7-1.6-1-2.6-1h-3.7c1.7-1.9,2.5-4.1,2.5-6.7c0-2.8-1-5.1-3-7.1c-0.9-0.9-2-1.6-3.1-2.1c-0.2-0.1-0.4-0.2-0.6-0.2
			c-0.2-0.1-0.4-0.1-0.6-0.2C133,175.5,134.3,175.2,135.5,175.1z"/>
	</g>
</g>
<g>
	<rect x="534" y="117.1" fill="#FFFFFF" width="69.8" height="25.3"/>
</g>
<g>
	<rect x="531.8" y="237.3" fill="#FFFFFF" width="90.8" height="31.8"/>
</g>
<g>
	<rect x="8.1" y="117.6" fill="#FFFFFF" width="64.1" height="25.3"/>
</g>
<g>
	<rect x="93.4" y="245" fill="#FFFFFF" width="70.1" height="25.3"/>
</g>
<g>
	<rect x="7.5" y="245" fill="#FFFFFF" width="75.3" height="25.3"/>
</g>
<g>
	<rect x="85.4" y="113" fill="#FFFFFF" width="77.6" height="29.9"/>
</g>
<g>
	<rect x="614.3" y="117.1" fill="#FFFFFF" width="69.4" height="25.3"/>
</g>
<g>
	<rect x="626.2" y="237.5" fill="#FFFFFF" width="70.1" height="31.8"/>
</g>
<g>
	<rect x="323.7" y="600" fill="#FFFFFF" width="86.4" height="30"/>
</g>
</svg>
