<?xml version="1.0" encoding="utf-8"?>
<!-- Generator: Adobe Illustrator 16.0.0, SVG Export Plug-In . SVG Version: 6.00 Build 0)  -->
<!DOCTYPE svg PUBLIC "-//W3C//DTD SVG 1.1//EN" "http://www.w3.org/Graphics/SVG/1.1/DTD/svg11.dtd">
<svg version="1.1" id="Layer_1" xmlns="http://www.w3.org/2000/svg" xmlns:xlink="http://www.w3.org/1999/xlink" x="0px" y="0px"
	 width="84px" height="101px" viewBox="0 0 84 101" enable-background="new 0 0 84 101" xml:space="preserve">
<g>
	<g>
		<linearGradient id="SVGID_1_" gradientUnits="userSpaceOnUse" x1="3.689" y1="50.3169" x2="83.064" y2="50.2944">
			<stop  offset="0" style="stop-color:#9EA2A5;stop-opacity:8.627451e-002"/>
			<stop  offset="3.921569e-002" style="stop-color:#7E8184;stop-opacity:0.4824"/>
			<stop  offset="9.411765e-002" style="stop-color:#A7AAAF;stop-opacity:8.627451e-002"/>
			<stop  offset="0.2353" style="stop-color:#FFFFFF;stop-opacity:0.502"/>
			<stop  offset="0.3647" style="stop-color:#C6CED2;stop-opacity:8.627451e-002"/>
			<stop  offset="0.4863" style="stop-color:#E2E7E9;stop-opacity:8.627451e-002"/>
			<stop  offset="0.6" style="stop-color:#AAB3B1;stop-opacity:8.627451e-002"/>
			<stop  offset="0.7216" style="stop-color:#BCC1C2;stop-opacity:8.627451e-002"/>
			<stop  offset="0.8196" style="stop-color:#EDEFEF;stop-opacity:0.2235"/>
			<stop  offset="0.9882" style="stop-color:#8E9193;stop-opacity:0.4235"/>
		</linearGradient>
		<path fill-rule="evenodd" clip-rule="evenodd" fill="url(#SVGID_1_)" d="M83,90.5v1.3c0,0.1,0,0.2,0,0.3c0,0.5,0,1,0,1.5
			c-0.3,1.4-1.6,2.5-3.7,3.3c-1.8,0.5-4.2,1-7.1,1.5C64.4,99.4,55,100,43.8,100c-0.4,0-0.8,0-1.2,0c-3.9,0-7.5-0.1-11-0.3
			c-0.5,0-0.9,0-1.3,0c-5.5-0.3-10.5-0.8-14.9-1.5c-2.8-0.5-5.2-1-7-1.5C5.6,96,4,93.9,3.7,90.6V5.6l0.8-3.4c2,0.4,4.7,0.8,8.1,1.1
			c8.1,0.8,17.8,1.3,29.2,1.3c11.4,0,21.1-0.4,29.2-1.3C79,2.6,83,1.6,83,0.5V90.5z"/>
		
			<path fill-rule="evenodd" clip-rule="evenodd" fill="none" stroke="#FFFFFF" stroke-width="0.75" stroke-linecap="round" stroke-linejoin="round" stroke-miterlimit="3" d="
			M83,90.5V0.5C83,1.6,79,2.6,71,3.4c-8.1,0.8-17.8,1.3-29.2,1.3c-11.4,0-21.1-0.4-29.2-1.3C9.1,3.1,6.4,2.7,4.5,2.3
			C2.7,1.9,1.5,1.5,1,1.1 M0.7,1C0.6,0.8,0.5,0.6,0.5,0.5"/>
		
			<path fill-rule="evenodd" clip-rule="evenodd" fill="none" stroke="#FFFFFF" stroke-width="0.75" stroke-linecap="round" stroke-linejoin="round" stroke-miterlimit="3" d="
			M3.7,5.6v84.9C4,93.9,5.6,96,8.5,96.7c1.8,0.5,4.1,1,7,1.5c4.4,0.7,9.4,1.3,14.9,1.5c0.4,0,0.8,0,1.3,0c3.5,0.2,7.1,0.3,11,0.3
			c0.4,0,0.8,0,1.2,0c11.1,0,20.6-0.6,28.4-1.9c2.9-0.5,5.3-1,7.1-1.5c2.1-0.8,3.4-1.9,3.7-3.3c0-0.5,0-1,0-1.5c0-0.1,0-0.2,0-0.3
			v-1.3 M1,1.1c0.7,0.9,1.1,1.7,1.4,2.2c0.8,1.1,1.3,1.9,1.3,2.3 M1,1.1C0.9,1.1,0.8,1,0.7,1"/>
	</g>
</g>
</svg>
