<?xml version="1.0" encoding="utf-8"?>
<!-- Generator: Adobe Illustrator 16.0.0, SVG Export Plug-In . SVG Version: 6.00 Build 0)  -->
<!DOCTYPE svg PUBLIC "-//W3C//DTD SVG 1.1//EN" "http://www.w3.org/Graphics/SVG/1.1/DTD/svg11.dtd">
<svg version="1.1" id="Layer_1" xmlns="http://www.w3.org/2000/svg" xmlns:xlink="http://www.w3.org/1999/xlink" x="0px" y="0px"
	 width="299.9px" height="75.1px" viewBox="0 0 299.9 75.1" enable-background="new 0 0 299.9 75.1" xml:space="preserve">
<g>
	
		<radialGradient id="SVGID_1_" cx="322.126" cy="32.9272" r="6.0378" gradientTransform="matrix(1 0 0 1.7598 -306.4258 -58.6478)" gradientUnits="userSpaceOnUse">
		<stop  offset="0" style="stop-color:#4258A5"/>
		<stop  offset="0.5216" style="stop-color:#4258A5;stop-opacity:0.4784"/>
		<stop  offset="0.7529" style="stop-color:#4258A5;stop-opacity:0.302"/>
		<stop  offset="1" style="stop-color:#7D52A1;stop-opacity:0"/>
	</radialGradient>
	<path fill="url(#SVGID_1_)" d="M11.5,6.8C10.7,5.5,10.2,4,10,2.5h11.5c-0.3,1.6-0.8,3-1.5,4.3c-1.2,2.1-2.6,3.1-4.3,3.1
		S12.6,8.8,11.5,6.8z"/>
</g>
<g>
	
		<radialGradient id="SVGID_2_" cx="76.4473" cy="440.0752" r="10.415" gradientTransform="matrix(1 0 0 1.6375 -30.9004 -718.1848)" gradientUnits="userSpaceOnUse">
		<stop  offset="0" style="stop-color:#4258A5"/>
		<stop  offset="0.5216" style="stop-color:#4258A5;stop-opacity:0.4784"/>
		<stop  offset="0.7529" style="stop-color:#4258A5;stop-opacity:0.302"/>
		<stop  offset="1" style="stop-color:#4258A5;stop-opacity:0"/>
	</radialGradient>
	<path fill="url(#SVGID_2_)" d="M38.2,14.5c-2-3.3-3-7.2-3-11.9h20.7c0,4.7-1,8.6-3,11.9c-2,3.3-4.5,4.9-7.3,4.9
		C42.7,19.4,40.2,17.7,38.2,14.5z"/>
</g>
<g>
	
		<radialGradient id="SVGID_3_" cx="381.9756" cy="82.5879" r="14.7748" gradientTransform="matrix(1 0 0 1.5897 -306.4258 -125.842)" gradientUnits="userSpaceOnUse">
		<stop  offset="0" style="stop-color:#4258A5"/>
		<stop  offset="0.5216" style="stop-color:#4258A5;stop-opacity:0.4784"/>
		<stop  offset="0.7529" style="stop-color:#4258A5;stop-opacity:0.302"/>
		<stop  offset="1" style="stop-color:#4258A5;stop-opacity:0"/>
	</radialGradient>
	<path fill="url(#SVGID_3_)" d="M65.2,22c-0.8-1.3-1.6-2.8-2.2-4.3V2.5h24V20c-0.4,0.7-0.8,1.3-1.1,2c-2.9,4.5-6.3,6.8-10.4,6.8
		S68.1,26.5,65.2,22z"/>
</g>
<g>
	
		<radialGradient id="SVGID_4_" cx="411.8262" cy="93.3281" r="19.1375" gradientTransform="matrix(1 0 0 1.563 -306.4258 -137.372)" gradientUnits="userSpaceOnUse">
		<stop  offset="0" style="stop-color:#4258A5"/>
		<stop  offset="0.5216" style="stop-color:#4258A5;stop-opacity:0.4784"/>
		<stop  offset="0.7529" style="stop-color:#4258A5;stop-opacity:0.302"/>
		<stop  offset="1" style="stop-color:#4258A5;stop-opacity:0"/>
	</radialGradient>
	<path fill="url(#SVGID_4_)" d="M93,31V2.5h24V32c-3.3,4.2-7.2,6.3-11.6,6.3C100.7,38.2,96.5,35.8,93,31z"/>
</g>
<g>
	
		<radialGradient id="SVGID_5_" cx="441.7754" cy="101.3232" r="23.5004" gradientTransform="matrix(1 0 0 1.5463 -306.4258 -145.125)" gradientUnits="userSpaceOnUse">
		<stop  offset="0" style="stop-color:#4258A5"/>
		<stop  offset="0.527" style="stop-color:#4650A2;stop-opacity:0.4784"/>
		<stop  offset="0.7529" style="stop-color:#4258A5;stop-opacity:0.302"/>
		<stop  offset="1" style="stop-color:#4258A5;stop-opacity:0"/>
	</radialGradient>
	<path fill="url(#SVGID_5_)" d="M123,42.3V2.5h24v40.4c-3.5,3.2-7.4,4.8-11.8,4.8C130.8,47.7,126.7,45.9,123,42.3z"/>
</g>
<g>
	
		<radialGradient id="SVGID_6_" cx="471.626" cy="107.8896" r="27.8621" gradientTransform="matrix(1 0 0 1.5348 -306.4258 -150.9392)" gradientUnits="userSpaceOnUse">
		<stop  offset="0" style="stop-color:#4258A5"/>
		<stop  offset="0.5216" style="stop-color:#4258A5;stop-opacity:0.4784"/>
		<stop  offset="0.7529" style="stop-color:#4258A5;stop-opacity:0.302"/>
		<stop  offset="1" style="stop-color:#4258A5;stop-opacity:0"/>
	</radialGradient>
	<path fill="url(#SVGID_6_)" d="M177,2.5v50.7c-3.6,2.6-7.6,3.9-11.9,3.9c-4.4,0-8.5-1.4-12.2-4.1V2.5H177z"/>
</g>
<g>
	
		<radialGradient id="SVGID_7_" cx="501.5762" cy="113.5547" r="32.2254" gradientTransform="matrix(1 0 0 1.5264 -306.4258 -155.5814)" gradientUnits="userSpaceOnUse">
		<stop  offset="0" style="stop-color:#4258A5"/>
		<stop  offset="0.5216" style="stop-color:#4258A5;stop-opacity:0.4784"/>
		<stop  offset="0.7529" style="stop-color:#4258A5;stop-opacity:0.302"/>
		<stop  offset="1" style="stop-color:#4258A5;stop-opacity:0"/>
	</radialGradient>
	<path fill="url(#SVGID_7_)" d="M207,2.5v60.8c-3.7,2.2-7.6,3.3-11.9,3.3c-4.3,0-8.4-1.1-12.1-3.4V2.5H207z"/>
</g>
<g>
	
		<radialGradient id="SVGID_8_" cx="531.4258" cy="118.5791" r="36.5869" gradientTransform="matrix(1 0 0 1.52 -306.4258 -159.4421)" gradientUnits="userSpaceOnUse">
		<stop  offset="0" style="stop-color:#4258A5"/>
		<stop  offset="0.5216" style="stop-color:#4258A5;stop-opacity:0.4784"/>
		<stop  offset="0.7529" style="stop-color:#4258A5;stop-opacity:0.302"/>
		<stop  offset="1" style="stop-color:#4258A5;stop-opacity:0"/>
	</radialGradient>
	<path fill="url(#SVGID_8_)" d="M237,2.5V64l0.1,0.1H237c-0.1,0.5-0.3,0.9-0.4,1.4l-1,2.1c-0.2,0.3-0.3,0.5-0.5,0.8
		c-1.9,2.7-4.6,4.2-7.9,4.7c-0.7,0.1-1.3,0.1-2,0.1c-2.4,0-4.6-0.5-6.8-1.6c-3.1-1.6-4.9-4.1-5.4-7.6V2.5H237z"/>
</g>
<g>
	
		<radialGradient id="SVGID_9_" cx="561.376" cy="123.2334" r="40.9494" gradientTransform="matrix(1 0 0 1.515 -306.4258 -162.7969)" gradientUnits="userSpaceOnUse">
		<stop  offset="0" style="stop-color:#4258A5"/>
		<stop  offset="0.5216" style="stop-color:#4258A5;stop-opacity:0.4784"/>
		<stop  offset="0.7529" style="stop-color:#4258A5;stop-opacity:0.302"/>
		<stop  offset="1" style="stop-color:#4258A5;stop-opacity:0"/>
	</radialGradient>
	<path fill="url(#SVGID_9_)" d="M267,2.5V64l0.1,0.1H267c-0.1,0.5-0.3,0.9-0.4,1.4l-1,2.1c-0.2,0.3-0.3,0.5-0.5,0.8
		c-1.9,2.7-4.6,4.2-7.9,4.7c-0.7,0.1-1.3,0.1-2,0.1c-2.4,0-4.6-0.5-6.8-1.6c-3.1-1.6-4.9-4.1-5.4-7.6V2.5H267z"/>
</g>
<g>
	
		<radialGradient id="SVGID_10_" cx="591.126" cy="127.7158" r="45.3119" gradientTransform="matrix(1 0 0 1.5109 -306.4258 -165.8645)" gradientUnits="userSpaceOnUse">
		<stop  offset="0" style="stop-color:#4258A5"/>
		<stop  offset="0.5216" style="stop-color:#4258A5;stop-opacity:0.4784"/>
		<stop  offset="0.7529" style="stop-color:#4258A5;stop-opacity:0.302"/>
		<stop  offset="1" style="stop-color:#4258A5;stop-opacity:0"/>
	</radialGradient>
	<path fill="url(#SVGID_10_)" d="M297,2.5V64l0.1,0.1H297c-0.1,0.5-0.3,0.9-0.4,1.4l-1,2.1c-0.2,0.3-0.3,0.5-0.5,0.8
		c-1.9,2.7-4.6,4.2-7.9,4.7c-0.7,0.1-1.3,0.1-2,0.1c-2.4,0-4.6-0.5-6.8-1.6c-3.1-1.6-4.9-4.1-5.4-7.6V2.5H297z"/>
</g>
</svg>
