<?xml version="1.0" encoding="utf-8"?>
<!-- Generator: Adobe Illustrator 16.0.0, SVG Export Plug-In . SVG Version: 6.00 Build 0)  -->
<!DOCTYPE svg PUBLIC "-//W3C//DTD SVG 1.1//EN" "http://www.w3.org/Graphics/SVG/1.1/DTD/svg11.dtd">
<svg version="1.1" id="Layer_1" xmlns="http://www.w3.org/2000/svg" xmlns:xlink="http://www.w3.org/1999/xlink" x="0px" y="0px"
	 width="97px" height="230px" viewBox="0 0 97 230" enable-background="new 0 0 97 230" xml:space="preserve">
<g>
	<g>
		<path fill-rule="evenodd" clip-rule="evenodd" fill-opacity="0.298" d="M96,107.7c-0.1,1.3-2.1,2.4-6.2,3.3
			c-0.6,0.1-1.3,0.3-1.9,0.5c-0.3,0.1-0.6,0.1-1,0.1c-6,1.1-13.3,1.7-21.8,1.7c-8.5,0-15.8-0.6-21.8-1.7c-0.3,0-0.6-0.1-0.9-0.1
			c-0.7-0.2-1.4-0.3-2-0.5c-4-1-6.1-2.1-6.2-3.3v-0.1c0,0,0-0.1,0-0.1c0.2-1.5,3.2-2.8,9-3.9c6-1.1,13.3-1.6,21.8-1.6
			c8.5,0,15.8,0.5,21.8,1.6c5.8,1.1,8.8,2.4,9,3.9V107.7z"/>
	</g>
	<g>
		<g>
			
				<linearGradient id="SVGID_1_" gradientUnits="userSpaceOnUse" x1="24.3784" y1="109.9209" x2="79.5944" y2="109.9209" gradientTransform="matrix(0.9848 -0.1739 0.1187 0.9945 2.836585e-004 2.007484e-004)">
				<stop  offset="0" style="stop-color:#B2B0B3"/>
				<stop  offset="1" style="stop-color:#313031"/>
				<stop  offset="1" style="stop-color:#000000"/>
			</linearGradient>
			<path fill-rule="evenodd" clip-rule="evenodd" fill="url(#SVGID_1_)" d="M92,100.4c-0.1,1.1-1.9,2.1-5.5,3
				c-0.6,0.1-1.2,0.3-1.8,0.4c-0.3,0.1-0.5,0.1-0.8,0.1c-5.4,1-12,1.5-19.7,1.5c-7.7,0-14.3-0.5-19.7-1.5c-0.3,0-0.5-0.1-0.8-0.1
				c-0.6-0.1-1.2-0.3-1.8-0.4c-3.6-0.9-5.5-1.9-5.6-3v-0.1c0,0,0-0.1,0-0.1c0.2-1.4,2.9-2.6,8.1-3.6c5.4-1,12-1.4,19.7-1.4
				c7.7,0,14.2,0.5,19.7,1.4c5.3,1,8,2.2,8.1,3.6V100.4z"/>
			<linearGradient id="SVGID_2_" gradientUnits="userSpaceOnUse" x1="92.0674" y1="105.8164" x2="36.4924" y2="105.9941">
				<stop  offset="0" style="stop-color:#17161B"/>
				<stop  offset="7.843138e-002" style="stop-color:#8C8A8D"/>
				<stop  offset="0.1098" style="stop-color:#444345"/>
				<stop  offset="0.2275" style="stop-color:#9F9DA0"/>
				<stop  offset="0.3373" style="stop-color:#FCFAFA"/>
				<stop  offset="0.4627" style="stop-color:#747373"/>
				<stop  offset="0.4627" style="stop-color:#747373"/>
				<stop  offset="0.6784" style="stop-color:#2F2F2F"/>
				<stop  offset="0.8353" style="stop-color:#FFFFFF"/>
				<stop  offset="1" style="stop-color:#000000"/>
			</linearGradient>
			<path fill-rule="evenodd" clip-rule="evenodd" fill="url(#SVGID_2_)" d="M36.4,100.4c0.1,1.1,2,2.1,5.6,3
				c0.6,0.1,1.2,0.3,1.8,0.4c0.2,0.1,0.5,0.1,0.8,0.1c5.4,1,12,1.5,19.7,1.5c7.7,0,14.2-0.5,19.7-1.5c0.3,0,0.6-0.1,0.8-0.1
				c0.6-0.1,1.2-0.3,1.8-0.4c3.6-0.9,5.5-1.9,5.5-3v6v0.1c-0.1,1.3-2.5,2.5-7.3,3.4c-0.3,0.1-0.5,0.1-0.8,0.1
				c-5.4,1-12,1.5-19.7,1.5c-7.7,0-14.3-0.5-19.7-1.5c-0.3,0-0.5-0.1-0.8-0.1c-4.8-0.9-7.3-2.1-7.4-3.4v0c0,0,0-0.1,0-0.1V100.4z"/>
		</g>
	</g>
	<g>
		<g>
			<linearGradient id="SVGID_3_" gradientUnits="userSpaceOnUse" x1="81.1436" y1="99.394" x2="47.3686" y2="99.5366">
				<stop  offset="0" style="stop-color:#17161B"/>
				<stop  offset="7.843138e-002" style="stop-color:#8C8A8D"/>
				<stop  offset="0.1098" style="stop-color:#444345"/>
				<stop  offset="0.2275" style="stop-color:#9F9DA0"/>
				<stop  offset="0.3373" style="stop-color:#FCFAFA"/>
				<stop  offset="0.4627" style="stop-color:#747373"/>
				<stop  offset="0.4627" style="stop-color:#747373"/>
				<stop  offset="0.6784" style="stop-color:#2F2F2F"/>
				<stop  offset="0.8353" style="stop-color:#FFFFFF"/>
				<stop  offset="1" style="stop-color:#000000"/>
			</linearGradient>
			<path fill-rule="evenodd" clip-rule="evenodd" fill="url(#SVGID_3_)" d="M47.4,95.6c0.1,0.8,1.2,1.5,3.4,2.1
				c0.3,0.1,0.7,0.2,1.1,0.3c0.1,0,0.2,0.1,0.4,0.1c3.3,0.7,7.3,1,12,1c4.7,0,8.7-0.3,12-1c0.2,0,0.4-0.1,0.5-0.1
				c0.4-0.1,0.8-0.2,1.1-0.3c2.2-0.6,3.3-1.3,3.4-2.1v4.1v0.1c-0.1,0.9-1.6,1.7-4.5,2.3c-0.1,0.1-0.3,0.1-0.5,0.1
				c-3.3,0.7-7.3,1-12,1c-4.6,0-8.6-0.3-12-1c-0.2,0-0.3-0.1-0.4-0.1c-3-0.6-4.5-1.4-4.6-2.3V95.6z"/>
			
				<linearGradient id="SVGID_4_" gradientUnits="userSpaceOnUse" x1="36.9648" y1="106.3643" x2="70.6429" y2="106.3643" gradientTransform="matrix(0.9806 -0.196 0.1077 0.9982 4.139841e-004 7.009506e-005)">
				<stop  offset="0" style="stop-color:#B2B0B3"/>
				<stop  offset="1" style="stop-color:#313031"/>
				<stop  offset="1" style="stop-color:#000000"/>
			</linearGradient>
			<path fill-rule="evenodd" clip-rule="evenodd" fill="url(#SVGID_4_)" d="M81.2,95.6c-0.1,0.8-1.2,1.5-3.4,2.1
				c-0.3,0.1-0.7,0.2-1.1,0.3c-0.1,0-0.3,0.1-0.5,0.1c-3.3,0.7-7.3,1-12,1c-4.6,0-8.6-0.3-12-1c-0.2,0-0.3-0.1-0.4-0.1
				c-0.4-0.1-0.8-0.2-1.1-0.3c-2.2-0.6-3.4-1.3-3.4-2.1c0,0,0-0.1,0-0.1c0.1-0.9,1.7-1.7,4.9-2.4c3.3-0.7,7.3-1,12-1
				c4.7,0,8.7,0.4,12,1c3.2,0.7,4.9,1.5,5,2.4V95.6z"/>
		</g>
	</g>
	<g>
		
			<radialGradient id="SVGID_5_" cx="63.4014" cy="94.7148" r="4.7479" gradientTransform="matrix(0.9978 6.582002e-002 -1.316401e-002 0.2791 -3.2167 68.1938)" gradientUnits="userSpaceOnUse">
			<stop  offset="0" style="stop-color:#FFFFFF"/>
			<stop  offset="0.1765" style="stop-color:#FFFFFF"/>
			<stop  offset="0.3059" style="stop-color:#FFFFFF;stop-opacity:0.4235"/>
			<stop  offset="0.4902" style="stop-color:#FFFFFF;stop-opacity:0.2314"/>
			<stop  offset="0.651" style="stop-color:#FFFFFF;stop-opacity:8.235294e-002"/>
			<stop  offset="1" style="stop-color:#FFFFFF;stop-opacity:0"/>
		</radialGradient>
		<path fill-rule="evenodd" clip-rule="evenodd" fill="url(#SVGID_5_)" d="M58.9,97.5c1.2,0.1,2.3,0.3,3.3,0.6
			c0.9,0.3,1.4,0.6,1.4,1c0,0.4-0.5,0.7-1.5,0.9c-0.9,0.2-2,0.3-3.3,0.1c-1.3-0.1-2.4-0.3-3.3-0.6c-0.8-0.4-1.2-0.7-1.2-1.1
			c0-0.3,0.4-0.6,1.3-0.8C56.5,97.5,57.6,97.4,58.9,97.5z"/>
	</g>
	<g>
		
			<radialGradient id="SVGID_6_" cx="57.8516" cy="102.8013" r="4.9376" gradientTransform="matrix(1 5.063226e-003 2.531613e-003 0.3063 0.5894 71.3163)" gradientUnits="userSpaceOnUse">
			<stop  offset="0" style="stop-color:#FFFFFF"/>
			<stop  offset="0.1765" style="stop-color:#FFFFFF"/>
			<stop  offset="0.3059" style="stop-color:#FFFFFF;stop-opacity:0.4235"/>
			<stop  offset="0.4902" style="stop-color:#FFFFFF;stop-opacity:0.2314"/>
			<stop  offset="0.651" style="stop-color:#FFFFFF;stop-opacity:8.235294e-002"/>
			<stop  offset="1" style="stop-color:#FFFFFF;stop-opacity:0"/>
		</radialGradient>
		<path fill-rule="evenodd" clip-rule="evenodd" fill="url(#SVGID_6_)" d="M62.2,102.1c0.9,0.3,1.4,0.6,1.5,1c0,0.4-0.5,0.8-1.5,1.1
			c-1,0.3-2.2,0.4-3.5,0.4c-1.3,0-2.4-0.2-3.4-0.5c-0.9-0.3-1.3-0.6-1.3-1c0-0.4,0.4-0.8,1.3-1.1c1-0.3,2.1-0.4,3.5-0.4
			C60,101.6,61.2,101.8,62.2,102.1z"/>
	</g>
	<g>
		
			<linearGradient id="SVGID_7_" gradientUnits="userSpaceOnUse" x1="88.2793" y1="-82.2432" x2="93.1553" y2="-82.2432" gradientTransform="matrix(2.050851e-002 0.9998 -0.9995 3.606337e-002 -1.181364e-004 -4.633367e-004)">
			<stop  offset="0" style="stop-color:#333333"/>
			<stop  offset="0.2745" style="stop-color:#B3B3B3"/>
			<stop  offset="0.6" style="stop-color:#48403B"/>
			<stop  offset="0.7608" style="stop-color:#8C8782"/>
			<stop  offset="1" style="stop-color:#0B0B0A"/>
		</linearGradient>
		<path fill-rule="evenodd" clip-rule="evenodd" fill="url(#SVGID_7_)" d="M81,91.3L81,91.3c0.3-0.2,0.6-0.5,0.8-1
			c0.2-0.5,0.3-1.1,0.2-1.8c-0.1-0.7-0.3-1.3-0.6-1.7c-0.2-0.4-0.4-0.5-0.6-0.5l5.6-0.3c0.2,0.1,0.5,0.3,0.7,0.5
			c0.3,0.5,0.5,1.1,0.5,1.8c0,0.4,0,0.7,0,1c0,0.3-0.1,0.5-0.2,0.8c-0.1,0.5-0.3,0.8-0.7,0.9L81,91.3z"/>
		
			<linearGradient id="SVGID_8_" gradientUnits="userSpaceOnUse" x1="82.7764" y1="-86.4619" x2="87.6606" y2="-86.4619" gradientTransform="matrix(-6.142227e-002 0.9981 -0.9992 -4.344426e-002 -1.882911e-004 -1.133531e-004)">
			<stop  offset="0" style="stop-color:#FFFFFF"/>
			<stop  offset="0.3098" style="stop-color:#B7B7B7"/>
			<stop  offset="0.4627" style="stop-color:#AEAEAE"/>
			<stop  offset="1" style="stop-color:#000000"/>
		</linearGradient>
		<path fill-rule="evenodd" clip-rule="evenodd" fill="url(#SVGID_8_)" d="M81,91.2L81,91.2h-0.2c0,0-0.1,0-0.1,0
			c0.4-0.1,0.6-0.4,0.8-0.9c0.2-0.6,0.2-1.2,0.1-1.9c-0.1-0.6-0.3-1.2-0.6-1.7c-0.1-0.1-0.3-0.3-0.5-0.5h0.2c0.2,0,0.4,0.2,0.6,0.5
			c0.3,0.4,0.5,1,0.6,1.7c0.1,0.7,0,1.3-0.2,1.8C81.5,90.8,81.3,91.1,81,91.2z"/>
		
			<linearGradient id="SVGID_9_" gradientUnits="userSpaceOnUse" x1="83.0557" y1="-85.8516" x2="87.313" y2="-85.8516" gradientTransform="matrix(-5.872202e-002 0.9983 -0.9991 -4.391847e-002 -7.439256e-004 -2.095848e-004)">
			<stop  offset="0" style="stop-color:#312E2A"/>
			<stop  offset="0.3333" style="stop-color:#6B6666"/>
			<stop  offset="1" style="stop-color:#000000"/>
		</linearGradient>
		<path fill-rule="evenodd" clip-rule="evenodd" fill="url(#SVGID_9_)" d="M80.7,91.2L80.7,91.2c0.1-0.2,0.3-0.4,0.4-0.8
			c0.2-0.5,0.3-1.2,0.2-1.9c-0.1-0.7-0.3-1.2-0.5-1.7c-0.2-0.3-0.4-0.5-0.6-0.5h0.4c0.2,0.2,0.3,0.4,0.5,0.5
			c0.3,0.5,0.5,1.1,0.6,1.7c0.1,0.7,0,1.3-0.1,1.9C81.3,90.8,81,91.1,80.7,91.2z"/>
		
			<linearGradient id="SVGID_10_" gradientUnits="userSpaceOnUse" x1="88.4326" y1="-79.5127" x2="93.3082" y2="-79.5127" gradientTransform="matrix(1.538280e-002 0.9999 -0.9996 3.091678e-002 1.972169e-004 -3.300682e-004)">
			<stop  offset="0" style="stop-color:#333333"/>
			<stop  offset="0.1059" style="stop-color:#6B6A67"/>
			<stop  offset="0.2196" style="stop-color:#FFFFFF"/>
			<stop  offset="0.2863" style="stop-color:#FFFFFF"/>
			<stop  offset="0.3804" style="stop-color:#837878"/>
			<stop  offset="0.502" style="stop-color:#312E2A"/>
			<stop  offset="0.6" style="stop-color:#48403B"/>
			<stop  offset="0.7608" style="stop-color:#8C8782"/>
			<stop  offset="1" style="stop-color:#0B0B0A"/>
		</linearGradient>
		<polygon fill-rule="evenodd" clip-rule="evenodd" fill="url(#SVGID_10_)" points="81,91.3 80.9,91.3 81,91.2 		"/>
		<g>
			
				<linearGradient id="SVGID_11_" gradientUnits="userSpaceOnUse" x1="92.5215" y1="-67.2988" x2="96.8372" y2="-67.2988" gradientTransform="matrix(0.1738 0.9848 -1.0029 7.100330e-002 2.586842e-004 1.699626e-004)">
				<stop  offset="0" style="stop-color:#AEAEAE"/>
				<stop  offset="0.251" style="stop-color:#FFFFFF"/>
				<stop  offset="0.6627" style="stop-color:#C4C4C4"/>
				<stop  offset="1" style="stop-color:#000000"/>
			</linearGradient>
			<path fill-rule="evenodd" clip-rule="evenodd" fill="url(#SVGID_11_)" d="M86.2,86c1.2,1.4,1.4,3,0.4,4.8l-5.4,0.3
				c0.6-1.9,0.4-3.6-0.7-4.9L86.2,86z"/>
		</g>
		<g>
			
				<linearGradient id="SVGID_12_" gradientUnits="userSpaceOnUse" x1="88.4326" y1="-73.2251" x2="93.3082" y2="-73.2251" gradientTransform="matrix(1.538280e-002 0.9999 -0.9996 3.091678e-002 1.972169e-004 -3.300682e-004)">
				<stop  offset="0" style="stop-color:#333333"/>
				<stop  offset="0.1059" style="stop-color:#6B6A67"/>
				<stop  offset="0.2196" style="stop-color:#FFFFFF"/>
				<stop  offset="0.2863" style="stop-color:#FFFFFF"/>
				<stop  offset="0.3804" style="stop-color:#837878"/>
				<stop  offset="0.502" style="stop-color:#312E2A"/>
				<stop  offset="0.6" style="stop-color:#48403B"/>
				<stop  offset="0.7608" style="stop-color:#8C8782"/>
				<stop  offset="1" style="stop-color:#0B0B0A"/>
			</linearGradient>
			<path fill-rule="evenodd" clip-rule="evenodd" fill="url(#SVGID_12_)" d="M80.1,86.3c0.2,0.1,0.4,0.3,0.6,0.5
				c0.3,0.5,0.5,1,0.5,1.7c0.1,0.7,0,1.4-0.2,1.9c-0.1,0.4-0.3,0.6-0.5,0.8L68,91.8l1.7-5L80.1,86.3z"/>
		</g>
	</g>
	<g>
		<linearGradient id="SVGID_13_" gradientUnits="userSpaceOnUse" x1="55.5508" y1="83.7998" x2="55.5508" y2="94.1998">
			<stop  offset="1.176471e-002" style="stop-color:#9D9385"/>
			<stop  offset="1" style="stop-color:#2E2723"/>
		</linearGradient>
		<path fill-rule="evenodd" clip-rule="evenodd" fill="url(#SVGID_13_)" d="M54.7,82.9c0.4,0.1,0.9,0.3,1.3,0.4
			c0.9,0.4,1.7,1,2.3,1.8c0.9,1.1,1.3,2.5,1.4,4.1v7.5l-8.3-2V86c0.1-1.6,0.7-2.7,1.7-3.1H54.7z"/>
		<linearGradient id="SVGID_14_" gradientUnits="userSpaceOnUse" x1="65.7998" y1="85.9282" x2="65.8727" y2="100.5782">
			<stop  offset="0" style="stop-color:#333333"/>
			<stop  offset="0.1804" style="stop-color:#DAD7D3"/>
			<stop  offset="0.2471" style="stop-color:#ECEBE9"/>
			<stop  offset="0.3922" style="stop-color:#514444"/>
			<stop  offset="0.5333" style="stop-color:#9C968F"/>
			<stop  offset="0.5765" style="stop-color:#645A53"/>
			<stop  offset="0.7686" style="stop-color:#363331"/>
			<stop  offset="1" style="stop-color:#0B0B0A"/>
		</linearGradient>
		<path fill-rule="evenodd" clip-rule="evenodd" fill="url(#SVGID_14_)" d="M54.7,82.9l15.8-0.1c0.4-0.1,0.7-0.1,1.1,0
			c0.5,0.1,1,0.2,1.7,0.5c0.9,0.4,1.7,1,2.3,1.8c0.9,1.1,1.3,2.5,1.4,4.1v7.5H59.7v-7.5c0-1.6-0.5-3-1.4-4.1
			c-0.6-0.8-1.4-1.4-2.3-1.8C55.6,83.1,55.1,83,54.7,82.9z"/>
	</g>
	<g>
		<path fill-rule="evenodd" clip-rule="evenodd" fill="#100F0F" d="M53.9,88.1c0.2-0.5,0.4-0.9,0.8-1h0.2c0.3,0,0.5,0.2,0.8,0.5
			c0.3,0.5,0.5,1.1,0.6,1.8c0.1,0.7,0.1,1.4-0.1,1.9c-0.1,0.5-0.4,0.9-0.8,1l-0.3,0.1c-0.3,0-0.5-0.3-0.8-0.7
			c-0.3-0.5-0.5-1.1-0.7-1.8C53.6,89.3,53.7,88.7,53.9,88.1z"/>
	</g>
	<g>
		<g>
			
				<linearGradient id="SVGID_15_" gradientUnits="userSpaceOnUse" x1="89.4766" y1="-45.3262" x2="94.3539" y2="-45.3262" gradientTransform="matrix(3.075468e-002 0.9995 -0.9992 4.299270e-002 3.707707e-004 -1.870543e-004)">
				<stop  offset="0" style="stop-color:#333333"/>
				<stop  offset="0.1059" style="stop-color:#6B6A67"/>
				<stop  offset="0.2196" style="stop-color:#FFFFFF"/>
				<stop  offset="0.2863" style="stop-color:#FFFFFF"/>
				<stop  offset="0.3804" style="stop-color:#837878"/>
				<stop  offset="0.502" style="stop-color:#312E2A"/>
				<stop  offset="0.6" style="stop-color:#48403B"/>
				<stop  offset="0.7608" style="stop-color:#8C8782"/>
				<stop  offset="1" style="stop-color:#0B0B0A"/>
			</linearGradient>
			<path fill-rule="evenodd" clip-rule="evenodd" fill="url(#SVGID_15_)" d="M40.5,92.9c0.3-0.1,0.5-0.4,0.7-0.9
				c0.2-0.5,0.2-1.1,0.2-1.8c-0.1-0.6-0.3-1.2-0.5-1.8c-0.2-0.3-0.4-0.5-0.6-0.6l14.2-0.5c0.1,0,0.1,0,0.2,0c0.1,0,0.3,0,0.4,0.1
				c0.2,0.1,0.3,0.2,0.5,0.4c0.3,0.5,0.5,1.1,0.5,1.8c0.1,0.7,0.1,1.3-0.1,1.8c-0.2,0.5-0.4,0.8-0.8,0.9L40.5,92.9z"/>
			<path fill-rule="evenodd" clip-rule="evenodd" fill="#434343" d="M40.5,92.9h-0.3c-0.3,0.1-0.5-0.1-0.8-0.6
				c-0.2-0.4-0.4-1-0.5-1.7c0-0.7,0-1.3,0.3-1.8c0.2-0.5,0.4-0.8,0.8-0.8l0.3-0.1c0.2,0.1,0.4,0.3,0.6,0.6c0.3,0.6,0.5,1.1,0.5,1.8
				c0,0.7,0,1.3-0.2,1.8C41,92.5,40.8,92.8,40.5,92.9z"/>
		</g>
		<g>
			
				<radialGradient id="SVGID_16_" cx="33.3188" cy="96.9951" r="1.6449" gradientTransform="matrix(0.9803 -0.1976 0.4256 2.5153 -25.0884 -148.29)" gradientUnits="userSpaceOnUse">
				<stop  offset="0" style="stop-color:#FFFFFF"/>
				<stop  offset="0.3255" style="stop-color:#7B7171"/>
				<stop  offset="0.698" style="stop-color:#484545"/>
				<stop  offset="1" style="stop-color:#000000"/>
			</radialGradient>
			<path fill-rule="evenodd" clip-rule="evenodd" fill="url(#SVGID_16_)" d="M48.8,87.3c0.2,0,0.5,0.3,0.7,0.6
				c0.4,0.5,0.6,1.1,0.6,2c0.1,0.8,0,1.4-0.2,1.9c-0.2,0.6-0.5,0.9-0.8,1.1h-0.3c-0.1,0-0.3-0.1-0.3-0.2c0,0-0.1,0-0.2-0.1
				c0.2-0.1,0.4-0.3,0.5-0.6c0.3-0.6,0.4-1.3,0.3-2c-0.1-0.7-0.3-1.3-0.6-1.9c-0.2-0.2-0.3-0.3-0.4-0.3c-0.1-0.1-0.1-0.2,0-0.2
				c0.1-0.1,0.2-0.1,0.5-0.3L48.8,87.3z"/>
			
				<radialGradient id="SVGID_17_" cx="29.8579" cy="96.3525" r="1.6449" gradientTransform="matrix(0.9803 -0.1976 0.4256 2.5153 -24.9222 -147.3076)" gradientUnits="userSpaceOnUse">
				<stop  offset="0" style="stop-color:#FFFFFF"/>
				<stop  offset="0.3255" style="stop-color:#7B7171"/>
				<stop  offset="0.698" style="stop-color:#484545"/>
				<stop  offset="1" style="stop-color:#000000"/>
			</radialGradient>
			<path fill-rule="evenodd" clip-rule="evenodd" fill="url(#SVGID_17_)" d="M45.2,87.5c0.3,0,0.5,0.2,0.8,0.6
				c0.3,0.5,0.5,1.2,0.5,1.9c0.1,0.8,0,1.4-0.3,2c-0.2,0.6-0.4,0.9-0.7,1l-0.3,0c-0.1,0-0.3,0-0.4-0.1c0,0-0.1,0-0.3-0.1
				c0.2-0.2,0.4-0.4,0.5-0.6c0.2-0.6,0.3-1.3,0.2-2c0-0.8-0.2-1.4-0.5-2c-0.1-0.2-0.3-0.3-0.4-0.4c-0.2,0-0.2,0-0.1-0.1
				c0.1-0.1,0.3-0.2,0.6-0.3L45.2,87.5z"/>
			
				<radialGradient id="SVGID_18_" cx="31.6416" cy="96.6592" r="1.6449" gradientTransform="matrix(0.9803 -0.1976 0.4256 2.5153 -25.0015 -147.7764)" gradientUnits="userSpaceOnUse">
				<stop  offset="0" style="stop-color:#FFFFFF"/>
				<stop  offset="0.3255" style="stop-color:#7B7171"/>
				<stop  offset="0.698" style="stop-color:#484545"/>
				<stop  offset="1" style="stop-color:#000000"/>
			</radialGradient>
			<path fill-rule="evenodd" clip-rule="evenodd" fill="url(#SVGID_18_)" d="M47,87.2c0.2,0.1,0.5,0.3,0.7,0.7
				c0.3,0.5,0.5,1.2,0.6,1.9c0.1,0.8,0,1.5-0.2,2.1c-0.2,0.5-0.5,0.9-0.8,1H47c-0.1,0-0.3,0-0.3-0.1c0,0-0.1-0.1-0.3-0.1
				c0.2-0.2,0.4-0.4,0.5-0.7c0.2-0.6,0.3-1.3,0.3-2.1c-0.1-0.7-0.3-1.4-0.5-1.9c-0.2-0.2-0.3-0.3-0.5-0.3c-0.1,0-0.1-0.1,0-0.2
				c0.1-0.1,0.2-0.1,0.5-0.3L47,87.2z"/>
			
				<radialGradient id="SVGID_19_" cx="37.1416" cy="97.6089" r="1.6449" gradientTransform="matrix(0.9803 -0.1976 0.4256 2.5153 -25.2472 -149.2284)" gradientUnits="userSpaceOnUse">
				<stop  offset="0" style="stop-color:#FFFFFF"/>
				<stop  offset="0.3255" style="stop-color:#7B7171"/>
				<stop  offset="0.698" style="stop-color:#484545"/>
				<stop  offset="1" style="stop-color:#000000"/>
			</radialGradient>
			<path fill-rule="evenodd" clip-rule="evenodd" fill="url(#SVGID_19_)" d="M52.7,87.1c0.3,0.1,0.5,0.3,0.7,0.7
				c0.3,0.5,0.5,1.2,0.6,1.9c0.1,0.8,0,1.5-0.2,2.1c-0.2,0.5-0.5,0.8-0.8,0.9l-0.3,0.1c-0.1,0-0.3,0-0.5-0.1c0,0-0.1,0-0.2-0.1
				c0.2-0.1,0.4-0.3,0.5-0.6c0.2-0.6,0.3-1.3,0.2-2.1c-0.1-0.7-0.3-1.4-0.5-1.9c-0.2-0.2-0.3-0.4-0.3-0.4c-0.1,0-0.2-0.1-0.1-0.1
				c0.1-0.1,0.3-0.2,0.5-0.3H52.7z"/>
			
				<radialGradient id="SVGID_20_" cx="35.2593" cy="97.2822" r="1.6449" gradientTransform="matrix(0.9803 -0.1976 0.4256 2.5153 -25.1627 -148.729)" gradientUnits="userSpaceOnUse">
				<stop  offset="0" style="stop-color:#FFFFFF"/>
				<stop  offset="0.3255" style="stop-color:#7B7171"/>
				<stop  offset="0.698" style="stop-color:#484545"/>
				<stop  offset="1" style="stop-color:#000000"/>
			</radialGradient>
			<path fill-rule="evenodd" clip-rule="evenodd" fill="url(#SVGID_20_)" d="M50.4,87.1h0.3c0.3,0.1,0.5,0.4,0.8,0.8
				c0.3,0.5,0.5,1.2,0.5,1.9c0.1,0.8,0,1.5-0.2,2c-0.2,0.6-0.4,0.9-0.8,1l-0.3,0.1c-0.2,0-0.3-0.1-0.5-0.2l-0.1-0.1
				c0.2-0.2,0.3-0.4,0.5-0.6c0.2-0.6,0.3-1.3,0.3-2c-0.1-0.7-0.3-1.4-0.7-2c-0.1-0.2-0.2-0.3-0.3-0.4c-0.2,0-0.2,0,0-0.1
				C50,87.4,50.2,87.2,50.4,87.1z"/>
			
				<radialGradient id="SVGID_21_" cx="28.1064" cy="96.1538" r="1.6449" gradientTransform="matrix(0.9803 -0.1976 0.4256 2.5153 -24.8708 -147.0038)" gradientUnits="userSpaceOnUse">
				<stop  offset="0" style="stop-color:#FFFFFF"/>
				<stop  offset="0.3255" style="stop-color:#7B7171"/>
				<stop  offset="0.698" style="stop-color:#484545"/>
				<stop  offset="1" style="stop-color:#000000"/>
			</radialGradient>
			<path fill-rule="evenodd" clip-rule="evenodd" fill="url(#SVGID_21_)" d="M43.2,87.5l0.3,0c0.3,0,0.5,0.2,0.7,0.6
				c0.3,0.5,0.5,1.1,0.6,1.9c0,0.8-0.1,1.5-0.2,2.1c-0.2,0.5-0.5,0.8-0.8,0.9h-0.3c-0.1,0-0.3,0-0.3-0.1c0,0-0.1,0-0.2-0.1
				c0.2-0.1,0.4-0.3,0.5-0.6c0.2-0.6,0.3-1.3,0.2-2c0-0.7-0.2-1.3-0.5-1.9c-0.2-0.2-0.3-0.3-0.4-0.4s-0.2-0.1-0.1-0.1
				C42.8,87.6,42.9,87.5,43.2,87.5z"/>
		</g>
	</g>
	<g>
		<path fill-rule="evenodd" clip-rule="evenodd" d="M40.1,88.6h0.1c0.2,0,0.3,0.1,0.4,0.4c0.1,0.3,0.2,0.7,0.2,1.2
			c0,0.5,0,0.9-0.1,1.3c-0.1,0.4-0.3,0.6-0.5,0.7l-0.1,0c-0.2,0-0.4-0.1-0.5-0.4c-0.1-0.3-0.2-0.8-0.3-1.3c0-0.5,0.1-0.9,0.2-1.4
			C39.7,89,39.9,88.8,40.1,88.6z"/>
	</g>
	<g>
		<g>
			<path fill-rule="evenodd" clip-rule="evenodd" d="M39.9,88.9c0.1,0,0.1,0,0.2-0.1h0.1c0.1,0,0.2,0.2,0.3,0.5
				c0.1,0.3,0.1,0.7,0.1,1.2c0,0.4,0,0.8-0.1,1.2c-0.1,0.2-0.1,0.3-0.2,0.4c0,0-0.1,0.1-0.1,0.1h-0.1c-1.5,0.5-3,1.2-4.7,2.1
				c-2.4,1.3-3.8,2.5-4.1,3.5c-0.8,2.6-0.6,6,0.6,10.4c0,0,0,0.1,0,0.1c1.8,5.5,2.4,10.4,1.9,14.9c-0.1,7.8-4.1,14.1-11.9,18.7
				c-9.7,6.3-14.8,19.6-15.1,39.9l-1.9,48H1.8l1.9-48.1c0.4-21.7,6-35.9,16.7-42.6c6.8-4,10.3-9.4,10.4-16c0-0.1,0-0.1,0-0.3
				c0.5-4.1-0.1-8.6-1.8-13.6v-0.1c-1.5-5.2-1.7-9.3-0.6-12.4c0.5-1.6,2.1-3.2,4.9-4.9C35.5,90.5,37.7,89.5,39.9,88.9z"/>
		</g>
	</g>
	<g>
		
			<radialGradient id="SVGID_22_" cx="41.7886" cy="98.0947" r="7.9001" gradientTransform="matrix(1 4.746782e-003 -8.227755e-002 0.8639 -1.2675 13.306)" gradientUnits="userSpaceOnUse">
			<stop  offset="0" style="stop-color:#FFFFFF"/>
			<stop  offset="1" style="stop-color:#FFFFFF;stop-opacity:0"/>
		</radialGradient>
		<path fill-rule="evenodd" clip-rule="evenodd" fill="url(#SVGID_22_)" d="M35.4,92.3c0,0,0.1,0,0.1,0l0.1,0.1l0,0.1l0,0
			c-2.5,0.9-4.3,2.4-5.2,4.3c-1,1.9-1.2,4.6-0.6,8v0c0,0-0.1,0-0.1,0c0,0-0.1,0.1-0.1,0.1v-0.1c-0.6-3.4-0.4-6.1,0.6-8.1
			C31,94.7,32.8,93.2,35.4,92.3z"/>
		
			<radialGradient id="SVGID_23_" cx="25.8999" cy="125.5879" r="15.3858" gradientTransform="matrix(0.9999 -1.039011e-002 1.075330e-002 1.0349 -1.3491 -4.1139)" gradientUnits="userSpaceOnUse">
			<stop  offset="0" style="stop-color:#FFFFFF"/>
			<stop  offset="1" style="stop-color:#FFFFFF;stop-opacity:0"/>
		</radialGradient>
		<path fill-rule="evenodd" clip-rule="evenodd" fill="url(#SVGID_23_)" d="M30.9,110.6c0,0,0-0.1,0-0.1c0,0,0,0,0.1,0
			c0,0,0.1,0,0.1,0c0,0,0.1,0.1,0.1,0.1c3.8,14.3,0.3,24.4-10.3,30.1c0,0-0.1,0-0.1,0c0-0.1-0.1-0.1-0.1-0.1c0,0,0-0.1,0-0.1
			s0-0.1,0-0.1C31.2,134.8,34.6,124.8,30.9,110.6z"/>
		
			<radialGradient id="SVGID_24_" cx="10.75" cy="168.1504" r="24.1389" gradientTransform="matrix(0.9999 -1.070547e-002 1.104916e-002 1.032 -1.8573 -5.2733)" gradientUnits="userSpaceOnUse">
			<stop  offset="0" style="stop-color:#FFFFFF"/>
			<stop  offset="1" style="stop-color:#FFFFFF;stop-opacity:0"/>
		</radialGradient>
		<path fill-rule="evenodd" clip-rule="evenodd" fill="url(#SVGID_24_)" d="M16.3,143.9c0-0.1,0.1-0.1,0.1-0.1c0.1,0,0.1,0,0.1,0.1
			c0,0,0,0.1,0,0.1C8,153,4.1,169.1,5.1,192.3c0,0,0,0.1,0,0.2c0,0,0,0-0.1,0c-0.1,0-0.1,0-0.1,0c0,0-0.1,0-0.1-0.1
			C3.9,169,7.7,152.8,16.3,143.9z"/>
	</g>
	<g>
		<path fill-rule="evenodd" clip-rule="evenodd" d="M70.5,83.4c0.1,0.1,0.1,0.1,0,0.2c-0.2,0.2-0.7,0.3-1.6,0.5
			c-1,0.1-2.4,0.2-4.1,0.2c-1.4,0-2.5,0-3.5-0.1c-1.4-0.2-2.2-0.4-2.2-0.6c0-0.1,0-0.1,0.1-0.2c0.2-0.1,0.7-0.3,1.5-0.4
			c1.2-0.2,2.6-0.3,4.1-0.3c1.5,0,2.9,0.1,4.1,0.3C69.8,83,70.4,83.2,70.5,83.4z"/>
	</g>
	<g>
		<linearGradient id="SVGID_25_" gradientUnits="userSpaceOnUse" x1="59.2539" y1="78.8887" x2="70.3539" y2="78.8367">
			<stop  offset="0" style="stop-color:#353434"/>
			<stop  offset="8.627451e-002" style="stop-color:#909092"/>
			<stop  offset="0.2196" style="stop-color:#FFFFFF"/>
			<stop  offset="0.349" style="stop-color:#9999A6"/>
			<stop  offset="0.651" style="stop-color:#FFFFFF"/>
			<stop  offset="0.898" style="stop-color:#575757"/>
			<stop  offset="1" style="stop-color:#0F0F0F"/>
		</linearGradient>
		<path fill-rule="evenodd" clip-rule="evenodd" fill="url(#SVGID_25_)" d="M59.3,73.7c0.1,0.1,0.7,0.3,1.6,0.4c1,0.1,2.3,0.2,4,0.2
			c1.6,0,2.9-0.1,3.9-0.2c0.9-0.1,1.4-0.3,1.5-0.4v9.7c-0.1,0.2-0.6,0.3-1.5,0.5C67.9,84,66.6,84,64.9,84c-1.7,0-3-0.1-4-0.2
			c-0.9-0.2-1.5-0.3-1.6-0.5V73.7z"/>
		<linearGradient id="SVGID_26_" gradientUnits="userSpaceOnUse" x1="59.3027" y1="73.6709" x2="70.3033" y2="73.5322">
			<stop  offset="0" style="stop-color:#BCBCC5"/>
			<stop  offset="1" style="stop-color:#0F0F0F"/>
		</linearGradient>
		<path fill-rule="evenodd" clip-rule="evenodd" fill="url(#SVGID_26_)" d="M70.3,73.7c-0.1,0.2-0.6,0.3-1.5,0.4
			c-1,0.1-2.3,0.2-3.9,0.2c-1.6,0-2.9-0.1-4-0.2c-0.9-0.2-1.5-0.3-1.6-0.4v-0.2c0.1-0.2,0.7-0.3,1.6-0.5c1.2-0.1,2.5-0.2,4-0.2
			c1.4,0,2.7,0.1,3.9,0.2c0.9,0.1,1.4,0.3,1.5,0.5V73.7z"/>
	</g>
	<g>
		
			<linearGradient id="SVGID_27_" gradientUnits="userSpaceOnUse" x1="59.4512" y1="17.6626" x2="68.1035" y2="17.6626" gradientTransform="matrix(1 -8.670195e-003 2.083035e-002 0.9999 2.000406e-004 -2.124757e-004)">
			<stop  offset="0" style="stop-color:#BCBCC5"/>
			<stop  offset="1" style="stop-color:#0F0F0F"/>
		</linearGradient>
		<path fill-rule="evenodd" clip-rule="evenodd" fill="url(#SVGID_27_)" d="M60.5,17.2V17c0.1-0.1,0.5-0.3,1.3-0.3
			c0.9-0.1,1.9-0.2,3.1-0.2c1.1,0,2.2,0.1,3.1,0.2c0.7,0.1,1.1,0.2,1.2,0.3v0.2c-0.1,0.1-0.5,0.2-1.2,0.3c-0.8,0.1-1.8,0.2-3.1,0.2
			s-2.3-0.1-3.1-0.2C61.1,17.5,60.7,17.3,60.5,17.2z"/>
		<linearGradient id="SVGID_28_" gradientUnits="userSpaceOnUse" x1="60.4092" y1="45.5874" x2="69.1342" y2="45.5431">
			<stop  offset="0" style="stop-color:#353434"/>
			<stop  offset="8.627451e-002" style="stop-color:#909092"/>
			<stop  offset="0.2196" style="stop-color:#FFFFFF"/>
			<stop  offset="0.349" style="stop-color:#9999A6"/>
			<stop  offset="0.651" style="stop-color:#FFFFFF"/>
			<stop  offset="0.898" style="stop-color:#575757"/>
			<stop  offset="1" style="stop-color:#0F0F0F"/>
		</linearGradient>
		<path fill-rule="evenodd" clip-rule="evenodd" fill="url(#SVGID_28_)" d="M69.2,17.3v56.2c-0.1,0.1-0.5,0.2-1.2,0.3
			c-0.8,0.1-1.8,0.2-3.1,0.2s-2.3-0.1-3.1-0.2c-0.7-0.1-1.1-0.2-1.3-0.4V17.2c0.1,0.1,0.5,0.3,1.3,0.3c0.8,0.1,1.8,0.2,3.1,0.2
			s2.3-0.1,3.1-0.2C68.7,17.5,69.1,17.4,69.2,17.3z"/>
	</g>
	<g>
		
			<radialGradient id="SVGID_29_" cx="63.6621" cy="74.1631" r="5.6126" gradientTransform="matrix(1 4.454299e-003 2.227149e-003 0.2806 0.4234 53.3548)" gradientUnits="userSpaceOnUse">
			<stop  offset="0" style="stop-color:#FFFFFF"/>
			<stop  offset="0.1765" style="stop-color:#FFFFFF"/>
			<stop  offset="0.3059" style="stop-color:#FFFFFF;stop-opacity:0.4235"/>
			<stop  offset="0.4902" style="stop-color:#FFFFFF;stop-opacity:0.2314"/>
			<stop  offset="0.651" style="stop-color:#FFFFFF;stop-opacity:8.235294e-002"/>
			<stop  offset="1" style="stop-color:#FFFFFF;stop-opacity:0"/>
		</radialGradient>
		<path fill-rule="evenodd" clip-rule="evenodd" fill="url(#SVGID_29_)" d="M59.3,73.7c0.3-0.1,0.6-0.2,1-0.3c1.1-0.3,2.4-0.5,4-0.5
			c1.5,0,2.8,0.2,3.9,0.5c1.1,0.3,1.7,0.6,1.7,1.1c0,0.4-0.5,0.8-1.6,1.1c-1.1,0.3-2.5,0.5-4,0.5s-2.8-0.1-3.9-0.5
			c-0.4-0.1-0.7-0.3-1-0.4V73.7z"/>
	</g>
	<g>
		<linearGradient id="SVGID_30_" gradientUnits="userSpaceOnUse" x1="59.2539" y1="13.7896" x2="70.3539" y2="13.7375">
			<stop  offset="0" style="stop-color:#271808"/>
			<stop  offset="0.1137" style="stop-color:#4A3217"/>
			<stop  offset="0.3098" style="stop-color:#6D4A2E"/>
			<stop  offset="0.5882" style="stop-color:#201203"/>
			<stop  offset="0.8549" style="stop-color:#4A5810"/>
			<stop  offset="1" style="stop-color:#5D3A13"/>
		</linearGradient>
		<path fill-rule="evenodd" clip-rule="evenodd" fill="url(#SVGID_30_)" d="M59.3,8.6C59.5,8.8,60,8.9,61,9c1,0.1,2.3,0.2,4,0.2
			c1.6,0,2.9-0.1,3.9-0.2c0.9-0.1,1.4-0.3,1.5-0.4v9.7c-0.1,0.2-0.6,0.3-1.5,0.5c-0.9,0.1-2.2,0.2-3.9,0.2c-1.7,0-3-0.1-4-0.2
			s-1.5-0.3-1.6-0.5V8.6z"/>
		
			<linearGradient id="SVGID_31_" gradientUnits="userSpaceOnUse" x1="39.7017" y1="-8.314" x2="54.4126" y2="-8.314" gradientTransform="matrix(0.967 0.2549 -0.2397 0.971 3.761053e-005 5.204678e-004)">
			<stop  offset="0" style="stop-color:#271808"/>
			<stop  offset="0.4745" style="stop-color:#83982C"/>
			<stop  offset="0.7843" style="stop-color:#8A5A24"/>
		</linearGradient>
		<path fill-rule="evenodd" clip-rule="evenodd" fill="url(#SVGID_31_)" d="M70.3,8.6c-0.1,0.2-0.6,0.3-1.5,0.4
			c-1,0.1-2.3,0.2-3.9,0.2c-1.6,0-2.9-0.1-4-0.2c-0.9-0.1-1.5-0.3-1.6-0.4V8.4C59.5,8.2,60,8.1,61,8c1.2-0.1,2.5-0.2,4-0.2
			c1.4,0,2.7,0.1,3.9,0.2c0.9,0.1,1.4,0.3,1.5,0.4V8.6z"/>
	</g>
	<g>
		
			<linearGradient id="SVGID_32_" gradientUnits="userSpaceOnUse" x1="37.6489" y1="-14.8457" x2="54.98" y2="-14.8457" gradientTransform="matrix(0.9665 0.2568 -0.2409 0.9707 -1.150370e-004 -2.710819e-004)">
			<stop  offset="0" style="stop-color:#271808"/>
			<stop  offset="0.4745" style="stop-color:#83982C"/>
			<stop  offset="0.7843" style="stop-color:#8A5A24"/>
		</linearGradient>
		<path fill-rule="evenodd" clip-rule="evenodd" fill="url(#SVGID_32_)" d="M71.8,2c-0.2,0.2-0.8,0.4-2,0.5
			c-1.3,0.2-2.9,0.3-4.8,0.3c-2.1,0-3.7-0.1-5-0.3c-0.1,0-0.1,0-0.2,0C58.8,2.4,58.2,2.2,58,2V1.8c0.2-0.2,0.8-0.4,2-0.6
			C61.4,1,63.1,1,65,1c1.8,0,3.4,0.1,4.8,0.3c1.1,0.2,1.8,0.3,2,0.5V2z M60.9,1.7C61,1.8,61.4,2,62.1,2c0.6,0.1,1.3,0.1,2.1,0.1h1
			c0,0,0.1,0,0.1,0c0.2,0,0.5,0,0.7,0h0.8c0.5,0,1-0.1,1.4-0.1c0.7-0.1,1.1-0.2,1.2-0.3V1.6c-0.1-0.1-0.5-0.2-1.2-0.3
			c-0.5-0.1-1-0.1-1.5-0.1l-0.8,0c-0.2,0-0.5,0-0.7,0c0,0-0.1,0-0.1,0h-0.7c-0.9,0-1.7,0-2.5,0.1c-0.7,0.1-1.1,0.1-1.2,0.3V1.7z"/>
		<linearGradient id="SVGID_33_" gradientUnits="userSpaceOnUse" x1="57.8271" y1="8.5186" x2="71.7522" y2="8.4501">
			<stop  offset="0" style="stop-color:#271808"/>
			<stop  offset="0.1451" style="stop-color:#AE7B44"/>
			<stop  offset="0.349" style="stop-color:#6D4A2E"/>
			<stop  offset="0.5882" style="stop-color:#492A0B"/>
			<stop  offset="0.8549" style="stop-color:#83982C"/>
			<stop  offset="1" style="stop-color:#8A5A24"/>
		</linearGradient>
		<path fill-rule="evenodd" clip-rule="evenodd" fill="url(#SVGID_33_)" d="M58,2c0.2,0.1,0.8,0.3,1.8,0.5c0,0,0.1,0,0.2,0
			c1.2,0.2,2.9,0.3,5,0.3c2,0,3.6-0.1,4.8-0.3c1.1-0.1,1.8-0.3,2-0.5v12.1c-0.2,0.2-0.8,0.4-2,0.6C68.6,14.9,67,15,65,15
			c-2.2,0-3.8-0.1-5-0.3c-0.1,0-0.1,0-0.2,0c-1.1-0.2-1.7-0.4-1.8-0.6V2z"/>
		<linearGradient id="SVGID_34_" gradientUnits="userSpaceOnUse" x1="41.5479" y1="1.9316" x2="49.6727" y2="1.8449">
			<stop  offset="0" style="stop-color:#000000"/>
			<stop  offset="0.3922" style="stop-color:#3C2F22"/>
			<stop  offset="0.7176" style="stop-color:#563917"/>
			<stop  offset="1" style="stop-color:#2A1907"/>
		</linearGradient>
		<path fill-rule="evenodd" clip-rule="evenodd" fill="url(#SVGID_34_)" d="M60.9,1.7V1.6c0.1-0.1,0.5-0.2,1.2-0.3
			c0.7-0.1,1.6-0.1,2.5-0.1h0.7c0,0,0.1,0,0.1,0c0.2,0,0.4,0,0.7,0l0.8,0c0.5,0,1,0,1.5,0.1c0.7,0.1,1.1,0.1,1.2,0.3v0.1
			C69.3,1.9,68.8,2,68.2,2c-0.4,0-0.9,0.1-1.4,0.1H66c-0.2,0-0.5,0-0.7,0c0,0-0.1,0-0.1,0h-1c-0.8,0-1.5,0-2.1-0.1
			C61.4,2,61,1.8,60.9,1.7z"/>
	</g>
	<g>
		
			<radialGradient id="SVGID_35_" cx="63.8945" cy="3.2983" r="5.4124" gradientTransform="matrix(1 -6.928240e-003 3.233178e-002 0.1755 0.5006 2.7151)" gradientUnits="userSpaceOnUse">
			<stop  offset="0" style="stop-color:#FFFFFF"/>
			<stop  offset="0.1765" style="stop-color:#FFFFFF"/>
			<stop  offset="0.3059" style="stop-color:#FFFFFF;stop-opacity:0.4235"/>
			<stop  offset="0.4902" style="stop-color:#FFFFFF;stop-opacity:0.2314"/>
			<stop  offset="0.651" style="stop-color:#FFFFFF;stop-opacity:8.235294e-002"/>
			<stop  offset="1" style="stop-color:#FFFFFF;stop-opacity:0"/>
		</radialGradient>
		<path fill-rule="evenodd" clip-rule="evenodd" fill="url(#SVGID_35_)" d="M61,3.5c-1.1-0.2-1.6-0.4-1.6-0.6
			c-0.1-0.3,0.4-0.5,1.4-0.6c1-0.2,2.3-0.3,3.7-0.4c1.4,0,2.7,0.1,3.8,0.3c1.1,0.2,1.7,0.4,1.8,0.6c0,0.3-0.5,0.5-1.6,0.7
			c-1,0.2-2.3,0.3-3.7,0.3C63.3,3.8,62,3.7,61,3.5z"/>
	</g>
	<g>
		
			<radialGradient id="SVGID_36_" cx="57.3574" cy="96.2837" r="2.0375" gradientTransform="matrix(1 6.134854e-003 6.134854e-003 0.2822 1.5028 69.1265)" gradientUnits="userSpaceOnUse">
			<stop  offset="0" style="stop-color:#FFFFFF"/>
			<stop  offset="0.1765" style="stop-color:#FFFFFF"/>
			<stop  offset="0.3059" style="stop-color:#FFFFFF;stop-opacity:0.4235"/>
			<stop  offset="0.4902" style="stop-color:#FFFFFF;stop-opacity:0.2314"/>
			<stop  offset="0.651" style="stop-color:#FFFFFF;stop-opacity:8.235294e-002"/>
			<stop  offset="1" style="stop-color:#FFFFFF;stop-opacity:0"/>
		</radialGradient>
		<path fill-rule="evenodd" clip-rule="evenodd" fill="url(#SVGID_36_)" d="M59.5,97.3c-0.6,0-1-0.1-1.5-0.2
			c-0.4-0.1-0.5-0.2-0.5-0.4c0-0.1,0.2-0.3,0.5-0.4c0.4-0.1,0.9-0.1,1.5-0.1c0.5,0,1,0.1,1.4,0.1c0.4,0.1,0.6,0.2,0.6,0.4
			c0,0.2-0.2,0.3-0.6,0.3C60.5,97.2,60,97.3,59.5,97.3z"/>
	</g>
	<g>
		
			<radialGradient id="SVGID_37_" cx="56.5557" cy="96.6851" r="12.9875" gradientTransform="matrix(1 9.624634e-004 2.887390e-003 2.598651e-002 10.4644 94.1831)" gradientUnits="userSpaceOnUse">
			<stop  offset="0" style="stop-color:#FFFFFF"/>
			<stop  offset="0.1765" style="stop-color:#FFFFFF"/>
			<stop  offset="0.3059" style="stop-color:#FFFFFF;stop-opacity:0.4235"/>
			<stop  offset="0.4902" style="stop-color:#FFFFFF;stop-opacity:0.2314"/>
			<stop  offset="0.651" style="stop-color:#FFFFFF;stop-opacity:8.235294e-002"/>
			<stop  offset="1" style="stop-color:#FFFFFF;stop-opacity:0"/>
		</radialGradient>
		<path fill-rule="evenodd" clip-rule="evenodd" fill="url(#SVGID_37_)" d="M67.3,97c-2.8,0-5.3,0-7.6,0v-0.5
			c2.2-0.1,4.8-0.1,7.6-0.1c3.5,0,6.5,0.1,9,0.1c0.2,0,0.5,0,0.7,0V97c-0.2,0-0.3,0-0.5,0C73.8,97,70.8,97,67.3,97z"/>
	</g>
	<g>
		
			<radialGradient id="SVGID_38_" cx="71.1025" cy="78.8574" r="9.9654" gradientTransform="matrix(0.9683 0.2496 -6.271670e-003 3.512135e-002 -13.4075 75.0823)" gradientUnits="userSpaceOnUse">
			<stop  offset="0" style="stop-color:#FFFFFF;stop-opacity:0.498"/>
			<stop  offset="0.1765" style="stop-color:#FFFFFF;stop-opacity:0.498"/>
			<stop  offset="0.1804" style="stop-color:#FFFFFF;stop-opacity:0.498"/>
			<stop  offset="0.3059" style="stop-color:#FFFFFF;stop-opacity:0.2392"/>
			<stop  offset="0.4902" style="stop-color:#FFFFFF;stop-opacity:8.627451e-002"/>
			<stop  offset="0.651" style="stop-color:#FFFFFF;stop-opacity:2.745098e-002"/>
			<stop  offset="1" style="stop-color:#FFFFFF;stop-opacity:0"/>
		</radialGradient>
		<path fill-rule="evenodd" clip-rule="evenodd" fill="url(#SVGID_38_)" d="M51.4,95v-0.7c1.1,0.3,2.3,0.6,3.6,0.9
			c1.7,0.4,3.2,0.9,4.6,1.3v0.6c-1.4-0.3-3-0.7-4.8-1.2C53.6,95.6,52.5,95.3,51.4,95z"/>
	</g>
	<g>
		
			<radialGradient id="SVGID_39_" cx="20.5771" cy="101.6147" r="0.9056" gradientTransform="matrix(0.9386 -0.3451 1.0352 2.4293 -65.3047 -153.2486)" gradientUnits="userSpaceOnUse">
			<stop  offset="0" style="stop-color:#FFFFFF"/>
			<stop  offset="0.1765" style="stop-color:#FFFFFF"/>
			<stop  offset="0.3059" style="stop-color:#FFFFFF;stop-opacity:0.4235"/>
			<stop  offset="0.4902" style="stop-color:#FFFFFF;stop-opacity:0.2314"/>
			<stop  offset="0.651" style="stop-color:#FFFFFF;stop-opacity:8.235294e-002"/>
			<stop  offset="1" style="stop-color:#FFFFFF;stop-opacity:0"/>
		</radialGradient>
		<path fill-rule="evenodd" clip-rule="evenodd" fill="url(#SVGID_39_)" d="M60,86.2c0.3,0.6,0.4,1.1,0.5,1.6c0,0.4-0.1,0.7-0.4,0.9
			c-0.2,0.1-0.5-0.1-0.9-0.5c-0.3-0.4-0.6-0.9-0.9-1.5c-0.3-0.6-0.4-1.1-0.4-1.6c0-0.5,0.1-0.7,0.3-0.8c0.2-0.1,0.5,0,0.9,0.4
			C59.5,85.1,59.8,85.6,60,86.2z"/>
	</g>
	<g>
		
			<radialGradient id="SVGID_40_" cx="65.5996" cy="84.0498" r="0.9139" gradientTransform="matrix(5.374221e-002 0.9986 -3.3646 0.1811 344.8716 3.3248)" gradientUnits="userSpaceOnUse">
			<stop  offset="0" style="stop-color:#FFFFFF"/>
			<stop  offset="0.1765" style="stop-color:#FFFFFF"/>
			<stop  offset="0.3059" style="stop-color:#FFFFFF;stop-opacity:0.4235"/>
			<stop  offset="0.4902" style="stop-color:#FFFFFF;stop-opacity:0.2314"/>
			<stop  offset="0.651" style="stop-color:#FFFFFF;stop-opacity:8.235294e-002"/>
			<stop  offset="1" style="stop-color:#FFFFFF;stop-opacity:0"/>
		</radialGradient>
		<path fill-rule="evenodd" clip-rule="evenodd" fill="url(#SVGID_40_)" d="M63.5,84.8c-0.6-0.2-0.9-0.4-1-0.6c0-0.2,0.3-0.5,1-0.7
			c0.5-0.2,1.2-0.3,2.1-0.4c0.8,0,1.5,0,2.1,0.1c0.6,0.2,0.9,0.4,0.9,0.6c0.1,0.2-0.2,0.4-0.8,0.6c-0.6,0.3-1.3,0.4-2.2,0.5
			C64.8,85,64,84.9,63.5,84.8z"/>
	</g>
	<g>
		<path fill-rule="evenodd" clip-rule="evenodd" fill-opacity="0.2471" d="M52.1,93.9c0.1,0,0.2-0.5,0.3-1.6h3.1
			c-0.2,2.1-0.4,3.2-0.5,3.3c-0.2,0.2-0.8,0.5-1.8,0.7c-1,0.2-1.5,0.3-1.5,0.3h-0.1c-0.6,0.2-1.2,0.4-1.8,0.6v4.4l-8.5,1.8
			c-0.5,1.3-0.5,3.4,0,6.4c0,0,0,0.1,0,0.1c1.1,4.5,1,8.5-0.1,12.2c-1.1,6.2-5.6,11.2-13.6,15h-2.1v-1.8c0,0,0.1-0.1,0.1-0.1
			c7.3-3.3,11.5-7.7,12.5-13.1c0-0.1,0-0.1,0-0.2c1.1-3.3,1.1-7.1,0.1-11.2v-0.1c-0.6-3.3-0.5-6,0.2-8.3l0.1,0.1l8.8-2l0.1-5
			c1.5-0.6,3-1.1,4.4-1.4C51.9,94,51.9,93.9,52.1,93.9L52.1,93.9z"/>
	</g>
</g>
</svg>
