<?xml version="1.0" encoding="utf-8"?>
<!-- Generator: Adobe Illustrator 16.0.0, SVG Export Plug-In . SVG Version: 6.00 Build 0)  -->
<!DOCTYPE svg PUBLIC "-//W3C//DTD SVG 1.1//EN" "http://www.w3.org/Graphics/SVG/1.1/DTD/svg11.dtd">
<svg version="1.1" id="Layer_1" xmlns="http://www.w3.org/2000/svg" xmlns:xlink="http://www.w3.org/1999/xlink" x="0px" y="0px"
	 width="174px" height="174px" viewBox="0 0 174 174" enable-background="new 0 0 174 174" xml:space="preserve">
<g>
	<g>
		<radialGradient id="SVGID_1_" cx="87.4746" cy="87.9746" r="94.0381" gradientUnits="userSpaceOnUse">
			<stop  offset="0" style="stop-color:#61C8F3"/>
			<stop  offset="1" style="stop-color:#0C739E"/>
		</radialGradient>
		<path fill-rule="evenodd" clip-rule="evenodd" fill="url(#SVGID_1_)" d="M87.5,162.3c-20.6,0-38.1-7.3-52.6-21.8
			C20.4,126.1,13.1,108.5,13.1,88c0-20.5,7.3-38.1,21.8-52.6c14.5-14.5,32.1-21.8,52.6-21.8c20.5,0,38.1,7.3,52.6,21.8
			c14.5,14.5,21.8,32.1,21.8,52.6c0,20.6-7.3,38.1-21.8,52.6C125.6,155.1,108,162.3,87.5,162.3z"/>
	</g>
	<g>
		
			<line fill-rule="evenodd" clip-rule="evenodd" fill="none" stroke="#333333" stroke-width="3" stroke-linecap="round" stroke-linejoin="round" stroke-miterlimit="3" x1="87.5" y1="30.6" x2="87.5" y2="23.4"/>
	</g>
	<g>
		
			<line fill-rule="evenodd" clip-rule="evenodd" fill="none" stroke="#333333" stroke-width="3" stroke-linecap="round" stroke-linejoin="round" stroke-miterlimit="3" x1="144.3" y1="87.9" x2="152" y2="87.9"/>
	</g>
	<g>
		
			<line fill-rule="evenodd" clip-rule="evenodd" fill="none" stroke="#333333" stroke-width="3" stroke-linecap="round" stroke-linejoin="round" stroke-miterlimit="3" x1="87.5" y1="152.2" x2="87.5" y2="144.4"/>
	</g>
	<g>
		
			<line fill-rule="evenodd" clip-rule="evenodd" fill="none" stroke="#333333" stroke-width="3" stroke-linecap="round" stroke-linejoin="round" stroke-miterlimit="3" x1="23.4" y1="87.9" x2="30.6" y2="87.9"/>
	</g>
	<g>
		<path fill-rule="evenodd" clip-rule="evenodd" d="M92.3,8c12.9,0.7,24.7,4.1,35.3,10.4c1.7,1,3.3,2,5,3.2c4,2.8,7.9,6,11.6,9.7
			c12,12,19.4,26,22.2,41.9c0.8,4.7,1.3,9.6,1.3,14.7c0,1.6,0,3.2-0.1,4.8c-1,20.1-8.8,37.4-23.3,51.9c-2.6,2.6-5.3,5-8.1,7.2
			c-2.9,2.2-5.8,4.3-9,6c-11.8,6.8-25,10.2-39.5,10.2c-14.3,0-27.3-3.3-38.9-9.8c-3.2-1.8-6.2-3.8-9.1-6c-3-2.3-5.8-4.8-8.6-7.6
			C15.3,129,7.5,110.1,7.5,88c0-22.1,7.8-41,23.4-56.6c5.1-5,10.5-9.3,16.2-12.7c1.5-0.9,3.1-1.8,4.7-2.5C61.8,11,73,8.3,85.1,8
			c0.4,0,0.9,0,1.3,0c0.4,0,0.7-0.1,1.1-0.1C89.1,7.9,90.7,8,92.3,8z M157.6,88c0-5.1-0.5-10-1.4-14.7c-2.6-13.2-9-24.8-19.1-34.9
			c-13.7-13.7-30.2-20.5-49.5-20.5c-19.4,0-35.9,6.8-49.6,20.5C24.2,52,17.4,68.6,17.4,88c0,19.4,6.9,35.9,20.5,49.6
			C51.6,151.2,68.1,158,87.5,158c19.4,0,35.9-6.8,49.5-20.5c12.6-12.6,19.4-27.5,20.4-44.8C157.5,91.1,157.6,89.5,157.6,88z"/>
	</g>
	<g>
		<path fill-rule="evenodd" clip-rule="evenodd" fill="#FFFFFF" d="M74.9,10.5c46-3.4,74.6,15.1,85.6,55.3
			C149.6,29.1,121.1,10.7,74.9,10.5z"/>
	</g>
	<g>
		<path fill-rule="evenodd" clip-rule="evenodd" fill="#FFFFFF" d="M9.2,76.4C16.8,38,39.9,15.7,78.5,9.5
			C40.8,16.6,17.7,38.9,9.2,76.4z"/>
	</g>
	<g>
		<path fill-rule="evenodd" clip-rule="evenodd" fill="#FFFFFF" d="M15.2,108.4c13.3,36.7,40.3,54.7,80.8,53.9
			C54.1,164.7,27.2,146.7,15.2,108.4z"/>
	</g>
	<g>
		<path fill-rule="evenodd" clip-rule="evenodd" fill="#FFFFFF" d="M159.9,92.7c-5.6,38.5-27.6,60.9-66.2,67
			C131.4,152.5,153.4,130.2,159.9,92.7z"/>
	</g>
	<g>
		<path fill-rule="evenodd" clip-rule="evenodd" d="M11.6,113c3.8,11,10.2,21,19.1,29.9c1.4,1.4,2.8,2.7,4.3,4
			c1.4,1.2,2.9,2.4,4.4,3.5c2.9,2.3,6,4.3,9.1,6.1c1.4,0.8,2.9,1.6,4.4,2.3c10.5,5,22,7.5,34.5,7.5c14.3,0,27.3-3.3,38.9-9.8
			c0.2-0.2,0.5-0.3,0.7-0.4c3.1-1.8,6.1-3.8,9-6.1c2.5-1.9,4.9-4,7.3-6.3c0.3-0.3,0.5-0.5,0.8-0.8c12.3-12.3,19.8-26.7,22.4-43.1
			c0.1-0.4,0.3-0.9,0.4-1.3c-0.1,0.5-0.1,0.9-0.1,1.4c-2.3,16.7-9.6,31.3-21.8,43.8c-0.3,0.3-0.6,0.6-0.8,0.9
			c-2.4,2.3-4.8,4.5-7.3,6.5c-0.3,0.2-0.5,0.4-0.8,0.7c-2.6,2.1-5.4,3.9-8.2,5.6c-0.3,0.1-0.5,0.3-0.8,0.5
			c-11.8,6.8-25,10.2-39.5,10.2c-12.8,0-24.6-2.6-35.2-7.8c-1.2-0.6-2.5-1.3-3.7-2c-3.2-1.8-6.2-3.8-9.1-6c-0.3-0.2-0.5-0.5-0.8-0.7
			c-1.5-1.2-3-2.4-4.4-3.7c-1.1-1-2.3-2.1-3.4-3.2c-0.3-0.3-0.5-0.6-0.9-0.9c-8.8-9.1-15.1-19.2-18.8-30.5c-0.2-0.8-0.5-1.7-0.7-2.5
			C10.9,111.6,11.3,112.3,11.6,113z"/>
		<path fill-rule="evenodd" clip-rule="evenodd" fill="#464646" d="M11.6,113c19.1,33.9,44.5,51.1,76.1,51.8
			c39-1.1,65.2-22.8,78.6-65c-2.6,16.4-10.1,30.7-22.4,43.1c-0.3,0.3-0.5,0.5-0.8,0.8c-2.4,2.3-4.8,4.4-7.3,6.3
			c-2.9,2.3-5.9,4.3-9,6.1c-0.2,0.1-0.4,0.2-0.7,0.4c-11.6,6.5-24.6,9.8-38.9,9.8c-12.5,0-24-2.5-34.5-7.5c-1.5-0.7-3-1.5-4.4-2.3
			c-3.2-1.8-6.2-3.8-9.1-6.1c-1.5-1.1-2.9-2.3-4.4-3.5c-1.4-1.3-2.9-2.6-4.3-4C21.9,134,15.5,124,11.6,113z"/>
	</g>
	<g>
		<radialGradient id="SVGID_2_" cx="94.0996" cy="14.5" r="126.55" gradientUnits="userSpaceOnUse">
			<stop  offset="0" style="stop-color:#FFFFFF;stop-opacity:0.298"/>
			<stop  offset="1" style="stop-color:#FFFFFF;stop-opacity:0"/>
		</radialGradient>
		<path fill-rule="evenodd" clip-rule="evenodd" fill="url(#SVGID_2_)" d="M153,87c-16.1,13.9-35,20.8-56.9,20.8
			c-24.3,0-45.1-8.6-62.3-25.8c-3.9-3.9-7.4-8-10.4-12.2c2.6-12,8.5-22.6,17.7-31.8C54,25.3,69.5,18.9,87.5,18.9
			c18.1,0,33.6,6.4,46.4,19.1c12.8,12.8,19.2,28.3,19.2,46.4C153.1,85.3,153.1,86.2,153,87z"/>
	</g>
</g>
</svg>
