<?xml version="1.0" encoding="utf-8"?>
<!-- Generator: Adobe Illustrator 16.0.0, SVG Export Plug-In . SVG Version: 6.00 Build 0)  -->
<!DOCTYPE svg PUBLIC "-//W3C//DTD SVG 1.1//EN" "http://www.w3.org/Graphics/SVG/1.1/DTD/svg11.dtd">
<svg version="1.1" id="Layer_1" xmlns="http://www.w3.org/2000/svg" xmlns:xlink="http://www.w3.org/1999/xlink" x="0px" y="0px"
	 width="131.5px" height="131.8px" viewBox="0 0 131.5 131.8" enable-background="new 0 0 131.5 131.8" xml:space="preserve">
<g id="Layer_1_1_">
	<g>
		<path d="M66.9,69.2c0.2,0,0.4-0.1,0.6-0.3c0.3-0.2,0.7-0.4,1-0.7c0.2-0.2,0.3-0.4,0.5-0.6c0.5-0.9,0.7-1.9,0.4-2.9
			c-0.3-1-0.9-1.7-1.8-2.2c-0.6-0.4-1.3-0.6-2-0.6c-0.2,0-0.4,0.1-0.6,0.2c-0.3,0.1-0.5,0.2-0.8,0.3c-0.6,0.3-1.1,0.8-1.5,1.4
			c-0.5,0.9-0.6,1.8-0.3,2.8c0.3,1,0.8,1.8,1.7,2.3l0,0C65,69.3,65.9,69.4,66.9,69.2z M69.2,69c-0.9,0.9-2,1.4-3.4,1.4
			c-1.2,0-2.3-0.5-3.2-1.4c-0.9-0.9-1.4-2-1.4-3.3c0-1.3,0.5-2.4,1.3-3.3c0.9-0.9,2-1.4,3.3-1.4s2.3,0.5,3.3,1.4
			c0.9,0.9,1.4,2,1.4,3.3C70.5,67,70,68.1,69.2,69z M70.8,65.7c0-1.3-0.5-2.5-1.4-3.5c-1-1-2.1-1.5-3.5-1.5c-1.3,0-2.5,0.5-3.5,1.5
			s-1.5,2.1-1.5,3.5c0,1.4,0.5,2.5,1.5,3.5s2.1,1.5,3.4,1.5c1.4,0,2.6-0.4,3.6-1.4C70.3,68.2,70.8,67.1,70.8,65.7z M71.6,65.6
			c0,1.6-0.6,3-1.7,4.1c-1.1,1.1-2.5,1.7-4,1.7c-1.6,0-2.9-0.5-4.1-1.7c-0.7-0.7-1.1-1.4-1.4-2.3L48.6,69L9.9,66.7
			c-0.6-0.6-0.6-1.1,0-1.6L49,62.7L60.3,64c0.3-0.9,0.7-1.7,1.4-2.3c1.1-1.1,2.5-1.7,4-1.7c1.6,0,3,0.6,4.1,1.7
			C71,62.7,71.6,64,71.6,65.6z"/>
		
			<radialGradient id="SVGID_1_" cx="-1108.3945" cy="177.52" r="3.2502" gradientTransform="matrix(-1.153769e-002 -0.9999 -0.9999 -1.538359e-004 230.511 -1042.4749)" gradientUnits="userSpaceOnUse">
			<stop  offset="0" style="stop-color:#A6A6A6"/>
			<stop  offset="1" style="stop-color:#000000"/>
		</radialGradient>
		<path fill="url(#SVGID_1_)" d="M66.9,69.2c-1,0.3-1.9,0.2-2.8-0.3l0,0c-0.9-0.5-1.4-1.3-1.7-2.3c-0.3-1-0.2-1.9,0.3-2.8
			c0.4-0.6,0.9-1.1,1.5-1.4c0.2-0.1,0.5-0.2,0.8-0.3c0.2-0.1,0.4-0.1,0.6-0.2c0.7,0,1.4,0.2,2,0.6c0.9,0.5,1.5,1.2,1.8,2.2
			c0.3,1,0.1,2-0.4,2.9c-0.1,0.2-0.3,0.5-0.5,0.6c-0.3,0.3-0.6,0.5-1,0.7C67.3,69,67.1,69.1,66.9,69.2z"/>
		<path fill="#333333" d="M70.8,65.7c0,1.4-0.5,2.5-1.4,3.5c-1,1-2.2,1.4-3.6,1.4c-1.3,0-2.5-0.5-3.4-1.5c-1-1-1.5-2.1-1.5-3.5
			c0-1.4,0.5-2.5,1.5-3.5s2.2-1.5,3.5-1.5c1.4,0,2.5,0.5,3.5,1.5C70.3,63.2,70.8,64.4,70.8,65.7z M69.2,69c0.9-0.9,1.3-2,1.3-3.3
			c0-1.3-0.5-2.4-1.4-3.3c-0.9-0.9-2-1.4-3.3-1.4s-2.4,0.5-3.3,1.4s-1.3,2-1.3,3.3c0,1.3,0.5,2.4,1.4,3.3c0.9,0.9,2,1.4,3.2,1.4
			C67.1,70.4,68.2,69.9,69.2,69z"/>
	</g>
</g>
</svg>
