<?xml version="1.0" encoding="utf-8"?>
<!-- Generator: Adobe Illustrator 16.0.0, SVG Export Plug-In . SVG Version: 6.00 Build 0)  -->
<!DOCTYPE svg PUBLIC "-//W3C//DTD SVG 1.1//EN" "http://www.w3.org/Graphics/SVG/1.1/DTD/svg11.dtd">
<svg version="1.1" id="Layer_1" xmlns="http://www.w3.org/2000/svg" xmlns:xlink="http://www.w3.org/1999/xlink" x="0px" y="0px"
	 width="8.8px" height="16.2px" viewBox="0 0 8.8 16.2" enable-background="new 0 0 8.8 16.2" xml:space="preserve">
<g>
	<path fill-rule="evenodd" clip-rule="evenodd" fill="#FFFFFF" d="M3.2,5.3c0.3-1,0.6-2.5,0.7-4.4l0.3,1.6c0.6,2.7,1.4,4.7,2.5,6
		c0.7,0.8,1,1.6,1.1,2.6C7.9,12.1,7.6,13,7,13.8C6.2,14.6,5.4,15,4.5,15c-0.9,0-1.8-0.4-2.7-1.1c-0.7-0.6-1-1.4-1-2.4
		c0-0.9,0.3-1.8,0.9-2.6C2.3,7.7,2.8,6.5,3.2,5.3z M4,3.5C3.9,4.1,3.8,4.7,3.5,5.4C3.2,6.7,2.7,7.9,2,8.9c-0.5,0.8-0.8,1.7-0.8,2.5
		C1.1,12.3,1.4,13,2,13.5c0.8,0.7,1.6,1.1,2.5,1.1c0.8,0,1.6-0.4,2.3-1.1v0.1c0.6-0.7,0.8-1.5,0.7-2.4c-0.1-0.9-0.4-1.7-1-2.4
		C5.4,7.6,4.6,5.8,4,3.5z M5.3,10.5c0.4,0,0.8,0.1,1,0.4c0.3,0.3,0.5,0.7,0.5,1.1c0,0.4-0.2,0.7-0.5,1c-0.2,0.3-0.6,0.5-1,0.5
		c-0.4,0-0.8-0.2-1-0.5c-0.2-0.3-0.4-0.6-0.4-1c0-0.4,0.1-0.8,0.4-1.1C4.5,10.6,4.8,10.5,5.3,10.5z M5.3,9.7C4,9,3.6,7.9,4.3,6.5
		C5.5,8.2,5.8,9.3,5.3,9.7z"/>
	<path fill-rule="evenodd" clip-rule="evenodd" fill="#FFFFFF" fill-opacity="0.3137" d="M4,3.5c0.6,2.3,1.4,4,2.5,5.3
		c0.6,0.7,0.9,1.5,1,2.4c0.1,0.9-0.1,1.7-0.7,2.4v-0.1c-0.7,0.7-1.5,1.1-2.3,1.1c-0.8,0-1.7-0.4-2.5-1.1c-0.6-0.5-0.9-1.2-0.8-2.1
		c0-0.8,0.3-1.7,0.8-2.5c0.7-1,1.2-2.2,1.5-3.5C3.8,4.7,3.9,4.1,4,3.5z M5.3,9.7c0.5-0.4,0.2-1.5-1-3.3C3.6,7.9,4,9,5.3,9.7z
		 M5.3,10.5c-0.4,0-0.8,0.1-1,0.4c-0.3,0.3-0.4,0.7-0.4,1.1c0,0.4,0.1,0.7,0.4,1c0.3,0.3,0.6,0.5,1,0.5c0.4,0,0.8-0.2,1-0.5
		c0.3-0.3,0.5-0.6,0.5-1c0-0.4-0.2-0.8-0.5-1.1C6,10.6,5.7,10.5,5.3,10.5z"/>
</g>
</svg>
