<?xml version="1.0" encoding="utf-8"?>
<!-- Generator: Adobe Illustrator 16.0.0, SVG Export Plug-In . SVG Version: 6.00 Build 0)  -->
<!DOCTYPE svg PUBLIC "-//W3C//DTD SVG 1.1//EN" "http://www.w3.org/Graphics/SVG/1.1/DTD/svg11.dtd">
<svg version="1.1" id="Layer_1" xmlns="http://www.w3.org/2000/svg" xmlns:xlink="http://www.w3.org/1999/xlink" x="0px" y="0px"
	 width="18px" height="86px" viewBox="0 0 18 86" enable-background="new 0 0 18 86" xml:space="preserve">
<g>
	
		<radialGradient id="SVGID_1_" cx="6.0498" cy="7.1001" r="15.3628" gradientTransform="matrix(1 6.518248e-003 -8.125271e-003 1.2465 5.781841e-002 -1.7897)" gradientUnits="userSpaceOnUse">
		<stop  offset="0" style="stop-color:#2375A6"/>
		<stop  offset="0.2431" style="stop-color:#1B628C"/>
		<stop  offset="0.4784" style="stop-color:#185A81"/>
		<stop  offset="0.7765" style="stop-color:#155074"/>
		<stop  offset="1" style="stop-color:#0F3D58"/>
	</radialGradient>
	<path fill-rule="evenodd" clip-rule="evenodd" fill="url(#SVGID_1_)" d="M15.3,26.2C10.9,26.8,7,26.8,3.5,26
		c0.3-0.2,0.5-0.4,0.7-0.8c0.2-0.8-0.4-3.5-1.9-8.1c-0.3-0.9-0.5-1.8-0.7-2.6c-2-6.1-0.8-10.4,3.5-12.9C5.8,1.3,6.5,1,7.4,0.9
		c4.1-0.4,6.9,0.8,8.5,3.7c1.3,2.3,1.7,5.1,1.1,8.5c-0.1,0.5-0.3,1.2-0.6,1.9c-0.2,0.9-0.5,1.6-0.8,2.2c-1,2.4-1.5,5-1.4,7.9
		C14.4,25.5,14.8,25.9,15.3,26.2z"/>
	<linearGradient id="SVGID_2_" gradientUnits="userSpaceOnUse" x1="5.2002" y1="56.5879" x2="13.0002" y2="56.6401">
		<stop  offset="0" style="stop-color:#B2B2B4"/>
		<stop  offset="0.1255" style="stop-color:#B3B3B5;stop-opacity:0.498"/>
		<stop  offset="0.2275" style="stop-color:#FFFFFF;stop-opacity:0"/>
		<stop  offset="0.3059" style="stop-color:#FFFFFF;stop-opacity:0.7804"/>
		<stop  offset="0.3608" style="stop-color:#E6E6E6;stop-opacity:0.498"/>
		<stop  offset="0.4275" style="stop-color:#C7C7C7;stop-opacity:0.298"/>
		<stop  offset="0.4941" style="stop-color:#D0D0D0;stop-opacity:0.4706"/>
		<stop  offset="0.6784" style="stop-color:#E2E2E2;stop-opacity:0.4235"/>
		<stop  offset="0.8235" style="stop-color:#F3F3F3;stop-opacity:0.4824"/>
		<stop  offset="1" style="stop-color:#CACACA;stop-opacity:0.6627"/>
	</linearGradient>
	<path fill-rule="evenodd" clip-rule="evenodd" fill="url(#SVGID_2_)" d="M12.7,28L12.7,28l-0.3,50c-0.6,2.9-1.1,4.8-1.4,5.7
		c-0.4,0.8-0.6,1.3-0.7,1.4c-1,0.3-2,0.3-2.9,0c-0.1-0.2-0.2-0.4-0.3-0.6c-0.7-2-1.3-4.1-1.7-6.5l0.4-50v0c0.3,0,0.5,0,0.8,0
		c0.2,0,0.3,0,0.4,0c0.3,0,0.6,0.1,0.9,0.1c0.1,0,0.1,0,0.2,0l1.1,0c0,0,0.1,0,0.1,0l1.3,0c0.6,0,1.1-0.1,1.7-0.1c0.1,0,0.3,0,0.3,0
		C12.6,28,12.7,28,12.7,28z"/>
	<linearGradient id="SVGID_3_" gradientUnits="userSpaceOnUse" x1="3.1001" y1="27.3872" x2="15.3004" y2="27.4372">
		<stop  offset="0" style="stop-color:#1F4E58"/>
		<stop  offset="0.2431" style="stop-color:#479FB7"/>
		<stop  offset="0.5804" style="stop-color:#3A96AD"/>
		<stop  offset="0.8667" style="stop-color:#3B97AE"/>
		<stop  offset="1" style="stop-color:#266473"/>
	</linearGradient>
	<path fill-rule="evenodd" clip-rule="evenodd" fill="url(#SVGID_3_)" d="M3.1,26.6c3.8,0.7,7.8,0.7,12.1,0.2v0.6
		c-0.9,0.2-1.8,0.3-2.7,0.4c-0.1,0-0.2,0.1-0.4,0.1h0c-0.1,0-0.3,0-0.4,0c-0.4,0-0.8,0.1-1.3,0.1l-1.3,0c-0.1,0-0.1,0-0.1,0l-1.1,0
		c-0.1,0-0.1,0-0.2,0c-0.3,0-0.6,0-0.9-0.1C6.8,28,6.6,28,6.4,28c-0.1,0-0.3-0.1-0.4-0.1c-1-0.1-1.9-0.3-2.9-0.4V26.6z"/>
	<path fill-rule="evenodd" clip-rule="evenodd" fill="#84979B" d="M5.9,28L5.9,28L5.5,78c0.4,2.4,1,4.5,1.7,6.5
		c0.1,0.2,0.1,0.4,0.3,0.6c0.9,0.3,1.9,0.3,2.9,0c0.1-0.1,0.3-0.6,0.7-1.4c0.3-0.8,0.8-2.7,1.4-5.7l0.3-50v0c0.2,0,0.3,0,0.5-0.1
		l-0.4,49.9c-0.4,2.9-1.1,5.4-2.1,7.5c-0.1,0.1-0.3,0.1-0.5,0.2c-0.9,0.2-1.8,0.2-2.7,0c-0.1-0.1-0.2-0.1-0.3-0.2
		c-0.9-2.2-1.6-4.6-2.1-7.4l0.3-50.1C5.6,27.9,5.7,27.9,5.9,28z"/>
	<linearGradient id="SVGID_4_" gradientUnits="userSpaceOnUse" x1="3.1001" y1="26.5879" x2="15.3004" y2="26.6379">
		<stop  offset="0" style="stop-color:#1F4E58"/>
		<stop  offset="0.2431" style="stop-color:#52B1CF"/>
		<stop  offset="0.5804" style="stop-color:#52B1CF"/>
		<stop  offset="0.8667" style="stop-color:#3B97AE"/>
		<stop  offset="1" style="stop-color:#266473"/>
	</linearGradient>
	<path fill-rule="evenodd" clip-rule="evenodd" fill="url(#SVGID_4_)" d="M15.3,26.9c-4.3,0.5-8.4,0.5-12.1-0.2v-0.5
		c0.1,0,0.3,0,0.4-0.1c3.4,0.8,7.4,0.8,11.8,0.2V26.9z"/>
</g>
</svg>
