<?xml version="1.0" encoding="utf-8"?>
<!-- Generator: Adobe Illustrator 16.0.0, SVG Export Plug-In . SVG Version: 6.00 Build 0)  -->
<!DOCTYPE svg PUBLIC "-//W3C//DTD SVG 1.1//EN" "http://www.w3.org/Graphics/SVG/1.1/DTD/svg11.dtd">
<svg version="1.1" id="Layer_3" xmlns="http://www.w3.org/2000/svg" xmlns:xlink="http://www.w3.org/1999/xlink" x="0px" y="0px"
	 width="299.9px" height="75.1px" viewBox="0 0 299.9 75.1" enable-background="new 0 0 299.9 75.1" xml:space="preserve">
<g>
	
		<radialGradient id="SVGID_1_" cx="557.5681" cy="795.6555" r="6.7494" gradientTransform="matrix(1 0 0 1 -541.9844 -792.5059)" gradientUnits="userSpaceOnUse">
		<stop  offset="0" style="stop-color:#E8A323"/>
		<stop  offset="0.4784" style="stop-color:#E8A323;stop-opacity:0.6"/>
		<stop  offset="0.7529" style="stop-color:#E8A323;stop-opacity:0.4"/>
		<stop  offset="1" style="stop-color:#E8A323;stop-opacity:0"/>
	</radialGradient>
	<path fill="url(#SVGID_1_)" d="M15.5,9.9c-1.7,0-3.1-1-4.3-3.1C10.5,5.5,10,4,9.8,2.5h11.5c-0.3,1.6-0.8,3-1.5,4.3
		C18.6,8.8,17.2,9.9,15.5,9.9z"/>
</g>
<g>
	
		<radialGradient id="SVGID_2_" cx="587.2986" cy="515.9827" r="10.4135" gradientTransform="matrix(1 0 0 1.6375 -541.9844 -842.4854)" gradientUnits="userSpaceOnUse">
		<stop  offset="0" style="stop-color:#E8A323"/>
		<stop  offset="0.4784" style="stop-color:#E8A323;stop-opacity:0.6"/>
		<stop  offset="0.7529" style="stop-color:#E8A323;stop-opacity:0.4"/>
		<stop  offset="1" style="stop-color:#E8A323;stop-opacity:0"/>
	</radialGradient>
	<path fill="url(#SVGID_2_)" d="M55.7,2.6c0,4.7-1,8.6-3,11.9s-4.5,4.9-7.3,4.9s-5.3-1.6-7.3-4.9s-3-7.2-3-11.9H55.7z"/>
</g>
<g>
	
		<radialGradient id="SVGID_3_" cx="617.4714" cy="532.177" r="14.7744" gradientTransform="matrix(1 0 0 1.5897 -541.9844 -840.5661)" gradientUnits="userSpaceOnUse">
		<stop  offset="0" style="stop-color:#E8A323"/>
		<stop  offset="0.4784" style="stop-color:#E8A323;stop-opacity:0.6"/>
		<stop  offset="0.7529" style="stop-color:#E8A323;stop-opacity:0.4"/>
		<stop  offset="1" style="stop-color:#E8A323;stop-opacity:0"/>
	</radialGradient>
	<path fill="url(#SVGID_3_)" d="M86.9,2.5V20c-0.4,0.7-0.8,1.3-1.1,2c-2.9,4.5-6.3,6.8-10.4,6.8c-4.1,0-7.4-2.3-10.3-6.8
		c-0.8-1.3-1.6-2.8-2.2-4.3V2.5H86.9z"/>
</g>
<g>
	
		<radialGradient id="SVGID_4_" cx="647.322" cy="542.9358" r="19.1375" gradientTransform="matrix(1 0 0 1.563 -541.9844 -840.1077)" gradientUnits="userSpaceOnUse">
		<stop  offset="0" style="stop-color:#E8A323"/>
		<stop  offset="0.4784" style="stop-color:#E8A323;stop-opacity:0.6"/>
		<stop  offset="0.7529" style="stop-color:#E8A323;stop-opacity:0.4"/>
		<stop  offset="1" style="stop-color:#E8A323;stop-opacity:0"/>
	</radialGradient>
	<path fill="url(#SVGID_4_)" d="M116.9,2.5V32c-3.3,4.2-7.2,6.3-11.6,6.3c-4.7,0-8.9-2.4-12.4-7.2V2.5H116.9z"/>
</g>
<g>
	
		<radialGradient id="SVGID_5_" cx="677.2722" cy="550.8958" r="23.4992" gradientTransform="matrix(1 0 0 1.5463 -541.9844 -840.3619)" gradientUnits="userSpaceOnUse">
		<stop  offset="0" style="stop-color:#E8A323"/>
		<stop  offset="0.4784" style="stop-color:#E8A323;stop-opacity:0.6"/>
		<stop  offset="0.7529" style="stop-color:#E8A323;stop-opacity:0.4"/>
		<stop  offset="1" style="stop-color:#E8A323;stop-opacity:0"/>
	</radialGradient>
	<path fill="url(#SVGID_5_)" d="M146.9,2.4v40.4c-3.5,3.2-7.4,4.8-11.8,4.8c-4.6,0-8.7-1.8-12.3-5.4V2.4H146.9z"/>
</g>
<g>
	
		<radialGradient id="SVGID_6_" cx="707.0916" cy="557.4651" r="27.8621" gradientTransform="matrix(1 0 0 1.5348 -541.9844 -841.0112)" gradientUnits="userSpaceOnUse">
		<stop  offset="0" style="stop-color:#E8A323"/>
		<stop  offset="0.4784" style="stop-color:#E8A323;stop-opacity:0.6"/>
		<stop  offset="0.7529" style="stop-color:#E8A323;stop-opacity:0.4"/>
		<stop  offset="1" style="stop-color:#E8A323;stop-opacity:0"/>
	</radialGradient>
	<path fill="url(#SVGID_6_)" d="M176.9,2.4v50.7c-3.6,2.6-7.6,3.9-11.9,3.9c-4.4,0-8.5-1.4-12.2-4.1V2.4H176.9z"/>
</g>
<g>
	
		<radialGradient id="SVGID_7_" cx="737.1345" cy="563.175" r="32.225" gradientTransform="matrix(1 0 0 1.5264 -541.9844 -841.8821)" gradientUnits="userSpaceOnUse">
		<stop  offset="0" style="stop-color:#E8A323"/>
		<stop  offset="0.4784" style="stop-color:#E8A323;stop-opacity:0.6"/>
		<stop  offset="0.7529" style="stop-color:#E8A323;stop-opacity:0.4"/>
		<stop  offset="1" style="stop-color:#E8A323;stop-opacity:0"/>
	</radialGradient>
	<path fill="url(#SVGID_7_)" d="M207,2.5v60.8c-3.7,2.2-7.6,3.3-11.9,3.3c-4.3,0-8.4-1.1-12.1-3.4V2.5H207z"/>
</g>
<g>
	
		<radialGradient id="SVGID_8_" cx="767.0339" cy="568.1467" r="36.5849" gradientTransform="matrix(1 0 0 1.52 -541.9844 -842.8661)" gradientUnits="userSpaceOnUse">
		<stop  offset="0" style="stop-color:#E8A323"/>
		<stop  offset="0.4784" style="stop-color:#E8A323;stop-opacity:0.6"/>
		<stop  offset="0.7529" style="stop-color:#E8A323;stop-opacity:0.4"/>
		<stop  offset="1" style="stop-color:#E8A323;stop-opacity:0"/>
	</radialGradient>
	<path fill="url(#SVGID_8_)" d="M237,2.4v61.5l0.1,0.1H237c-0.1,0.5-0.3,0.9-0.4,1.4l-1,2.1c-0.2,0.3-0.3,0.5-0.5,0.8
		c-1.9,2.7-4.6,4.2-7.9,4.7c-0.7,0.1-1.3,0.1-2,0.1c-2.4,0-4.6-0.5-6.8-1.6c-3.1-1.6-4.9-4.1-5.4-7.6V2.4H237z"/>
</g>
<g>
	
		<radialGradient id="SVGID_9_" cx="796.9343" cy="572.8049" r="40.9512" gradientTransform="matrix(1 0 0 1.515 -541.9844 -843.9796)" gradientUnits="userSpaceOnUse">
		<stop  offset="0" style="stop-color:#E8A323"/>
		<stop  offset="0.4784" style="stop-color:#E8A323;stop-opacity:0.6"/>
		<stop  offset="0.7529" style="stop-color:#E8A323;stop-opacity:0.4"/>
		<stop  offset="1" style="stop-color:#E8A323;stop-opacity:0"/>
	</radialGradient>
	<path fill="url(#SVGID_9_)" d="M267,2.4v61.5l0.1,0.1H267c-0.1,0.5-0.3,0.9-0.4,1.4l-1,2.1c-0.2,0.3-0.3,0.5-0.5,0.8
		c-1.9,2.7-4.6,4.2-7.9,4.7c-0.7,0.1-1.3,0.1-2,0.1c-2.4,0-4.6-0.5-6.8-1.6c-3.1-1.6-4.9-4.1-5.4-7.6V2.4H267z"/>
</g>
<g>
	
		<radialGradient id="SVGID_10_" cx="826.5808" cy="577.343" r="45.3125" gradientTransform="matrix(1 0 0 1.5109 -541.9844 -845.2044)" gradientUnits="userSpaceOnUse">
		<stop  offset="0" style="stop-color:#E8A323"/>
		<stop  offset="0.4784" style="stop-color:#E8A323;stop-opacity:0.6"/>
		<stop  offset="0.7529" style="stop-color:#E8A323;stop-opacity:0.4"/>
		<stop  offset="1" style="stop-color:#E8A323;stop-opacity:0"/>
	</radialGradient>
	<path fill="url(#SVGID_10_)" d="M296.9,2.5V64l0.1,0.1h-0.1c-0.1,0.5-0.3,0.9-0.4,1.4l-1,2.1c-0.2,0.3-0.3,0.5-0.5,0.8
		c-1.9,2.7-4.6,4.2-7.9,4.7c-0.7,0.1-1.3,0.1-2,0.1c-2.4,0-4.6-0.5-6.8-1.6c-3.1-1.6-4.9-4.1-5.4-7.6V2.5H296.9z"/>
</g>
</svg>
