<?xml version="1.0" encoding="utf-8"?>
<!-- Generator: Adobe Illustrator 16.0.0, SVG Export Plug-In . SVG Version: 6.00 Build 0)  -->
<!DOCTYPE svg PUBLIC "-//W3C//DTD SVG 1.1//EN" "http://www.w3.org/Graphics/SVG/1.1/DTD/svg11.dtd">
<svg version="1.1" id="Layer_3" xmlns="http://www.w3.org/2000/svg" xmlns:xlink="http://www.w3.org/1999/xlink" x="0px" y="0px"
	 width="250px" height="7px" viewBox="0 0 250 7" enable-background="new 0 0 250 7" xml:space="preserve">
<g>
	<path fill-rule="evenodd" clip-rule="evenodd" fill="#3B1297" d="M2.2,3.4C2.3,3.5,2.9,3.6,4,3.8C4.1,3.9,4.1,4.1,4,4.2
		C3.5,4.6,3.1,4.8,2.7,5C1.8,4.7,1.3,4.4,1,4.1C1.3,3.8,1.7,3.5,2.2,3.4z"/>
</g>
<g>
	<path fill-rule="evenodd" clip-rule="evenodd" fill="#3B1297" d="M27.3,3.4c0.1,0.1,1,0.2,2.6,0.5c1.4,0.2,2.9,0.4,4.7,0.5
		c-0.2,0.5-0.3,1-0.4,1.5c-1.7-0.1-3.2-0.3-4.5-0.5c-1.9-0.3-3.1-0.8-3.6-1.3C26.3,3.8,26.7,3.5,27.3,3.4z"/>
</g>
<g>
	<path fill-rule="evenodd" clip-rule="evenodd" fill="#3B1297" d="M66,4.4c0,0.3,0.1,0.5,0.2,0.8c0.1,0.2,0.1,0.5,0.3,0.7
		C65.3,5.9,64,6,62.5,6c-3.1,0-5.8-0.2-8-0.5c-1.9-0.3-3.1-0.8-3.6-1.3c0.3-0.3,0.7-0.6,1.3-0.7c0.1,0.1,1,0.2,2.6,0.5
		c2.1,0.4,4.7,0.6,7.8,0.6C63.8,4.5,65,4.4,66,4.4z"/>
</g>
<g>
	<path fill-rule="evenodd" clip-rule="evenodd" fill="#3B1297" d="M95.5,5.4c-2.2,0.4-4.9,0.5-8,0.5c-3.1,0-5.8-0.2-8-0.5
		c-1.9-0.3-3.1-0.8-3.6-1.3c0.3-0.3,0.7-0.6,1.3-0.7c0.1,0.1,1,0.2,2.6,0.5c2.1,0.4,4.7,0.6,7.8,0.6c3,0,5.6-0.2,7.8-0.6
		c0.4-0.1,0.8-0.1,1.1-0.2c0.1,0.5,0.2,1,0.4,1.5C96.4,5.3,96,5.3,95.5,5.4z"/>
</g>
<g>
	<path fill-rule="evenodd" clip-rule="evenodd" fill="#3B1297" d="M124.4,3.4c0.1,0.9-1.2,1.6-3.9,2.1c-2.2,0.4-4.9,0.5-8,0.5
		s-5.8-0.2-8-0.5c-1.9-0.3-3.1-0.8-3.6-1.3c0.3-0.3,0.7-0.6,1.3-0.7c0.1,0.1,1,0.2,2.6,0.5c2.1,0.4,4.7,0.6,7.8,0.6s5.6-0.2,7.8-0.6
		c1.7-0.3,2.5-0.4,2.6-0.5c0,0-0.1,0-0.1-0.1c0.2-0.2,0.5-0.3,0.9-0.3c0.3,0,0.6,0.1,0.8,0.1C124.4,3.2,124.4,3.3,124.4,3.4z"/>
</g>
<g>
	<path fill-rule="evenodd" clip-rule="evenodd" fill="#3B1297" d="M149.5,3.4c0.1,0.9-1.2,1.6-3.9,2.1c-2.2,0.4-4.9,0.5-8,0.5
		c-3.1,0-5.8-0.2-8-0.5c-1.9-0.3-3.1-0.8-3.6-1.3c0.3-0.3,0.7-0.6,1.3-0.7c0.1,0.1,1,0.2,2.6,0.5c2.1,0.4,4.7,0.6,7.8,0.6
		s5.6-0.2,7.8-0.6c1.7-0.3,2.5-0.4,2.7-0.5c-0.1-0.1-1-0.3-2.7-0.6c-0.6-0.1-1.3-0.2-2-0.3c-0.2-0.4-0.1-0.9,0.2-1.5
		c0.7,0.1,1.4,0.2,2,0.3C148.3,1.8,149.6,2.5,149.5,3.4z"/>
</g>
<g>
	<path fill-rule="evenodd" clip-rule="evenodd" fill="#3B1297" d="M162.5,6c-3.1,0-5.8-0.2-8-0.5c-1.9-0.3-3.1-0.8-3.6-1.3
		c0.3-0.3,0.7-0.6,1.3-0.7c0.1,0.1,1,0.2,2.6,0.5c2.1,0.4,4.7,0.6,7.8,0.6s5.6-0.2,7.8-0.6c1.7-0.3,2.5-0.4,2.7-0.5
		c-0.1-0.1-1-0.3-2.7-0.6c-1.9-0.3-4.2-0.5-6.8-0.5c-0.1-0.6-0.1-1.1,0.1-1.5c2.7,0,5,0.2,7,0.5c2.7,0.5,4,1.2,3.9,2.1
		c0.1,0.9-1.2,1.6-3.9,2.1C168.3,5.8,165.7,6,162.5,6z"/>
</g>
<g>
	<path fill-rule="evenodd" clip-rule="evenodd" fill="#3B1297" d="M195.3,3.9c1.7-0.3,2.5-0.4,2.7-0.5c-0.1-0.1-1-0.3-2.7-0.6
		c-2.1-0.4-4.7-0.5-7.8-0.5c-1.4,0-2.8,0-4,0.1c-0.1-0.4-0.1-0.8,0.1-1.2c0-0.1,0.1-0.3,0.2-0.4c1.2-0.1,2.4-0.1,3.8-0.1
		c3.1,0,5.8,0.2,8,0.5c2.7,0.5,4,1.2,3.9,2.1c0.1,0.9-1.2,1.6-3.9,2.1c-2.2,0.4-4.9,0.5-8,0.5s-5.8-0.2-8-0.5
		c-1.9-0.3-3.1-0.8-3.6-1.3c0.3-0.3,0.7-0.6,1.3-0.7c0.1,0.1,1,0.2,2.6,0.5c2.1,0.4,4.7,0.6,7.8,0.6S193.1,4.3,195.3,3.9z"/>
</g>
<g>
	<path fill-rule="evenodd" clip-rule="evenodd" fill="#3B1297" d="M204.5,1.4L204.5,1.4c2.2-0.4,4.9-0.6,8-0.6c3.1,0,5.8,0.2,8,0.5
		c2.7,0.5,4,1.2,3.9,2.1c0.1,0.9-1.2,1.6-3.9,2.1c-2.2,0.4-4.9,0.5-8,0.5c-3.1,0-5.8-0.2-8-0.5c-1.9-0.3-3.1-0.8-3.6-1.3
		c0.3-0.3,0.7-0.6,1.3-0.7c0.1,0.1,1,0.2,2.6,0.5c2.1,0.4,4.7,0.6,7.8,0.6s5.6-0.2,7.8-0.6c1.7-0.3,2.5-0.4,2.7-0.5
		c-0.1-0.1-1-0.3-2.7-0.6c-2.1-0.4-4.7-0.5-7.8-0.5s-5.6,0.2-7.8,0.5c-0.1,0-0.3,0.1-0.4,0.1c0-0.1-0.1-0.1-0.1-0.2
		c-0.1-0.4-0.1-0.9-0.1-1.3C204.3,1.4,204.4,1.4,204.5,1.4z"/>
</g>
<g>
	<path fill-rule="evenodd" clip-rule="evenodd" fill="#3B1297" d="M248,3.4c-0.1-0.1-1-0.3-2.7-0.6c-2.1-0.4-4.7-0.5-7.8-0.5
		s-5.6,0.2-7.8,0.5c-1.7,0.3-2.5,0.5-2.6,0.6c0.1,0.1,1,0.3,2.6,0.5c2.1,0.4,4.7,0.6,7.8,0.6s5.6-0.2,7.8-0.6
		C247,3.6,247.8,3.5,248,3.4z M249.5,3.4c0.1,0.9-1.2,1.6-3.9,2.1c-2.2,0.4-4.9,0.5-8,0.5c-3.1,0-5.8-0.2-8-0.5
		c-2.7-0.5-4-1.2-3.9-2.1c-0.1-0.9,1.2-1.5,3.9-2V1.3c2.2-0.4,4.9-0.5,8-0.5c3.1,0,5.8,0.2,8,0.5C248.3,1.8,249.6,2.5,249.5,3.4z"/>
</g>
</svg>
