<?xml version="1.0" encoding="utf-8"?>
<!-- Generator: Adobe Illustrator 16.0.0, SVG Export Plug-In . SVG Version: 6.00 Build 0)  -->
<!DOCTYPE svg PUBLIC "-//W3C//DTD SVG 1.1//EN" "http://www.w3.org/Graphics/SVG/1.1/DTD/svg11.dtd">
<svg version="1.1" id="Layer_3" xmlns="http://www.w3.org/2000/svg" xmlns:xlink="http://www.w3.org/1999/xlink" x="0px" y="0px"
	 width="299.9px" height="75.1px" viewBox="0 0 299.9 75.1" enable-background="new 0 0 299.9 75.1" xml:space="preserve">
<g>
	
		<radialGradient id="SVGID_1_" cx="808.5779" cy="-1002.5002" r="6.7493" gradientTransform="matrix(1 0 0 -1 -792.9941 -999.3511)" gradientUnits="userSpaceOnUse">
		<stop  offset="0" style="stop-color:#D42027"/>
		<stop  offset="0.4784" style="stop-color:#D42128;stop-opacity:0.6"/>
		<stop  offset="0.7529" style="stop-color:#D42128;stop-opacity:0.4"/>
		<stop  offset="1" style="stop-color:#D42128;stop-opacity:0"/>
	</radialGradient>
	<path fill="url(#SVGID_1_)" d="M15.5,9.9c-1.7,0-3.1-1-4.3-3.1C10.5,5.5,10,4,9.8,2.5h11.5c-0.3,1.6-0.8,3-1.5,4.3
		C18.6,8.8,17.2,9.9,15.5,9.9z"/>
</g>
<g>
	
		<radialGradient id="SVGID_2_" cx="838.3083" cy="-583.1047" r="10.4135" gradientTransform="matrix(1 0 0 -1.6375 -792.9941 -952.3989)" gradientUnits="userSpaceOnUse">
		<stop  offset="0" style="stop-color:#D42027"/>
		<stop  offset="0.4784" style="stop-color:#D42128;stop-opacity:0.6"/>
		<stop  offset="0.7529" style="stop-color:#D42128;stop-opacity:0.4"/>
		<stop  offset="1" style="stop-color:#D42128;stop-opacity:0"/>
	</radialGradient>
	<path fill="url(#SVGID_2_)" d="M55.7,2.6c0,4.7-1,8.6-3,11.9s-4.5,4.9-7.3,4.9s-5.3-1.6-7.3-4.9s-3-7.2-3-11.9H55.7z"/>
</g>
<g>
	
		<radialGradient id="SVGID_3_" cx="868.4812" cy="-605.8894" r="14.7744" gradientTransform="matrix(1 0 0 -1.5897 -792.9941 -957.7469)" gradientUnits="userSpaceOnUse">
		<stop  offset="0" style="stop-color:#D42027"/>
		<stop  offset="0.4784" style="stop-color:#D42128;stop-opacity:0.6"/>
		<stop  offset="0.7529" style="stop-color:#D42128;stop-opacity:0.4"/>
		<stop  offset="1" style="stop-color:#D42128;stop-opacity:0"/>
	</radialGradient>
	<path fill="url(#SVGID_3_)" d="M86.9,2.5V20c-0.4,0.7-0.8,1.3-1.1,2c-2.9,4.5-6.3,6.8-10.4,6.8c-4.1,0-7.4-2.3-10.3-6.8
		c-0.8-1.3-1.6-2.8-2.2-4.3V2.5H86.9z"/>
</g>
<g>
	
		<radialGradient id="SVGID_4_" cx="898.3318" cy="-620.5056" r="19.1377" gradientTransform="matrix(1 0 0 -1.563 -792.9941 -961.3489)" gradientUnits="userSpaceOnUse">
		<stop  offset="0" style="stop-color:#D42027"/>
		<stop  offset="0.4784" style="stop-color:#D42128;stop-opacity:0.6"/>
		<stop  offset="0.7529" style="stop-color:#D42128;stop-opacity:0.4"/>
		<stop  offset="1" style="stop-color:#D42128;stop-opacity:0"/>
	</radialGradient>
	<path fill="url(#SVGID_4_)" d="M116.9,2.5V32c-3.3,4.2-7.2,6.3-11.6,6.3c-4.7,0-8.9-2.4-12.4-7.2V2.5H116.9z"/>
</g>
<g>
	
		<radialGradient id="SVGID_5_" cx="928.283" cy="-630.9456" r="23.498" gradientTransform="matrix(1 0 0 -1.5463 -792.9941 -964.1415)" gradientUnits="userSpaceOnUse">
		<stop  offset="0" style="stop-color:#D42027"/>
		<stop  offset="0.4784" style="stop-color:#D42128;stop-opacity:0.6"/>
		<stop  offset="0.7529" style="stop-color:#D42128;stop-opacity:0.4"/>
		<stop  offset="1" style="stop-color:#D42128;stop-opacity:0"/>
	</radialGradient>
	<path fill="url(#SVGID_5_)" d="M146.9,2.4v40.4c-3.5,3.2-7.4,4.8-11.8,4.8c-4.6,0-8.7-1.8-12.3-5.4V2.4H146.9z"/>
</g>
<g>
	
		<radialGradient id="SVGID_6_" cx="958.1023" cy="-639.2537" r="27.861" gradientTransform="matrix(1 0 0 -1.5348 -792.9941 -966.5409)" gradientUnits="userSpaceOnUse">
		<stop  offset="0" style="stop-color:#D42027"/>
		<stop  offset="0.4784" style="stop-color:#D42128;stop-opacity:0.6"/>
		<stop  offset="0.7529" style="stop-color:#D42128;stop-opacity:0.4"/>
		<stop  offset="1" style="stop-color:#D42128;stop-opacity:0"/>
	</radialGradient>
	<path fill="url(#SVGID_6_)" d="M176.9,2.4v50.7c-3.6,2.6-7.6,3.9-11.9,3.9c-4.4,0-8.5-1.4-12.2-4.1V2.4H176.9z"/>
</g>
<g>
	
		<radialGradient id="SVGID_7_" cx="988.1443" cy="-646.2502" r="32.225" gradientTransform="matrix(1 0 0 -1.5264 -792.9941 -968.6877)" gradientUnits="userSpaceOnUse">
		<stop  offset="0" style="stop-color:#D42027"/>
		<stop  offset="0.4784" style="stop-color:#D42128;stop-opacity:0.6"/>
		<stop  offset="0.7529" style="stop-color:#D42128;stop-opacity:0.4"/>
		<stop  offset="1" style="stop-color:#D42128;stop-opacity:0"/>
	</radialGradient>
	<path fill="url(#SVGID_7_)" d="M207,2.5v60.8c-3.7,2.2-7.6,3.3-11.9,3.3c-4.3,0-8.4-1.1-12.1-3.4V2.5H207z"/>
</g>
<g>
	
		<radialGradient id="SVGID_8_" cx="1018.0437" cy="-652.2117" r="36.5864" gradientTransform="matrix(1 0 0 -1.52 -792.9941 -970.6451)" gradientUnits="userSpaceOnUse">
		<stop  offset="0" style="stop-color:#D42027"/>
		<stop  offset="0.4784" style="stop-color:#D42128;stop-opacity:0.6"/>
		<stop  offset="0.7529" style="stop-color:#D42128;stop-opacity:0.4"/>
		<stop  offset="1" style="stop-color:#D42128;stop-opacity:0"/>
	</radialGradient>
	<path fill="url(#SVGID_8_)" d="M237,2.4v61.5l0.1,0.1H237c-0.1,0.5-0.3,0.9-0.4,1.4l-1,2.1c-0.2,0.3-0.3,0.5-0.5,0.8
		c-1.9,2.7-4.6,4.2-7.9,4.7c-0.7,0.1-1.3,0.1-2,0.1c-2.4,0-4.6-0.5-6.8-1.6c-3.1-1.6-4.9-4.1-5.4-7.6V2.4H237z"/>
</g>
<g>
	
		<radialGradient id="SVGID_9_" cx="1047.9441" cy="-657.6492" r="40.9534" gradientTransform="matrix(1 0 0 -1.515 -792.9941 -972.5179)" gradientUnits="userSpaceOnUse">
		<stop  offset="0" style="stop-color:#D42027"/>
		<stop  offset="0.4784" style="stop-color:#D42128;stop-opacity:0.6"/>
		<stop  offset="0.7529" style="stop-color:#D42128;stop-opacity:0.4"/>
		<stop  offset="1" style="stop-color:#D42128;stop-opacity:0"/>
	</radialGradient>
	<path fill="url(#SVGID_9_)" d="M267,2.4v61.5l0.1,0.1H267c-0.1,0.5-0.3,0.9-0.4,1.4l-1,2.1c-0.2,0.3-0.3,0.5-0.5,0.8
		c-1.9,2.7-4.6,4.2-7.9,4.7c-0.7,0.1-1.3,0.1-2,0.1c-2.4,0-4.6-0.5-6.8-1.6c-3.1-1.6-4.9-4.1-5.4-7.6V2.4H267z"/>
</g>
<g>
	
		<radialGradient id="SVGID_10_" cx="1077.5906" cy="-662.8298" r="45.3116" gradientTransform="matrix(1 0 0 -1.5109 -792.9941 -974.3663)" gradientUnits="userSpaceOnUse">
		<stop  offset="0" style="stop-color:#D42027"/>
		<stop  offset="0.4784" style="stop-color:#D42128;stop-opacity:0.6"/>
		<stop  offset="0.7529" style="stop-color:#D42128;stop-opacity:0.4"/>
		<stop  offset="1" style="stop-color:#D42128;stop-opacity:0"/>
	</radialGradient>
	<path fill="url(#SVGID_10_)" d="M296.9,2.5V64l0.1,0.1h-0.1c-0.1,0.5-0.3,0.9-0.4,1.4l-1,2.1c-0.2,0.3-0.3,0.5-0.5,0.8
		c-1.9,2.7-4.6,4.2-7.9,4.7c-0.7,0.1-1.3,0.1-2,0.1c-2.4,0-4.6-0.5-6.8-1.6c-3.1-1.6-4.9-4.1-5.4-7.6V2.5H296.9z"/>
</g>
</svg>
