<?xml version="1.0" encoding="utf-8"?>
<!-- Generator: Adobe Illustrator 16.0.0, SVG Export Plug-In . SVG Version: 6.00 Build 0)  -->
<!DOCTYPE svg PUBLIC "-//W3C//DTD SVG 1.1//EN" "http://www.w3.org/Graphics/SVG/1.1/DTD/svg11.dtd">
<svg version="1.1" id="Layer_1" xmlns="http://www.w3.org/2000/svg" xmlns:xlink="http://www.w3.org/1999/xlink" x="0px" y="0px"
	 width="27.5px" height="149.7px" viewBox="0 0 27.5 149.7" enable-background="new 0 0 27.5 149.7" xml:space="preserve">
<g>
	
		<linearGradient id="SVGID_1_" gradientUnits="userSpaceOnUse" x1="252.46" y1="-134.1616" x2="277.46" y2="-134.1616" gradientTransform="matrix(1 0 0 -1 -251.0098 -132.2783)">
		<stop  offset="0" style="stop-color:#FFFFFF;stop-opacity:0.6314"/>
		<stop  offset="0.1647" style="stop-color:#FFFFFF;stop-opacity:0.2314"/>
		<stop  offset="0.4784" style="stop-color:#FFFFFF;stop-opacity:0"/>
		<stop  offset="0.7529" style="stop-color:#FFFFFF;stop-opacity:9.411765e-002"/>
		<stop  offset="1" style="stop-color:#FFFFFF;stop-opacity:0.6392"/>
	</linearGradient>
	<path fill="url(#SVGID_1_)" d="M1.5,1.8c0-0.1,0.2-0.3,0.5-0.3C2.6,1.3,3.6,1.1,5.1,1c2.4-0.2,5.4-0.4,8.9-0.4s6.4,0.1,8.8,0.4
		c1.5,0.1,2.6,0.3,3.2,0.5c0.3,0.1,0.5,0.2,0.5,0.3S26.3,2.1,26,2.2c-0.6,0.2-1.6,0.4-3.2,0.5c-0.7,0.1-1.5,0.1-2.3,0.2
		c-1.9,0.1-4.1,0.2-6.6,0.2s-4.7,0-6.5-0.2C6.6,2.8,5.8,2.8,5.1,2.7C3.6,2.6,2.5,2.4,2,2.2C1.6,2.1,1.5,2,1.5,1.8z"/>
	
		<radialGradient id="SVGID_2_" cx="263.3096" cy="-136.2114" r="14.3" gradientTransform="matrix(1 0 0 -1 -251.0098 -132.2783)" gradientUnits="userSpaceOnUse">
		<stop  offset="0" style="stop-color:#FFFFFF;stop-opacity:0.6314"/>
		<stop  offset="0.1647" style="stop-color:#FFFFFF;stop-opacity:0.2314"/>
		<stop  offset="0.4784" style="stop-color:#FFFFFF;stop-opacity:0"/>
		<stop  offset="0.7529" style="stop-color:#FFFFFF;stop-opacity:9.411765e-002"/>
		<stop  offset="1" style="stop-color:#FFFFFF;stop-opacity:0.6392"/>
	</radialGradient>
	<path fill="url(#SVGID_2_)" d="M26.5,1.8v2c0,0.1-0.2,0.3-0.5,0.4c-0.6,0.2-1.6,0.4-3.2,0.5C20.4,4.9,17.4,5,14,5S7.6,4.9,5.1,4.7
		C3.6,4.6,2.5,4.4,2,4.2C1.7,4.1,1.5,4,1.5,3.8v-2c0,0.1,0.2,0.3,0.5,0.4c0.6,0.2,1.6,0.4,3.1,0.5c0.7,0.1,1.5,0.1,2.3,0.2
		c1.9,0.1,4.1,0.2,6.5,0.2c2.4,0,4.7,0,6.6-0.2c0.8-0.1,1.5-0.1,2.3-0.2c1.5-0.1,2.6-0.3,3.2-0.5C26.3,2.1,26.4,2,26.5,1.8z"/>
	
		<linearGradient id="SVGID_3_" gradientUnits="userSpaceOnUse" x1="252.3096" y1="-208.9116" x2="278.3096" y2="-208.9116" gradientTransform="matrix(1 0 0 -1 -251.0098 -132.2783)">
		<stop  offset="0" style="stop-color:#FFFFFF;stop-opacity:0.6314"/>
		<stop  offset="0.1647" style="stop-color:#FFFFFF;stop-opacity:0.2314"/>
		<stop  offset="0.4784" style="stop-color:#FFFFFF;stop-opacity:0"/>
		<stop  offset="0.7529" style="stop-color:#FFFFFF;stop-opacity:9.411765e-002"/>
		<stop  offset="1" style="stop-color:#FFFFFF;stop-opacity:0.6392"/>
	</linearGradient>
	<path fill="url(#SVGID_3_)" d="M26,4.3v135.1v0.1c-0.2,2.5-1.3,4.7-3.5,6.5c-2.3,1.9-5.2,2.9-8.5,2.9s-6.2-1-8.5-2.9
		c-2.3-1.9-3.5-4.1-3.5-6.6V4.3c0.6,0.2,1.6,0.4,3.1,0.5C7.5,5,10.5,5.1,14,5.1s6.4-0.1,8.8-0.3C24.3,4.6,25.4,4.5,26,4.3z"/>
	<path fill="none" stroke="#FFFFFF" stroke-width="0.75" stroke-linecap="round" stroke-linejoin="round" stroke-miterlimit="3" d="
		M1.5,1.8v2c0,0.1,0.2,0.3,0.5,0.4 M26,4.3c0.3-0.1,0.5-0.2,0.5-0.4v-2 M1.5,1.8c0-0.1,0.2-0.3,0.5-0.3C2.6,1.3,3.6,1.1,5.1,1
		c2.4-0.2,5.4-0.4,8.9-0.4s6.4,0.1,8.8,0.4c1.5,0.1,2.6,0.3,3.2,0.5c0.3,0.1,0.5,0.2,0.5,0.3 M26,4.3v135.1v0.1
		c-0.2,2.5-1.3,4.7-3.5,6.5c-2.3,1.9-5.2,2.9-8.5,2.9s-6.2-1-8.5-2.9c-2.3-1.9-3.5-4.1-3.5-6.6V4.3"/>
	
		<path fill="none" stroke="#FFFFFF" stroke-width="0.75" stroke-linecap="round" stroke-linejoin="round" stroke-miterlimit="3" stroke-opacity="0.502" d="
		M2,4.3c0.6,0.2,1.6,0.4,3.1,0.5C7.5,5,10.5,5.1,14,5.1s6.4-0.1,8.8-0.3c1.5-0.1,2.6-0.3,3.2-0.5"/>
	
		<path fill="none" stroke="#FFFFFF" stroke-width="0.75" stroke-linecap="round" stroke-linejoin="round" stroke-miterlimit="3" stroke-opacity="0.6196" d="
		M26.5,1.8c0,0.1-0.2,0.3-0.5,0.4c-0.6,0.2-1.6,0.4-3.2,0.5c-0.7,0.1-1.5,0.1-2.3,0.2c-1.9,0.1-4.1,0.2-6.6,0.2s-4.7,0-6.5-0.2
		C6.6,2.8,5.8,2.8,5.1,2.7C3.6,2.6,2.5,2.4,2,2.2C1.7,2.1,1.5,2,1.5,1.8"/>
</g>
</svg>
