<?xml version="1.0" encoding="utf-8"?>
<!-- Generator: Adobe Illustrator 16.0.0, SVG Export Plug-In . SVG Version: 6.00 Build 0)  -->
<!DOCTYPE svg PUBLIC "-//W3C//DTD SVG 1.1//EN" "http://www.w3.org/Graphics/SVG/1.1/DTD/svg11.dtd">
<svg version="1.1" id="Layer_1" xmlns="http://www.w3.org/2000/svg" xmlns:xlink="http://www.w3.org/1999/xlink" x="0px" y="0px"
	 width="190.5px" height="13.8px" viewBox="0 0 190.5 13.8" enable-background="new 0 0 190.5 13.8" xml:space="preserve">
<g>
	
		<line fill-rule="evenodd" clip-rule="evenodd" fill="none" stroke="#FFFFFF" stroke-width="0.1" stroke-linecap="round" stroke-linejoin="round" stroke-miterlimit="3" stroke-opacity="0.298" x1="2" y1="8.2" x2="189.4" y2="8.2"/>
	<g>
		<polygon fill-rule="evenodd" clip-rule="evenodd" fill="#243942" points="1.7,13.1 1.1,1.2 1.5,1.2 1.8,8.2 		"/>
		<polygon fill-rule="evenodd" clip-rule="evenodd" fill="#365461" points="189.6,8.3 189.6,13.1 1.7,13.1 1.8,8.2 141.1,8.3 
			141,8.3 		"/>
		<path fill-rule="evenodd" clip-rule="evenodd" fill="#588A9E" d="M1.5,1.2h15.4c2,1.3,6.2,2,12.6,2.3c7.5-0.1,12.2-0.9,14.1-2.3
			h5.6c2,1.3,6.2,2,12.6,2.3C69.3,3.4,74,2.6,75.9,1.2h5.4c2,1.3,6.2,2,12.6,2.3c7.6-0.1,12.3-0.8,14.2-2.3h5.3
			c2,1.3,6.2,2,12.7,2.3c7.5-0.1,12.2-0.8,14.2-2.3h5.3c2,1.3,6.2,2,12.7,2.3c7.6-0.1,12.3-0.8,14.3-2.3h13.3l3.7,7.2H141l0-0.1
			L1.8,8.2L1.5,1.2z"/>
	</g>
	
		<line fill-rule="evenodd" clip-rule="evenodd" fill="none" stroke="#FFFFFF" stroke-width="0.1" stroke-linecap="round" stroke-linejoin="round" stroke-miterlimit="3" stroke-opacity="0.498" x1="1.8" y1="8.1" x2="189.6" y2="8.1"/>
</g>
</svg>
