<?xml version="1.0" encoding="utf-8"?>
<!-- Generator: Adobe Illustrator 16.0.0, SVG Export Plug-In . SVG Version: 6.00 Build 0)  -->
<!DOCTYPE svg PUBLIC "-//W3C//DTD SVG 1.1//EN" "http://www.w3.org/Graphics/SVG/1.1/DTD/svg11.dtd">
<svg version="1.1" id="Layer_2" xmlns="http://www.w3.org/2000/svg" xmlns:xlink="http://www.w3.org/1999/xlink" x="0px" y="0px"
	 width="299.9px" height="75.1px" viewBox="0 0 299.9 75.1" enable-background="new 0 0 299.9 75.1" xml:space="preserve">
<g>
	
		<radialGradient id="SVGID_1_" cx="306.5908" cy="-126.4819" r="6.0375" gradientTransform="matrix(1 0 0 -1.7598 -290.9746 -223.2838)" gradientUnits="userSpaceOnUse">
		<stop  offset="0" style="stop-color:#7D52A1"/>
		<stop  offset="0.5216" style="stop-color:#7D52A1;stop-opacity:0.4784"/>
		<stop  offset="0.7529" style="stop-color:#7D52A1;stop-opacity:0.302"/>
		<stop  offset="1" style="stop-color:#7D52A1;stop-opacity:0"/>
	</radialGradient>
	<path fill="url(#SVGID_1_)" d="M11.4,6.8C10.6,5.5,10.1,4,9.9,2.5h11.5c-0.3,1.6-0.8,3-1.5,4.3c-1.2,2.1-2.6,3.1-4.3,3.1
		C13.9,9.9,12.5,8.8,11.4,6.8z"/>
</g>
<g>
	
		<radialGradient id="SVGID_2_" cx="336.4072" cy="-144.7588" r="10.4135" gradientTransform="matrix(1 0 0 -1.6375 -290.9746 -234.6082)" gradientUnits="userSpaceOnUse">
		<stop  offset="0" style="stop-color:#7D52A1"/>
		<stop  offset="0.5216" style="stop-color:#7D52A1;stop-opacity:0.4784"/>
		<stop  offset="0.7529" style="stop-color:#7D52A1;stop-opacity:0.302"/>
		<stop  offset="1" style="stop-color:#7D52A1;stop-opacity:0"/>
	</radialGradient>
	<path fill="url(#SVGID_2_)" d="M38.1,14.5c-2-3.3-3-7.2-3-11.9h20.7c0,4.7-1,8.6-3,11.9c-2,3.3-4.5,4.9-7.3,4.9
		C42.6,19.4,40.1,17.7,38.1,14.5z"/>
</g>
<g>
	
		<radialGradient id="SVGID_3_" cx="366.4619" cy="-154.3726" r="14.775" gradientTransform="matrix(1 0 0 -1.5897 -290.9746 -239.9568)" gradientUnits="userSpaceOnUse">
		<stop  offset="0" style="stop-color:#7D52A1"/>
		<stop  offset="0.5216" style="stop-color:#7D52A1;stop-opacity:0.4784"/>
		<stop  offset="0.7529" style="stop-color:#7D52A1;stop-opacity:0.302"/>
		<stop  offset="1" style="stop-color:#7D52A1;stop-opacity:0"/>
	</radialGradient>
	<path fill="url(#SVGID_3_)" d="M65.1,22c-0.8-1.3-1.6-2.8-2.2-4.3V2.5h24V20c-0.4,0.7-0.8,1.3-1.1,2c-2.9,4.5-6.3,6.8-10.4,6.8
		S68,26.5,65.1,22z"/>
</g>
<g>
	
		<radialGradient id="SVGID_4_" cx="396.3125" cy="-161.2656" r="19.1375" gradientTransform="matrix(1 0 0 -1.563 -290.9746 -243.5586)" gradientUnits="userSpaceOnUse">
		<stop  offset="0" style="stop-color:#7D52A1"/>
		<stop  offset="0.5216" style="stop-color:#7D52A1;stop-opacity:0.4784"/>
		<stop  offset="0.7529" style="stop-color:#7D52A1;stop-opacity:0.302"/>
		<stop  offset="1" style="stop-color:#7D52A1;stop-opacity:0"/>
	</radialGradient>
	<path fill="url(#SVGID_4_)" d="M92.9,31V2.5h24V32c-3.3,4.2-7.2,6.3-11.6,6.3C100.6,38.2,96.4,35.8,92.9,31z"/>
</g>
<g>
	
		<radialGradient id="SVGID_5_" cx="426.2617" cy="-166.7461" r="23.5004" gradientTransform="matrix(1 0 0 -1.5463 -290.9746 -246.3515)" gradientUnits="userSpaceOnUse">
		<stop  offset="0" style="stop-color:#7D52A1"/>
		<stop  offset="0.5216" style="stop-color:#7D52A1;stop-opacity:0.4784"/>
		<stop  offset="0.7529" style="stop-color:#7D52A1;stop-opacity:0.302"/>
		<stop  offset="1" style="stop-color:#7D52A1;stop-opacity:0"/>
	</radialGradient>
	<path fill="url(#SVGID_5_)" d="M122.9,42.2V2.4h24v40.4c-3.5,3.2-7.4,4.8-11.8,4.8C130.7,47.6,126.6,45.8,122.9,42.2z"/>
</g>
<g>
	
		<radialGradient id="SVGID_6_" cx="456.1123" cy="-171.5771" r="27.8625" gradientTransform="matrix(1 0 0 -1.5348 -290.9746 -248.7502)" gradientUnits="userSpaceOnUse">
		<stop  offset="0" style="stop-color:#7D52A1"/>
		<stop  offset="0.5216" style="stop-color:#7D52A1;stop-opacity:0.4784"/>
		<stop  offset="0.7529" style="stop-color:#7D52A1;stop-opacity:0.302"/>
		<stop  offset="1" style="stop-color:#7D52A1;stop-opacity:0"/>
	</radialGradient>
	<path fill="url(#SVGID_6_)" d="M176.9,2.4v50.7c-3.6,2.6-7.6,3.9-11.9,3.9c-4.4,0-8.5-1.4-12.2-4.1V2.4H176.9z"/>
</g>
<g>
	
		<radialGradient id="SVGID_7_" cx="486.125" cy="-176" r="32.225" gradientTransform="matrix(1 0 0 -1.5264 -290.9746 -250.8972)" gradientUnits="userSpaceOnUse">
		<stop  offset="0" style="stop-color:#7D52A1"/>
		<stop  offset="0.5216" style="stop-color:#7D52A1;stop-opacity:0.4784"/>
		<stop  offset="0.7529" style="stop-color:#7D52A1;stop-opacity:0.302"/>
		<stop  offset="1" style="stop-color:#7D52A1;stop-opacity:0"/>
	</radialGradient>
	<path fill="url(#SVGID_7_)" d="M207,2.5v60.8c-3.7,2.2-7.6,3.3-11.9,3.3c-4.3,0-8.4-1.1-12.1-3.4V2.5H207z"/>
</g>
<g>
	
		<radialGradient id="SVGID_8_" cx="516.0176" cy="-179.9834" r="36.5868" gradientTransform="matrix(1 0 0 -1.52 -290.9746 -252.8548)" gradientUnits="userSpaceOnUse">
		<stop  offset="0" style="stop-color:#7D52A1"/>
		<stop  offset="0.5216" style="stop-color:#7D52A1;stop-opacity:0.4784"/>
		<stop  offset="0.7529" style="stop-color:#7D52A1;stop-opacity:0.302"/>
		<stop  offset="1" style="stop-color:#7D52A1;stop-opacity:0"/>
	</radialGradient>
	<path fill="url(#SVGID_8_)" d="M237,2.4v61.5l0.1,0.1H237c-0.1,0.5-0.3,0.9-0.4,1.4l-1,2.1c-0.2,0.3-0.3,0.5-0.5,0.8
		c-1.9,2.7-4.6,4.2-7.9,4.7c-0.7,0.1-1.3,0.1-2,0.1c-2.4,0-4.6-0.5-6.8-1.6c-3.1-1.6-4.9-4.1-5.4-7.6V2.4H237z"/>
</g>
<g>
	
		<radialGradient id="SVGID_9_" cx="545.9248" cy="-183.8599" r="40.9508" gradientTransform="matrix(1 0 0 -1.515 -290.9746 -254.7285)" gradientUnits="userSpaceOnUse">
		<stop  offset="0" style="stop-color:#7D52A1"/>
		<stop  offset="0.5216" style="stop-color:#7D52A1;stop-opacity:0.4784"/>
		<stop  offset="0.7529" style="stop-color:#7D52A1;stop-opacity:0.302"/>
		<stop  offset="1" style="stop-color:#7D52A1;stop-opacity:0"/>
	</radialGradient>
	<path fill="url(#SVGID_9_)" d="M267,2.4v61.5l0.1,0.1H267c-0.1,0.5-0.3,0.9-0.4,1.4l-1,2.1c-0.2,0.3-0.3,0.5-0.5,0.8
		c-1.9,2.7-4.6,4.2-7.9,4.7c-0.7,0.1-1.3,0.1-2,0.1c-2.4,0-4.6-0.5-6.8-1.6c-3.1-1.6-4.9-4.1-5.4-7.6V2.4H267z"/>
</g>
<g>
	
		<radialGradient id="SVGID_10_" cx="575.5928" cy="-187.7539" r="45.3125" gradientTransform="matrix(1 0 0 -1.5109 -290.9746 -256.5768)" gradientUnits="userSpaceOnUse">
		<stop  offset="0" style="stop-color:#7D52A1"/>
		<stop  offset="0.5216" style="stop-color:#7D52A1;stop-opacity:0.4784"/>
		<stop  offset="0.7529" style="stop-color:#7D52A1;stop-opacity:0.302"/>
		<stop  offset="1" style="stop-color:#7D52A1;stop-opacity:0"/>
	</radialGradient>
	<path fill="url(#SVGID_10_)" d="M296.9,2.5V64l0.1,0.1h-0.1c-0.1,0.5-0.3,0.9-0.4,1.4l-1,2.1c-0.2,0.3-0.3,0.5-0.5,0.8
		c-1.9,2.7-4.6,4.2-7.9,4.7c-0.7,0.1-1.3,0.1-2,0.1c-2.4,0-4.6-0.5-6.8-1.6c-3.1-1.6-4.9-4.1-5.4-7.6V2.5H296.9z"/>
</g>
</svg>
