<?xml version="1.0" encoding="utf-8"?>
<!-- Generator: Adobe Illustrator 16.0.0, SVG Export Plug-In . SVG Version: 6.00 Build 0)  -->
<!DOCTYPE svg PUBLIC "-//W3C//DTD SVG 1.1//EN" "http://www.w3.org/Graphics/SVG/1.1/DTD/svg11.dtd">
<svg version="1.1" id="Layer_1" xmlns="http://www.w3.org/2000/svg" xmlns:xlink="http://www.w3.org/1999/xlink" x="0px" y="0px"
	 width="43px" height="15px" viewBox="0 0 43 15" enable-background="new 0 0 43 15" xml:space="preserve">
<g>
	<g>
		<path fill-rule="evenodd" clip-rule="evenodd" fill="#2E2E2E" d="M42.2,7.5c0,0.1,0,0.3,0,0.4V8c0,1.7-2.1,3.2-6.1,4.4
			c-4,1.3-8.9,1.9-14.6,1.9c-5.8,0-10.7-0.6-14.8-1.9c-4-1.2-6-2.7-6-4.4V7.9c0-0.2,0-0.3,0-0.4c0.3,1.5,2.3,2.8,6,4
			c4.1,1.3,9,1.9,14.8,1.9c5.7,0,10.6-0.6,14.6-1.9C39.8,10.3,41.8,9,42.2,7.5z"/>
		
			<radialGradient id="SVGID_1_" cx="21.25" cy="6.9502" r="21.1625" gradientTransform="matrix(1 0 0 0.3001 0 4.8647)" gradientUnits="userSpaceOnUse">
			<stop  offset="0" style="stop-color:#848484"/>
			<stop  offset="1" style="stop-color:#BCBCBC"/>
		</radialGradient>
		<path fill-rule="evenodd" clip-rule="evenodd" fill="url(#SVGID_1_)" d="M0.8,7.5c0-0.1,0-0.3,0-0.4V6.9c0-1.7,2-3.2,6-4.5
			c4.1-1.2,9-1.8,14.8-1.8c5.7,0,10.6,0.6,14.6,1.8c4,1.3,6.1,2.8,6.1,4.5V7c0,0.1,0,0.3,0,0.4c-0.4,1.5-2.4,2.8-6.1,4
			c-4,1.3-8.9,1.9-14.6,1.9c-5.8,0-10.7-0.6-14.8-1.9C3.1,10.3,1.1,9,0.8,7.5z"/>
	</g>
	<g>
		<g>
			<path fill-rule="evenodd" clip-rule="evenodd" d="M24.2,6.5C24.1,6.5,24.1,6.5,24.2,6.5c-0.2,0.2-0.4,0.3-0.8,0.4
				c-0.5,0.1-1.2,0.2-1.9,0.2S20.1,7,19.6,6.9c-0.3-0.1-0.6-0.2-0.7-0.4v0l-0.1-0.1V1.8h5.2v4.4L24.2,6.5z"/>
		</g>
		<g>
			<path fill-rule="evenodd" clip-rule="evenodd" fill="#292929" d="M27,2.9c0,0.1,0,0.2-0.1,0.3c-0.2,0.3-0.7,0.6-1.5,0.8
				c-1.1,0.3-2.4,0.5-3.9,0.5c-1.5,0-2.8-0.2-3.8-0.5c-0.7-0.2-1.2-0.5-1.4-0.8c-0.1-0.1-0.1-0.1-0.1-0.3c0,0,0-0.1,0-0.1v0
				c0,0,0-0.1,0-0.1c0.1-0.4,0.6-0.8,1.5-1c1.1-0.3,2.4-0.5,3.8-0.5c1.5,0,2.8,0.2,3.9,0.5c1,0.3,1.5,0.7,1.5,1.1v0
				C27,2.8,27,2.9,27,2.9z"/>
			<path fill-rule="evenodd" clip-rule="evenodd" d="M16.2,2.9c0,0.1,0.1,0.2,0.1,0.3C16.5,3.5,17,3.7,17.8,4
				c1.1,0.3,2.4,0.5,3.8,0.5c1.5,0,2.8-0.2,3.9-0.5c0.7-0.2,1.2-0.5,1.5-0.8C27,3.1,27,3,27,2.9v0.7c0,0,0,0.1,0,0.1
				c-0.1,0.4-0.6,0.7-1.5,1c-1.1,0.4-2.4,0.5-3.9,0.5c-1.5,0-2.8-0.2-3.8-0.5c-0.9-0.3-1.4-0.6-1.5-1c0,0,0-0.1,0-0.1V2.9z"/>
		</g>
	</g>
</g>
</svg>
