<?xml version="1.0" encoding="utf-8"?>
<!-- Generator: Adobe Illustrator 16.0.0, SVG Export Plug-In . SVG Version: 6.00 Build 0)  -->
<!DOCTYPE svg PUBLIC "-//W3C//DTD SVG 1.1//EN" "http://www.w3.org/Graphics/SVG/1.1/DTD/svg11.dtd">
<svg version="1.1" id="Layer_4" xmlns="http://www.w3.org/2000/svg" xmlns:xlink="http://www.w3.org/1999/xlink" x="0px" y="0px"
	 width="810px" height="81px" viewBox="0 0 810 81" enable-background="new 0 0 810 81" xml:space="preserve">
<g>
	<path fill-rule="evenodd" clip-rule="evenodd" fill="#FFFFFF" fill-opacity="8.627451e-002" d="M79.5,5.1c0,0,0-0.1,0-0.1l0.1-0.4
		h0.2v0.1H80V59v13.6l-0.2,0.1c-0.2,1.1-0.7,2.1-1.6,3c-1.1,1-2.6,1.6-4.4,1.8v0.2c-11,2-23.2,3-36.6,2.8c-11.2-0.2-21.1-1-29.5-2.5
		c-2-0.4-3.6-1.2-4.9-2.5C2,74.8,1.6,74,1.4,73.3l0,0v0c-0.1-0.4-0.2-0.9-0.1-1.3v-10V5.3v0c0,0,0.1,0.1,0.1,0.1c0,0,0-0.1,0-0.1
		V5.1c0.1,0.1,0.2,0.2,0.3,0.3C2.1,5.9,3,6.2,4.2,6.5C4,6.5,3.8,6.5,3.6,6.5c0.5,0.1,1.1,0.3,1.8,0.4c1.2,0.3,2.7,0.5,4.5,0.8
		C7.5,7.4,5.6,7.1,4.1,6.8c2.1,0.5,5.3,1.1,9.7,1.7c5.5,0.8,11.5,1.1,18.1,1.1c6.6,0,11.3,0,14.1,0.2v0.1c5-0.4,9.3-0.7,12.9-1
		c3.4-0.2,6.5-0.5,9.4-0.9c7-0.8,10.8-1.8,11.5-2.9H79.5z M1.3,5.2L1.3,5.2L1.2,5C1.2,5.1,1.3,5.1,1.3,5.2z"/>
	<path fill-rule="evenodd" clip-rule="evenodd" fill="#FFFFFF" fill-opacity="0.298" d="M1.4,5.1L1.4,5.1l78.1,0h0.2
		c-0.6,1.1-4.5,2-11.5,2.9c-2.9,0.4-6,0.7-9.4,0.9c2.5-0.2,4.6-0.5,6.5-0.6C72,7.5,76,6.9,77.5,6.2c-0.5,0.1-1,0.3-1.8,0.4
		c-0.2,0-0.4,0.1-0.6,0.1C74,7,72.5,7.1,70.6,7.4c1.8-0.2,3.3-0.5,4.4-0.7c1.1-0.2,2-0.5,2.5-0.7c-0.8,0.3-2.1,0.5-3.8,0.8l-2.2,0.3
		c-1.4,0.2-2.9,0.3-4.6,0.5c-7.6,0.7-16.7,1-27.4,1c-10.7,0-19.9-0.4-27.4-1c-3.4-0.3-6-0.7-7.9-1.1C3,6.2,2.1,5.9,1.6,5.5
		C1.5,5.4,1.4,5.3,1.4,5.1z M5.4,6.9c1.5,0.3,3.5,0.6,6,0.9c-0.5,0-1-0.1-1.5-0.1C8.1,7.4,6.6,7.1,5.4,6.9z"/>
	<path fill-rule="evenodd" clip-rule="evenodd" fill="#FFFFFF" fill-opacity="0.9882" d="M9.9,7.6c0.4,0,0.9,0.1,1.5,0.1
		c-2.4-0.3-4.4-0.6-6-0.9C4.7,6.7,4.1,6.6,3.6,6.5c0.2,0,0.4,0.1,0.6,0.1c1.9,0.4,4.5,0.7,7.9,1.1c7.5,0.7,16.7,1,27.4,1
		c10.7,0,19.8-0.4,27.4-1c1.7-0.2,3.3-0.3,4.6-0.5l2.2-0.3c1.7-0.3,3-0.6,3.8-0.8C77,6.2,76.2,6.4,75,6.6c-1.2,0.2-2.6,0.5-4.4,0.7
		C72.5,7.1,74,7,75.2,6.8c0.2,0,0.4-0.1,0.6-0.1c0.7-0.2,1.3-0.3,1.8-0.4C76,6.9,72,7.5,65.4,8.2c-1.9,0.2-4,0.4-6.5,0.6
		C55.3,9.1,51,9.5,46,9.9V9.8c-2.8-0.2-7.5-0.2-14.1-0.2c-6.6,0-12.6-0.3-18.1-1.1C9.4,7.9,6.2,7.3,4.1,6.8C5.6,7.1,7.5,7.4,9.9,7.6
		z"/>
	<path fill-rule="evenodd" clip-rule="evenodd" fill="#FFFFFF" d="M1.2,5.1L1.2,5.1l0.1,0.1c0,0,0,0.1,0,0.1
		C1.3,5.3,1.2,5.2,1.2,5.1c0,0-0.1,0-0.1,0L1.2,5.1z"/>
</g>
<g>
	<g>
		<path fill-rule="evenodd" clip-rule="evenodd" fill="#FFFFFF" fill-opacity="0.9882" d="M160.3,5.6c0,0.1-0.1,0.1-0.1,0.2
			c-0.4,0.4-1.1,0.7-2,0.8c-0.3,0-0.7,0.1-1.1,0.1c0.2,0.1,0.4,0.1,0.5,0.2c0.5,0.4-1.2,0.8-4.9,1.2c-4.4,0.5-8.6,0.8-12.8,0.8
			c-1.8,0.8-6.5,1.2-14.1,1.3c-4.2,0.5-10.4,0.6-18.5,0.4C99,10.4,93.8,9.9,91.5,9C89.2,8,87,7.3,84.9,6.8c0.6,0,1.2,0.1,1.9,0.2
			c0.1,0,0.1,0,0.3,0c-0.3-0.1-0.6-0.1-0.8-0.1c-0.7-0.1-1.3-0.3-1.8-0.4c0.2,0,0.3,0.1,0.5,0.1c1.9,0.4,5.2,1,10,2s12.8,1.2,24,0.9
			c11.2-0.3,20.2-0.9,26.9-1.5c2.7-0.3,5-0.6,6.9-0.8l2.1-0.3c1.6-0.3,2.8-0.5,3.5-0.8c0.3-0.1,0.6-0.1,0.9-0.2
			C159.8,5.7,160.1,5.6,160.3,5.6z M152.4,5c0.2-0.2,0.4-0.4,0.8-0.5C153.3,4.9,153,5.1,152.4,5z M146.1,5.1
			c-0.2,0.1-0.4,0.2-0.6,0.3c-0.9,0.3-1.8,0.4-2.5,0.1c0.8,0,1.5-0.2,2.1-0.4c0.6-0.2,1.1-0.6,1.6-1C146.8,4.5,146.6,4.8,146.1,5.1z
			 M89,5.1c-0.2-0.1-0.4-0.3-0.6-0.5c-0.1-0.1,0-0.2,0.1-0.3c0.1,0,0.1-0.1,0.1-0.1C88.8,4.7,89,5,89.4,5.1c0.3,0.1,0.7,0.1,1.2,0.1
			c1.1-0.1,2.1,0,2.8,0.3C91.7,6,90.3,5.9,89,5.1z M137.3,5.5L137.3,5.5c-0.1,0.5-0.7,0.9-1.6,1.2c-1,0.3-1.8,0.3-2.4,0
			C134.6,6.5,135.9,6.1,137.3,5.5z M112.9,7.4c3.3,0,6.5-0.1,9.9-0.4c0,0.4-0.5,0.6-1.4,0.6C118.4,7.7,115.6,7.6,112.9,7.4z
			 M101.5,6.8c-0.2,0-0.4,0.1-0.5,0.1c-1.5,0.3-3,0-4.3-0.6c-0.1,0,0-0.1,0.1-0.1c0.9,0.3,1.9,0.5,2.9,0.6c-0.3-0.1-0.6-0.3-0.9-0.6
			H99c0.6,0.2,1.2,0.4,1.8,0.5c0.3-0.1,0.7-0.1,1.1-0.2c1.6-0.3,2.5,0.2,2.9,1.5c-0.2,0-0.3-0.1-0.4-0.1c-0.2-0.1-0.3-0.2-0.4-0.4
			c-0.2-0.8-0.9-1.1-2-0.8C101.8,6.7,101.6,6.7,101.5,6.8L101.5,6.8z M105.1,8.1c1.9-0.2,3.8-0.3,5.5-0.5
			C108.8,8.3,106.9,8.4,105.1,8.1z"/>
		<path fill-rule="evenodd" clip-rule="evenodd" fill="#FFFFFF" fill-opacity="0.298" d="M85,6.5c-1.2-0.3-2.1-0.7-2.5-1.1
			c-0.1-0.1-0.2-0.2-0.3-0.3v0H89c1.2,0.8,2.7,0.9,4.4,0.4c-0.7-0.3-1.7-0.4-2.8-0.3c-0.5,0-0.9,0-1.2-0.1h55.8
			c-0.7,0.3-1.4,0.4-2.1,0.4c0.8,0.2,1.6,0.2,2.5-0.1c0.2-0.1,0.4-0.2,0.6-0.3h14.1h0.2c-0.1,0.2-0.1,0.4-0.3,0.5
			c-0.1,0-0.4,0-1,0.1c-0.3,0-0.6,0.1-0.9,0.2c-0.7,0.2-1.9,0.5-3.5,0.8L152.8,7c-1.9,0.2-4.2,0.5-6.9,0.8
			c-6.7,0.7-15.6,1.2-26.9,1.5c-11.2,0.3-19.3,0-24-0.9S86.9,6.9,85,6.5z M86.8,7c-0.2-0.1-0.4-0.1-0.5-0.1c0.2,0,0.5,0.1,0.8,0.1
			C86.9,7,86.8,7,86.8,7z M137.3,5.5c-1.4,0.6-2.7,1-4,1.2c0.6,0.3,1.4,0.3,2.4,0C136.6,6.5,137.1,6,137.3,5.5L137.3,5.5z
			 M105.1,8.1c1.8,0.3,3.7,0.1,5.5-0.5C108.9,7.8,107,7.9,105.1,8.1z M101.5,6.8L101.5,6.8c0.1,0,0.2-0.1,0.4-0.1
			c1.1-0.3,1.8,0,2,0.8c0,0.2,0.1,0.4,0.4,0.4c0.1,0,0.3,0.1,0.4,0.1c-0.3-1.4-1.3-1.9-2.9-1.5c-0.4,0.1-0.8,0.1-1.1,0.2
			c-0.6-0.1-1.2-0.3-1.8-0.5h-0.1c0.3,0.2,0.5,0.4,0.9,0.6c-1,0-2-0.2-2.9-0.6c-0.1,0-0.2,0-0.1,0.1c1.3,0.7,2.8,0.9,4.3,0.6
			C101.2,6.8,101.4,6.8,101.5,6.8z M112.9,7.4c2.7,0.2,5.5,0.3,8.4,0.3c0.9,0,1.4-0.2,1.4-0.6C119.4,7.2,116.1,7.4,112.9,7.4z"/>
		<path fill-rule="evenodd" clip-rule="evenodd" fill="#FFFFFF" fill-opacity="8.627451e-002" d="M86.2,6.9c0.2,0,0.3,0.1,0.5,0.1
			c-0.6-0.1-1.3-0.2-1.9-0.2C87,7.3,89.2,8,91.5,9c2.3,0.9,7.5,1.4,15.6,1.6c8.1,0.2,14.3,0,18.5-0.4c7.5-0.1,12.2-0.5,14.1-1.3
			c4.2,0,8.5-0.3,12.8-0.8c3.7-0.4,5.4-0.8,4.9-1.2c-0.1-0.1-0.3-0.1-0.5-0.2c0.4,0,0.8,0,1.1-0.1c0.9-0.1,1.6-0.4,2-0.8
			c0.1-0.1,0.1-0.1,0.1-0.2c0.1-0.2,0.2-0.4,0.3-0.5h-0.2c0,0,0-0.1,0.1-0.1l0.1-0.4h0.2v0.1h0.1V59v13.6l-0.2,0.1
			c-0.2,1.1-0.7,2.1-1.6,3c-1.1,1-2.6,1.6-4.5,1.8v0.2c-11,2-23.2,3-36.6,2.8c-11.2-0.2-21.1-1-29.5-2.5c-2-0.4-3.6-1.2-4.9-2.5
			c-0.7-0.7-1.1-1.4-1.3-2.1l-0.1,0v0C82,72.8,82,72.4,82,71.9v-10V5.3v0c0,0,0.1,0.1,0.1,0.1c0,0,0-0.1,0-0.1V5.1
			c0.1,0.1,0.2,0.2,0.3,0.3c0.5,0.4,1.3,0.8,2.5,1.1c-0.2,0-0.4-0.1-0.5-0.1C85,6.6,85.5,6.7,86.2,6.9z M82,5.1V5
			c0,0.1,0.1,0.1,0.1,0.2L82,5.1z"/>
		<path fill-rule="evenodd" clip-rule="evenodd" fill="#FFFFFF" d="M146.3,2.6L146.3,2.6c-0.8,0.5-1.2,0.3-1.1-0.6c0,0,0,0,0,0
			C145.6,2.1,146,2.3,146.3,2.6z M139.1,1.8c0.9-0.4,1.6-0.3,2,0.3v0c-0.8,0.7-1.6,0.7-2.1-0.1C138.9,1.8,138.9,1.8,139.1,1.8z
			 M97.8,2.8c1-0.4,2.1-0.6,3.4-0.6C100.9,3.1,99.8,3.4,97.8,2.8L97.8,2.8z M82.1,5.2L82.1,5.2c0,0.1,0,0.1,0,0.1
			C82.1,5.3,82,5.2,82,5.2c0,0-0.1-0.1-0.1-0.1l0.1,0L82.1,5.2z"/>
	</g>
	<g>
		<path fill-rule="evenodd" clip-rule="evenodd" fill="#FFFFFF" d="M110,16c0,0.4,0.1,0.7,0.4,1c0.3,0.3,0.6,0.5,1,0.5
			c0.4,0,0.7-0.2,1-0.5l0.1,0c0.1-0.1,0.2-0.2,0.3-0.3c0.1-0.2,0.2-0.4,0.2-0.7c0-0.1,0-0.2,0-0.3c-0.1-0.3-0.3-0.6-0.5-0.8
			s-0.6-0.4-1-0.4s-0.8,0.1-1,0.4C110.1,15.2,110,15.5,110,16z M110,14.7l0.1-0.1c0.4-0.3,0.8-0.5,1.3-0.5c0.5,0,0.9,0.1,1.3,0.5
			c0.3,0.3,0.5,0.7,0.6,1.1c0,0.1,0,0.1,0,0.3c0,0.5-0.2,0.9-0.5,1.3l-0.1,0c-0.3,0.3-0.8,0.5-1.3,0.6c-0.5,0-0.9-0.2-1.4-0.6
			c-0.4-0.4-0.5-0.8-0.4-1.3C109.5,15.5,109.7,15,110,14.7z"/>
	</g>
	<g>
		<path fill-rule="evenodd" clip-rule="evenodd" fill="#FFFFFF" d="M130.2,17.1c0.4-0.3,0.8-0.5,1.3-0.5c0.5,0,0.9,0.1,1.3,0.5
			c0.3,0.3,0.5,0.7,0.6,1.1c0,0.1,0,0.1,0,0.3c0,0.5-0.2,0.9-0.6,1.3l0,0c-0.3,0.3-0.8,0.5-1.3,0.6c-0.5,0-1-0.2-1.4-0.6
			c-0.4-0.4-0.5-0.8-0.4-1.3c-0.1-0.5,0.1-0.9,0.4-1.3L130.2,17.1z M131.5,17c-0.4,0-0.8,0.1-1,0.4c-0.3,0.3-0.4,0.6-0.4,1.1
			c0,0.4,0.1,0.7,0.4,1c0.3,0.3,0.6,0.5,1,0.5c0.4,0,0.7-0.2,1-0.5l0.1,0c0.1-0.1,0.2-0.2,0.3-0.3c0.1-0.2,0.2-0.4,0.2-0.7
			c0-0.1,0-0.2,0-0.3c-0.1-0.3-0.3-0.6-0.5-0.8C132.2,17.2,131.9,17,131.5,17z"/>
	</g>
	<g>
		<path fill-rule="evenodd" clip-rule="evenodd" fill="#FFFFFF" d="M114.5,30c-0.2,0.2-0.3,0.4-0.3,0.6c0,0.3,0.1,0.5,0.3,0.7
			c0.2,0.2,0.4,0.3,0.7,0.3s0.5-0.1,0.6-0.3h0c0.1-0.1,0.1-0.1,0.2-0.2c0.1-0.1,0.1-0.3,0.1-0.5c0-0.1,0-0.1,0-0.1
			c-0.1-0.2-0.2-0.4-0.4-0.5c-0.1-0.2-0.3-0.3-0.6-0.3S114.8,29.8,114.5,30z M116.5,30.5c0,0,0,0.1,0,0.1c0,0.3-0.2,0.6-0.4,0.9
			l-0.1,0c-0.2,0.2-0.5,0.3-0.8,0.4c-0.3,0-0.6-0.1-0.9-0.4c-0.2-0.3-0.3-0.6-0.3-0.9c0-0.3,0.1-0.6,0.3-0.8l0-0.1
			c0.2-0.2,0.5-0.3,0.9-0.3c0.3,0,0.6,0.1,0.8,0.3C116.3,30,116.4,30.2,116.5,30.5z"/>
	</g>
</g>
<g>
	<g>
		<path fill-rule="evenodd" clip-rule="evenodd" fill="#FFFFFF" d="M238.8,5.1c-0.1,0.4-0.4,0.6-1,0.6c0.2-0.2,0.4-0.4,0.6-0.6
			c0.2-0.2,0.3-0.4,0.4-0.6C238.8,4.8,238.8,4.9,238.8,5.1z M163,5.2c0,0-0.1-0.1-0.1-0.1L163,5.2h0.1l0,0c0,0,0,0.1,0,0.1
			C163.1,5.3,163,5.2,163,5.2z M233.5,5.1c0.1-0.1,0.1-0.2,0.2-0.4c0.1,0.1,0.1,0.2,0,0.4c-0.1,0.1-0.2,0.3-0.3,0.5
			c-0.8,0.8-1.7,0.9-2.8,0.5C232,6.2,233,5.9,233.5,5.1z M237.7,5.1c-0.1,0.1-0.2,0.2-0.4,0.3c-0.1,0-0.2,0-0.3-0.1
			c0-0.1,0-0.1,0.1-0.1c0.1,0,0.2-0.1,0.3-0.2c-0.2-0.1-0.3-0.2-0.3-0.4c0,0,0,0,0,0c0.1,0,0.3,0,0.4,0c0,0,0.1,0,0.1,0
			C237.8,4.7,237.8,4.9,237.7,5.1z M232.6,2.8c-1,0.7-1.9,0.6-2.5-0.3c0,0,0-0.1,0.1-0.1C231.2,2.1,232,2.2,232.6,2.8L232.6,2.8z
			 M224.5,7.8c-1.2,0.1-2.3,0-3.3-0.3c2.3,0.2,4.3-0.3,6.1-1.5C227,7,226.1,7.5,224.5,7.8z M204.7,8.3c-0.3,0.1-0.5,0.2-0.8,0.3
			c-0.3,0-0.7,0-1,0c-0.2,0-0.3-0.1-0.5-0.2c-0.2,0.1-0.4,0.1-0.6,0.2c-2.2,0.6-4.4,0.6-6.7,0.1c-0.1,0-0.2-0.1-0.3-0.1
			c-0.2-0.1-0.2-0.2,0-0.4c0.6,0.2,1.1,0.3,1.8,0.4c1.4,0,2.9,0,4.4,0c0.5-0.1,0.9-0.1,1.4-0.3c-0.2-0.2-0.4-0.4-0.5-0.8h0.1
			C202.8,8.1,203.8,8.3,204.7,8.3C204.8,8.3,204.7,8.3,204.7,8.3z M206.3,7.9c0.6-0.2,1.1-0.2,1.7-0.1c1.4,0.4,2.7,0.4,4,0.1
			c-0.5,0.3-1.1,0.5-1.6,0.6c-0.5,0-1.1,0-1.6,0c-0.4,0-0.8-0.1-1.1-0.3C207,8,206.5,7.9,206,8C206,7.9,206.2,7.9,206.3,7.9z
			 M198.8,7.8c0.2,0,0.5,0.1,0.7,0.3C199,8.2,198.8,8.1,198.8,7.8L198.8,7.8z M183.2,6.5c0.7,0.1,1.3,0.3,2,0.5
			C184.1,7.2,183.4,7,183.2,6.5z M182.3,8.5c-0.3-0.1-0.5-0.2-0.8-0.4c0,0-0.1-0.1-0.1-0.1c-0.6-0.3-1.2-0.5-1.8-0.7
			c0.5,0.1,1,0.2,1.6,0.3c0.4,0.1,0.9,0.3,1.3,0.5h0c0.4,0.2,0.8,0.3,1.1,0.4c0.6,0,1.3,0.1,2,0.1c0.1,0,0.3-0.1,0.4-0.1
			c0.9-0.2,1.8-0.2,2.6,0c-0.3,0.1-0.5,0.2-0.8,0.3C185.8,9.2,184,9.1,182.3,8.5z M173.6,6.8c-1,0.1-2,0.1-3,0.1s-1.5-0.2-1.5-0.6
			c2.1,0,4.2,0.2,6.4,0.5C174.9,6.7,174.3,6.7,173.6,6.8z M178.8,2.3c1.6-0.1,3.3-0.4,5.1-0.9c-0.3,0.8-1.4,1.3-3.4,1.5
			C179.7,3,179.1,2.8,178.8,2.3z M169.6,4.3c0.4,0.1,0.8,0.3,1.1,0.5v0C170.1,4.9,169.8,4.7,169.6,4.3L169.6,4.3z M167.9,3.7
			c-0.5,0.1-1.1,0.2-1.8,0.4c-0.1,0-0.1,0.1-0.1,0.2c0.3,0.1,0.7,0.2,1.1,0.3c0.2,0,0.3,0.1,0.3,0.2c-0.9,0.2-1.4,0-1.4-0.5
			c0-0.1,0-0.2,0-0.3c0-0.1,0.1-0.2,0.2-0.3c0.3-0.1,0.7-0.2,1.1-0.3C167.5,3.4,167.8,3.4,167.9,3.7L167.9,3.7z"/>
		<path fill-rule="evenodd" clip-rule="evenodd" fill="#FFFFFF" fill-opacity="8.627451e-002" d="M163,5.1V5c0,0.1,0.1,0.1,0.1,0.2
			L163,5.1z M163,5.2c0,0,0.1,0.1,0.1,0.1c0,0,0-0.1,0-0.1V5.1c0.1,0.1,0.1,0.2,0.3,0.3c0.3,0.2,0.8,0.5,1.5,0.8
			c-1.6-0.4-1.7-0.3-0.2,0.3c2.3,0.5,2.7,0.6,1.3,0.3c-3.2-0.1-1.8,0.4,4.3,1.4c6.1,1,12.1,1.7,18.1,2.1c6,0.4,12.5,0.2,19.5-0.5
			c0.4,0.8,2.7,0.9,6.9,0.2c1.1-0.1,3,0,5.9,0.1c2.8,0.1,5.5-0.4,8.1-1.5l-5.4,0c2.3-0.1,5.1-0.3,8.5-0.4c4.6-0.2,7.1-0.9,7.6-1.9
			c1.2-0.4,2-0.8,2.2-1.3h-0.2c0,0,0-0.1,0.1-0.1l0.1-0.4h0.2v0.1h0.1V59v13.6l-0.2,0.1c-0.2,1.1-0.7,2.1-1.6,3
			c-1.1,1-2.6,1.6-4.5,1.8v0.2c-11,2-23.2,3-36.6,2.8c-11.2-0.2-21.1-1-29.5-2.5c-2-0.4-3.6-1.2-4.9-2.5c-0.7-0.7-1.1-1.4-1.3-2.1
			l-0.1,0v0c-0.1-0.4-0.2-0.9-0.1-1.3v-10V5.2L163,5.2z"/>
		<path fill-rule="evenodd" clip-rule="evenodd" fill="#FFFFFF" fill-opacity="0.298" d="M237.7,5.1h0.6c-0.2,0.2-0.4,0.4-0.6,0.6
			c0.6,0,0.9-0.2,1-0.6h2.5h0.2c-0.2,0.4-1,0.9-2.2,1.3c0-0.1,0.1-0.1,0.1-0.1c-0.4,0.1-1,0.3-1.7,0.4c-0.2,0-0.5,0.1-0.7,0.1
			c-1.2,0.2-2.8,0.4-4.6,0.6c1.8-0.2,3.3-0.5,4.5-0.7c1.1-0.2,2-0.5,2.5-0.7c-1,0.3-3.1,0.8-6.4,1.3c-2.1,0.3-4.6,0.6-7.6,0.9
			C217.6,9,209.8,9.5,202,9.5c-7.9,0-12.6-0.2-14.4-0.7c0.3-0.1,0.5-0.1,0.8-0.3c-0.8-0.2-1.6-0.1-2.6,0c-0.1,0-0.3,0.1-0.4,0.1
			c-0.7-0.1-1.4-0.1-2-0.1c-0.4-0.1-0.8-0.2-1.1-0.4h0c-0.4-0.2-0.8-0.4-1.3-0.5c-0.5-0.1-1.1-0.2-1.6-0.3c0.6,0.2,1.2,0.4,1.8,0.7
			c0.1,0,0.1,0,0.1,0.1c0.2,0.1,0.5,0.3,0.8,0.4c-2-0.2-3.8-0.3-5.4-0.5c-5.1-0.6-8.6-1-10.4-1.4c-0.2,0-0.3-0.1-0.5-0.1
			c-0.4-0.1-0.8-0.3-1.1-0.3c-0.7-0.3-1.1-0.5-1.5-0.8c-0.1-0.1-0.2-0.2-0.3-0.3v0h70.4c-0.6,0.8-1.5,1.1-2.8,1
			c1.1,0.4,2,0.3,2.8-0.5c0.2-0.2,0.3-0.4,0.3-0.5h3.4c-0.1,0-0.1,0.1-0.1,0.1c0,0.1,0.1,0.1,0.3,0.1C237.5,5.3,237.6,5.2,237.7,5.1
			z M183.2,6.5c0.2,0.5,0.9,0.7,2,0.5C184.5,6.8,183.9,6.6,183.2,6.5z M198.8,7.8L198.8,7.8c0,0.4,0.2,0.5,0.7,0.3
			C199.3,7.9,199,7.8,198.8,7.8z M206.3,7.9c-0.1,0-0.3,0.1-0.3,0.1c0.5-0.1,1.1,0,1.6,0.2c0.4,0.1,0.8,0.2,1.1,0.3
			c0.5,0,1.1,0,1.6,0c0.5-0.1,1.1-0.3,1.6-0.6c-1.3,0.3-2.6,0.2-4-0.1C207.4,7.6,206.9,7.6,206.3,7.9z M204.7,8.3
			C204.7,8.3,204.8,8.3,204.7,8.3c-0.9,0-1.9-0.2-2.8-0.8h-0.1c0.1,0.3,0.3,0.6,0.5,0.8c-0.5,0.1-0.9,0.2-1.4,0.3c-1.5,0-3,0-4.4,0
			c-0.6-0.1-1.2-0.2-1.8-0.4c-0.2,0.1-0.2,0.3,0,0.4c0.1,0,0.2,0.1,0.3,0.1c2.3,0.6,4.5,0.5,6.7-0.1c0.2-0.1,0.4-0.1,0.6-0.2
			c0.1,0.1,0.3,0.2,0.5,0.2c0.3,0,0.7,0,1,0C204.2,8.5,204.4,8.4,204.7,8.3z M224.5,7.8c1.6-0.2,2.5-0.8,2.9-1.8
			c-1.8,1.2-3.8,1.6-6.1,1.5C222.2,7.8,223.3,7.9,224.5,7.8z M173.6,6.8c0.6-0.1,1.2-0.1,1.8,0c-2.1-0.3-4.3-0.4-6.4-0.5
			c0,0.4,0.5,0.6,1.5,0.6S172.6,6.9,173.6,6.8z"/>
		<path fill-rule="evenodd" clip-rule="evenodd" fill="#FFFFFF" fill-opacity="0.9882" d="M164.9,6.2c0.3,0.1,0.7,0.2,1.1,0.3
			c0.2,0,0.3,0.1,0.5,0.1c1.8,0.3,5.3,0.8,10.4,1.4c1.5,0.1,3.3,0.3,5.4,0.5c1.7,0.6,3.5,0.7,5.4,0.3c1.7,0.5,6.5,0.7,14.4,0.7
			c7.8,0,15.6-0.4,23.4-1.3c3-0.4,5.5-0.7,7.6-0.9c3.2-0.5,5.4-0.9,6.4-1.3c-0.5,0.2-1.4,0.5-2.5,0.7c-1.2,0.2-2.6,0.5-4.5,0.7
			c1.8-0.2,3.3-0.4,4.6-0.6c0.2,0,0.5-0.1,0.7-0.1c0.7-0.2,1.3-0.3,1.7-0.4c0,0,0,0.1-0.1,0.1c-0.5,1-3,1.6-7.6,1.9
			c-3.3,0.2-6.2,0.3-8.5,0.4l5.4,0c-2.5,1.1-5.2,1.6-8.1,1.5c-2.9-0.2-4.9-0.2-5.9-0.1c-4.1,0.7-6.4,0.7-6.9-0.2
			c-7,0.7-13.5,0.9-19.5,0.5c-6-0.4-12-1.1-18.1-2.1c-6.1-1-7.5-1.5-4.3-1.4c1.5,0.3,1.1,0.2-1.3-0.3C163.2,5.9,163.3,5.8,164.9,6.2
			z"/>
	</g>
	<g>
		<path fill-rule="evenodd" clip-rule="evenodd" fill="#FFFFFF" d="M192.5,22.5L192.5,22.5c0.4-0.4,0.9-0.6,1.4-0.5
			c0.5,0,0.9,0.1,1.3,0.5c0.3,0.3,0.5,0.7,0.6,1.1c0,0.1,0,0.2,0,0.3c0,0.5-0.2,0.9-0.5,1.3l-0.1,0.1c-0.3,0.3-0.8,0.5-1.3,0.6
			c-0.5,0-0.9-0.2-1.4-0.6c-0.4-0.4-0.5-0.8-0.4-1.3C192,23.3,192.2,22.9,192.5,22.5z M192.9,22.8c-0.3,0.3-0.4,0.6-0.4,1
			c0,0.4,0.1,0.7,0.4,1c0.3,0.3,0.6,0.5,1,0.5c0.4,0,0.7-0.1,1-0.4l0.1-0.1c0.1-0.1,0.2-0.2,0.3-0.3c0.1-0.2,0.2-0.4,0.2-0.7
			c0-0.1,0-0.2,0-0.3c-0.1-0.3-0.3-0.6-0.5-0.8s-0.6-0.4-1-0.4S193.1,22.5,192.9,22.8z"/>
	</g>
	<g>
		<path fill-rule="evenodd" clip-rule="evenodd" fill="#FFFFFF" d="M214,24c-0.2-0.2-0.6-0.4-1-0.4s-0.8,0.1-1,0.4
			c-0.3,0.3-0.4,0.6-0.4,1c0,0.4,0.1,0.7,0.4,1c0.3,0.3,0.6,0.5,1,0.5c0.4,0,0.7-0.1,1-0.4L214,26c0.1-0.1,0.2-0.2,0.3-0.3
			c0.1-0.2,0.2-0.4,0.2-0.7c0-0.1,0-0.2,0-0.3C214.4,24.5,214.2,24.2,214,24z M211.6,23.8L211.6,23.8c0.4-0.4,0.9-0.6,1.4-0.5
			c0.5,0,0.9,0.1,1.3,0.5c0.3,0.3,0.5,0.7,0.6,1.1c0,0.1,0,0.2,0,0.3c0,0.5-0.2,0.9-0.6,1.3l0,0.1c-0.3,0.3-0.8,0.5-1.3,0.6
			c-0.5,0-1-0.2-1.4-0.6c-0.4-0.4-0.5-0.8-0.4-1.3C211.1,24.5,211.3,24.1,211.6,23.8z"/>
	</g>
	<g>
		<path fill-rule="evenodd" clip-rule="evenodd" fill="#FFFFFF" d="M203.5,35.4L203.5,35.4c0.3-0.3,0.6-0.4,0.9-0.4
			c0.3,0,0.6,0.1,0.8,0.3c0.2,0.2,0.4,0.4,0.4,0.7c0,0,0,0.1,0,0.1c0,0.3-0.1,0.6-0.3,0.9l-0.1,0c-0.2,0.2-0.5,0.3-0.8,0.4
			c-0.3,0-0.6-0.1-0.9-0.4c-0.2-0.3-0.3-0.6-0.3-0.9C203.1,35.9,203.2,35.6,203.5,35.4z M205,35.5c-0.1-0.2-0.3-0.3-0.6-0.3
			s-0.5,0.1-0.7,0.3c-0.2,0.2-0.3,0.4-0.3,0.6c0,0.3,0.1,0.5,0.3,0.7c0.2,0.2,0.4,0.3,0.7,0.3s0.5-0.1,0.6-0.3h0
			c0.1-0.1,0.1-0.1,0.2-0.2c0.1-0.1,0.1-0.3,0.1-0.5c0-0.1,0-0.1,0-0.1C205.2,35.8,205.1,35.6,205,35.5z"/>
	</g>
	<g>
		<path fill-rule="evenodd" clip-rule="evenodd" fill="#FFFFFF" d="M200.3,12.8c0.2,0.2,0.4,0.4,0.4,0.7c0,0,0,0.1,0,0.1
			c0,0.3-0.2,0.6-0.4,0.9l-0.1,0c-0.2,0.2-0.5,0.3-0.8,0.4c-0.3,0-0.6-0.1-0.9-0.4c-0.2-0.3-0.3-0.6-0.3-0.9c0-0.3,0.1-0.6,0.3-0.8
			l0-0.1c0.2-0.2,0.5-0.3,0.9-0.3C199.8,12.5,200.1,12.6,200.3,12.8z M200.5,13.5c-0.1-0.2-0.2-0.4-0.4-0.5
			c-0.1-0.2-0.3-0.3-0.6-0.3s-0.5,0.1-0.7,0.3c-0.2,0.2-0.3,0.4-0.3,0.6c0,0.3,0.1,0.5,0.3,0.7c0.2,0.2,0.4,0.3,0.7,0.3
			s0.5-0.1,0.6-0.3h0c0.1-0.1,0.1-0.1,0.2-0.2c0.1-0.1,0.1-0.3,0.1-0.5C200.5,13.6,200.5,13.5,200.5,13.5z"/>
	</g>
	<g>
		<path fill-rule="evenodd" clip-rule="evenodd" fill="#FFFFFF" d="M210.8,14c0.3,0.2,0.4,0.5,0.5,0.8c0,0.1,0,0.1,0,0.2
			c0,0.4-0.1,0.7-0.4,1l0,0c-0.2,0.2-0.5,0.4-0.9,0.5c-0.4,0-0.8-0.2-1.1-0.5c-0.3-0.3-0.4-0.6-0.3-1c0-0.4,0.1-0.7,0.3-1l0.1,0
			c0.3-0.3,0.6-0.4,1-0.4C210.2,13.6,210.5,13.7,210.8,14z M210.9,14.8c-0.1-0.2-0.2-0.4-0.4-0.6c-0.2-0.2-0.4-0.3-0.7-0.3
			c-0.3,0-0.6,0.1-0.8,0.3c-0.2,0.2-0.3,0.5-0.3,0.8s0.1,0.5,0.3,0.8c0.2,0.2,0.5,0.4,0.8,0.4c0.3,0,0.5-0.1,0.7-0.4l0.1,0
			c0.1-0.1,0.2-0.1,0.2-0.2c0.1-0.2,0.2-0.3,0.2-0.5C211,14.9,210.9,14.9,210.9,14.8z"/>
	</g>
</g>
<g>
	<g>
		<path fill-rule="evenodd" clip-rule="evenodd" fill="#FFFFFF" fill-opacity="8.627451e-002" d="M244.1,5.2c0,0,0.1,0.1,0.1,0.1
			c0,0,0-0.1,0-0.1V5.1c0.1,0.1,0.2,0.2,0.3,0.3c0.5,0.4,1.3,0.8,2.6,1.1c-0.2,0-0.4-0.1-0.6-0.1c0.5,0.1,1.1,0.3,1.8,0.4
			c1.2,0.3,2.7,0.5,4.5,0.8c-2.4-0.3-4.3-0.5-5.8-0.9c2.1,0.5,4.8,1.1,8,1.7c3.3,0.6,9.1,1,17.3,1c8.2,0,13.7,0.1,16.5,0.3v0.1
			c8,0,12.3-0.3,12.9-1c6.3,0,10.9-0.3,14-0.9c3-0.6,4.5-1,4.6-1.3c1.2-0.5,1.9-1.1,2.3-1.6h-0.2c0,0,0-0.1,0.1-0.1l0.1-0.4h0.2v0.1
			h0.1V59v13.6l-0.2,0.1c-0.2,1.1-0.7,2.1-1.7,3c-1.1,1-2.6,1.6-4.4,1.8v0.2c-11,2-23.2,3-36.6,2.8c-11.2-0.2-21.1-1-29.5-2.5
			c-2-0.4-3.6-1.2-4.9-2.5c-0.7-0.7-1.1-1.4-1.4-2.1l0,0v0c-0.1-0.4-0.2-0.9-0.1-1.3v-10V5.2L244.1,5.2z M244.2,5.2l-0.1-0.1V5
			C244.1,5.1,244.2,5.2,244.2,5.2z"/>
		<path fill-rule="evenodd" clip-rule="evenodd" fill="#FFFFFF" fill-opacity="0.298" d="M320.4,6.7c-0.2-0.2-0.2-0.4,0.1-0.5
			c-0.5,0.1-1.1,0.3-1.8,0.4c-0.2,0-0.4,0.1-0.6,0.1c-1.2,0.2-2.7,0.4-4.6,0.6c1.8-0.2,3.3-0.5,4.5-0.7c1.1-0.2,2-0.5,2.5-0.7
			c-0.8,0.3-2.1,0.5-3.8,0.8l-2.2,0.3c-1.4,0.2-2.9,0.3-4.7,0.5c-7.6,0.7-16.7,1-27.4,1c-10.7,0-19.9-0.4-27.4-1
			c-3.4-0.3-6-0.7-7.9-1.1c-1.2-0.3-2.1-0.7-2.6-1.1c-0.1-0.1-0.2-0.2-0.3-0.3v0h7.3c0,0.1,0,0.2,0,0.3c0.7,0.4,1.4,0.5,2.1,0.4
			c0,0,0,0.1,0.1,0.1c0,0.2,0.1,0.3,0.2,0.5c0.8,0.5,1.5,0.4,2.1-0.1c-0.4-0.4-0.9-0.5-1.6-0.4c0,0,0-0.1,0-0.1
			c-0.1-0.3-0.3-0.5-0.6-0.7h63.5c0.2,0.6,0.6,0.6,1.1,0h4.1h0.2C322.3,5.6,321.5,6.2,320.4,6.7z M248.3,6.9c1.5,0.3,3.5,0.6,6,0.9
			c-0.5,0-1-0.1-1.5-0.1C251,7.4,249.5,7.1,248.3,6.9z M269.9,6.9c0.6,0.8,1.3,0.9,2.1,0.1v0c-0.5-0.5-1.1-0.6-2-0.3
			C269.9,6.8,269.8,6.8,269.9,6.9z M280,6.9c-0.2,0-0.3,0-0.2,0.1c2,0.9,4.3,1,6.6,0.3C284.3,7.1,282.1,7,280,6.9z M300.3,6.4
			c-0.6,0.1-1,0.3-1.4,0.6c0,0,0,0,0,0C300.1,7.4,300.6,7.2,300.3,6.4z M307.2,6.4c0.3,0.8,0.8,0.8,1.3,0.1c0,0-0.1-0.1-0.1-0.1
			c-0.3-0.1-0.6-0.2-1-0.1C307.2,6.3,307.2,6.3,307.2,6.4z"/>
		<path fill-rule="evenodd" clip-rule="evenodd" fill="#FFFFFF" d="M253.8,5.1c0.3,0.2,0.5,0.4,0.6,0.7c0,0,0,0.1,0,0.1
			c0.7-0.2,1.3,0,1.6,0.4c-0.6,0.5-1.3,0.6-2.1,0.1c-0.1-0.1-0.2-0.3-0.2-0.5c0,0-0.1-0.1-0.1-0.1c-0.7,0.1-1.4-0.1-2.1-0.4
			c0-0.1,0-0.1,0-0.3c0-0.2,0-0.3,0-0.5c0-0.1,0.1-0.2,0.3-0.2c0.2,0.1,0.4,0.2,0.4,0.4c0,0,0,0.1,0,0.1
			C252.9,4.8,253.4,4.8,253.8,5.1z M244.1,5.2c0,0-0.1-0.1-0.1-0.1L244.1,5.2h0.1l0,0c0,0,0,0.1,0,0.1
			C244.2,5.3,244.1,5.2,244.1,5.2z M318.3,5.1c-0.5,0.6-0.9,0.6-1.1,0c0-0.1-0.1-0.1-0.1-0.3c0-0.1,0-0.1,0.1-0.1c0.4,0,0.8,0,1,0.1
			c0,0,0.1,0.1,0.1,0.1C318.3,5,318.3,5.1,318.3,5.1z M307.2,6.4c0-0.1,0-0.1,0.2-0.1c0.4,0,0.7,0,1,0.1c0,0,0.1,0.1,0.1,0.1
			C308,7.2,307.5,7.2,307.2,6.4z M300.3,6.4c0.3,0.8-0.2,1-1.4,0.6c0,0,0,0,0,0C299.3,6.7,299.7,6.5,300.3,6.4z M280,6.9
			c2.2,0.1,4.3,0.2,6.4,0.4c-2.4,0.6-4.6,0.5-6.6-0.3C279.7,6.9,279.8,6.9,280,6.9z M269.9,6.9c-0.1-0.1,0-0.1,0.1-0.1
			c0.9-0.4,1.5-0.3,2,0.3v0C271.2,7.8,270.5,7.7,269.9,6.9z"/>
		<path fill-rule="evenodd" clip-rule="evenodd" fill="#FFFFFF" fill-opacity="0.9882" d="M252.8,7.6c0.4,0,0.9,0.1,1.5,0.1
			c-2.4-0.3-4.4-0.6-6-0.9c-0.7-0.1-1.3-0.3-1.8-0.4c0.2,0,0.4,0.1,0.6,0.1c1.9,0.4,4.5,0.7,7.9,1.1c7.5,0.7,16.7,1,27.4,1
			c10.7,0,19.8-0.4,27.4-1c1.7-0.2,3.3-0.3,4.7-0.5l2.2-0.3c1.7-0.3,3-0.6,3.8-0.8c-0.5,0.2-1.4,0.5-2.5,0.7
			c-1.2,0.2-2.7,0.5-4.5,0.7c1.9-0.2,3.4-0.4,4.6-0.6c0.2,0,0.4-0.1,0.6-0.1c0.7-0.2,1.3-0.3,1.8-0.4c-0.3,0.1-0.3,0.3-0.1,0.5
			c-0.1,0.3-1.6,0.7-4.6,1.3c-3,0.6-7.7,0.9-14,0.9c-0.6,0.7-4.9,1-12.9,1V9.8c-2.8-0.2-8.3-0.3-16.5-0.3c-8.2,0-14-0.4-17.3-1
			c-3.3-0.6-6-1.2-8-1.7C248.5,7.1,250.4,7.4,252.8,7.6z"/>
	</g>
	<g>
		<path fill-rule="evenodd" clip-rule="evenodd" fill="#FFFFFF" d="M276.3,31.5c0.4-0.3,0.8-0.5,1.3-0.4c0.5,0,0.9,0.1,1.3,0.4
			c0.3,0.3,0.5,0.7,0.6,1.1c0,0.1,0,0.1,0,0.3c0,0.5-0.2,0.9-0.5,1.3l-0.1,0.1c-0.3,0.3-0.8,0.5-1.3,0.6c-0.5,0-0.9-0.2-1.3-0.6
			c-0.4-0.4-0.5-0.8-0.5-1.3c-0.1-0.5,0.1-0.9,0.5-1.3L276.3,31.5z M277.5,31.5c-0.4,0-0.8,0.1-1,0.4c-0.3,0.3-0.4,0.6-0.4,1
			s0.1,0.7,0.4,1c0.3,0.3,0.6,0.5,1,0.5c0.4,0,0.7-0.1,1-0.4l0.1-0.1c0.1-0.1,0.2-0.2,0.3-0.3c0.1-0.2,0.2-0.4,0.2-0.7
			c0-0.1,0-0.2,0-0.3c-0.1-0.3-0.3-0.6-0.5-0.8S278,31.5,277.5,31.5z"/>
	</g>
	<g>
		<path fill-rule="evenodd" clip-rule="evenodd" fill="#FFFFFF" d="M295,31.4c0,0.5-0.2,0.9-0.6,1.3l0,0.1c-0.3,0.3-0.8,0.5-1.3,0.6
			c-0.5,0-1-0.2-1.4-0.6c-0.4-0.4-0.5-0.8-0.5-1.3c-0.1-0.5,0.1-0.9,0.5-1.3l0-0.1c0.4-0.3,0.8-0.5,1.3-0.4c0.5,0,0.9,0.1,1.3,0.4
			c0.3,0.3,0.5,0.7,0.6,1.1C295,31.2,295,31.3,295,31.4z M294.4,32.1c0.1-0.2,0.2-0.4,0.2-0.7c0-0.1,0-0.2-0.1-0.3
			c-0.1-0.3-0.3-0.6-0.5-0.8c-0.2-0.2-0.5-0.4-0.9-0.4s-0.8,0.1-1.1,0.4c-0.3,0.3-0.4,0.6-0.4,1s0.1,0.7,0.4,1
			c0.3,0.3,0.7,0.5,1.1,0.5c0.4,0,0.7-0.1,0.9-0.4l0.1-0.1C294.3,32.3,294.3,32.2,294.4,32.1z"/>
	</g>
	<g>
		<path fill-rule="evenodd" clip-rule="evenodd" fill="#FFFFFF" d="M285.6,44.1c-0.1-0.2-0.3-0.3-0.6-0.3c-0.3,0-0.5,0.1-0.7,0.3
			c-0.2,0.2-0.3,0.4-0.3,0.7c0,0.3,0.1,0.5,0.3,0.7c0.2,0.2,0.4,0.3,0.7,0.3c0.3,0,0.5-0.1,0.6-0.3h0.1c0.1-0.1,0.1-0.1,0.2-0.2
			c0.1-0.1,0.1-0.3,0.1-0.5c0-0.1,0-0.1,0-0.2C285.9,44.4,285.8,44.2,285.6,44.1z M286.3,44.6c0,0,0,0.1,0,0.2
			c0,0.3-0.1,0.6-0.4,0.8l0,0.1c-0.2,0.2-0.5,0.3-0.8,0.3c-0.3,0-0.6-0.1-0.9-0.3c-0.2-0.3-0.3-0.6-0.3-0.9c0-0.3,0.1-0.6,0.3-0.8
			l0.1,0c0.2-0.2,0.5-0.3,0.8-0.3c0.3,0,0.6,0.1,0.8,0.3C286.1,44.1,286.2,44.3,286.3,44.6z"/>
	</g>
	<g>
		<path fill-rule="evenodd" clip-rule="evenodd" fill="#FFFFFF" d="M280.4,22.4c0,0.3,0.1,0.5,0.3,0.7c0.2,0.2,0.4,0.3,0.7,0.3
			s0.5-0.1,0.6-0.3h0c0.1-0.1,0.1-0.1,0.2-0.2c0.1-0.1,0.1-0.3,0.1-0.5c0-0.1,0-0.1,0-0.1c-0.1-0.2-0.2-0.4-0.3-0.5
			c-0.1-0.2-0.3-0.3-0.6-0.3s-0.5,0.1-0.7,0.3C280.5,22,280.4,22.2,280.4,22.4z M281.4,21.3c0.3,0,0.6,0.1,0.8,0.3
			c0.2,0.2,0.4,0.4,0.4,0.7c0,0,0,0.1,0,0.1c0,0.3-0.1,0.6-0.3,0.9l-0.1,0c-0.2,0.2-0.5,0.3-0.8,0.4c-0.3,0-0.6-0.1-0.9-0.4
			c-0.2-0.3-0.3-0.6-0.3-0.9c0-0.3,0.1-0.6,0.3-0.8l0-0.1C280.7,21.3,281,21.2,281.4,21.3z"/>
	</g>
	<g>
		<path fill-rule="evenodd" clip-rule="evenodd" fill="#FFFFFF" d="M292.3,20.5c0,0.4-0.1,0.7-0.4,1l0,0c-0.2,0.2-0.5,0.4-0.9,0.5
			c-0.4,0-0.8-0.2-1.1-0.5c-0.3-0.3-0.4-0.6-0.4-1c0-0.4,0.1-0.7,0.4-1l0.1,0c0.3-0.3,0.6-0.4,1-0.4c0.4,0,0.7,0.1,0.9,0.4
			c0.3,0.2,0.4,0.5,0.4,0.8C292.3,20.4,292.3,20.4,292.3,20.5z M291.7,21.3c0.1-0.1,0.2-0.1,0.2-0.2c0.1-0.2,0.1-0.3,0.1-0.5
			c0-0.1,0-0.1,0-0.2c-0.1-0.2-0.2-0.4-0.4-0.6c-0.2-0.2-0.4-0.3-0.7-0.3c-0.3,0-0.6,0.1-0.8,0.3c-0.2,0.2-0.3,0.5-0.3,0.8
			s0.1,0.5,0.3,0.8c0.2,0.2,0.5,0.4,0.8,0.4C291.3,21.6,291.5,21.5,291.7,21.3L291.7,21.3z"/>
	</g>
	<g>
		<path fill-rule="evenodd" clip-rule="evenodd" fill="#FFFFFF" d="M279.7,10.9c0.4,0,0.7,0.1,0.9,0.4c0.3,0.2,0.4,0.5,0.4,0.8
			c0,0.1,0,0.1,0,0.2c0,0.4-0.1,0.7-0.4,1l0,0c-0.2,0.2-0.5,0.4-0.9,0.5c-0.4,0-0.8-0.2-1.1-0.5c-0.3-0.3-0.4-0.6-0.4-1
			c0-0.4,0.1-0.7,0.4-1l0.1,0C279,11,279.3,10.9,279.7,10.9z M280.8,12c-0.1-0.2-0.2-0.4-0.4-0.6c-0.2-0.2-0.4-0.3-0.7-0.3
			c-0.3,0-0.6,0.1-0.8,0.3c-0.2,0.2-0.3,0.5-0.3,0.8s0.1,0.5,0.3,0.8c0.2,0.2,0.5,0.4,0.8,0.4c0.3,0,0.5-0.1,0.7-0.4l0.1,0
			c0.1-0.1,0.2-0.1,0.2-0.2c0.1-0.2,0.1-0.3,0.1-0.5C280.8,12.2,280.8,12.1,280.8,12z"/>
	</g>
</g>
<g>
	<g>
		<path fill-rule="evenodd" clip-rule="evenodd" fill="#FFFFFF" fill-opacity="8.627451e-002" d="M403.3,5.1c0,0,0-0.1,0.1-0.1
			l0.1-0.4h0.2v0.1h0.1V59v13.6l-0.2,0.1c-0.2,1.1-0.7,2.1-1.6,3c-1.1,1-2.6,1.6-4.5,1.8v0.2c-11,2-23.2,3-36.6,2.8
			c-11.2-0.2-21.1-1-29.5-2.5c-2-0.4-3.6-1.2-4.9-2.5c-0.7-0.7-1.1-1.4-1.3-2.1l-0.1,0v0c-0.1-0.4-0.2-0.9-0.1-1.3v-10V5.3v0
			c0,0,0.1,0.1,0.1,0.1c0,0,0-0.1,0-0.1V5.1c0.1,0.1,0.2,0.2,0.3,0.3c0.5,0.4,1.3,0.8,2.5,1.1c-0.2,0-0.4-0.1-0.6-0.1
			c0.5,0.1,1.1,0.3,1.8,0.4c1.2,0.3,2.7,0.5,4.5,0.8c-2.4-0.3-4.3-0.5-5.8-0.9c2.1,0.5,5.3,1.1,9.7,1.7c5.5,0.8,11.5,1.1,18.1,1.1
			c6.6,0,11.3,0,14,0.2v0.1c5-0.4,9.3-0.7,13-1c3.4-0.2,6.5-0.5,9.3-0.9c7-0.8,10.8-1.8,11.5-2.9H403.3z M325.1,5.2L325,5.1V5
			C325,5.1,325.1,5.1,325.1,5.2z"/>
		<path fill-rule="evenodd" clip-rule="evenodd" fill="#FFFFFF" fill-opacity="0.298" d="M325.1,5.1L325.1,5.1l78.1,0h0.2
			c-0.6,1.1-4.5,2-11.5,2.9c-2.9,0.4-6,0.7-9.3,0.9c2.5-0.2,4.6-0.5,6.5-0.6c6.6-0.7,10.6-1.3,12.1-2c-0.5,0.1-1.1,0.3-1.8,0.4
			c-0.2,0-0.4,0.1-0.6,0.1c-1.2,0.2-2.7,0.4-4.6,0.6c1.8-0.2,3.3-0.5,4.5-0.7c1.1-0.2,2-0.5,2.5-0.7c-0.8,0.3-2.1,0.5-3.8,0.8
			l-2.2,0.3c-1.4,0.2-2.9,0.3-4.6,0.5c-7.6,0.7-16.7,1-27.4,1c-10.7,0-19.9-0.4-27.4-1c-3.4-0.3-6-0.7-7.9-1.1
			c-1.2-0.3-2.1-0.7-2.5-1.1C325.3,5.4,325.2,5.3,325.1,5.1z M329.2,6.9c1.5,0.3,3.5,0.6,5.9,0.9c-0.5,0-1-0.1-1.4-0.1
			C331.9,7.4,330.4,7.1,329.2,6.9z"/>
		<path fill-rule="evenodd" clip-rule="evenodd" fill="#FFFFFF" fill-opacity="0.9882" d="M333.7,7.6c0.4,0,0.9,0.1,1.4,0.1
			c-2.4-0.3-4.4-0.6-5.9-0.9c-0.7-0.1-1.3-0.3-1.8-0.4c0.2,0,0.4,0.1,0.6,0.1c1.9,0.4,4.5,0.7,7.9,1.1c7.5,0.7,16.7,1,27.4,1
			c10.7,0,19.8-0.4,27.4-1c1.7-0.2,3.3-0.3,4.6-0.5l2.2-0.3c1.7-0.3,3-0.6,3.8-0.8c-0.5,0.2-1.4,0.5-2.5,0.7
			c-1.2,0.2-2.6,0.5-4.5,0.7c1.9-0.2,3.4-0.4,4.6-0.6c0.2,0,0.4-0.1,0.6-0.1c0.7-0.2,1.3-0.3,1.8-0.4c-1.5,0.7-5.6,1.3-12.1,2
			c-1.9,0.2-4,0.4-6.5,0.6c-3.6,0.3-8,0.6-13,1V9.8c-2.8-0.2-7.5-0.2-14-0.2c-6.6,0-12.6-0.3-18.1-1.1c-4.4-0.6-7.6-1.2-9.7-1.7
			C329.4,7.1,331.3,7.4,333.7,7.6z"/>
		<path fill-rule="evenodd" clip-rule="evenodd" fill="#FFFFFF" d="M325.1,5.3c0,0,0,0.1,0,0.1c-0.1-0.1-0.1-0.1-0.1-0.1
			c0,0-0.1-0.1-0.1-0.1l0.1,0L325.1,5.3L325.1,5.3z"/>
	</g>
	<g>
		<path fill-rule="evenodd" clip-rule="evenodd" fill="#FFFFFF" d="M353.9,27.3c-0.1-0.3-0.3-0.6-0.5-0.8c-0.2-0.2-0.5-0.4-0.9-0.4
			c-0.4,0-0.8,0.1-1.1,0.4c-0.3,0.3-0.4,0.6-0.4,1s0.1,0.7,0.4,1c0.3,0.3,0.6,0.5,1.1,0.5c0.4,0,0.7-0.1,0.9-0.5l0.1,0
			c0.1-0.1,0.2-0.2,0.3-0.3c0.1-0.2,0.2-0.4,0.2-0.7C354,27.4,353.9,27.3,353.9,27.3z M353.7,26.1c0.3,0.3,0.5,0.7,0.6,1.1
			c0,0.1,0,0.1,0,0.3c0,0.5-0.2,0.9-0.5,1.3l0,0c-0.3,0.3-0.8,0.5-1.3,0.6c-0.5,0-1-0.2-1.4-0.6c-0.4-0.4-0.5-0.8-0.5-1.3
			c-0.1-0.5,0.1-0.9,0.5-1.3l0-0.1c0.4-0.3,0.8-0.5,1.3-0.4C353,25.7,353.4,25.8,353.7,26.1z"/>
	</g>
	<g>
		<path fill-rule="evenodd" clip-rule="evenodd" fill="#FFFFFF" d="M377,27c-0.2-0.2-0.5-0.4-0.9-0.4s-0.8,0.1-1.1,0.4
			c-0.3,0.3-0.4,0.6-0.4,1s0.1,0.7,0.4,1c0.3,0.3,0.7,0.5,1.1,0.5c0.4,0,0.7-0.1,0.9-0.5l0.1,0c0.1-0.1,0.2-0.2,0.3-0.3
			c0.1-0.2,0.2-0.4,0.2-0.7c0-0.1,0-0.2-0.1-0.3C377.5,27.5,377.3,27.2,377,27z M377.4,26.6c0.3,0.3,0.5,0.7,0.6,1.1
			c0,0.1,0,0.1,0,0.3c0,0.5-0.2,0.9-0.6,1.3l0,0c-0.3,0.3-0.8,0.5-1.3,0.6c-0.5,0-1-0.2-1.4-0.6c-0.4-0.4-0.5-0.8-0.5-1.3
			c-0.1-0.5,0.1-0.9,0.5-1.3l0-0.1c0.4-0.3,0.8-0.5,1.3-0.4C376.6,26.2,377,26.3,377.4,26.6z"/>
	</g>
	<g>
		<path fill-rule="evenodd" clip-rule="evenodd" fill="#FFFFFF" d="M370.4,40.5L370.4,40.5c0.3-0.3,0.6-0.4,0.9-0.4
			c0.3,0,0.6,0.1,0.8,0.3c0.2,0.2,0.4,0.4,0.4,0.7c0,0,0,0.1,0,0.1c0,0.3-0.2,0.6-0.4,0.8l-0.1,0.1c-0.2,0.2-0.5,0.3-0.8,0.3
			c-0.3,0-0.6-0.1-0.9-0.3c-0.2-0.3-0.3-0.6-0.3-0.9C370,41,370.1,40.7,370.4,40.5z M371.9,40.6c-0.1-0.2-0.3-0.3-0.6-0.3
			s-0.5,0.1-0.7,0.3c-0.2,0.2-0.3,0.4-0.3,0.6c0,0.3,0.1,0.5,0.3,0.7c0.2,0.2,0.4,0.3,0.7,0.3s0.5-0.1,0.6-0.3h0
			c0.1-0.1,0.1-0.1,0.2-0.2c0.1-0.1,0.1-0.3,0.1-0.5c0-0.1,0-0.1,0-0.1C372.1,40.9,372,40.7,371.9,40.6z"/>
	</g>
	<g>
		<path fill-rule="evenodd" clip-rule="evenodd" fill="#FFFFFF" d="M360.9,28.5L360.9,28.5c0.3-0.3,0.6-0.4,0.9-0.4
			c0.3,0,0.6,0.1,0.8,0.3c0.2,0.2,0.4,0.4,0.4,0.7c0,0,0,0.1,0,0.1c0,0.3-0.2,0.6-0.4,0.9l-0.1,0.1c-0.2,0.2-0.5,0.3-0.8,0.3
			c-0.3,0-0.6-0.1-0.9-0.3c-0.2-0.3-0.3-0.6-0.3-0.9C360.5,29,360.6,28.7,360.9,28.5z M361,28.6c-0.2,0.2-0.3,0.4-0.3,0.6
			c0,0.3,0.1,0.5,0.3,0.7c0.2,0.2,0.4,0.3,0.7,0.3s0.5-0.1,0.6-0.3h0c0.1-0.1,0.1-0.1,0.2-0.2c0.1-0.1,0.1-0.3,0.1-0.5
			c0-0.1,0-0.1,0-0.1c-0.1-0.2-0.2-0.4-0.4-0.5c-0.1-0.2-0.3-0.3-0.6-0.3S361.3,28.5,361,28.6z"/>
	</g>
	<g>
		<path fill-rule="evenodd" clip-rule="evenodd" fill="#FFFFFF" d="M374.5,17c-0.2-0.2-0.4-0.3-0.7-0.3c-0.3,0-0.6,0.1-0.8,0.3
			c-0.2,0.2-0.3,0.5-0.3,0.8c0,0.3,0.1,0.5,0.3,0.8c0.2,0.2,0.5,0.4,0.8,0.4c0.3,0,0.5-0.1,0.7-0.4l0.1,0c0.1-0.1,0.2-0.1,0.2-0.2
			c0.1-0.2,0.2-0.4,0.2-0.5c0-0.1,0-0.1-0.1-0.2C374.8,17.4,374.7,17.2,374.5,17z M372.5,17.9c0-0.4,0.1-0.7,0.3-1l0.1,0
			c0.3-0.3,0.6-0.4,1-0.4c0.4,0,0.7,0.1,0.9,0.4c0.3,0.2,0.4,0.5,0.5,0.8c0,0.1,0,0.1,0,0.2c0,0.4-0.1,0.7-0.4,0.9l0,0.1
			c-0.2,0.2-0.5,0.4-0.9,0.4c-0.4,0-0.8-0.1-1.1-0.4C372.5,18.5,372.4,18.2,372.5,17.9z"/>
	</g>
	<g>
		<path fill-rule="evenodd" clip-rule="evenodd" fill="#FFFFFF" d="M361.3,17.4c0,0.3,0.1,0.5,0.3,0.8c0.2,0.2,0.5,0.4,0.8,0.4
			c0.3,0,0.5-0.1,0.7-0.4l0.1,0c0.1-0.1,0.2-0.1,0.2-0.2c0.1-0.2,0.2-0.4,0.2-0.5c0-0.1,0-0.1-0.1-0.2c-0.1-0.2-0.2-0.4-0.4-0.6
			c-0.2-0.2-0.4-0.3-0.7-0.3c-0.3,0-0.6,0.1-0.8,0.3C361.4,16.8,361.3,17,361.3,17.4z M361,17.4c0-0.4,0.1-0.7,0.3-1l0.1,0
			c0.3-0.3,0.6-0.4,1-0.4c0.4,0,0.7,0.1,0.9,0.4c0.3,0.2,0.4,0.5,0.5,0.8c0,0.1,0,0.1,0,0.2c0,0.4-0.1,0.7-0.4,0.9l0,0.1
			c-0.2,0.2-0.5,0.4-0.9,0.4c-0.4,0-0.8-0.1-1.1-0.4C361,18,360.9,17.7,361,17.4z"/>
	</g>
</g>
<g>
	<g>
		<path fill-rule="evenodd" clip-rule="evenodd" fill="#FFFFFF" fill-opacity="8.627451e-002" d="M484.5,5.1c0,0,0-0.1,0-0.1
			l0.1-0.4h0.2v0.1h0.2V59v13.6l-0.2,0.1c-0.2,1.1-0.7,2.1-1.7,3c-1.1,1-2.6,1.6-4.4,1.8v0.2c-11,2-23.2,3-36.6,2.8
			c-11.2-0.2-21.1-1-29.5-2.5c-2-0.4-3.6-1.2-4.8-2.5c-0.7-0.7-1.2-1.4-1.4-2.1l0,0v0c-0.1-0.4-0.2-0.9-0.1-1.3v-10V5.3v0
			c0,0,0.1,0.1,0.1,0.1c0,0,0-0.1,0-0.1V5.1c0.1,0.1,0.2,0.2,0.3,0.3c0.5,0.4,1.3,0.8,2.6,1.1c-0.2,0-0.4-0.1-0.6-0.1
			c0.5,0.1,1.1,0.3,1.8,0.4c1.2,0.3,2.7,0.5,4.5,0.8c-2.4-0.3-4.3-0.5-5.8-0.9c2.1,0.5,5.3,1.1,9.7,1.7c5.5,0.8,11.5,1.1,18.1,1.1
			c6.6,0,11.3,0,14.1,0.2v0.1c5-0.4,9.3-0.7,12.9-1c3.4-0.2,6.5-0.5,9.4-0.9c7-0.8,10.8-1.8,11.5-2.9H484.5z M406.3,5.2L406.3,5.2
			L406.2,5C406.2,5.1,406.2,5.1,406.3,5.2z"/>
		<path fill-rule="evenodd" clip-rule="evenodd" fill="#FFFFFF" fill-opacity="0.298" d="M406.3,5.1L406.3,5.1l78.2,0h0.2
			c-0.6,1.1-4.5,2-11.5,2.9c-2.9,0.4-6,0.7-9.4,0.9c2.5-0.2,4.6-0.5,6.5-0.6c6.6-0.7,10.6-1.3,12.2-2c-0.5,0.1-1,0.3-1.8,0.4
			c-0.2,0-0.4,0.1-0.6,0.1c-1.2,0.2-2.7,0.4-4.6,0.6c1.8-0.2,3.3-0.5,4.5-0.7c1.1-0.2,2-0.5,2.5-0.7c-0.8,0.3-2.1,0.5-3.8,0.8
			l-2.2,0.3c-1.4,0.2-2.9,0.3-4.7,0.5c-7.6,0.7-16.7,1-27.4,1c-10.7,0-19.9-0.4-27.4-1c-3.4-0.3-6-0.7-7.9-1.1
			c-1.2-0.3-2.1-0.7-2.6-1.1C406.5,5.4,406.4,5.3,406.3,5.1z M410.3,6.9c1.5,0.3,3.5,0.6,6,0.9c-0.5,0-1-0.1-1.5-0.1
			C413.1,7.4,411.6,7.1,410.3,6.9z"/>
		<path fill-rule="evenodd" clip-rule="evenodd" fill="#FFFFFF" fill-opacity="0.9882" d="M414.8,7.6c0.4,0,0.9,0.1,1.5,0.1
			c-2.4-0.3-4.4-0.6-6-0.9c-0.7-0.1-1.3-0.3-1.8-0.4c0.2,0,0.4,0.1,0.6,0.1c1.9,0.4,4.5,0.7,7.9,1.1c7.5,0.7,16.7,1,27.4,1
			c10.7,0,19.8-0.4,27.4-1c1.7-0.2,3.3-0.3,4.7-0.5l2.2-0.3c1.7-0.3,3-0.6,3.8-0.8c-0.5,0.2-1.4,0.5-2.5,0.7
			c-1.2,0.2-2.7,0.5-4.5,0.7c1.9-0.2,3.4-0.4,4.6-0.6c0.2,0,0.4-0.1,0.6-0.1c0.7-0.2,1.3-0.3,1.8-0.4c-1.5,0.7-5.6,1.3-12.2,2
			c-1.9,0.2-4,0.4-6.5,0.6c-3.6,0.3-7.9,0.6-12.9,1V9.8c-2.8-0.2-7.5-0.2-14.1-0.2c-6.6,0-12.6-0.3-18.1-1.1
			c-4.4-0.6-7.6-1.2-9.7-1.7C410.5,7.1,412.5,7.4,414.8,7.6z"/>
		<path fill-rule="evenodd" clip-rule="evenodd" fill="#FFFFFF" d="M406.2,5.1L406.2,5.1l0.1,0.1c0,0,0,0.1,0,0.1
			C406.2,5.3,406.2,5.2,406.2,5.1c0,0-0.1,0-0.1,0L406.2,5.1z"/>
	</g>
	<g>
		<path fill-rule="evenodd" clip-rule="evenodd" fill="#FFFFFF" d="M429.5,18.8l0-0.1c0.4-0.3,0.8-0.5,1.3-0.4
			c0.5,0,0.9,0.1,1.3,0.4c0.3,0.3,0.5,0.7,0.6,1.1c0,0.1,0,0.1,0,0.3c0,0.5-0.2,0.9-0.5,1.3l-0.1,0c-0.3,0.3-0.8,0.5-1.3,0.6
			c-0.5,0-0.9-0.2-1.3-0.6c-0.4-0.4-0.5-0.8-0.5-1.3C429,19.5,429.1,19.1,429.5,18.8z M429.8,19c-0.3,0.3-0.4,0.6-0.4,1
			s0.1,0.7,0.4,1c0.3,0.3,0.7,0.5,1,0.5c0.4,0,0.7-0.1,1-0.5l0.1,0c0.1-0.1,0.2-0.2,0.3-0.3c0.1-0.2,0.2-0.4,0.2-0.7
			c0-0.1,0-0.2,0-0.3c-0.1-0.3-0.3-0.6-0.5-0.8c-0.2-0.2-0.5-0.4-1-0.4C430.5,18.6,430.1,18.7,429.8,19z"/>
	</g>
	<g>
		<path fill-rule="evenodd" clip-rule="evenodd" fill="#FFFFFF" d="M460,21.6c0-0.1,0-0.2,0-0.3c-0.1-0.3-0.3-0.6-0.5-0.8
			c-0.2-0.2-0.5-0.3-1-0.3s-0.8,0.1-1,0.3c-0.3,0.3-0.4,0.7-0.4,1.1s0.1,0.7,0.4,1c0.3,0.3,0.6,0.5,1,0.5c0.4,0,0.7-0.1,1-0.5l0.1,0
			c0.1-0.1,0.2-0.2,0.3-0.3C459.9,22.1,460,21.9,460,21.6z M459.8,20.3c0.3,0.3,0.5,0.7,0.6,1.1c0,0.1,0,0.1,0,0.3
			c0,0.5-0.2,0.9-0.5,1.3l0,0c-0.3,0.3-0.8,0.5-1.3,0.6c-0.5,0-1-0.2-1.3-0.6c-0.4-0.4-0.5-0.8-0.5-1.3c-0.1-0.5,0.1-0.9,0.5-1.3
			l0-0.1c0.4-0.3,0.8-0.5,1.3-0.5C459,19.8,459.4,19.9,459.8,20.3z"/>
	</g>
	<g>
		<path fill-rule="evenodd" clip-rule="evenodd" fill="#FFFFFF" d="M456.4,34c-0.1-0.3-0.3-0.6-0.5-0.8c-0.2-0.2-0.5-0.4-0.9-0.4
			c-0.4,0-0.7,0.1-1,0.4c-0.2,0.3-0.3,0.6-0.3,0.9c0,0.4,0.1,0.7,0.3,1c0.3,0.3,0.6,0.4,1,0.4c0.4,0,0.7-0.1,0.9-0.4h0.1
			c0.1-0.1,0.2-0.2,0.3-0.3c0.1-0.2,0.2-0.4,0.2-0.7C456.4,34,456.4,34,456.4,34z M456.2,33c0.3,0.3,0.5,0.6,0.5,1c0,0,0,0.1,0,0.2
			c0,0.5-0.2,0.9-0.5,1.2l0,0c-0.3,0.3-0.7,0.5-1.2,0.5c-0.5,0-0.9-0.2-1.3-0.5c-0.3-0.4-0.5-0.8-0.5-1.3c0-0.4,0.1-0.8,0.5-1.1l0,0
			c0.3-0.3,0.7-0.5,1.2-0.5C455.5,32.5,455.9,32.6,456.2,33z"/>
	</g>
	<g>
		<path fill-rule="evenodd" clip-rule="evenodd" fill="#FFFFFF" d="M443.9,32c-0.1-0.2-0.3-0.3-0.6-0.3s-0.5,0.1-0.7,0.3
			c-0.2,0.2-0.3,0.4-0.3,0.6c0,0.3,0.1,0.5,0.3,0.7c0.2,0.2,0.4,0.3,0.7,0.3s0.5-0.1,0.6-0.3h0c0.1-0.1,0.1-0.1,0.2-0.2
			c0.1-0.1,0.1-0.3,0.1-0.5c0-0.1,0-0.1,0-0.1C444.2,32.3,444.1,32.1,443.9,32z M443.3,31.5c0.3,0,0.6,0.1,0.8,0.3
			c0.2,0.2,0.4,0.4,0.4,0.7c0,0,0,0.1,0,0.1c0,0.3-0.2,0.6-0.3,0.9l-0.1,0c-0.2,0.2-0.5,0.3-0.8,0.4c-0.3,0-0.6-0.1-0.9-0.4
			c-0.2-0.3-0.3-0.6-0.3-0.9c0-0.3,0.1-0.6,0.3-0.8l0-0.1C442.7,31.6,443,31.5,443.3,31.5z"/>
	</g>
	<g>
		<path fill-rule="evenodd" clip-rule="evenodd" fill="#FFFFFF" d="M453.7,22L453.7,22c0.3-0.3,0.6-0.4,1-0.4c0.4,0,0.7,0.1,0.9,0.4
			c0.3,0.2,0.4,0.5,0.4,0.8c0,0.1,0,0.1,0,0.2c0,0.4-0.1,0.7-0.4,0.9l0,0.1c-0.2,0.2-0.5,0.4-0.9,0.4c-0.4,0-0.8-0.1-1-0.4
			c-0.3-0.3-0.4-0.6-0.4-1C453.3,22.6,453.4,22.3,453.7,22z M455.5,22.1c-0.2-0.2-0.4-0.3-0.7-0.3c-0.3,0-0.6,0.1-0.8,0.3
			c-0.2,0.2-0.3,0.5-0.3,0.8c0,0.3,0.1,0.5,0.3,0.8c0.2,0.2,0.5,0.4,0.8,0.4c0.3,0,0.5-0.1,0.7-0.4l0,0c0.1-0.1,0.2-0.1,0.2-0.2
			c0.1-0.2,0.1-0.4,0.1-0.5c0-0.1,0-0.1,0-0.2C455.7,22.5,455.6,22.3,455.5,22.1z"/>
	</g>
	<g>
		<path fill-rule="evenodd" clip-rule="evenodd" fill="#FFFFFF" d="M443.5,20.7c0.4,0,0.7,0.1,0.9,0.3c0.3,0.2,0.4,0.5,0.4,0.8
			c0,0.1,0,0.1,0,0.2c0,0.4-0.1,0.7-0.4,1l0,0c-0.2,0.2-0.5,0.4-0.9,0.5c-0.4,0-0.8-0.1-1-0.5c-0.3-0.3-0.4-0.6-0.4-1
			c0-0.4,0.1-0.7,0.4-0.9l0-0.1C442.8,20.8,443.1,20.7,443.5,20.7z M444.2,21.3c-0.2-0.2-0.4-0.3-0.7-0.3c-0.3,0-0.6,0.1-0.8,0.3
			c-0.2,0.2-0.3,0.5-0.3,0.8c0,0.3,0.1,0.6,0.3,0.8c0.2,0.2,0.5,0.4,0.8,0.4c0.3,0,0.5-0.1,0.7-0.4l0-0.1c0.1-0.1,0.2-0.1,0.2-0.2
			c0.1-0.2,0.1-0.4,0.1-0.6c0-0.1,0-0.1,0-0.2C444.5,21.6,444.4,21.4,444.2,21.3z"/>
	</g>
</g>
<g>
	<g>
		<path fill-rule="evenodd" clip-rule="evenodd" fill="#FFFFFF" fill-opacity="8.627451e-002" d="M487.1,5.2c0,0,0.1,0.1,0.2,0.1
			c0,0,0-0.1,0-0.1V5.1c0.1,0.1,0.2,0.2,0.3,0.3c0.5,0.4,1.3,0.8,2.5,1.1c-0.2,0-0.4-0.1-0.6-0.1c0.5,0.1,1.1,0.3,1.8,0.4
			c1.2,0.3,2.7,0.5,4.5,0.8c-2.4-0.3-4.3-0.5-5.8-0.9c2.1,0.5,4.8,1.1,8,1.7c3.3,0.6,9.1,1,17.3,1c8.2,0,13.7,0.1,16.5,0.3v0.1
			c8,0,12.3-0.3,13-1c6.3,0,10.9-0.3,14-0.9c3-0.6,4.5-1,4.6-1.3c1.2-0.5,2-1.1,2.3-1.6h-0.2c0,0,0-0.1,0-0.1l0.1-0.4h0.2v0.1h0.2
			V59v13.6l-0.2,0.1c-0.2,1.1-0.7,2.1-1.7,3c-1.1,1-2.6,1.6-4.5,1.8v0.2c-11,2-23.2,3-36.6,2.8c-11.2-0.2-21.1-1-29.5-2.5
			c-2-0.4-3.6-1.2-4.8-2.5c-0.7-0.7-1.2-1.4-1.4-2.1l0,0v0c-0.1-0.5-0.2-0.9-0.2-1.3v-10V5.2L487.1,5.2z M487.2,5.2l-0.1-0.1V5
			C487.1,5.1,487.2,5.1,487.2,5.2z"/>
		<path fill-rule="evenodd" clip-rule="evenodd" fill="#FFFFFF" fill-opacity="0.298" d="M563.3,6.7c-0.2-0.2-0.2-0.4,0.1-0.5
			c-0.4,0.1-1,0.3-1.7,0.4c-0.2,0-0.5,0.1-0.7,0.1c-1.2,0.2-2.8,0.4-4.5,0.6c1.8-0.2,3.3-0.5,4.5-0.7c1.1-0.2,2-0.5,2.5-0.7
			c-0.8,0.3-2.1,0.5-3.8,0.8l-2.2,0.3c-1.4,0.2-2.9,0.3-4.7,0.5c-7.6,0.7-16.7,1-27.4,1c-10.7,0-19.9-0.4-27.4-1
			c-3.4-0.3-6-0.7-7.9-1.1c-1.2-0.3-2.1-0.7-2.5-1.1c-0.1-0.1-0.2-0.2-0.3-0.3v0h7.3c0,0.1,0,0.2,0,0.3c0.7,0.4,1.4,0.5,2.1,0.4
			c0,0,0,0.1,0,0.1c0,0.2,0.1,0.3,0.2,0.5c0.8,0.5,1.5,0.4,2.1-0.1c-0.4-0.4-1-0.5-1.6-0.4c0,0,0-0.1-0.1-0.1
			c-0.1-0.3-0.3-0.5-0.6-0.7h63.5c0.2,0.6,0.6,0.6,1.1,0h4.1h0.2C565.3,5.6,564.5,6.2,563.3,6.7z M491.3,6.9c1.5,0.3,3.5,0.6,6,0.9
			c-0.5,0-1-0.1-1.5-0.1C494,7.4,492.5,7.1,491.3,6.9z M543.3,6.4c-0.6,0.1-1,0.3-1.5,0.6c0,0,0,0,0.1,0
			C543.1,7.4,543.6,7.2,543.3,6.4z M551.5,6.5c0,0-0.1-0.1-0.1-0.1c-0.3-0.1-0.6-0.2-1-0.1c-0.2,0-0.2,0-0.2,0.1
			C550.5,7.2,551,7.2,551.5,6.5z M523,6.9c-0.2,0-0.3,0-0.2,0.1c2,0.9,4.3,1,6.7,0.3C527.3,7.1,525.1,7,523,6.9z M512.9,6.9
			c0.6,0.8,1.3,0.9,2.1,0.1v0c-0.5-0.5-1.1-0.6-2-0.3C512.9,6.8,512.8,6.8,512.9,6.9z"/>
		<path fill-rule="evenodd" clip-rule="evenodd" fill="#FFFFFF" d="M496.8,5.1c0.3,0.2,0.5,0.4,0.6,0.7c0,0,0.1,0.1,0.1,0.1
			c0.7-0.2,1.3,0,1.6,0.4c-0.6,0.5-1.3,0.6-2.1,0.1c-0.1-0.1-0.2-0.3-0.2-0.5c0,0,0-0.1,0-0.1c-0.7,0.1-1.4-0.1-2.1-0.4
			c0-0.1,0-0.1,0-0.3c0-0.2,0-0.3,0-0.5c0-0.1,0.1-0.2,0.3-0.2c0.2,0.1,0.4,0.2,0.4,0.4c0,0,0,0.1,0,0.1
			C495.9,4.8,496.4,4.8,496.8,5.1z M487.1,5.2c0,0-0.1-0.1-0.1-0.1L487.1,5.2h0.1l0,0c0,0,0,0.1,0,0.1
			C487.2,5.3,487.1,5.2,487.1,5.2z M561.3,5.1c-0.5,0.6-0.9,0.6-1.1,0c0-0.1-0.1-0.1-0.1-0.3c0-0.1,0-0.1,0.1-0.1c0.4,0,0.8,0,1,0.1
			c0,0,0.1,0.1,0.1,0.1C561.3,5,561.3,5.1,561.3,5.1z M551.5,6.5c-0.5,0.7-1,0.7-1.3-0.1c0-0.1,0-0.1,0.2-0.1c0.4,0,0.7,0,1,0.1
			C551.4,6.4,551.5,6.5,551.5,6.5z M543.3,6.4c0.3,0.8-0.2,1-1.4,0.6c0,0-0.1,0-0.1,0C542.3,6.7,542.7,6.5,543.3,6.4z M539.7,1.1
			c0.6,0.1,1.2,0.3,1.6,0.5c0,0,0,0.1,0,0.1c-0.8,0.5-1.4,0.4-1.8-0.5C539.5,1.2,539.6,1.1,539.7,1.1z M523,6.9
			c2.2,0.1,4.3,0.2,6.5,0.4c-2.4,0.6-4.6,0.5-6.7-0.3C522.7,6.9,522.8,6.9,523,6.9z M517.2,1c0.7-0.3,1.3-0.3,1.8,0.3v0
			C518.1,2,517.5,2,517,1.1C516.9,1,517,1,517.2,1z M512.9,6.9c-0.1-0.1,0-0.1,0.1-0.1c0.9-0.4,1.5-0.3,2,0.3v0
			C514.2,7.8,513.5,7.7,512.9,6.9z"/>
		<path fill-rule="evenodd" clip-rule="evenodd" fill="#FFFFFF" fill-opacity="0.9882" d="M495.8,7.6c0.4,0,0.9,0.1,1.5,0.1
			c-2.4-0.3-4.4-0.6-6-0.9c-0.7-0.1-1.3-0.3-1.8-0.4c0.2,0,0.4,0.1,0.6,0.1c1.9,0.4,4.5,0.7,7.9,1.1c7.5,0.7,16.7,1,27.4,1
			c10.7,0,19.8-0.4,27.4-1c1.7-0.2,3.3-0.3,4.7-0.5l2.2-0.3c1.7-0.3,3-0.6,3.8-0.8c-0.5,0.2-1.4,0.5-2.5,0.7
			c-1.2,0.2-2.7,0.5-4.5,0.7c1.8-0.2,3.3-0.4,4.5-0.6c0.2,0,0.5-0.1,0.7-0.1c0.7-0.2,1.3-0.3,1.7-0.4c-0.3,0.1-0.3,0.3-0.1,0.5
			c-0.1,0.3-1.6,0.7-4.6,1.3c-3,0.6-7.7,0.9-14,0.9c-0.6,0.7-5,1-13,1V9.8c-2.8-0.2-8.3-0.3-16.5-0.3c-8.2,0-14-0.4-17.3-1
			c-3.3-0.6-6-1.2-8-1.7C491.5,7.1,493.4,7.4,495.8,7.6z"/>
	</g>
	<g>
		<path fill-rule="evenodd" clip-rule="evenodd" fill="#FFFFFF" d="M513,13.4c0.3,0.3,0.5,0.7,0.6,1.1c0,0.1,0,0.1,0,0.3
			c0,0.5-0.2,0.9-0.6,1.3l0,0c-0.3,0.3-0.8,0.5-1.3,0.6c-0.5,0-1-0.2-1.3-0.6c-0.4-0.4-0.5-0.8-0.5-1.3c-0.1-0.5,0.1-0.9,0.5-1.3
			l0-0.1c0.4-0.3,0.8-0.5,1.3-0.4C512.3,12.9,512.7,13.1,513,13.4z M513.3,14.5c-0.1-0.3-0.3-0.6-0.5-0.8c-0.2-0.2-0.5-0.4-1-0.4
			c-0.4,0-0.8,0.1-1,0.4c-0.3,0.3-0.4,0.6-0.4,1s0.1,0.7,0.4,1c0.3,0.3,0.7,0.5,1,0.5c0.4,0,0.7-0.1,1-0.5l0.1,0
			c0.1-0.1,0.2-0.2,0.3-0.3c0.1-0.2,0.2-0.4,0.2-0.7C513.3,14.6,513.3,14.6,513.3,14.5z"/>
	</g>
	<g>
		<path fill-rule="evenodd" clip-rule="evenodd" fill="#FFFFFF" d="M543.3,14.7c0,0.1,0,0.1,0,0.3c0,0.5-0.2,0.9-0.5,1.3l0,0
			c-0.3,0.3-0.8,0.5-1.3,0.6c-0.5,0-1-0.2-1.4-0.6c-0.4-0.4-0.5-0.8-0.4-1.3c-0.1-0.5,0.1-0.9,0.4-1.3l0.1-0.1
			c0.4-0.3,0.8-0.5,1.3-0.5c0.5,0,0.9,0.1,1.3,0.5C543,13.9,543.2,14.3,543.3,14.7z M543,15c0-0.1,0-0.2,0-0.3
			c-0.1-0.3-0.3-0.6-0.5-0.8s-0.6-0.4-1-0.4c-0.4,0-0.8,0.1-1,0.4c-0.3,0.3-0.4,0.6-0.4,1.1c0,0.4,0.1,0.7,0.4,1
			c0.3,0.3,0.6,0.5,1,0.5c0.4,0,0.7-0.2,1-0.5l0.1,0c0.1-0.1,0.2-0.2,0.3-0.3C542.9,15.5,543,15.2,543,15z"/>
	</g>
	<g>
		<path fill-rule="evenodd" clip-rule="evenodd" fill="#FFFFFF" d="M538.5,26.8c0.3,0.3,0.5,0.6,0.5,1c0,0,0,0.1,0,0.2
			c0,0.5-0.2,0.9-0.5,1.2l0,0c-0.3,0.3-0.7,0.5-1.2,0.5c-0.5,0-0.9-0.2-1.3-0.5c-0.3-0.4-0.5-0.8-0.4-1.3c0-0.4,0.1-0.8,0.4-1.1
			l0.1-0.1c0.3-0.3,0.7-0.5,1.2-0.4C537.8,26.3,538.2,26.5,538.5,26.8z M538.7,27.8c-0.1-0.3-0.3-0.5-0.5-0.8
			c-0.2-0.2-0.5-0.3-0.9-0.3c-0.4,0-0.7,0.1-1,0.3c-0.2,0.3-0.3,0.6-0.3,1c0,0.4,0.1,0.7,0.3,1c0.3,0.3,0.6,0.4,1,0.4
			c0.4,0,0.7-0.1,0.9-0.4h0.1c0.1-0.1,0.2-0.2,0.3-0.3c0.1-0.2,0.2-0.4,0.2-0.7C538.7,27.9,538.7,27.8,538.7,27.8z"/>
	</g>
	<g>
		<path fill-rule="evenodd" clip-rule="evenodd" fill="#FFFFFF" d="M519.2,25.9c0.1-0.1,0.1-0.3,0.1-0.5c0-0.1,0-0.1,0-0.1
			c-0.1-0.2-0.2-0.4-0.3-0.5c-0.1-0.2-0.3-0.3-0.6-0.3s-0.5,0.1-0.7,0.3c-0.2,0.2-0.3,0.4-0.3,0.6c0,0.3,0.1,0.5,0.3,0.7
			c0.2,0.2,0.4,0.3,0.7,0.3s0.5-0.1,0.6-0.3h0C519.1,26,519.1,26,519.2,25.9z M517.5,24.6L517.5,24.6c0.3-0.3,0.6-0.4,0.9-0.4
			c0.3,0,0.6,0.1,0.8,0.3c0.2,0.2,0.4,0.4,0.4,0.7c0,0,0,0.1,0,0.1c0,0.3-0.1,0.6-0.3,0.9l0,0c-0.2,0.2-0.5,0.3-0.8,0.4
			c-0.3,0-0.6-0.1-0.9-0.4c-0.2-0.3-0.3-0.6-0.3-0.9C517.1,25.1,517.2,24.8,517.5,24.6z"/>
	</g>
	<g>
		<path fill-rule="evenodd" clip-rule="evenodd" fill="#FFFFFF" d="M536.3,26.3c-0.2-0.2-0.4-0.3-0.7-0.3c-0.3,0-0.6,0.1-0.8,0.3
			c-0.2,0.2-0.3,0.5-0.3,0.8c0,0.3,0.1,0.6,0.3,0.8c0.2,0.2,0.5,0.4,0.8,0.4c0.3,0,0.5-0.1,0.7-0.4l0-0.1c0.1-0.1,0.2-0.1,0.2-0.2
			c0.1-0.2,0.2-0.4,0.2-0.6c0-0.1,0-0.1-0.1-0.2C536.5,26.6,536.4,26.4,536.3,26.3z M536.9,26.9c0,0.1,0,0.1,0,0.2
			c0,0.4-0.1,0.7-0.4,1l0,0c-0.2,0.2-0.5,0.4-0.9,0.5c-0.4,0-0.8-0.1-1-0.5c-0.3-0.3-0.4-0.6-0.3-1c0-0.4,0.1-0.7,0.3-0.9l0-0.1
			c0.3-0.3,0.6-0.4,1-0.3c0.4,0,0.7,0.1,0.9,0.3C536.7,26.3,536.9,26.5,536.9,26.9z"/>
	</g>
	<g>
		<path fill-rule="evenodd" clip-rule="evenodd" fill="#FFFFFF" d="M525.9,29.8c-0.2-0.2-0.4-0.3-0.7-0.3c-0.3,0-0.6,0.1-0.8,0.3
			c-0.2,0.2-0.3,0.5-0.3,0.8c0,0.3,0.1,0.6,0.3,0.8c0.2,0.2,0.5,0.4,0.8,0.4c0.3,0,0.5-0.1,0.7-0.4l0-0.1c0.1-0.1,0.2-0.1,0.2-0.2
			c0.1-0.2,0.1-0.4,0.1-0.6c0-0.1,0-0.1,0-0.2C526.2,30.1,526.1,29.9,525.9,29.8z M526.5,30.4c0,0.1,0,0.1,0,0.2
			c0,0.4-0.1,0.7-0.4,1l-0.1,0c-0.2,0.2-0.5,0.4-0.9,0.5c-0.4,0-0.8-0.1-1-0.5c-0.3-0.3-0.4-0.6-0.4-1c0-0.4,0.1-0.7,0.4-0.9l0-0.1
			c0.3-0.3,0.6-0.4,1-0.3c0.4,0,0.7,0.1,0.9,0.3C526.4,29.8,526.5,30,526.5,30.4z"/>
	</g>
</g>
<g>
	<g>
		<path fill-rule="evenodd" clip-rule="evenodd" fill="#FFFFFF" fill-opacity="0.298" d="M642.8,5.1h0.7c-0.2,0.2-0.3,0.4-0.5,0.6
			c0.6,0,0.9-0.2,1-0.6h2.5h0.2c-0.2,0.4-1,0.9-2.2,1.3c0-0.1,0-0.1,0-0.1c-0.4,0.1-1,0.3-1.7,0.4c-0.2,0-0.5,0.1-0.7,0.1
			c-1.2,0.2-2.8,0.4-4.5,0.6c1.8-0.2,3.3-0.5,4.5-0.7c1.1-0.2,2-0.5,2.5-0.7c-1,0.3-3.1,0.8-6.3,1.3c-2.1,0.3-4.7,0.6-7.7,0.9
			C622.8,9,615,9.5,607.2,9.5c-7.9,0-12.7-0.2-14.4-0.7c0.3-0.1,0.5-0.1,0.8-0.3c-0.8-0.2-1.6-0.1-2.5,0c-0.1,0-0.3,0.1-0.4,0.1
			c-0.7-0.1-1.4-0.1-2-0.1c-0.4-0.1-0.8-0.2-1.2-0.4h0c-0.4-0.2-0.8-0.4-1.3-0.5c-0.5-0.1-1-0.2-1.5-0.3c0.6,0.2,1.2,0.4,1.8,0.7
			c0.1,0,0.1,0,0.2,0.1c0.2,0.1,0.5,0.3,0.8,0.4c-2-0.2-3.8-0.3-5.4-0.5c-5.1-0.6-8.6-1-10.4-1.4c-0.2,0-0.3-0.1-0.5-0.1
			c-0.4-0.1-0.8-0.3-1.2-0.3c-0.7-0.3-1.2-0.5-1.5-0.8c-0.1-0.1-0.2-0.2-0.3-0.3v0h70.4c-0.6,0.8-1.5,1.1-2.9,1
			c1.1,0.4,2,0.3,2.8-0.5c0.2-0.2,0.3-0.4,0.4-0.5h3.4c-0.1,0-0.1,0.1-0.1,0.1c0,0.1,0.1,0.1,0.3,0.1C642.7,5.3,642.8,5.2,642.8,5.1
			z M590.3,7c-0.7-0.2-1.3-0.4-2-0.5C588.6,7,589.3,7.2,590.3,7z M604,7.8L604,7.8c0,0.4,0.2,0.5,0.6,0.3
			C604.4,7.9,604.2,7.8,604,7.8z M611.5,7.9c-0.1,0-0.3,0.1-0.4,0.1c0.5-0.1,1.1,0,1.7,0.2c0.4,0.1,0.8,0.2,1.2,0.3
			c0.5,0,1.1,0,1.6,0c0.5-0.1,1.1-0.3,1.6-0.6c-1.3,0.3-2.6,0.2-3.9-0.1C612.6,7.6,612,7.6,611.5,7.9z M609.8,8.3
			C609.9,8.3,609.9,8.3,609.8,8.3c-0.9,0-1.9-0.2-2.8-0.8h0c0.1,0.3,0.3,0.6,0.5,0.8c-0.5,0.1-0.9,0.2-1.4,0.3c-1.5,0-3,0-4.4,0
			c-0.6-0.1-1.2-0.2-1.8-0.4c-0.2,0.1-0.2,0.3,0,0.4c0.1,0,0.2,0.1,0.3,0.1c2.3,0.6,4.5,0.5,6.7-0.1c0.2-0.1,0.4-0.1,0.6-0.2
			c0.1,0.1,0.3,0.2,0.4,0.2c0.3,0,0.7,0,1,0C609.3,8.5,609.6,8.4,609.8,8.3z M629.7,7.8c1.6-0.2,2.5-0.8,2.8-1.8
			c-1.8,1.2-3.8,1.6-6.1,1.5C627.4,7.8,628.5,7.9,629.7,7.8z M578.8,6.8c0.6-0.1,1.2-0.1,1.8,0c-2.1-0.3-4.3-0.4-6.3-0.5
			c0,0.4,0.5,0.6,1.5,0.6S577.8,6.9,578.8,6.8z"/>
		<path fill-rule="evenodd" clip-rule="evenodd" fill="#FFFFFF" d="M644,5.1c-0.1,0.4-0.4,0.6-1,0.6c0.2-0.2,0.4-0.4,0.5-0.6
			c0.2-0.2,0.3-0.4,0.4-0.6C644,4.8,644,4.9,644,5.1z M568.2,5.1L568.2,5.1l0.1,0.1c0,0,0,0.1,0,0.1C568.2,5.3,568.2,5.2,568.2,5.1
			c0,0-0.1,0-0.1,0L568.2,5.1z M638.7,5.1c0.1-0.1,0.1-0.2,0.2-0.4c0.1,0.1,0.1,0.2,0,0.4c-0.1,0.1-0.2,0.3-0.4,0.5
			c-0.8,0.8-1.7,0.9-2.8,0.5C637.2,6.2,638.1,5.9,638.7,5.1z M642.8,5.1c-0.1,0.1-0.2,0.2-0.3,0.3c-0.1,0-0.2,0-0.3-0.1
			c0-0.1,0-0.1,0.1-0.1c0.1,0,0.2-0.1,0.3-0.2c-0.2-0.1-0.3-0.2-0.3-0.4c0,0,0,0,0.1,0c0.1,0,0.3,0,0.3,0c0,0,0.1,0,0.1,0
			C643,4.7,643,4.9,642.8,5.1z M637.8,2.8c-1,0.7-1.8,0.6-2.5-0.3c0,0,0-0.1,0.2-0.1C636.4,2.1,637.2,2.2,637.8,2.8L637.8,2.8z
			 M629.7,7.8c-1.2,0.1-2.3,0-3.3-0.3c2.3,0.2,4.3-0.3,6.1-1.5C632.2,7,631.3,7.5,629.7,7.8z M609.8,8.3c-0.3,0.1-0.5,0.2-0.8,0.3
			c-0.3,0-0.7,0-1,0c-0.2,0-0.3-0.1-0.4-0.2c-0.2,0.1-0.4,0.1-0.6,0.2c-2.2,0.6-4.4,0.6-6.7,0.1c-0.1,0-0.2-0.1-0.3-0.1
			c-0.2-0.1-0.2-0.2,0-0.4c0.6,0.2,1.2,0.3,1.8,0.4c1.4,0,2.9,0,4.4,0c0.5-0.1,0.9-0.1,1.4-0.3c-0.2-0.2-0.4-0.4-0.5-0.8h0
			C608,8.1,608.9,8.3,609.8,8.3C609.9,8.3,609.9,8.3,609.8,8.3z M611.5,7.9c0.6-0.2,1.1-0.2,1.7-0.1c1.4,0.4,2.7,0.4,3.9,0.1
			c-0.5,0.3-1.1,0.5-1.6,0.6c-0.5,0-1.1,0-1.6,0c-0.4,0-0.8-0.1-1.2-0.3c-0.6-0.2-1.1-0.3-1.7-0.2C611.2,7.9,611.3,7.9,611.5,7.9z
			 M604,7.8c0.2,0,0.5,0.1,0.6,0.3C604.2,8.2,603.9,8.1,604,7.8L604,7.8z M590.3,7c-1.1,0.2-1.8,0-2-0.5C589,6.6,589.7,6.8,590.3,7z
			 M587.4,8.5c-0.3-0.1-0.5-0.2-0.8-0.4c0,0-0.1-0.1-0.2-0.1c-0.6-0.3-1.2-0.5-1.8-0.7c0.5,0.1,1,0.2,1.5,0.3
			c0.4,0.1,0.8,0.3,1.3,0.5h0c0.4,0.2,0.8,0.3,1.2,0.4c0.6,0,1.3,0.1,2,0.1c0.1,0,0.3-0.1,0.4-0.1c0.9-0.2,1.8-0.2,2.5,0
			c-0.3,0.1-0.5,0.2-0.8,0.3C590.9,9.2,589.1,9.1,587.4,8.5z M578.8,6.8c-1,0.1-2,0.1-3,0.1s-1.5-0.2-1.5-0.6c2.1,0,4.2,0.2,6.3,0.5
			C580,6.7,579.4,6.7,578.8,6.8z M584,2.3c1.6-0.1,3.3-0.4,5-0.9c-0.3,0.8-1.4,1.3-3.3,1.5C584.8,3,584.3,2.8,584,2.3z M574.8,4.3
			L574.8,4.3c0.5,0.1,0.8,0.3,1.2,0.5v0C575.3,4.9,574.9,4.7,574.8,4.3z M573,3.7c-0.5,0.1-1.1,0.2-1.8,0.4c-0.1,0-0.1,0.1-0.2,0.2
			c0.3,0.1,0.7,0.2,1.2,0.3c0.2,0,0.3,0.1,0.3,0.2c-0.9,0.2-1.4,0-1.5-0.5c0-0.1,0-0.2,0-0.3c0-0.1,0.1-0.2,0.2-0.3
			c0.3-0.1,0.7-0.2,1-0.3C572.7,3.4,572.9,3.4,573,3.7L573,3.7z"/>
		<path fill-rule="evenodd" clip-rule="evenodd" fill="#FFFFFF" fill-opacity="8.627451e-002" d="M568.3,5.3V5.1
			c0.1,0.1,0.2,0.2,0.3,0.3c0.3,0.2,0.8,0.5,1.5,0.8c-1.6-0.4-1.7-0.3-0.2,0.3c2.3,0.5,2.7,0.6,1.3,0.3c-3.2-0.1-1.8,0.4,4.3,1.4
			c6.1,1,12.1,1.7,18.1,2.1c6,0.4,12.5,0.2,19.5-0.5c0.4,0.8,2.7,0.9,6.8,0.2c1.1-0.1,3,0,6,0.1c2.8,0.1,5.5-0.4,8-1.5l-5.3,0
			c2.3-0.1,5.1-0.3,8.4-0.4c4.6-0.2,7.1-0.9,7.6-1.9c1.2-0.4,2-0.8,2.2-1.3h-0.2c0,0,0-0.1,0-0.1l0.1-0.4h0.2v0.1h0.2V59v13.6
			l-0.2,0.1c-0.2,1.1-0.7,2.1-1.7,3c-1.1,1-2.6,1.6-4.4,1.8v0.2c-11,2-23.2,3-36.6,2.8c-11.2-0.2-21.1-1-29.5-2.5
			c-2-0.4-3.6-1.2-4.8-2.5c-0.7-0.7-1.2-1.4-1.4-2.1l0,0v0c-0.1-0.4-0.2-0.9-0.1-1.3v-10V5.3v0c0,0,0.1,0.1,0.1,0.1
			C568.3,5.3,568.3,5.3,568.3,5.3z M568.3,5.2L568.3,5.2L568.2,5C568.2,5.1,568.2,5.2,568.3,5.2z"/>
		<path fill-rule="evenodd" clip-rule="evenodd" fill="#FFFFFF" fill-opacity="0.9882" d="M570,6.2c0.3,0.1,0.7,0.2,1.2,0.3
			c0.2,0,0.3,0.1,0.5,0.1C573.5,7,577,7.4,582,8c1.5,0.1,3.3,0.3,5.4,0.5c1.7,0.6,3.5,0.7,5.4,0.3c1.7,0.5,6.5,0.7,14.4,0.7
			c7.8,0,15.6-0.4,23.3-1.3c3-0.4,5.5-0.7,7.7-0.9c3.2-0.5,5.3-0.9,6.3-1.3c-0.5,0.2-1.4,0.5-2.5,0.7c-1.2,0.2-2.7,0.5-4.5,0.7
			c1.8-0.2,3.3-0.4,4.5-0.6c0.2,0,0.5-0.1,0.7-0.1c0.7-0.2,1.3-0.3,1.7-0.4c0,0,0,0.1,0,0.1c-0.5,1-3,1.6-7.6,1.9
			c-3.3,0.2-6.1,0.3-8.4,0.4l5.3,0c-2.5,1.1-5.2,1.6-8,1.5c-2.9-0.2-4.9-0.2-6-0.1c-4.1,0.7-6.4,0.7-6.8-0.2
			c-7,0.7-13.5,0.9-19.5,0.5c-6-0.4-12-1.1-18.1-2.1c-6.1-1-7.5-1.5-4.3-1.4c1.5,0.3,1,0.2-1.3-0.3C568.3,5.9,568.4,5.8,570,6.2z"/>
	</g>
	<g>
		<path fill-rule="evenodd" clip-rule="evenodd" fill="#FFFFFF" d="M589,10.1c0.3,0.3,0.5,0.7,0.6,1.1c0,0.1,0,0.1,0,0.3
			c0,0.5-0.2,0.9-0.5,1.3l0,0c-0.3,0.3-0.8,0.5-1.3,0.6c-0.5,0-1-0.2-1.4-0.6c-0.4-0.4-0.5-0.8-0.4-1.3c-0.1-0.5,0.1-0.9,0.4-1.3
			l0.1-0.1c0.4-0.3,0.8-0.5,1.3-0.4C588.2,9.7,588.6,9.8,589,10.1z M589.2,11.3c-0.1-0.3-0.3-0.6-0.5-0.8c-0.2-0.2-0.6-0.4-1-0.4
			c-0.4,0-0.8,0.1-1,0.4c-0.3,0.3-0.4,0.6-0.4,1s0.1,0.7,0.4,1c0.3,0.3,0.6,0.5,1,0.5c0.4,0,0.7-0.1,1-0.5l0.1,0
			c0.1-0.1,0.2-0.2,0.3-0.3c0.1-0.2,0.2-0.4,0.2-0.7C589.2,11.4,589.2,11.3,589.2,11.3z"/>
	</g>
	<g>
		<path fill-rule="evenodd" clip-rule="evenodd" fill="#FFFFFF" d="M623,9.9c0.4-0.3,0.8-0.5,1.3-0.4c0.5,0,0.9,0.1,1.3,0.4
			c0.3,0.3,0.5,0.7,0.6,1.1c0,0.1,0,0.1,0,0.3c0,0.5-0.2,0.9-0.5,1.3l-0.1,0c-0.3,0.3-0.8,0.5-1.3,0.6c-0.5,0-0.9-0.2-1.3-0.6
			c-0.4-0.4-0.5-0.8-0.5-1.3c-0.1-0.5,0.1-0.9,0.5-1.3L623,9.9z M623.3,10.2c-0.3,0.3-0.4,0.6-0.4,1s0.1,0.7,0.4,1
			c0.3,0.3,0.7,0.5,1,0.5c0.4,0,0.7-0.1,1-0.5l0.1,0c0.1-0.1,0.2-0.2,0.3-0.3c0.1-0.2,0.2-0.4,0.2-0.7c0-0.1,0-0.2,0-0.3
			c-0.1-0.3-0.3-0.6-0.5-0.8c-0.2-0.2-0.5-0.4-1-0.4C624,9.9,623.6,10,623.3,10.2z"/>
	</g>
	<g>
		<path fill-rule="evenodd" clip-rule="evenodd" fill="#FFFFFF" d="M618.8,19.1c-0.4,0-0.7,0.1-1,0.4c-0.2,0.3-0.3,0.6-0.3,0.9
			c0,0.4,0.1,0.7,0.3,1c0.3,0.3,0.6,0.4,1,0.4s0.7-0.1,0.8-0.4h0.1c0.1-0.1,0.1-0.2,0.3-0.3c0.1-0.2,0.1-0.4,0.1-0.7
			c0-0.1,0-0.2,0-0.2c-0.1-0.3-0.3-0.6-0.5-0.8C619.4,19.2,619.1,19.1,618.8,19.1z M617.5,21.6c-0.3-0.4-0.5-0.8-0.5-1.3
			c0-0.4,0.1-0.8,0.5-1.1l0,0c0.3-0.3,0.7-0.5,1.2-0.5c0.4,0,0.8,0.1,1.2,0.5c0.3,0.3,0.5,0.6,0.5,1c0,0,0,0.1,0,0.2
			c0,0.5-0.2,0.9-0.5,1.2l0,0c-0.3,0.3-0.7,0.5-1.2,0.5C618.3,22.1,617.9,22,617.5,21.6z"/>
	</g>
	<g>
		<path fill-rule="evenodd" clip-rule="evenodd" fill="#FFFFFF" d="M591.7,19.4c0,0.3,0.1,0.5,0.3,0.7c0.2,0.2,0.4,0.3,0.7,0.3
			s0.5-0.1,0.6-0.3h0c0.1-0.1,0.1-0.1,0.2-0.2c0.1-0.1,0.1-0.3,0.1-0.5c0-0.1,0-0.1,0-0.1c-0.1-0.2-0.2-0.4-0.3-0.5
			c-0.1-0.2-0.3-0.3-0.6-0.3s-0.5,0.1-0.7,0.3C591.8,19,591.7,19.2,591.7,19.4z M592.7,18.3c0.3,0,0.6,0.1,0.8,0.3
			c0.2,0.2,0.4,0.4,0.4,0.7c0,0,0,0.1,0,0.1c0,0.3-0.1,0.6-0.3,0.9l0,0c-0.2,0.2-0.5,0.3-0.8,0.4c-0.3,0-0.6-0.1-0.9-0.4
			c-0.2-0.3-0.3-0.6-0.3-0.9c0-0.3,0.1-0.6,0.3-0.8l0-0.1C592,18.3,592.3,18.2,592.7,18.3z"/>
	</g>
	<g>
		<path fill-rule="evenodd" clip-rule="evenodd" fill="#FFFFFF" d="M620.2,23.8c0.3,0.2,0.4,0.5,0.4,0.8c0,0.1,0,0.1,0,0.2
			c0,0.4-0.1,0.7-0.4,1l0,0c-0.2,0.2-0.5,0.4-0.9,0.5c-0.4,0-0.8-0.1-1-0.5c-0.3-0.3-0.4-0.6-0.4-1c0-0.4,0.1-0.7,0.4-0.9l0-0.1
			c0.3-0.3,0.6-0.4,1-0.3C619.6,23.4,619.9,23.5,620.2,23.8z M620.3,24.6c-0.1-0.2-0.2-0.4-0.3-0.6c-0.2-0.2-0.4-0.3-0.7-0.3
			c-0.3,0-0.6,0.1-0.8,0.3c-0.2,0.2-0.3,0.5-0.3,0.8c0,0.3,0.1,0.6,0.3,0.8c0.2,0.2,0.5,0.4,0.8,0.4c0.3,0,0.5-0.1,0.7-0.4l0-0.1
			c0.1-0.1,0.2-0.1,0.2-0.2c0.1-0.2,0.1-0.4,0.1-0.6C620.3,24.7,620.3,24.7,620.3,24.6z"/>
	</g>
	<g>
		<path fill-rule="evenodd" clip-rule="evenodd" fill="#FFFFFF" d="M602.6,28.8c0.4,0,0.7,0.1,0.9,0.4c0.3,0.2,0.4,0.5,0.5,0.8
			c0,0.1,0,0.1,0,0.2c0,0.4-0.1,0.7-0.4,0.9l0,0.1c-0.2,0.2-0.5,0.4-0.9,0.4c-0.4,0-0.8-0.1-1-0.4c-0.3-0.3-0.4-0.6-0.3-1
			c0-0.4,0.1-0.7,0.3-1l0,0C601.9,28.8,602.2,28.7,602.6,28.8z M603.3,29.3c-0.2-0.2-0.4-0.3-0.7-0.3c-0.3,0-0.6,0.1-0.8,0.3
			c-0.2,0.2-0.3,0.5-0.3,0.8c0,0.3,0.1,0.5,0.3,0.8c0.2,0.2,0.5,0.4,0.8,0.4c0.3,0,0.5-0.1,0.7-0.4l0,0c0.1-0.1,0.2-0.1,0.2-0.2
			c0.1-0.2,0.2-0.4,0.2-0.5c0-0.1,0-0.1,0-0.2C603.6,29.7,603.5,29.5,603.3,29.3z"/>
	</g>
</g>
<g>
	<g>
		<path fill-rule="evenodd" clip-rule="evenodd" fill="#FFFFFF" fill-opacity="0.9882" d="M727.4,5.6c0,0.1-0.1,0.1-0.2,0.2
			c-0.4,0.4-1.1,0.7-2,0.8c-0.3,0-0.7,0.1-1.2,0.1c0.2,0.1,0.4,0.1,0.5,0.2c0.5,0.4-1.2,0.8-4.9,1.2c-4.4,0.5-8.7,0.8-12.9,0.8
			c-1.8,0.8-6.5,1.2-14,1.3c-4.2,0.5-10.4,0.6-18.5,0.4c-8.1-0.2-13.3-0.7-15.6-1.6c-2.3-0.9-4.5-1.7-6.6-2.2c0.6,0,1.2,0.1,1.9,0.2
			c0.1,0,0.1,0,0.3,0c-0.3-0.1-0.6-0.1-0.8-0.1c-0.7-0.1-1.3-0.3-1.8-0.4c0.2,0,0.4,0.1,0.6,0.1c1.9,0.4,5.2,1,10,2
			c4.8,0.9,12.8,1.2,24,0.9c11.2-0.3,20.2-0.9,26.8-1.5c2.7-0.3,5-0.6,6.9-0.8l2.1-0.3c1.6-0.3,2.8-0.5,3.5-0.8
			c0.3-0.1,0.6-0.1,0.9-0.2C727,5.7,727.3,5.6,727.4,5.6z M719.5,5c0.2-0.2,0.4-0.4,0.8-0.5C720.4,4.9,720.2,5.1,719.5,5z
			 M712.3,5.1c0.6-0.2,1.2-0.6,1.7-1c0,0.3-0.2,0.6-0.7,1c-0.2,0.1-0.4,0.2-0.6,0.3c-0.9,0.3-1.8,0.4-2.5,0.1
			C710.9,5.5,711.6,5.4,712.3,5.1z M656.2,5.1c-0.2-0.1-0.5-0.3-0.7-0.5c-0.1-0.1,0-0.2,0.1-0.3c0.1,0,0.1-0.1,0.1-0.1
			c0.1,0.4,0.4,0.7,0.8,0.8c0.3,0.1,0.7,0.1,1.2,0.1c1.1-0.1,2.1,0,2.8,0.3C658.9,6,657.4,5.9,656.2,5.1z M704.5,5.5
			c-0.2,0.5-0.8,0.9-1.7,1.2c-1,0.3-1.8,0.3-2.4,0C701.7,6.5,703.1,6.1,704.5,5.5L704.5,5.5z M680,7.4c3.3,0,6.5-0.1,9.8-0.4
			c0,0.4-0.5,0.6-1.4,0.6C685.5,7.7,682.7,7.6,680,7.4z M668.7,6.8c-0.2,0-0.4,0.1-0.5,0.1c-1.5,0.3-3,0-4.3-0.6
			c-0.1,0,0-0.1,0.1-0.1c0.9,0.3,1.9,0.5,2.9,0.6c-0.3-0.1-0.6-0.3-0.8-0.6h0.1c0.6,0.2,1.2,0.4,1.8,0.5c0.3-0.1,0.7-0.1,1.1-0.2
			c1.6-0.3,2.5,0.2,2.8,1.5c-0.2,0-0.3-0.1-0.5-0.1c-0.2-0.1-0.3-0.2-0.3-0.4c-0.2-0.8-0.8-1.1-2-0.8C668.9,6.7,668.8,6.7,668.7,6.8
			L668.7,6.8z M677.8,7.6c-1.8,0.6-3.7,0.8-5.5,0.5C674.2,7.9,676,7.8,677.8,7.6z"/>
		<path fill-rule="evenodd" clip-rule="evenodd" fill="#FFFFFF" fill-opacity="0.298" d="M713.3,5.1h14.2h0.2
			c-0.1,0.2-0.2,0.4-0.3,0.5c-0.1,0-0.4,0-1,0.1c-0.3,0-0.6,0.1-0.9,0.2c-0.7,0.2-1.8,0.5-3.5,0.8L720,7c-1.9,0.2-4.2,0.5-6.9,0.8
			c-6.7,0.7-15.6,1.2-26.8,1.5c-11.2,0.3-19.3,0-24-0.9c-4.8-0.9-8.1-1.6-10-2c-1.2-0.3-2.1-0.7-2.6-1.1c-0.1-0.1-0.2-0.2-0.3-0.3v0
			h6.9c1.2,0.8,2.7,0.9,4.3,0.4c-0.7-0.3-1.7-0.4-2.8-0.3c-0.5,0-0.9,0-1.2-0.1h55.8c-0.7,0.3-1.4,0.4-2.1,0.4
			c0.8,0.2,1.6,0.2,2.5-0.1C712.9,5.3,713.1,5.2,713.3,5.1z M653.9,7c-0.2-0.1-0.4-0.1-0.6-0.1c0.2,0,0.5,0.1,0.8,0.1
			C654,7,654,7,653.9,7z M704.5,5.5L704.5,5.5c-1.4,0.6-2.8,1-4.1,1.2c0.6,0.3,1.4,0.3,2.4,0C703.7,6.5,704.3,6,704.5,5.5z
			 M677.8,7.6c-1.7,0.1-3.6,0.3-5.5,0.5C674.1,8.4,675.9,8.3,677.8,7.6z M668.7,6.8L668.7,6.8c0.1,0,0.2-0.1,0.3-0.1
			c1.1-0.3,1.8,0,2,0.8c0,0.2,0.2,0.4,0.3,0.4c0.1,0,0.3,0.1,0.5,0.1c-0.3-1.4-1.3-1.9-2.8-1.5c-0.4,0.1-0.8,0.1-1.1,0.2
			c-0.6-0.1-1.1-0.3-1.8-0.5H666c0.3,0.2,0.5,0.4,0.8,0.6c-1,0-2-0.2-2.9-0.6c-0.1,0-0.2,0-0.1,0.1c1.3,0.7,2.8,0.9,4.3,0.6
			C668.3,6.8,668.5,6.8,668.7,6.8z M680,7.4c2.7,0.2,5.5,0.3,8.5,0.3c0.9,0,1.4-0.2,1.4-0.6C686.5,7.2,683.3,7.4,680,7.4z"/>
		<path fill-rule="evenodd" clip-rule="evenodd" fill="#FFFFFF" fill-opacity="8.627451e-002" d="M653.3,6.9c0.2,0,0.4,0.1,0.6,0.1
			c-0.6-0.1-1.3-0.2-1.9-0.2c2.1,0.5,4.3,1.2,6.6,2.2c2.3,0.9,7.5,1.4,15.6,1.6c8.1,0.2,14.3,0,18.5-0.4c7.5-0.1,12.2-0.5,14-1.3
			c4.2,0,8.5-0.3,12.9-0.8c3.7-0.4,5.4-0.8,4.9-1.2c-0.1-0.1-0.3-0.1-0.5-0.2c0.4,0,0.8,0,1.2-0.1c0.9-0.1,1.6-0.4,2-0.8
			c0.1-0.1,0.1-0.1,0.2-0.2c0.1-0.2,0.2-0.4,0.3-0.5h-0.2c0,0,0-0.1,0-0.1l0.1-0.4h0.2v0.1h0.2V59v13.6l-0.2,0.1
			c-0.2,1.1-0.7,2.1-1.7,3c-1.1,1-2.6,1.6-4.4,1.8v0.2c-11,2-23.2,3-36.6,2.8c-11.2-0.2-21.1-1-29.5-2.5c-2-0.4-3.6-1.2-4.8-2.5
			c-0.7-0.7-1.2-1.4-1.4-2.1l0,0v0c-0.1-0.4-0.2-0.9-0.1-1.3v-10V5.3v0c0,0,0.1,0.1,0.1,0.1c0,0,0-0.1,0-0.1V5.1
			c0.1,0.1,0.2,0.2,0.3,0.3c0.5,0.4,1.3,0.8,2.6,1.1c-0.2,0-0.4-0.1-0.6-0.1C652.1,6.6,652.7,6.7,653.3,6.9z M649.3,5.2L649.3,5.2
			L649.2,5C649.2,5.1,649.2,5.2,649.3,5.2z"/>
		<path fill-rule="evenodd" clip-rule="evenodd" fill="#FFFFFF" d="M713.4,2.6L713.4,2.6c-0.8,0.5-1.2,0.3-1.2-0.6c0,0,0,0,0,0
			C712.8,2.1,713.2,2.3,713.4,2.6z M706.1,1.9c-0.1-0.1,0-0.1,0.2-0.1c0.9-0.4,1.6-0.3,2,0.3v0C707.4,2.8,706.7,2.7,706.1,1.9z
			 M665,2.8c1-0.4,2.1-0.6,3.3-0.6C668.1,3.1,667,3.4,665,2.8L665,2.8z M649.3,5.3c0,0,0,0.1,0,0.1c-0.1-0.1-0.1-0.1-0.1-0.1
			c0,0-0.1-0.1-0.1-0.1l0.1,0L649.3,5.3L649.3,5.3z"/>
	</g>
	<g>
		<path fill-rule="evenodd" clip-rule="evenodd" fill="#FFFFFF" d="M702.3,10.8c0.4,0,0.8,0.1,1.2,0.5c0.3,0.3,0.5,0.6,0.5,1
			c0,0,0,0.1,0,0.2c0,0.5-0.2,0.9-0.5,1.2l0,0c-0.3,0.3-0.7,0.5-1.2,0.5c-0.5,0-0.9-0.2-1.3-0.5c-0.3-0.4-0.5-0.8-0.5-1.3
			c0-0.4,0.1-0.8,0.5-1.1l0,0C701.4,10.9,701.8,10.7,702.3,10.8z M703.6,12.2c-0.1-0.3-0.3-0.6-0.5-0.8c-0.2-0.2-0.5-0.4-0.8-0.4
			s-0.7,0.1-1,0.4c-0.2,0.3-0.3,0.6-0.3,0.9c0,0.4,0.1,0.7,0.3,1c0.3,0.3,0.6,0.4,1,0.4s0.7-0.1,0.8-0.4h0.1
			c0.1-0.1,0.1-0.2,0.3-0.3c0.1-0.2,0.1-0.4,0.1-0.7C703.6,12.3,703.6,12.2,703.6,12.2z"/>
	</g>
	<g>
		<path fill-rule="evenodd" clip-rule="evenodd" fill="#FFFFFF" d="M674.3,18.1L674.3,18.1c0.3-0.3,0.6-0.4,0.9-0.4
			c0.3,0,0.6,0.1,0.8,0.3c0.2,0.2,0.4,0.4,0.4,0.7c0,0,0,0.1,0,0.1c0,0.3-0.1,0.6-0.3,0.9l0,0c-0.2,0.2-0.5,0.3-0.8,0.4
			c-0.3,0-0.6-0.1-0.9-0.4c-0.2-0.3-0.3-0.6-0.3-0.9C673.9,18.6,674,18.3,674.3,18.1z M675.2,18c-0.3,0-0.5,0.1-0.7,0.3
			c-0.2,0.2-0.3,0.4-0.3,0.6c0,0.3,0.1,0.5,0.3,0.7c0.2,0.2,0.4,0.3,0.7,0.3s0.5-0.1,0.6-0.3h0c0.1-0.1,0.1-0.1,0.2-0.2
			c0.1-0.1,0.1-0.3,0.1-0.5c0-0.1,0-0.1,0-0.1c-0.1-0.2-0.2-0.4-0.3-0.5C675.6,18.1,675.4,18,675.2,18z"/>
	</g>
	<g>
		<path fill-rule="evenodd" clip-rule="evenodd" fill="#FFFFFF" d="M676.3,21.5c0-0.4,0.1-0.7,0.3-1l0.1,0c0.3-0.3,0.6-0.4,1-0.4
			c0.4,0,0.7,0.1,0.9,0.4c0.3,0.2,0.4,0.5,0.5,0.8c0,0.1,0,0.1,0,0.2c0,0.4-0.1,0.7-0.4,1l0,0c-0.2,0.2-0.5,0.4-0.9,0.5
			c-0.4,0-0.8-0.2-1.1-0.5C676.3,22.2,676.2,21.9,676.3,21.5z M678.3,20.7c-0.2-0.2-0.4-0.3-0.7-0.3c-0.3,0-0.6,0.1-0.8,0.3
			c-0.2,0.2-0.3,0.5-0.3,0.8s0.1,0.5,0.3,0.8c0.2,0.2,0.5,0.4,0.8,0.4c0.3,0,0.5-0.1,0.7-0.4l0.1,0c0.1-0.1,0.2-0.1,0.2-0.2
			c0.1-0.2,0.2-0.3,0.2-0.5c0-0.1,0-0.1,0-0.2C678.6,21.1,678.5,20.9,678.3,20.7z"/>
	</g>
</g>
<g>
	<path fill-rule="evenodd" clip-rule="evenodd" fill="#FFFFFF" fill-opacity="8.627451e-002" d="M808.5,5.1c0,0,0-0.1,0-0.1l0.1-0.4
		h0.2v0.1h0.2V59v13.6l-0.2,0.1c-0.2,1.1-0.7,2.1-1.7,3c-1.1,1-2.6,1.6-4.4,1.8v0.2c-11,2-23.2,3-36.6,2.8
		c-11.2-0.2-21.1-1-29.5-2.5c-2-0.4-3.6-1.2-4.8-2.5c-0.7-0.7-1.2-1.4-1.4-2.1l0,0v0c-0.1-0.4-0.2-0.9-0.1-1.3v-10V5.3v0
		c0,0,0.1,0.1,0.1,0.1c0,0,0-0.1,0-0.1V5.1c0.1,0.1,0.2,0.2,0.3,0.3c0.5,0.4,1.3,0.8,2.6,1.1c-0.2,0-0.4-0.1-0.6-0.1
		c0.5,0.1,1.1,0.3,1.8,0.4c1.2,0.3,2.7,0.5,4.5,0.8c-2.4-0.3-4.3-0.5-5.8-0.9c2.1,0.5,5.3,1.1,9.7,1.7c5.5,0.8,11.5,1.1,18.1,1.1
		c6.6,0,11.3,0,14.1,0.2v0.1c5-0.4,9.3-0.7,12.9-1c3.4-0.2,6.5-0.5,9.4-0.9c7-0.8,10.8-1.8,11.5-2.9H808.5z M730.3,5.2L730.3,5.2
		L730.2,5C730.2,5.1,730.2,5.1,730.3,5.2z"/>
	<path fill-rule="evenodd" clip-rule="evenodd" fill="#FFFFFF" fill-opacity="0.298" d="M730.3,5.1L730.3,5.1l78.2,0h0.2
		c-0.6,1.1-4.5,2-11.5,2.9c-2.9,0.4-6,0.7-9.4,0.9c2.5-0.2,4.6-0.5,6.5-0.6c6.6-0.7,10.6-1.3,12.2-2c-0.5,0.1-1,0.3-1.8,0.4
		c-0.2,0-0.4,0.1-0.6,0.1c-1.2,0.2-2.7,0.4-4.6,0.6c1.8-0.2,3.3-0.5,4.5-0.7c1.1-0.2,2-0.5,2.5-0.7c-0.8,0.3-2.1,0.5-3.8,0.8
		l-2.2,0.3c-1.4,0.2-2.9,0.3-4.7,0.5c-7.6,0.7-16.7,1-27.4,1c-10.7,0-19.9-0.4-27.4-1c-3.4-0.3-6-0.7-7.9-1.1
		c-1.2-0.3-2.1-0.7-2.6-1.1C730.5,5.4,730.4,5.3,730.3,5.1z M734.3,6.9c1.5,0.3,3.5,0.6,6,0.9c-0.5,0-1-0.1-1.5-0.1
		C737.1,7.4,735.6,7.1,734.3,6.9z"/>
	<path fill-rule="evenodd" clip-rule="evenodd" fill="#FFFFFF" fill-opacity="0.9882" d="M738.8,7.6c0.4,0,0.9,0.1,1.5,0.1
		c-2.4-0.3-4.4-0.6-6-0.9c-0.7-0.1-1.3-0.3-1.8-0.4c0.2,0,0.4,0.1,0.6,0.1c1.9,0.4,4.5,0.7,7.9,1.1c7.5,0.7,16.7,1,27.4,1
		c10.7,0,19.8-0.4,27.4-1c1.7-0.2,3.3-0.3,4.7-0.5l2.2-0.3c1.7-0.3,3-0.6,3.8-0.8c-0.5,0.2-1.4,0.5-2.5,0.7
		c-1.2,0.2-2.7,0.5-4.5,0.7c1.9-0.2,3.4-0.4,4.6-0.6c0.2,0,0.4-0.1,0.6-0.1c0.7-0.2,1.3-0.3,1.8-0.4c-1.5,0.7-5.6,1.3-12.2,2
		c-1.9,0.2-4,0.4-6.5,0.6c-3.6,0.3-7.9,0.6-12.9,1V9.8c-2.8-0.2-7.5-0.2-14.1-0.2c-6.6,0-12.6-0.3-18.1-1.1
		c-4.4-0.6-7.6-1.2-9.7-1.7C734.5,7.1,736.5,7.4,738.8,7.6z"/>
	<path fill-rule="evenodd" clip-rule="evenodd" fill="#FFFFFF" d="M730.2,5.1L730.2,5.1l0.1,0.1c0,0,0,0.1,0,0.1
		C730.2,5.3,730.2,5.2,730.2,5.1c0,0-0.1,0-0.1,0L730.2,5.1z"/>
</g>
</svg>
