<?xml version="1.0" encoding="utf-8"?>
<!-- Generator: Adobe Illustrator 16.0.0, SVG Export Plug-In . SVG Version: 6.00 Build 0)  -->
<!DOCTYPE svg PUBLIC "-//W3C//DTD SVG 1.1//EN" "http://www.w3.org/Graphics/SVG/1.1/DTD/svg11.dtd">
<svg version="1.1" id="Layer_1" xmlns="http://www.w3.org/2000/svg" xmlns:xlink="http://www.w3.org/1999/xlink" x="0px" y="0px"
	 width="93px" height="161px" viewBox="0 0 93 161" enable-background="new 0 0 93 161" xml:space="preserve">
<g>
	<g>
		<linearGradient id="SVGID_1_" gradientUnits="userSpaceOnUse" x1="9.9375" y1="-68.7241" x2="69.9184" y2="51.2979">
			<stop  offset="0" style="stop-color:#6D6D6D"/>
			<stop  offset="0.2314" style="stop-color:#7C7C7C"/>
			<stop  offset="0.5412" style="stop-color:#B5B5B5"/>
			<stop  offset="1" style="stop-color:#9D9D9D"/>
		</linearGradient>
		<path fill-rule="evenodd" clip-rule="evenodd" fill="url(#SVGID_1_)" d="M91.8,8L1.3,8.1V0.8h24c0.1,0.3,0.3,0.6,0.5,0.9
			c0.8,1,2.5,1.8,5,2.6C34.5,5.4,39.1,6,44.5,6c5.3,0,9.9-0.6,13.6-1.8c3.3-0.9,5.1-2.1,5.6-3.5h28.1V8z"/>
		<linearGradient id="SVGID_2_" gradientUnits="userSpaceOnUse" x1="-97.9126" y1="17.0254" x2="311.0124" y2="17.0254">
			<stop  offset="0" style="stop-color:#A48B77"/>
			<stop  offset="0.1255" style="stop-color:#373634"/>
			<stop  offset="0.2078" style="stop-color:#B3ADAA"/>
			<stop  offset="0.3137" style="stop-color:#A48D6B"/>
			<stop  offset="0.3765" style="stop-color:#4A4947"/>
			<stop  offset="0.4549" style="stop-color:#363533"/>
			<stop  offset="0.5333" style="stop-color:#AA8D6D"/>
			<stop  offset="0.6627" style="stop-color:#E9E3E2"/>
			<stop  offset="0.7529" style="stop-color:#D6D6D6"/>
			<stop  offset="0.8627" style="stop-color:#615851"/>
			<stop  offset="1" style="stop-color:#CFCAC0"/>
		</linearGradient>
		<polygon fill-rule="evenodd" clip-rule="evenodd" fill="url(#SVGID_2_)" points="91.8,21.1 1.3,21.1 1.3,13 91.8,13 		"/>
		
			<linearGradient id="SVGID_3_" gradientUnits="userSpaceOnUse" x1="-80.1636" y1="37.3486" x2="204.3624" y2="37.3486" gradientTransform="matrix(0.7794 -0.6266 0.8883 0.5689 6.411076e-004 -3.185272e-004)">
			<stop  offset="0" style="stop-color:#888888"/>
			<stop  offset="9.411765e-002" style="stop-color:#AAAAAA"/>
			<stop  offset="0.1882" style="stop-color:#6A6A6A"/>
			<stop  offset="0.3451" style="stop-color:#888888"/>
			<stop  offset="0.5686" style="stop-color:#FFFFFF"/>
			<stop  offset="0.7294" style="stop-color:#737373"/>
			<stop  offset="0.7725" style="stop-color:#D0D0D0"/>
			<stop  offset="0.9098" style="stop-color:#9D9D9D"/>
		</linearGradient>
		<polygon fill-rule="evenodd" clip-rule="evenodd" fill="url(#SVGID_3_)" points="1.3,13 1.3,8.1 91.8,8 91.8,13 		"/>
		<linearGradient id="SVGID_4_" gradientUnits="userSpaceOnUse" x1="23.9932" y1="80.4268" x2="69.6173" y2="103.0539">
			<stop  offset="0" style="stop-color:#024E93"/>
			<stop  offset="0.4902" style="stop-color:#0494F2"/>
			<stop  offset="1" style="stop-color:#024E93"/>
		</linearGradient>
		<path fill-rule="evenodd" clip-rule="evenodd" fill="url(#SVGID_4_)" d="M62.4,89.2l0.3,3.1h-2.2L62.4,89.2z M70.5,89.2l0.2-0.8
			h-5.3l-0.2,0.8h2.3l-1.3,5.5H67l1.3-5.5H70.5z M76.3,88.5h-0.8L75,91h-3.2l0.6-2.5h-0.9l-1.5,6.3H71l0.7-3.1h3.1L74,94.8h0.9
			L76.3,88.5z M58.3,94.8h0.8l1.1-1.8h2.7l0.2,1.8h0.9l-0.8-6.3H62L58.3,94.8z M57,91.8c0.1,0.1,0.2,0.2,0.3,0.3
			c0.1,0.1,0.1,0.2,0.1,0.3c0,0.3,0,0.5-0.1,0.8c-0.1,0.2-0.3,0.4-0.6,0.5C56.4,93.9,56.2,94,56,94s-0.5,0-0.9,0H54l0.5-2.3h1.3
			c0.3,0,0.6,0,0.8,0C56.7,91.7,56.8,91.8,57,91.8z M47,89.2c0.2,0,0.4,0,0.6,0c0.2,0,0.3,0.1,0.4,0.2c0.1,0.1,0.2,0.1,0.2,0.3
			c0,0.1,0,0.2,0,0.4c0,0.2,0,0.5-0.2,0.7c-0.1,0.2-0.3,0.4-0.4,0.5c-0.1,0.1-0.3,0.2-0.5,0.3c-0.2,0-0.5,0-0.8,0h-0.9l0.6-2.4H47z
			 M49,89.3c-0.1-0.2-0.2-0.3-0.4-0.5c-0.2-0.1-0.4-0.2-0.6-0.3c-0.2-0.1-0.5-0.1-1-0.1h-1.7L44,94.8h0.8l0.6-2.5h1.2l1.7,2.5h1
			L47.4,92c0.5-0.2,1-0.5,1.3-0.8c0.3-0.4,0.5-0.9,0.5-1.4C49.2,89.6,49.1,89.4,49,89.3z M43.9,89.2l0.2-0.8h-4.1l-1.4,6.3h4.1
			l0.1-0.7h-3.3l0.5-2.4h3.3l0.2-0.7h-3.3l0.4-1.8H43.9z M56,89.2c0.3,0,0.5,0,0.7,0c0.2,0,0.3,0,0.5,0.1c0.1,0,0.1,0.1,0.2,0.2
			c0,0.1,0.1,0.2,0.1,0.3c0,0.2-0.1,0.4-0.2,0.5c-0.1,0.2-0.2,0.4-0.4,0.5c-0.1,0.1-0.3,0.1-0.4,0.2c-0.2,0-0.4,0-0.7,0h-1.1
			l0.4-1.8H56z M56.2,88.5h-1.8L53,94.8h2.3c0.4,0,0.8,0,1.1-0.1c0.3-0.1,0.6-0.2,0.9-0.4c0.3-0.2,0.5-0.5,0.7-0.8
			c0.2-0.3,0.3-0.6,0.3-1c0-0.3-0.1-0.6-0.3-0.8c-0.2-0.2-0.4-0.3-0.8-0.4v0c0.4-0.2,0.6-0.4,0.8-0.7s0.3-0.6,0.3-1
			c0-0.2,0-0.4-0.1-0.5c-0.1-0.2-0.2-0.3-0.4-0.3c-0.2-0.1-0.4-0.2-0.6-0.3C57,88.5,56.7,88.5,56.2,88.5z M81.5,99.5H11.9V84h69.6
			V99.5z M31.1,92.3h-2.2l1.9-3.1L31.1,92.3z M31.5,88.5h-1.1l-3.8,6.3h0.9l1-1.8h2.7l0.2,1.8h0.9L31.5,88.5z M33.8,88.5l-0.1,0.8
			h2.3l-1.3,5.5h0.9l1.3-5.5h2.2l0.2-0.8H33.8z M20.5,88.5h-0.9l0.3,6.3h0.9l2.5-5.2l0.2,5.2h1l3-6.3h-0.8L24,93.8l-0.1-5.3H23
			l-2.4,5.3L20.5,88.5z"/>
		<path fill-rule="evenodd" clip-rule="evenodd" fill="#FFFFFF" d="M56.2,88.5c0.5,0,0.8,0,1,0c0.2,0,0.5,0.1,0.6,0.3
			c0.1,0.1,0.3,0.2,0.4,0.3c0.1,0.1,0.1,0.3,0.1,0.5c0,0.4-0.1,0.7-0.3,1s-0.5,0.5-0.8,0.7v0c0.3,0.1,0.6,0.2,0.8,0.4
			c0.2,0.2,0.3,0.5,0.3,0.8c0,0.4-0.1,0.7-0.3,1c-0.2,0.3-0.4,0.6-0.7,0.8c-0.3,0.2-0.5,0.3-0.9,0.4c-0.3,0.1-0.7,0.1-1.1,0.1H53
			l1.5-6.3H56.2z M56,89.2h-1L54.7,91h1.1c0.2,0,0.5,0,0.7,0c0.2,0,0.3-0.1,0.4-0.2c0.2-0.1,0.3-0.3,0.4-0.5
			c0.1-0.2,0.2-0.3,0.2-0.5c0-0.1,0-0.2-0.1-0.3c-0.1-0.1-0.1-0.2-0.2-0.2c-0.1-0.1-0.3-0.1-0.5-0.1C56.5,89.2,56.3,89.2,56,89.2z
			 M43.9,89.2h-3.3L40.1,91h3.3l-0.2,0.7H40L39.5,94h3.3l-0.1,0.7h-4.1l1.4-6.3H44L43.9,89.2z M49,89.3c0.1,0.1,0.1,0.3,0.1,0.6
			c0,0.5-0.2,1-0.5,1.4c-0.3,0.4-0.8,0.7-1.3,0.8l1.8,2.7h-1l-1.7-2.5h-1.2l-0.6,2.5H44l1.4-6.3h1.7c0.4,0,0.7,0,1,0.1
			c0.2,0,0.4,0.1,0.6,0.3C48.8,88.9,49,89.1,49,89.3z M47,89.2h-0.9l-0.6,2.4h0.9c0.3,0,0.5,0,0.8,0c0.2-0.1,0.4-0.2,0.5-0.3
			c0.2-0.2,0.3-0.3,0.4-0.5c0.1-0.2,0.2-0.4,0.2-0.7c0-0.2,0-0.3,0-0.4c0-0.1-0.1-0.2-0.2-0.3c-0.1-0.1-0.2-0.2-0.4-0.2
			C47.4,89.2,47.2,89.2,47,89.2z M57,91.8c-0.1-0.1-0.3-0.1-0.5-0.1c-0.2,0-0.4,0-0.8,0h-1.3L54,94h1.1c0.4,0,0.7,0,0.9,0
			s0.4-0.1,0.6-0.2c0.2-0.1,0.4-0.3,0.6-0.5c0.1-0.2,0.1-0.5,0.1-0.8c0-0.2,0-0.3-0.1-0.3C57.2,92,57.1,92,57,91.8z M58.3,94.8
			l3.8-6.3h1.1l0.8,6.3H63L62.8,93h-2.7l-1.1,1.8H58.3z M76.3,88.5l-1.4,6.3H74l0.8-3.1h-3.1L71,94.8h-0.9l1.5-6.3h0.9L71.8,91H75
			l0.5-2.5H76.3z M70.5,89.2h-2.2L67,94.8h-0.8l1.3-5.5h-2.3l0.2-0.8h5.3L70.5,89.2z M62.4,89.2l-1.9,3.1h2.2L62.4,89.2z M20.5,88.5
			l0.1,5.3l2.4-5.3h0.9l0.1,5.3l2.5-5.3h0.8l-3,6.3h-1l-0.2-5.2l-2.5,5.2h-0.9l-0.3-6.3H20.5z M33.8,88.5h5.4l-0.2,0.8h-2.2
			l-1.3,5.5h-0.9l1.3-5.5h-2.3L33.8,88.5z M31.5,88.5l0.8,6.3h-0.9L31.2,93h-2.7l-1,1.8h-0.9l3.8-6.3H31.5z M31.1,92.3l-0.4-3.1
			l-1.9,3.1H31.1z"/>
		<linearGradient id="SVGID_5_" gradientUnits="userSpaceOnUse" x1="46.4648" y1="16.7529" x2="46.54" y2="171.8029">
			<stop  offset="7.843138e-003" style="stop-color:#C6CCD2"/>
			<stop  offset="3.529412e-002" style="stop-color:#E5E9EC"/>
			<stop  offset="5.490196e-002" style="stop-color:#C6CCD2"/>
			<stop  offset="0.9804" style="stop-color:#95A6A6"/>
			<stop  offset="1" style="stop-color:#627373"/>
		</linearGradient>
		<path fill-rule="evenodd" clip-rule="evenodd" fill="url(#SVGID_5_)" d="M91.8,21.1v138.6H1.3V21.1L91.8,21.1z M81.5,99.5V84H11.9
			v15.5H81.5z"/>
		<linearGradient id="SVGID_6_" gradientUnits="userSpaceOnUse" x1="26.3501" y1="1.1748" x2="62.4501" y2="1.1748">
			<stop  offset="0" style="stop-color:#999999"/>
			<stop  offset="0.5412" style="stop-color:#FFFFFF"/>
			<stop  offset="1" style="stop-color:#949494"/>
		</linearGradient>
		<path fill-rule="evenodd" clip-rule="evenodd" fill="url(#SVGID_6_)" d="M25.3,0.8h0.9C26,1,25.8,1.3,25.8,1.6
			C25.5,1.3,25.3,1,25.3,0.8z"/>
	</g>
</g>
</svg>
