<?xml version="1.0" encoding="utf-8"?>
<!-- Generator: Adobe Illustrator 16.0.0, SVG Export Plug-In . SVG Version: 6.00 Build 0)  -->
<!DOCTYPE svg PUBLIC "-//W3C//DTD SVG 1.1//EN" "http://www.w3.org/Graphics/SVG/1.1/DTD/svg11.dtd">
<svg version="1.1" id="Layer_3" xmlns="http://www.w3.org/2000/svg" xmlns:xlink="http://www.w3.org/1999/xlink" x="0px" y="0px"
	 width="299.9px" height="36.4px" viewBox="0 0 299.9 36.4" enable-background="new 0 0 299.9 36.4" xml:space="preserve">
<linearGradient id="SVGID_1_" gradientUnits="userSpaceOnUse" x1="9.7996" y1="4.2" x2="21.2996" y2="4.2">
	<stop  offset="0" style="stop-color:#F8EE62"/>
	<stop  offset="0.4784" style="stop-color:#F6EB16;stop-opacity:0.4784"/>
	<stop  offset="0.7529" style="stop-color:#F6EB16;stop-opacity:0.298"/>
	<stop  offset="1" style="stop-color:#F6EB16;stop-opacity:0"/>
</linearGradient>
<path fill="url(#SVGID_1_)" d="M11.2,5.3c1.2,2.1,2.6,3.1,4.3,3.1s3.1-1.1,4.3-3.1C20.5,4,21,1.6,21.3,0H9.8C10,1.5,10.5,4,11.2,5.3
	z"/>
<linearGradient id="SVGID_2_" gradientUnits="userSpaceOnUse" x1="45.4001" y1="-10.6501" x2="45.4001" y2="9.9495">
	<stop  offset="0" style="stop-color:#F8EE62"/>
	<stop  offset="0.4784" style="stop-color:#F6EB16;stop-opacity:0.4784"/>
	<stop  offset="0.7529" style="stop-color:#F6EB16;stop-opacity:0.298"/>
	<stop  offset="1" style="stop-color:#F6EB16;stop-opacity:0"/>
</linearGradient>
<path fill="url(#SVGID_2_)" d="M38.1,21.8c2,3.3,4.5,4.9,7.3,4.9s5.3-1.6,7.3-4.9s3-17.1,3-21.8H35.1C35.1,4.7,36.1,18.5,38.1,21.8z
	"/>
<linearGradient id="SVGID_3_" gradientUnits="userSpaceOnUse" x1="74.9001" y1="-12.0002" x2="74.9001" y2="11.9998">
	<stop  offset="0" style="stop-color:#F8EE62"/>
	<stop  offset="0.4784" style="stop-color:#F6EB16;stop-opacity:0.4784"/>
	<stop  offset="0.7529" style="stop-color:#F6EB16;stop-opacity:0.298"/>
	<stop  offset="1" style="stop-color:#F6EB16;stop-opacity:0"/>
</linearGradient>
<path fill="url(#SVGID_3_)" d="M62.9,21.9c0.6,1.5,1.4,3,2.2,4.3C68,30.7,71.3,33,75.4,33c4.1,0,7.5-2.3,10.4-6.8
	c0.3-0.7,0.7-1.3,1.1-2V0h-24V21.9z"/>
<linearGradient id="SVGID_4_" gradientUnits="userSpaceOnUse" x1="104.9001" y1="-5.0002" x2="104.9001" y2="18.9998">
	<stop  offset="0" style="stop-color:#F8EE62"/>
	<stop  offset="0.4784" style="stop-color:#F6EB16;stop-opacity:0.4784"/>
	<stop  offset="0.7529" style="stop-color:#F6EB16;stop-opacity:0.298"/>
	<stop  offset="1" style="stop-color:#F6EB16;stop-opacity:0"/>
</linearGradient>
<path fill="url(#SVGID_4_)" d="M92.9,27.3c3.5,4.8,7.7,7.2,12.4,7.2c4.4,0,8.3-2.1,11.6-6.3V0h-24V27.3z"/>
<linearGradient id="SVGID_5_" gradientUnits="userSpaceOnUse" x1="134.8499" y1="-1.3" x2="134.8499" y2="22.8005">
	<stop  offset="0" style="stop-color:#F8EE62"/>
	<stop  offset="0.4784" style="stop-color:#F6EB16;stop-opacity:0.4784"/>
	<stop  offset="0.7529" style="stop-color:#F6EB16;stop-opacity:0.298"/>
	<stop  offset="1" style="stop-color:#F6EB16;stop-opacity:0"/>
</linearGradient>
<path fill="url(#SVGID_5_)" d="M122.8,28.5c3.6,3.6,7.7,5.4,12.3,5.4c4.4,0,8.3-1.6,11.8-4.8V0h-24.1V28.5z"/>
<linearGradient id="SVGID_6_" gradientUnits="userSpaceOnUse" x1="164.8503" y1="2.3997" x2="164.8503" y2="26.5002">
	<stop  offset="0" style="stop-color:#F8EE62"/>
	<stop  offset="0.4784" style="stop-color:#F6EB16;stop-opacity:0.4784"/>
	<stop  offset="0.7529" style="stop-color:#F6EB16;stop-opacity:0.298"/>
	<stop  offset="1" style="stop-color:#F6EB16;stop-opacity:0"/>
</linearGradient>
<path fill="url(#SVGID_6_)" d="M152.8,29.2c3.7,2.7,7.8,4.1,12.2,4.1c4.3,0,8.3-1.3,11.9-3.9V0h-24.1V29.2z"/>
<linearGradient id="SVGID_7_" gradientUnits="userSpaceOnUse" x1="194.9998" y1="1.6501" x2="194.9998" y2="30.8504">
	<stop  offset="0" style="stop-color:#F8EE62"/>
	<stop  offset="0.4784" style="stop-color:#F6EB16;stop-opacity:0.4784"/>
	<stop  offset="0.7529" style="stop-color:#F6EB16;stop-opacity:0.298"/>
	<stop  offset="1" style="stop-color:#F6EB16;stop-opacity:0"/>
</linearGradient>
<path fill="url(#SVGID_7_)" d="M183,0v31.4c3.7,2.3,7.8,3.4,12.1,3.4c4.3,0,8.2-1.1,11.9-3.3V0H183z"/>
<linearGradient id="SVGID_8_" gradientUnits="userSpaceOnUse" x1="225.0505" y1="12.0544" x2="225.0066" y2="36.155">
	<stop  offset="0" style="stop-color:#F8EE62"/>
	<stop  offset="0.4784" style="stop-color:#F6EB16;stop-opacity:0.4784"/>
	<stop  offset="0.7529" style="stop-color:#F6EB16;stop-opacity:0.298"/>
	<stop  offset="1" style="stop-color:#F6EB16;stop-opacity:0"/>
</linearGradient>
<path fill="url(#SVGID_8_)" d="M237,25.2V0h-24v25.2c0.5,3.5,2.3,6,5.4,7.6c2.2,1.1,4.4,1.6,6.8,1.6c0.7,0,1.3,0,2-0.1
	c3.3-0.5,6-2,7.9-4.7c0.2-0.3,0.3-0.5,0.5-0.8l1-2.1C236.7,26.2,236.9,25.8,237,25.2l0.1,0.1L237,25.2z"/>
<linearGradient id="SVGID_9_" gradientUnits="userSpaceOnUse" x1="255.0496" y1="17.7" x2="255.0496" y2="41.8005">
	<stop  offset="0" style="stop-color:#F8EE62"/>
	<stop  offset="0.4784" style="stop-color:#F6EB16;stop-opacity:0.4784"/>
	<stop  offset="0.7529" style="stop-color:#F6EB16;stop-opacity:0.298"/>
	<stop  offset="1" style="stop-color:#F6EB16;stop-opacity:0"/>
</linearGradient>
<path fill="url(#SVGID_9_)" d="M267,26.2V0h-24v26.2c0.5,3.5,2.3,6,5.4,7.6c2.2,1.1,4.4,1.6,6.8,1.6c0.7,0,1.3,0,2-0.1
	c3.3-0.5,6-2,7.9-4.7c0.2-0.3,0.3-0.5,0.5-0.8l1-2.1C266.7,27.2,266.9,26.8,267,26.2l0.1,0.1L267,26.2z"/>
<linearGradient id="SVGID_10_" gradientUnits="userSpaceOnUse" x1="284.95" y1="25.825" x2="284.95" y2="49.9246">
	<stop  offset="0" style="stop-color:#F8EE62"/>
	<stop  offset="0.4784" style="stop-color:#F6EB16;stop-opacity:0.4784"/>
	<stop  offset="0.7529" style="stop-color:#F6EB16;stop-opacity:0.298"/>
	<stop  offset="1" style="stop-color:#F6EB16;stop-opacity:0"/>
</linearGradient>
<path fill="url(#SVGID_10_)" d="M296.9,26.2V0h-24v26.2c0.5,3.5,2.3,6,5.4,7.6c2.2,1.1,4.4,1.6,6.8,1.6c0.7,0,1.3,0,2-0.1
	c3.3-0.5,6-2,7.9-4.7c0.2-0.3,0.3-0.5,0.5-0.8l1-2.1c0.1-0.5,0.3-0.9,0.4-1.4h0.1L296.9,26.2z"/>
</svg>
