<?xml version="1.0" encoding="utf-8"?>
<!-- Generator: Adobe Illustrator 16.0.0, SVG Export Plug-In . SVG Version: 6.00 Build 0)  -->
<!DOCTYPE svg PUBLIC "-//W3C//DTD SVG 1.1//EN" "http://www.w3.org/Graphics/SVG/1.1/DTD/svg11.dtd">
<svg version="1.1" xmlns="http://www.w3.org/2000/svg" xmlns:xlink="http://www.w3.org/1999/xlink" x="0px" y="0px" width="25px"
	 height="54.7px" viewBox="272.4 -18.3 25 54.7" enable-background="new 272.4 -18.3 25 54.7" xml:space="preserve">
<g id="Layer_2">
</g>
<g id="Layer_4">
	<linearGradient id="SVGID_1_" gradientUnits="userSpaceOnUse" x1="284.95" y1="0.1526" x2="284.95" y2="-14.6201">
		<stop  offset="0" style="stop-color:#F8EE62"/>
		<stop  offset="0.4784" style="stop-color:#F6EB16;stop-opacity:0.4784"/>
		<stop  offset="1" style="stop-color:#FFFFFF;stop-opacity:0.25"/>
	</linearGradient>
	<path fill="url(#SVGID_1_)" d="M296.5,3.4c0.1-0.5,0.3-0.9,0.4-1.4h0.1l-0.1-0.1v-20.2h-24V1.9"/>
</g>
<g id="Layer_3">
	<linearGradient id="SVGID_2_" gradientUnits="userSpaceOnUse" x1="284.95" y1="25.825" x2="284.95" y2="49.9246">
		<stop  offset="0" style="stop-color:#F8EE62"/>
		<stop  offset="0.4784" style="stop-color:#F6EB16;stop-opacity:0.4784"/>
		<stop  offset="0.7529" style="stop-color:#F6EB16;stop-opacity:0.298"/>
		<stop  offset="1" style="stop-color:#F6EB16;stop-opacity:0"/>
	</linearGradient>
	<path fill="url(#SVGID_2_)" d="M296.9,26.2V0h-24v26.2c0.5,3.5,2.3,6,5.4,7.6c2.2,1.1,4.4,1.6,6.8,1.6c0.7,0,1.3,0,2-0.1
		c3.3-0.5,6-2,7.9-4.7c0.2-0.3,0.3-0.5,0.5-0.8l1-2.1c0.1-0.5,0.3-0.9,0.4-1.4h0.1L296.9,26.2z"/>
</g>
</svg>
